<?xml version="1.0" encoding="utf-8"?>
<!-- Generator: Adobe Illustrator 17.1.0, SVG Export Plug-In . SVG Version: 6.00 Build 0)  -->
<!DOCTYPE svg PUBLIC "-//W3C//DTD SVG 1.1//EN" "http://www.w3.org/Graphics/SVG/1.1/DTD/svg11.dtd">
<svg version="1.1" xmlns="http://www.w3.org/2000/svg" xmlns:xlink="http://www.w3.org/1999/xlink" x="0px" y="0px"
	 viewBox="282.6 140 174 60" enable-background="new 282.6 140 174 60" xml:space="preserve">
<g id="estimote">
</g>
<g id="Pebble">
</g>
<g id="Spark">
</g>
<g id="Layer_4">
</g>
<g id="Layer_5">
</g>
<g id="Layer_6">
</g>
<g id="Base">
</g>
<g id="yelp">
</g>
<g id="Yext">
</g>
<g id="Estimote">
</g>
<g id="Kloudless">
</g>
<g id="Microsoft">
</g>
<g id="Big_Viking">
</g>
<g id="_x35_00px">
</g>
<g id="Magnet_Forensics">
</g>
<g id="Guides">
</g>
<g id="Wit.Ai" display="none">
</g>
<g id="Layer_18">
	<g>
		<g>
			<path d="M329.7,180.2c-1.6,0-2.9-0.4-4-1.4l0.9-0.9c0.8,0.8,1.8,1.1,3,1.1c1.6,0,2.6-0.6,2.6-1.7c0-0.8-0.5-1.3-1.6-1.4l-1.6-0.1
				c-1.9-0.2-2.9-1-2.9-2.6c0-1.8,1.5-2.8,3.5-2.8c1.4,0,2.6,0.3,3.5,1l-0.9,0.9c-0.7-0.5-1.6-0.8-2.6-0.8c-1.4,0-2.2,0.6-2.2,1.6
				c0,0.8,0.5,1.3,1.7,1.4l1.5,0.1c1.7,0.2,2.8,0.8,2.8,2.6C333.6,179.1,332,180.2,329.7,180.2z"/>
			<path d="M337.9,180.1c-1.6,0-2.5-1.2-2.5-2.6v-5.9h-1.2v-1.1h1.2v-3h1.4v3h2.1v1.1h-2.1v5.9c0,0.9,0.4,1.4,1.3,1.4h0.7v1.2H337.9
				z"/>
			<path d="M346,180.1v-0.9c-0.8,0.8-1.5,1-2.8,1c-1.3,0-2.1-0.3-2.7-0.9c-0.5-0.5-0.7-1.2-0.7-2c0-1.7,1.2-2.8,3.3-2.8h2.9v-0.9
				c0-1.4-0.7-2.1-2.5-2.1c-1.2,0-1.9,0.3-2.4,1.1l-1-0.9c0.9-1.1,1.8-1.4,3.4-1.4c2.6,0,3.9,1.1,3.9,3.2v6.5H346z M346,175.6h-2.7
				c-1.4,0-2.2,0.6-2.2,1.7c0,1.1,0.7,1.6,2.2,1.6c0.8,0,1.5-0.1,2.2-0.6c0.3-0.3,0.5-0.9,0.5-1.7V175.6z"/>
			<path d="M353.6,180.2c-2.4,0-4.3-1.6-4.3-4.9c0-3.3,1.8-4.9,4.3-4.9c1.3,0,2.2,0.4,3.2,1.4l-1,0.9c-0.7-0.8-1.3-1.1-2.2-1.1
				c-0.9,0-1.7,0.4-2.2,1.1c-0.5,0.6-0.6,1.4-0.6,2.6c0,1.2,0.2,2,0.6,2.6c0.5,0.7,1.3,1.1,2.2,1.1c0.9,0,1.5-0.3,2.2-1.1l1,0.9
				C355.8,179.8,355,180.2,353.6,180.2z"/>
			<path d="M364.9,180.1l-3.1-4.9l-1.9,2.2v2.8h-1.4v-13.9h1.4v9.3l4.3-5h1.8l-3.3,3.7l3.8,6H364.9z"/>
			<path d="M374.7,178.9c-0.6,0.7-1.7,1.3-3.2,1.3c-1.5,0-2.5-0.6-3.2-1.3c-0.9-1-1.2-2.1-1.2-4c0-1.8,0.2-3,1.2-4
				c0.6-0.7,1.6-1.3,3.2-1.3c1.5,0,2.5,0.6,3.2,1.3c0.9,1,1.2,2.1,1.2,4C375.9,176.8,375.7,178,374.7,178.9z M372.8,172.5
				c-0.3-0.3-0.7-0.5-1.2-0.5c-0.5,0-0.9,0.2-1.2,0.5c-0.5,0.5-0.6,1.4-0.6,2.5c0,1.1,0.1,2,0.6,2.5c0.3,0.3,0.7,0.5,1.2,0.5
				c0.5,0,0.9-0.2,1.2-0.5c0.5-0.5,0.6-1.4,0.6-2.5C373.4,173.9,373.3,173,372.8,172.5z"/>
			<path d="M381.9,180.1h-2l-3.8-10.2h2.7l2.1,6.3l2.1-6.3h2.7L381.9,180.1z"/>
			<path d="M388.4,175.7c0,1.3,0.8,2.3,2.2,2.3c1.1,0,1.7-0.3,2.3-1l1.5,1.5c-1,1-2,1.6-3.9,1.6c-2.4,0-4.7-1.1-4.7-5.2
				c0-3.3,1.8-5.2,4.4-5.2c2.8,0,4.4,2.1,4.4,4.9v1.1H388.4z M392,172.9c-0.3-0.6-0.8-1.1-1.7-1.1c-0.9,0-1.4,0.5-1.7,1.1
				c-0.2,0.4-0.2,0.6-0.2,1.1h3.9C392.3,173.6,392.2,173.3,392,172.9z"/>
			<path d="M402.1,172.6c-0.4-0.4-0.7-0.6-1.4-0.6c-0.8,0-1.6,0.6-1.6,1.9v6.1h-2.5v-10.2h2.5v1c0.5-0.6,1.5-1.1,2.6-1.1
				c1,0,1.7,0.3,2.4,1L402.1,172.6z"/>
			<path d="M407.6,172.1v8h-2.5v-8H404v-1.9h1.1v-1.3c0-1.4,0.9-2.9,3-2.9h1.4v2.2h-1c-0.6,0-0.9,0.3-0.9,0.9v1.1h1.9v1.9H407.6z
				 M414.2,180.1c-2.1,0-3-1.5-3-2.9v-11h2.5V177c0,0.6,0.3,0.9,0.9,0.9h1v2.2H414.2z"/>
			<path d="M424,178.9c-0.6,0.7-1.7,1.3-3.2,1.3c-1.5,0-2.5-0.6-3.2-1.3c-0.9-1-1.2-2.1-1.2-4c0-1.8,0.2-3,1.2-4
				c0.6-0.7,1.6-1.3,3.2-1.3c1.5,0,2.5,0.6,3.2,1.3c0.9,1,1.2,2.1,1.2,4C425.2,176.8,424.9,178,424,178.9z M422,172.5
				c-0.3-0.3-0.7-0.5-1.2-0.5c-0.5,0-0.9,0.2-1.2,0.5c-0.5,0.5-0.6,1.4-0.6,2.5c0,1.1,0.1,2,0.6,2.5c0.3,0.3,0.7,0.5,1.2,0.5
				c0.5,0,0.9-0.2,1.2-0.5c0.5-0.5,0.6-1.4,0.6-2.5C422.6,173.9,422.6,173,422,172.5z"/>
			<path d="M437.1,180.1H435l-2.1-6.4l-2.1,6.4h-2.1l-3.1-10.2h2.7l1.6,6.3l2.1-6.3h1.9l2.1,6.3l1.6-6.3h2.7L437.1,180.1z"/>
		</g>
		<rect x="303.4" y="172.4" fill="#808084" width="14" height="3"/>
		
			<rect x="317.2" y="150.3" transform="matrix(0.171 0.9853 -0.9853 0.171 418.325 -193.5171)" fill="#F37A20" width="14" height="3"/>
		
			<rect x="303.6" y="167.9" transform="matrix(0.9958 9.168870e-02 -9.168870e-02 0.9958 16.8443 -27.7651)" fill="#A6896F" width="14" height="3"/>
		
			<rect x="304.5" y="162.8" transform="matrix(0.9657 0.2596 -0.2596 0.9657 53.3344 -75.2255)" fill="#BF9452" width="14" height="3"/>
		
			<rect x="306.6" y="157.5" transform="matrix(0.8613 0.508 -0.508 0.8613 124.2626 -137.2735)" fill="#D28A29" width="14" height="3"/>
		
			<rect x="311.2" y="152.7" transform="matrix(0.5634 0.8262 -0.8262 0.5634 266.3234 -195.5285)" fill="#F5891F" width="14" height="3"/>
		<path fill="#808084" d="M319.8,165.6v12.2h-18.4v-12.2H299v14.6h0c0,0,0.7,0,0.7,0h22.4v0c0,0,0-0.7,0-0.7v-13.9H319.8z"/>
	</g>
</g>
<g id="Kik">
</g>
<g id="Layer_20">
</g>
<g id="Affirm">
</g>
<g id="Shopify">
</g>
<g id="apple">
</g>
<g id="velocity">
</g>
<g id="pagerduty">
</g>
<g id="Layer_26">
</g>
<g id="bitalino">
</g>
<g id="TextNow">
</g>
<g id="Uber">
</g>
<g id="mars">
</g>
<g id="twilio">
</g>
<g id="wit-ai">
</g>
<g id="indiegogo">
</g>
<g id="Layer_34">
</g>
<g id="cisco">
</g>
<g id="teespring">
</g>
<g id="sendgrid">
</g>
</svg>
