<?xml version="1.0" encoding="utf-8"?>
<!-- Generator: Adobe Illustrator 17.1.0, SVG Export Plug-In . SVG Version: 6.00 Build 0)  -->
<!DOCTYPE svg PUBLIC "-//W3C//DTD SVG 1.1//EN" "http://www.w3.org/Graphics/SVG/1.1/DTD/svg11.dtd">
<svg version="1.1" xmlns="http://www.w3.org/2000/svg" xmlns:xlink="http://www.w3.org/1999/xlink" x="0px" y="0px"
	 viewBox="472.8 560 174 60" enable-background="new 472.8 560 174 60" xml:space="preserve">
<g id="estimote">
</g>
<g id="Pebble">
</g>
<g id="Spark">
</g>
<g id="Layer_4">
</g>
<g id="Layer_5">
</g>
<g id="Layer_6">
</g>
<g id="Base">
</g>
<g id="yelp">
</g>
<g id="Yext">
</g>
<g id="Estimote">
</g>
<g id="Microsoft">
</g>
<g id="Big_Viking">
</g>
<g id="_x35_00px">
</g>
<g id="Magnet_Forensics">
</g>
<g id="Guides">
</g>
<g id="Wit.Ai" display="none">
</g>
<g id="Layer_18">
</g>
<g id="Kik">
</g>
<g id="Layer_20">
</g>
<g id="Affirm">
</g>
<g id="Shopify">
</g>
<g id="apple">
</g>
<g id="velocity">
</g>
<g id="pagerduty">
</g>
<g id="Layer_26">
</g>
<g id="bitalino">
</g>
<g id="TextNow">
</g>
<g id="Uber">
</g>
<g id="mars">
</g>
<g id="twilio">
</g>
<g id="wit-ai">
</g>
<g id="indiegogo">
</g>
<g id="Layer_34">
</g>
<g id="cisco">
</g>
<g id="teespring">
</g>
<g id="sendgrid">
</g>
<g id="kloudless">
</g>
<g id="uwaterloo">
</g>
<g id="loblaws">
</g>
<g id="Layer_40">
</g>
<g id="Layer_41">
</g>
<g id="conrad">
</g>
<g id="ziggeo">
</g>
<g id="n36">
</g>
<g id="communitech">
</g>
<g id="Layer_46">
</g>
<g id="Backtrack">
</g>
<g id="Lani">
</g>
<g id="Taplytics">
</g>
<g id="Facebook">
</g>
<g id="Layer_51">
	<g>
		<g>
			<path fill="#00BCDD" d="M508.3,587.9c0-2.2-0.6-4.3-1.9-6.2c-0.2-0.3-0.6-0.5-1.1-0.5c-0.3,0-0.5,0.1-0.8,0.3
				c-0.6,0.4-0.7,1.2-0.3,1.8l0,0c0.9,1.4,1.4,3,1.4,4.6s-0.5,3.2-1.4,4.6l0,0c-0.2,0.2-0.5,0.2-0.7,0.1c-0.1-0.1-0.2-0.2-0.2-0.3
				c0-0.1,0-0.2,0.1-0.4l0,0c0.8-1.2,1.2-2.6,1.2-4c0-1.4-0.4-2.8-1.1-4l0,0c-0.2-0.3-0.6-0.5-1-0.5c-0.3,0-0.5,0.1-0.8,0.3
				c-0.3,0.2-0.5,0.5-0.5,0.9c-0.1,0.3,0,0.7,0.2,1c0.4,0.8,0.7,1.6,0.7,2.5c0,0.9-0.2,1.7-0.6,2.5l0,0c-0.2,0.2-0.5,0.2-0.7,0.1
				c-0.2-0.2-0.3-0.4-0.1-0.7l0,0c0.3-0.6,0.5-1.2,0.5-1.9c0-0.6-0.2-1.3-0.5-1.9c-0.2-0.4-0.6-0.6-1-0.6c-0.2,0-0.4,0.1-0.6,0.2
				c-0.3,0.2-0.5,0.7-0.5,1.5v11.7l0.1,0C504.1,598.1,508.2,593.5,508.3,587.9L508.3,587.9L508.3,587.9z M507.4,588
				c0,4.8-3.4,8.9-8.1,9.9v-10.7c0,0,0-0.1,0-0.1c0-0.2,0-0.7,0.1-0.8c0,0,0.1,0,0.1,0c0.1,0,0.3,0.1,0.4,0.3
				c0.2,0.2,0.3,0.9,0.3,1.4c0,0.5-0.1,1-0.3,1.4l0,0c-0.4,0.7-0.3,1.4,0.3,1.8c0.2,0.2,0.5,0.3,0.8,0.3c0.4,0,0.8-0.2,1.1-0.5
				c0.5-0.9,0.8-1.9,0.8-2.9c0-1-0.3-2.1-0.8-2.9l0,0c-0.1-0.1-0.1-0.2-0.1-0.4c0-0.1,0.1-0.2,0.2-0.3c0.2-0.2,0.5-0.1,0.7,0.1
				c0.7,1.1,1,2.3,1,3.5c0,1.3-0.3,2.5-1,3.5c-0.4,0.6-0.3,1.4,0.3,1.8c0.2,0.2,0.5,0.3,0.8,0.3c0.4,0,0.8-0.2,1.1-0.5
				c1-1.5,1.5-3.3,1.5-5.1c0-1.8-0.5-3.6-1.5-5.1l0,0c-0.1-0.1-0.1-0.2-0.1-0.4c0-0.1,0.1-0.2,0.2-0.3c0.2-0.2,0.5-0.1,0.7,0.1
				C506.9,583.9,507.4,585.9,507.4,588L507.4,588L507.4,588z"/>
			<path fill="#00BCDD" d="M486.2,587.9c0-2.2,0.6-4.3,1.9-6.2c0.2-0.3,0.6-0.5,1.1-0.5c0.3,0,0.5,0.1,0.8,0.3
				c0.6,0.4,0.7,1.2,0.3,1.8l0,0c-0.9,1.4-1.3,3-1.3,4.6s0.5,3.2,1.3,4.6l0,0c0.2,0.2,0.5,0.2,0.7,0.1c0.1-0.1,0.2-0.2,0.2-0.3
				c0-0.1,0-0.2-0.1-0.4l0,0c-0.8-1.2-1.2-2.6-1.2-4c0-1.4,0.4-2.8,1.1-4l0,0c0.2-0.3,0.6-0.5,1.1-0.5c0.3,0,0.6,0.1,0.8,0.3
				c0.3,0.2,0.5,0.5,0.5,0.9c0.1,0.3,0,0.7-0.2,1c-0.4,0.8-0.7,1.6-0.7,2.5c0,0.9,0.2,1.7,0.7,2.5l0,0c0.2,0.2,0.5,0.2,0.7,0.1
				c0.2-0.2,0.3-0.4,0.1-0.7l0,0c-0.3-0.6-0.5-1.2-0.5-1.9c0-0.6,0.2-1.3,0.5-1.9c0.2-0.4,0.6-0.6,1-0.6c0.2,0,0.4,0.1,0.6,0.2
				c0.3,0.2,0.5,0.7,0.5,1.5l0,11.7l-0.1,0C490.3,598.1,486.2,593.5,486.2,587.9L486.2,587.9L486.2,587.9z M487,588
				c0,4.8,3.4,8.9,8.1,9.9v-10.7c0,0,0-0.1,0-0.1c0-0.2,0-0.7-0.1-0.8c0,0-0.1,0-0.1,0c-0.1,0-0.3,0.1-0.4,0.3
				c-0.2,0.2-0.3,0.9-0.3,1.4c0,0.5,0.1,1,0.3,1.4l0,0c0.4,0.7,0.3,1.4-0.3,1.8c-0.2,0.2-0.5,0.3-0.8,0.3c-0.4,0-0.8-0.2-1.1-0.5
				c-0.5-0.9-0.8-1.9-0.8-2.9c0-1,0.3-2.1,0.8-2.9l0,0c0.1-0.1,0.1-0.2,0.1-0.4c0-0.1-0.1-0.2-0.2-0.3c-0.2-0.2-0.5-0.1-0.7,0.1
				c-0.7,1.1-1,2.3-1,3.5c0,1.3,0.3,2.5,1,3.5c0.4,0.6,0.3,1.4-0.3,1.8c-0.2,0.2-0.5,0.3-0.8,0.3c-0.4,0-0.8-0.2-1.1-0.5
				c-1-1.5-1.5-3.3-1.5-5.1c0-1.8,0.5-3.6,1.5-5.1l0,0c0.1-0.1,0.1-0.2,0.1-0.4c0-0.1-0.1-0.2-0.2-0.3c-0.2-0.2-0.5-0.1-0.7,0.1
				C487.6,583.9,487,585.9,487,588L487,588L487,588z"/>
		</g>
		<g>
			<g>
				<g>
					<g>
						<g>
							<path fill="#1E252B" d="M575,589.9c0-2.9,0.4-6.4,4.9-6.4c3.2,0,4.4,1.7,4.4,4.1h-2.5c0-1.6-0.9-2.3-1.9-2.3
								c-1.8,0-2.3,0.6-2.3,4.5c0,3.7,0.5,4.5,2.3,4.5c1.5,0,1.9-1.5,1.9-2.5h2.6c0,2.8-1.6,4.3-4.5,4.3
								C575.3,596.3,575,592.6,575,589.9z"/>
						</g>
					</g>
					<path fill="#1E252B" d="M521.2,586h-3.4v10.2h-2.6V586h-3.4v-2.2h9.5V586z"/>
					<path fill="#1E252B" d="M532.5,596.2h-2.6V591h-4.5v5.2h-2.6v-12.4h2.6v5h4.5v-5h2.6V596.2z"/>
					<path fill="#1E252B" d="M545.4,596.2h-2.7l-0.8-2.2h-4.7l-0.8,2.2h-2.7l4.8-12.4h2L545.4,596.2z M541.2,592l-1.6-4.5L538,592
						H541.2z"/>
					<path fill="#1E252B" d="M554.5,596.2h-7.9v-12.4h2.6V594h5.3V596.2z"/>
					<path fill="#1E252B" d="M567.8,596.2h-2.6V589l-2.5,4.7H561l-2.5-4.7v7.2h-2.6v-12.4h2.5l3.4,6.7l3.4-6.7h2.5V596.2z"/>
					<path fill="#1E252B" d="M573.1,596.2h-2.6v-12.4h2.6V596.2z"/>
				</g>
				<g>
					<path fill="#1E252B" d="M595.3,596.2h-8.1v-12.4h1.4V595h6.7V596.2z"/>
					<path fill="#1E252B" d="M605.1,596.2h-1.5l-1.1-2.8h-5.8l-1.1,2.8h-1.5l4.8-12.4h1.2L605.1,596.2z M602.2,592.2l-2.4-6.5
						l-2.5,6.5H602.2z"/>
					<path fill="#1E252B" d="M615.9,592.8c0,0.7-0.2,1.4-0.5,1.9c-0.3,0.5-0.8,0.9-1.4,1.2c-0.6,0.3-1.3,0.4-2.1,0.4h-5.1v-12.4h5
						c0.6,0,1.1,0.1,1.6,0.2c0.5,0.2,0.9,0.4,1.2,0.6c0.3,0.3,0.6,0.6,0.8,1c0.2,0.4,0.3,0.9,0.3,1.4c0,0.4-0.1,0.8-0.3,1.2
						c-0.2,0.4-0.4,0.7-0.7,0.9c-0.3,0.3-0.6,0.5-1,0.6c0.4,0.1,0.8,0.4,1.1,0.6c0.3,0.3,0.6,0.6,0.7,1
						C615.8,591.9,615.9,592.3,615.9,592.8z M614.3,587.1c0-0.7-0.2-1.2-0.7-1.6c-0.5-0.4-1.1-0.5-1.9-0.5h-3.4v4.3h3.4
						c0.8,0,1.4-0.2,1.9-0.5C614.1,588.4,614.3,587.8,614.3,587.1z M614.5,592.7c0-0.5-0.1-0.9-0.3-1.2c-0.2-0.3-0.5-0.6-0.9-0.8
						c-0.4-0.2-0.9-0.3-1.4-0.3h-3.6v4.5h3.6c0.8,0,1.5-0.2,1.9-0.6C614.3,594,614.5,593.4,614.5,592.7z"/>
					<path fill="#1E252B" d="M626.4,592.8c0,0.7-0.2,1.3-0.6,1.9c-0.4,0.5-0.9,0.9-1.6,1.2c-0.7,0.3-1.5,0.4-2.4,0.4
						c-0.7,0-1.3-0.1-1.8-0.2c-0.5-0.1-1-0.3-1.4-0.5c-0.4-0.2-0.9-0.6-1.3-0.9l1-0.9c0.4,0.3,0.7,0.6,1.1,0.8
						c0.4,0.2,0.7,0.3,1.1,0.4c0.4,0.1,0.9,0.1,1.4,0.1c1,0,1.7-0.2,2.3-0.6c0.6-0.4,0.8-1,0.8-1.7c0-0.3-0.1-0.6-0.2-0.9
						c-0.1-0.3-0.3-0.5-0.5-0.7c-0.2-0.2-0.4-0.3-0.6-0.4c-0.2-0.1-0.6-0.1-1.1-0.2l-1.5-0.2c-1-0.2-1.9-0.5-2.4-0.9
						c-0.7-0.6-1-1.3-1-2.3c0-0.7,0.2-1.3,0.5-1.8c0.3-0.5,0.8-0.9,1.5-1.2c0.6-0.3,1.4-0.4,2.2-0.4c0.8,0,1.6,0.1,2.2,0.3
						c0.6,0.2,1.2,0.6,1.8,1l-0.9,0.9c-0.4-0.4-0.9-0.6-1.3-0.8c-0.5-0.2-1.1-0.3-1.7-0.3c-0.6,0-1.1,0.1-1.5,0.3
						c-0.4,0.2-0.7,0.5-1,0.8c-0.2,0.3-0.3,0.7-0.3,1.2c0,0.6,0.2,1.1,0.6,1.4c0.4,0.3,1,0.6,1.8,0.7l1.4,0.2
						c0.6,0.1,1.1,0.2,1.4,0.3c0.4,0.1,0.7,0.3,1,0.5C626.1,590.9,626.4,591.7,626.4,592.8z"/>
				</g>
			</g>
			<g>
				<g>
					<g>
						<g>
							<path fill="#1E252B" d="M575,589.9c0-2.9,0.4-6.4,4.9-6.4c3.2,0,4.4,1.7,4.4,4.1h-2.5c0-1.6-0.9-2.3-1.9-2.3
								c-1.8,0-2.3,0.6-2.3,4.5c0,3.7,0.5,4.5,2.3,4.5c1.5,0,1.9-1.5,1.9-2.5h2.6c0,2.8-1.6,4.3-4.5,4.3
								C575.3,596.3,575,592.6,575,589.9z"/>
						</g>
					</g>
					<path fill="#1E252B" d="M521.2,586h-3.4v10.2h-2.6V586h-3.4v-2.2h9.5V586z"/>
					<path fill="#1E252B" d="M532.5,596.2h-2.6V591h-4.5v5.2h-2.6v-12.4h2.6v5h4.5v-5h2.6V596.2z"/>
					<path fill="#1E252B" d="M545.4,596.2h-2.7l-0.8-2.2h-4.7l-0.8,2.2h-2.7l4.8-12.4h2L545.4,596.2z M541.2,592l-1.6-4.5L538,592
						H541.2z"/>
					<path fill="#1E252B" d="M554.5,596.2h-7.9v-12.4h2.6V594h5.3V596.2z"/>
					<path fill="#1E252B" d="M567.8,596.2h-2.6V589l-2.5,4.7H561l-2.5-4.7v7.2h-2.6v-12.4h2.5l3.4,6.7l3.4-6.7h2.5V596.2z"/>
					<path fill="#1E252B" d="M573.1,596.2h-2.6v-12.4h2.6V596.2z"/>
				</g>
				<g>
					<path fill="#1E252B" d="M595.3,596.2h-8.1v-12.4h1.4V595h6.7V596.2z"/>
					<path fill="#1E252B" d="M605.1,596.2h-1.5l-1.1-2.8h-5.8l-1.1,2.8h-1.5l4.8-12.4h1.2L605.1,596.2z M602.2,592.2l-2.4-6.5
						l-2.5,6.5H602.2z"/>
					<path fill="#1E252B" d="M615.9,592.8c0,0.7-0.2,1.4-0.5,1.9c-0.3,0.5-0.8,0.9-1.4,1.2c-0.6,0.3-1.3,0.4-2.1,0.4h-5.1v-12.4h5
						c0.6,0,1.1,0.1,1.6,0.2c0.5,0.2,0.9,0.4,1.2,0.6c0.3,0.3,0.6,0.6,0.8,1c0.2,0.4,0.3,0.9,0.3,1.4c0,0.4-0.1,0.8-0.3,1.2
						c-0.2,0.4-0.4,0.7-0.7,0.9c-0.3,0.3-0.6,0.5-1,0.6c0.4,0.1,0.8,0.4,1.1,0.6c0.3,0.3,0.6,0.6,0.7,1
						C615.8,591.9,615.9,592.3,615.9,592.8z M614.3,587.1c0-0.7-0.2-1.2-0.7-1.6c-0.5-0.4-1.1-0.5-1.9-0.5h-3.4v4.3h3.4
						c0.8,0,1.4-0.2,1.9-0.5C614.1,588.4,614.3,587.8,614.3,587.1z M614.5,592.7c0-0.5-0.1-0.9-0.3-1.2c-0.2-0.3-0.5-0.6-0.9-0.8
						c-0.4-0.2-0.9-0.3-1.4-0.3h-3.6v4.5h3.6c0.8,0,1.5-0.2,1.9-0.6C614.3,594,614.5,593.4,614.5,592.7z"/>
					<path fill="#1E252B" d="M626.4,592.8c0,0.7-0.2,1.3-0.6,1.9c-0.4,0.5-0.9,0.9-1.6,1.2c-0.7,0.3-1.5,0.4-2.4,0.4
						c-0.7,0-1.3-0.1-1.8-0.2c-0.5-0.1-1-0.3-1.4-0.5c-0.4-0.2-0.9-0.6-1.3-0.9l1-0.9c0.4,0.3,0.7,0.6,1.1,0.8
						c0.4,0.2,0.7,0.3,1.1,0.4c0.4,0.1,0.9,0.1,1.4,0.1c1,0,1.7-0.2,2.3-0.6c0.6-0.4,0.8-1,0.8-1.7c0-0.3-0.1-0.6-0.2-0.9
						c-0.1-0.3-0.3-0.5-0.5-0.7c-0.2-0.2-0.4-0.3-0.6-0.4c-0.2-0.1-0.6-0.1-1.1-0.2l-1.5-0.2c-1-0.2-1.9-0.5-2.4-0.9
						c-0.7-0.6-1-1.3-1-2.3c0-0.7,0.2-1.3,0.5-1.8c0.3-0.5,0.8-0.9,1.5-1.2c0.6-0.3,1.4-0.4,2.2-0.4c0.8,0,1.6,0.1,2.2,0.3
						c0.6,0.2,1.2,0.6,1.8,1l-0.9,0.9c-0.4-0.4-0.9-0.6-1.3-0.8c-0.5-0.2-1.1-0.3-1.7-0.3c-0.6,0-1.1,0.1-1.5,0.3
						c-0.4,0.2-0.7,0.5-1,0.8c-0.2,0.3-0.3,0.7-0.3,1.2c0,0.6,0.2,1.1,0.6,1.4c0.4,0.3,1,0.6,1.8,0.7l1.4,0.2
						c0.6,0.1,1.1,0.2,1.4,0.3c0.4,0.1,0.7,0.3,1,0.5C626.1,590.9,626.4,591.7,626.4,592.8z"/>
				</g>
			</g>
			<path fill="#1E252B" d="M629.8,586.2h-0.4v-2.1h-0.7v-0.4h1.8v0.4h-0.7V586.2z M631.8,586.2l-0.7-1.9h0l0,0.4v1.4h-0.4v-2.4h0.6
				l0.7,1.9l0.7-1.9h0.6v2.4h-0.4v-1.4l0-0.5h0l-0.7,1.9H631.8z"/>
		</g>
	</g>
</g>
</svg>
