<?xml version="1.0" encoding="utf-8"?>
<!-- Generator: Adobe Illustrator 17.1.0, SVG Export Plug-In . SVG Version: 6.00 Build 0)  -->
<!DOCTYPE svg PUBLIC "-//W3C//DTD SVG 1.1//EN" "http://www.w3.org/Graphics/SVG/1.1/DTD/svg11.dtd">
<svg version="1.1" xmlns="http://www.w3.org/2000/svg" xmlns:xlink="http://www.w3.org/1999/xlink" x="0px" y="0px"
	 viewBox="190 -366 266 91.7" enable-background="new 190 -366 266 91.7" xml:space="preserve">
<g id="estimote">
</g>
<g id="Pebble">
</g>
<g id="Spark">
</g>
<g id="Layer_4">
</g>
<g id="Layer_5">
</g>
<g id="Layer_6">
</g>
<g id="Base">
</g>
<g id="yelp">
</g>
<g id="Yext">
</g>
<g id="Estimote">
</g>
<g id="Kloudless">
</g>
<g id="Microsoft">
</g>
<g id="Big_Viking">
</g>
<g id="_x35_00px">
</g>
<g id="Magnet_Forensics">
</g>
<g id="Guides">
</g>
<g id="Wit.Ai" display="none">
</g>
<g id="Layer_18">
</g>
<g id="Kik">
	<g>
		<path fill="#3DB4E7" d="M376.6-314.6c3.1,0,5.5,2.5,5.5,5.5s-2.5,5.5-5.5,5.5c-3.1,0-5.5-2.5-5.5-5.5
			C371-312.1,373.5-314.6,376.6-314.6z"/>
		<path fill="#82BC23" d="M332-294.9l-10,0l0-25l10,0L332-294.9z"/>
		<path fill="#82BC23" d="M327-300c2.7,0,5,2.3,5,5c0,2.8-2.2,5-5,5s-5-2.3-5-5C322-297.8,324.2-300,327-300z"/>
		<path fill="#82BC23" d="M327-325.1c2.7,0,5,2.3,5,5c0,2.8-2.2,5-5,5s-5-2.3-5-5C322-322.8,324.2-325.1,327-325.1z"/>
		<path fill="#82BC23" d="M290.9-299.9c2.7,0,4.9,2.2,4.9,5s-2.2,5-4.9,5c-2.7,0-4.9-2.2-4.9-5C286-297.7,288.2-299.9,290.9-299.9z"
			/>
		<path fill="#82BC23" d="M290.9-338.1c2.7,0,4.9,2.3,4.9,5c0,2.8-2.2,5-4.9,5c-2.7,0-4.9-2.3-4.9-5
			C286-335.9,288.2-338.1,290.9-338.1z"/>
		<path fill="#82BC23" d="M285.9-332.9l10,0.1l0,18.4l9.3-9.1l7.4,6.9l-6.5,6.4l9.1,12.3l-8.1,5.9l-8.7-11.6l-2.5,2.3l0,6.5l-10-0.4
			L285.9-332.9z"/>
		<path fill="#82BC23" d="M308.9-325.1c2.8,0,5,2.2,5,5s-2.2,5-5,5c-2.8,0-5-2.3-5-5C303.9-322.8,306.2-325.1,308.9-325.1z"/>
		<path fill="#82BC23" d="M310.9-300.1c2.7,0,5,2.3,5,5c0,2.8-2.2,5-5,5c-2.7,0-5-2.3-5-5C306-297.8,308.2-300.1,310.9-300.1z"/>
		<path fill="#82BC23" d="M344-299.9c2.7,0,4.9,2.2,4.9,5s-2.2,5-4.9,5c-2.7,0-4.9-2.2-4.9-5C339.1-297.7,341.3-299.9,344-299.9z"/>
		<path fill="#82BC23" d="M344-338.1c2.7,0,4.9,2.3,4.9,5c0,2.8-2.2,5-4.9,5c-2.7,0-4.9-2.3-4.9-5
			C339.1-335.9,341.3-338.1,344-338.1z"/>
		<path fill="#82BC23" d="M339-332.9l10,0.1l0,18.4l9.3-9.1l7.4,6.9l-6.5,6.4l9.1,12.3l-8.1,5.9l-8.7-11.6l-2.5,2.3l0,6.5l-10-0.4
			L339-332.9z"/>
		<path fill="#82BC23" d="M362-325.1c2.8,0,5,2.2,5,5s-2.2,5-5,5c-2.8,0-5-2.3-5-5C357-322.8,359.3-325.1,362-325.1z"/>
		<path fill="#82BC23" d="M364.1-300.1c2.7,0,5,2.3,5,5c0,2.8-2.2,5-5,5c-2.7,0-5-2.3-5-5C359.1-297.8,361.3-300.1,364.1-300.1z"/>
	</g>
</g>
<g id="Layer_20">
</g>
<g id="Affirm">
</g>
<g id="Shopify">
</g>
<g id="apple">
</g>
<g id="velocity">
</g>
<g id="pagerduty">
</g>
<g id="Layer_26">
</g>
<g id="bitalino">
</g>
<g id="TextNow">
</g>
<g id="Uber">
</g>
<g id="mars">
</g>
<g id="twilio">
</g>
<g id="wit-ai">
</g>
</svg>
