<?xml version="1.0" encoding="utf-8"?>
<!-- Generator: Adobe Illustrator 17.1.0, SVG Export Plug-In . SVG Version: 6.00 Build 0)  -->
<!DOCTYPE svg PUBLIC "-//W3C//DTD SVG 1.1//EN" "http://www.w3.org/Graphics/SVG/1.1/DTD/svg11.dtd">
<svg version="1.1" xmlns="http://www.w3.org/2000/svg" xmlns:xlink="http://www.w3.org/1999/xlink" x="0px" y="0px"
	 viewBox="282.7 420 174 60" enable-background="new 282.7 420 174 60" xml:space="preserve">
<g id="estimote">
</g>
<g id="Pebble">
</g>
<g id="Spark">
</g>
<g id="Layer_4">
</g>
<g id="Layer_5">
</g>
<g id="Layer_6">
</g>
<g id="Base">
</g>
<g id="yelp">
</g>
<g id="Yext">
</g>
<g id="Estimote">
</g>
<g id="Microsoft">
</g>
<g id="Big_Viking">
</g>
<g id="_x35_00px">
</g>
<g id="Magnet_Forensics">
</g>
<g id="Guides">
</g>
<g id="Wit.Ai" display="none">
</g>
<g id="Layer_18">
</g>
<g id="Kik">
</g>
<g id="Layer_20">
</g>
<g id="Affirm">
</g>
<g id="Shopify">
</g>
<g id="apple">
</g>
<g id="velocity">
</g>
<g id="pagerduty">
</g>
<g id="Layer_26">
</g>
<g id="bitalino">
	<g>
		<g>
			<g>
				<defs>
					<rect id="SVGID_37_" x="92.6" y="-369.1" width="112.5" height="41"/>
				</defs>
				<clipPath id="SVGID_2_">
					<use xlink:href="#SVGID_37_"  overflow="visible"/>
				</clipPath>
				<g clip-path="url(#SVGID_2_)">
					<g>
						<defs>
							<rect id="SVGID_43_" x="92.6" y="-369.1" width="112.5" height="41"/>
						</defs>
						<clipPath id="SVGID_3_">
							<use xlink:href="#SVGID_43_"  overflow="visible"/>
						</clipPath>
						<g clip-path="url(#SVGID_3_)">
							<g>
								<defs>
									<rect id="SVGID_49_" x="92.6" y="-369.1" width="112.5" height="41"/>
								</defs>
								<clipPath id="SVGID_4_">
									<use xlink:href="#SVGID_49_"  overflow="visible"/>
								</clipPath>
								<g id="g86" clip-path="url(#SVGID_4_)">
									<g>
										<defs>
											<path id="SVGID_51_" d="M145-384.4h1.4c0.3,1.5,1.6,2.6,3.2,2.6c1.6,0,2.9-1.1,3.2-2.6h1.4v-1.4h-0.5v-1.4h1.9h0v4.2v0
												l-0.2,0l-1.6,0l-0.1,0.1c-0.8,1.5-2.3,2.5-4.1,2.5C147.3-380.4,145.3-382.1,145-384.4"/>
										</defs>
										<clipPath id="SVGID_5_">
											<use xlink:href="#SVGID_51_"  overflow="visible"/>
										</clipPath>
										<g id="g88" clip-path="url(#SVGID_5_)">
											<g id="g94">
												<defs>
													
														<rect id="SVGID_53_" x="17.8" y="-525.8" transform="matrix(-0.2713 0.9625 -0.9625 -0.2713 -161.7137 -609.191)" width="263.9" height="320"/>
												</defs>
												<clipPath id="SVGID_6_">
													<use xlink:href="#SVGID_53_"  overflow="visible"/>
												</clipPath>
											</g>
										</g>
									</g>
								</g>
								<g clip-path="url(#SVGID_4_)">
									<g>
										<defs>
											<rect id="SVGID_55_" x="92.6" y="-369.1" width="112.5" height="41"/>
										</defs>
										<clipPath id="SVGID_7_">
											<use xlink:href="#SVGID_55_"  overflow="visible"/>
										</clipPath>
										<g id="g122" clip-path="url(#SVGID_7_)">
											<g>
												<defs>
													<path id="SVGID_57_" d="M143.6-383L143.6-383l0-4.2v0l0.2,0l1.6,0l0.1-0.1c0.8-1.5,2.3-2.5,4.1-2.5
														c2.3,0,4.3,1.7,4.6,4h-1.4c-0.3-1.5-1.6-2.6-3.2-2.6c-1.6,0-2.9,1.1-3.2,2.6H145v1.4h0.5v1.4H143.6z"/>
												</defs>
												<clipPath id="SVGID_8_">
													<use xlink:href="#SVGID_57_"  overflow="visible"/>
												</clipPath>
												<g id="g124" clip-path="url(#SVGID_8_)">
													<g id="g130">
														<defs>
															
																<rect id="SVGID_59_" x="26.4" y="-520.9" transform="matrix(-0.1961 -0.9806 0.9806 -0.1961 537.8448 -290.7026)" width="246.7" height="310.3"/>
														</defs>
														<clipPath id="SVGID_9_">
															<use xlink:href="#SVGID_59_"  overflow="visible"/>
														</clipPath>
													</g>
												</g>
											</g>
										</g>
										<g clip-path="url(#SVGID_7_)">
											<g>
												<defs>
													<rect id="SVGID_61_" x="92.6" y="-369.1" width="112.5" height="41"/>
												</defs>
												<clipPath id="SVGID_10_">
													<use xlink:href="#SVGID_61_"  overflow="visible"/>
												</clipPath>
												<g id="g158" clip-path="url(#SVGID_10_)">
													<g>
														<defs>
															<path id="SVGID_63_" d="M145-384.4h1.4c0.3,1.5,1.6,2.6,3.2,2.6v1.4C147.3-380.4,145.3-382.2,145-384.4"/>
														</defs>
														<clipPath id="SVGID_11_">
															<use xlink:href="#SVGID_63_"  overflow="visible"/>
														</clipPath>
														<g id="g160" clip-path="url(#SVGID_11_)">
															<g id="g166">
																<defs>
																	
																		<rect id="SVGID_65_" x="17.8" y="-525.8" transform="matrix(-0.2713 0.9625 -0.9625 -0.2713 -161.7137 -609.191)" width="263.9" height="320"/>
																</defs>
																<clipPath id="SVGID_12_">
																	<use xlink:href="#SVGID_65_"  overflow="visible"/>
																</clipPath>
															</g>
														</g>
													</g>
												</g>
												<g clip-path="url(#SVGID_10_)">
													<g>
														<defs>
															<rect id="SVGID_67_" x="92.6" y="-369.1" width="112.5" height="41"/>
														</defs>
														<clipPath id="SVGID_13_">
															<use xlink:href="#SVGID_67_"  overflow="visible"/>
														</clipPath>
														<g id="g194" clip-path="url(#SVGID_13_)">
															<g>
																<defs>
																	<path id="SVGID_69_" d="M179.5-380.9c-1.5-0.8-2.5-2.3-2.5-4.1c0-2.3,1.7-4.3,4-4.6v1.4c-1.5,0.3-2.6,1.6-2.6,3.2
																		c0,1,0.4,1.9,1.2,2.5v-0.8h1.4v2.5v0.5c0,0,0,0,0,0l0,0C181-380.4,180.1-380.6,179.5-380.9"/>
																</defs>
																<clipPath id="SVGID_14_">
																	<use xlink:href="#SVGID_69_"  overflow="visible"/>
																</clipPath>
																<g id="g196" clip-path="url(#SVGID_14_)">
																	<g id="g202">
																		<defs>
																			
																				<rect id="SVGID_71_" x="-18.3" y="-533.2" transform="matrix(-0.7071 0.7071 -0.7071 -0.7071 -4.2858 -729.8545)" width="334.7" height="334.7"/>
																		</defs>
																		<clipPath id="SVGID_15_">
																			<use xlink:href="#SVGID_71_"  overflow="visible"/>
																		</clipPath>
																	</g>
																</g>
															</g>
														</g>
													</g>
												</g>
											</g>
										</g>
									</g>
								</g>
							</g>
						</g>
					</g>
				</g>
			</g>
		</g>
	</g>
</g>
<g id="TextNow">
</g>
<g id="Uber">
</g>
<g id="mars">
</g>
<g id="twilio">
</g>
<g id="wit-ai">
</g>
<g id="indiegogo">
</g>
<g id="Layer_34">
</g>
<g id="cisco">
</g>
<g id="teespring">
</g>
<g id="sendgrid">
</g>
<g id="kloudless">
</g>
<g id="uwaterloo">
</g>
<g id="loblaws">
</g>
<g id="Layer_40">
</g>
<g id="Layer_41">
</g>
<g id="conrad">
</g>
<g id="ziggeo">
</g>
<g id="n36">
	<g>
		<path fill="#656668" d="M311.1,438.7h-3.3v-2.2h9v2.2h-3.3v8.6h-2.4V438.7z"/>
		<path fill="#656668" d="M320.1,436.5h2.4v4.3h4.4v-4.3h2.4v10.8h-2.4V443h-4.4v4.3h-2.4V436.5z"/>
		<path fill="#656668" d="M333.3,436.5h8.2v2.1h-5.8v2.2h5.1v2.1h-5.1v2.3h5.9v2.1h-8.2V436.5z"/>
		<path fill="#656668" d="M351.3,436.5h2.2l5.1,6.7v-6.7h2.4v10.8h-2l-5.2-6.9v6.9h-2.4V436.5z"/>
		<path fill="#656668" d="M365,436.5h8.2v2.1h-5.8v2.2h5.1v2.1h-5.1v2.3h5.9v2.1H365V436.5z"/>
		<path fill="#656668" d="M379.8,441.9l-3.6-5.3h2.8l2.3,3.5l2.3-3.5h2.7l-3.6,5.3l3.8,5.5h-2.8l-2.4-3.7l-2.4,3.7H376L379.8,441.9z
			"/>
		<path fill="#656668" d="M392.2,438.7h-3.3v-2.2h9v2.2h-3.3v8.6h-2.4V438.7z"/>
		<line fill="none" stroke="#EF7622" x1="300.5" y1="451.4" x2="406.3" y2="451.4"/>
		<g>
			<circle fill="#EF7622" cx="419.3" cy="450" r="19.5"/>
			<g>
				<path fill="#FFFFFF" d="M410.7,448.8h0.2c1.3,0,2.3-0.3,3-0.8c0.7-0.5,1-1.2,1-2.2c0-0.9-0.3-1.6-1-2.1
					c-0.7-0.5-1.5-0.8-2.6-0.8c-1.1,0-2.3,0.3-3.6,1v-2.7c1.2-0.6,2.6-0.9,4-0.9c1.9,0,3.5,0.5,4.6,1.4c1.1,0.9,1.7,2.2,1.7,3.9
					c0,1-0.2,1.8-0.6,2.5s-1.1,1.3-2.1,1.7c0.8,0.3,1.4,0.7,1.8,1.1c0.4,0.4,0.7,1,0.9,1.6c0.2,0.6,0.3,1.3,0.3,2
					c0,1.7-0.6,3.1-1.8,4.2c-1.2,1.1-2.8,1.7-4.6,1.7c-1.6,0-3.1-0.4-4.6-1.1v-3.1c1.6,0.9,3.1,1.4,4.6,1.4c1,0,1.8-0.3,2.5-0.8
					c0.6-0.6,0.9-1.3,0.9-2.2c0-0.8-0.3-1.5-0.8-2c-0.3-0.3-0.6-0.6-1-0.7c-0.4-0.2-1.2-0.3-2.4-0.4l-0.3,0V448.8z"/>
				<path fill="#FFFFFF" d="M427.5,440.6l0.3-0.2l1.8,2.1c-1.6,1-2.9,2-4,3.2c-1.1,1.1-1.9,2.5-2.5,4c1.1-0.5,2.2-0.8,3.3-0.8
					c1.7,0,3.1,0.5,4.2,1.6c1.1,1.1,1.7,2.4,1.7,4c0,1.6-0.6,3-1.9,4.2c-1.2,1.1-2.7,1.7-4.5,1.7c-2,0-3.6-0.6-4.8-1.9
					c-1.2-1.3-1.8-3-1.8-5.1c0-1.6,0.3-3.1,0.9-4.7c0.6-1.6,1.5-3,2.7-4.4C424.2,443,425.7,441.8,427.5,440.6z M422.5,452.6
					c-0.1,0.4-0.1,0.9-0.1,1.5c0,1.1,0.3,2,1,2.7c0.7,0.7,1.6,1.1,2.6,1.1c1,0,1.8-0.3,2.4-0.9c0.6-0.6,0.9-1.4,0.9-2.3
					c0-0.9-0.3-1.7-1-2.3c-0.7-0.6-1.6-0.9-2.6-0.9c-0.6,0-1.1,0.1-1.5,0.2C423.8,451.9,423.2,452.2,422.5,452.6z"/>
			</g>
		</g>
		<g>
			<path fill="#656668" d="M310,457.9L310,457.9c0-1.2,0.9-2.1,2-2.1c0.7,0,1.2,0.3,1.6,0.6l-0.3,0.3c-0.3-0.3-0.7-0.6-1.3-0.6
				c-0.9,0-1.6,0.7-1.6,1.7v0c0,0.9,0.7,1.7,1.6,1.7c0.6,0,0.9-0.2,1.3-0.6l0.3,0.3c-0.4,0.4-0.9,0.7-1.6,0.7
				C310.8,460,310,459.1,310,457.9z"/>
			<path fill="#656668" d="M315.7,455.9h0.4l1.8,4.1h-0.5l-0.5-1.1h-2.2l-0.5,1.1h-0.5L315.7,455.9z M316.9,458.5l-0.9-2.1l-0.9,2.1
				H316.9z"/>
			<path fill="#656668" d="M318.6,455.9h0.4l2.5,3.2v-3.2h0.4v4h-0.4l-2.6-3.3v3.3h-0.4V455.9z"/>
			<path fill="#656668" d="M324.5,455.9h0.4l1.8,4.1h-0.5l-0.5-1.1h-2.2l-0.5,1.1h-0.5L324.5,455.9z M325.6,458.5l-0.9-2.1l-0.9,2.1
				H325.6z"/>
			<path fill="#656668" d="M327.4,455.9h1.4c1.3,0,2.1,0.9,2.1,2v0c0,1.1-0.9,2-2.1,2h-1.4V455.9z M328.8,459.5c1,0,1.7-0.7,1.7-1.6
				v0c0-0.9-0.7-1.6-1.7-1.6h-0.9v3.2H328.8z"/>
			<path fill="#656668" d="M332.9,455.9h0.4l1.8,4.1h-0.5l-0.5-1.1h-2.2l-0.5,1.1h-0.5L332.9,455.9z M334.1,458.5l-0.9-2.1l-0.9,2.1
				H334.1z"/>
			<path fill="#656668" d="M335.1,457c0.3-0.1,0.4-0.3,0.4-0.5h-0.2v-0.6h0.5v0.5c0,0.5-0.2,0.7-0.6,0.8L335.1,457z"/>
			<path fill="#656668" d="M336.3,459.3l0.3-0.3c0.4,0.4,0.8,0.6,1.4,0.6c0.5,0,0.9-0.3,0.9-0.7v0c0-0.4-0.2-0.6-1-0.8
				c-0.9-0.2-1.4-0.5-1.4-1.2v0c0-0.6,0.6-1.1,1.3-1.1c0.6,0,1,0.2,1.4,0.5l-0.3,0.4c-0.4-0.3-0.7-0.4-1.2-0.4
				c-0.5,0-0.9,0.3-0.9,0.7v0c0,0.4,0.2,0.6,1.1,0.8c0.9,0.2,1.3,0.5,1.3,1.1v0c0,0.7-0.6,1.1-1.4,1.1
				C337.4,460,336.8,459.8,336.3,459.3z"/>
			<path fill="#656668" d="M341.7,455.9h2.9v0.4h-2.5v1.4h2.2v0.4h-2.2v1.4h2.5v0.4h-2.9V455.9z"/>
			<path fill="#656668" d="M345.4,455.9h0.4l2.5,3.2v-3.2h0.4v4h-0.4l-2.6-3.3v3.3h-0.4V455.9z"/>
			<path fill="#656668" d="M350.8,456.3h-1.4v-0.4h3.2v0.4h-1.4v3.6h-0.5V456.3z"/>
			<path fill="#656668" d="M353.3,455.9h1.7c0.5,0,0.9,0.1,1.1,0.4c0.2,0.2,0.3,0.5,0.3,0.8v0c0,0.7-0.5,1.1-1.1,1.2l1.2,1.6h-0.6
				l-1.2-1.6h0h-1.1v1.6h-0.5V455.9z M355,457.9c0.6,0,1-0.3,1-0.8v0c0-0.5-0.4-0.8-1-0.8h-1.2v1.6H355z"/>
			<path fill="#656668" d="M357.3,455.9h2.9v0.4h-2.5v1.4h2.2v0.4h-2.2v1.4h2.5v0.4h-2.9V455.9z"/>
			<path fill="#656668" d="M361,455.9h1.5c0.9,0,1.5,0.5,1.5,1.3v0c0,0.9-0.7,1.3-1.6,1.3h-1v1.4H361V455.9z M362.4,458.1
				c0.7,0,1.1-0.4,1.1-0.9v0c0-0.6-0.4-0.9-1.1-0.9h-1v1.8H362.4z"/>
			<path fill="#656668" d="M364.7,455.9h1.7c0.5,0,0.9,0.1,1.1,0.4c0.2,0.2,0.3,0.5,0.3,0.8v0c0,0.7-0.5,1.1-1.1,1.2l1.2,1.6h-0.6
				l-1.2-1.6h0h-1.1v1.6h-0.5V455.9z M366.4,457.9c0.6,0,1-0.3,1-0.8v0c0-0.5-0.4-0.8-1-0.8h-1.2v1.6H366.4z"/>
			<path fill="#656668" d="M368.7,455.9h2.9v0.4h-2.5v1.4h2.2v0.4h-2.2v1.4h2.5v0.4h-2.9V455.9z"/>
			<path fill="#656668" d="M372.4,455.9h0.4l2.5,3.2v-3.2h0.4v4h-0.4l-2.6-3.3v3.3h-0.4V455.9z"/>
			<path fill="#656668" d="M376.7,455.9h2.9v0.4h-2.5v1.4h2.2v0.4h-2.2v1.4h2.5v0.4h-2.9V455.9z"/>
			<path fill="#656668" d="M380.4,458.2v-2.3h0.5v2.3c0,0.9,0.5,1.4,1.2,1.4c0.7,0,1.2-0.4,1.2-1.3v-2.3h0.5v2.3
				c0,1.2-0.7,1.8-1.7,1.8C381,460,380.4,459.4,380.4,458.2z"/>
			<path fill="#656668" d="M384.6,455.9h1.7c0.5,0,0.9,0.1,1.1,0.4c0.2,0.2,0.3,0.5,0.3,0.8v0c0,0.7-0.5,1.1-1.1,1.2l1.2,1.6h-0.6
				l-1.2-1.6h0h-1.1v1.6h-0.5V455.9z M386.3,457.9c0.6,0,1-0.3,1-0.8v0c0-0.5-0.4-0.8-1-0.8h-1.2v1.6H386.3z"/>
			<path fill="#656668" d="M388.7,455.9h0.5v4h-0.5V455.9z"/>
			<path fill="#656668" d="M391.6,455.9h0.4l1.8,4.1h-0.5l-0.5-1.1h-2.2l-0.5,1.1h-0.5L391.6,455.9z M392.7,458.5l-0.9-2.1l-0.9,2.1
				H392.7z"/>
			<path fill="#656668" d="M394.5,455.9h0.5v3.6h2.3v0.4h-2.7V455.9z"/>
			<path fill="#656668" d="M330.7,462.1h0.5v3.6h2.3v0.4h-2.7V462.1z"/>
			<path fill="#656668" d="M334.1,462.1h2.9v0.4h-2.5v1.4h2.2v0.4h-2.2v1.4h2.5v0.4h-2.9V462.1z"/>
			<path fill="#656668" d="M339.3,462h0.4l1.8,4.1h-0.5l-0.5-1.1h-2.2l-0.5,1.1h-0.5L339.3,462z M340.4,464.6l-0.9-2.1l-0.9,2.1
				H340.4z"/>
			<path fill="#656668" d="M342.2,462.1h1.4c1.3,0,2.1,0.9,2.1,2v0c0,1.1-0.9,2-2.1,2h-1.4V462.1z M343.6,465.7c1,0,1.7-0.7,1.7-1.6
				v0c0-0.9-0.7-1.6-1.7-1.6h-0.9v3.2H343.6z"/>
			<path fill="#656668" d="M346.5,462.1h2.9v0.4H347v1.4h2.2v0.4H347v1.4h2.5v0.4h-2.9V462.1z"/>
			<path fill="#656668" d="M350.2,462.1h1.7c0.5,0,0.9,0.1,1.1,0.4c0.2,0.2,0.3,0.5,0.3,0.8v0c0,0.7-0.5,1.1-1.1,1.2l1.2,1.6H353
				l-1.2-1.6h0h-1.1v1.6h-0.5V462.1z M351.9,464.1c0.6,0,1-0.3,1-0.8v0c0-0.5-0.4-0.8-1-0.8h-1.2v1.6H351.9z"/>
			<path fill="#656668" d="M354,465.5l0.3-0.3c0.4,0.4,0.8,0.6,1.4,0.6c0.5,0,0.9-0.3,0.9-0.7v0c0-0.4-0.2-0.6-1-0.8
				c-0.9-0.2-1.4-0.5-1.4-1.2v0c0-0.6,0.6-1.1,1.3-1.1c0.6,0,1,0.2,1.4,0.5l-0.3,0.4c-0.4-0.3-0.7-0.4-1.2-0.4
				c-0.5,0-0.9,0.3-0.9,0.7v0c0,0.4,0.2,0.6,1.1,0.8c0.9,0.2,1.3,0.5,1.3,1.1v0c0,0.7-0.6,1.1-1.4,1.1
				C355,466.2,354.4,466,354,465.5z"/>
			<path fill="#656668" d="M357.7,462.1h0.5v1.8h2.3v-1.8h0.5v4h-0.5v-1.8h-2.3v1.8h-0.5V462.1z"/>
			<path fill="#656668" d="M362,462.1h0.5v4H362V462.1z"/>
			<path fill="#656668" d="M363.4,462.1h1.5c0.9,0,1.5,0.5,1.5,1.3v0c0,0.9-0.7,1.3-1.6,1.3h-1v1.4h-0.5V462.1z M364.9,464.3
				c0.7,0,1.1-0.4,1.1-0.9v0c0-0.6-0.4-0.9-1.1-0.9h-1v1.8H364.9z"/>
			<path fill="#656668" d="M368.7,462.1h0.5v4h-0.5V462.1z"/>
			<path fill="#656668" d="M370.2,462.1h0.4l2.5,3.2v-3.2h0.4v4h-0.4l-2.6-3.3v3.3h-0.4V462.1z"/>
			<path fill="#656668" d="M374.6,462.1h0.5v4h-0.5V462.1z"/>
			<path fill="#656668" d="M377.1,462.5h-1.4v-0.4h3.2v0.4h-1.4v3.6h-0.5V462.5z"/>
			<path fill="#656668" d="M379.7,462.1h0.5v4h-0.5V462.1z"/>
			<path fill="#656668" d="M382.6,462h0.4l1.8,4.1h-0.5l-0.5-1.1h-2.2l-0.5,1.1h-0.5L382.6,462z M383.7,464.6l-0.9-2.1l-0.9,2.1
				H383.7z"/>
			<path fill="#656668" d="M386.1,462.5h-1.4v-0.4h3.2v0.4h-1.4v3.6h-0.5V462.5z"/>
			<path fill="#656668" d="M388.6,462.1h0.5v4h-0.5V462.1z"/>
			<path fill="#656668" d="M389.7,462.1h0.5l1.4,3.5l1.4-3.5h0.5l-1.7,4.1h-0.4L389.7,462.1z"/>
			<path fill="#656668" d="M394.2,462.1h2.9v0.4h-2.5v1.4h2.2v0.4h-2.2v1.4h2.5v0.4h-2.9V462.1z"/>
		</g>
	</g>
</g>
<g id="communitech">
</g>
</svg>
