<?xml version="1.0" encoding="utf-8"?>
<!-- Generator: Adobe Illustrator 17.1.0, SVG Export Plug-In . SVG Version: 6.00 Build 0)  -->
<!DOCTYPE svg PUBLIC "-//W3C//DTD SVG 1.1//EN" "http://www.w3.org/Graphics/SVG/1.1/DTD/svg11.dtd">
<svg version="1.1" xmlns="http://www.w3.org/2000/svg" xmlns:xlink="http://www.w3.org/1999/xlink" x="0px" y="0px"
	 viewBox="282.6 280 174 60" enable-background="new 282.6 280 174 60" xml:space="preserve">
<g id="estimote">
</g>
<g id="Pebble">
</g>
<g id="Spark">
</g>
<g id="Layer_4">
</g>
<g id="Layer_5">
</g>
<g id="Layer_6">
</g>
<g id="Base">
</g>
<g id="yelp">
</g>
<g id="Yext">
</g>
<g id="Estimote">
</g>
<g id="Kloudless">
</g>
<g id="Microsoft">
</g>
<g id="Big_Viking">
</g>
<g id="_x35_00px">
</g>
<g id="Magnet_Forensics">
</g>
<g id="Guides">
</g>
<g id="Wit.Ai" display="none">
</g>
<g id="Layer_18">
</g>
<g id="Kik">
</g>
<g id="Layer_20">
</g>
<g id="Affirm">
</g>
<g id="Shopify">
</g>
<g id="apple">
</g>
<g id="velocity">
</g>
<g id="pagerduty">
</g>
<g id="Layer_26">
</g>
<g id="bitalino">
	<g>
		<g>
			<g>
				<defs>
					<rect id="SVGID_37_" x="92.6" y="-313.1" width="112.5" height="41"/>
				</defs>
				<clipPath id="SVGID_2_">
					<use xlink:href="#SVGID_37_"  overflow="visible"/>
				</clipPath>
				<g clip-path="url(#SVGID_2_)">
					<g>
						<defs>
							<rect id="SVGID_43_" x="92.6" y="-313.1" width="112.5" height="41"/>
						</defs>
						<clipPath id="SVGID_3_">
							<use xlink:href="#SVGID_43_"  overflow="visible"/>
						</clipPath>
						<g clip-path="url(#SVGID_3_)">
							<g>
								<defs>
									<rect id="SVGID_49_" x="92.6" y="-313.1" width="112.5" height="41"/>
								</defs>
								<clipPath id="SVGID_4_">
									<use xlink:href="#SVGID_49_"  overflow="visible"/>
								</clipPath>
								<g clip-path="url(#SVGID_4_)">
									<g>
										<defs>
											<rect id="SVGID_55_" x="92.6" y="-313.1" width="112.5" height="41"/>
										</defs>
										<clipPath id="SVGID_5_">
											<use xlink:href="#SVGID_55_"  overflow="visible"/>
										</clipPath>
										<g clip-path="url(#SVGID_5_)">
											<g>
												<defs>
													<rect id="SVGID_61_" x="92.6" y="-313.1" width="112.5" height="41"/>
												</defs>
												<clipPath id="SVGID_6_">
													<use xlink:href="#SVGID_61_"  overflow="visible"/>
												</clipPath>
												<g clip-path="url(#SVGID_6_)">
													<g>
														<defs>
															<rect id="SVGID_67_" x="92.6" y="-313.1" width="112.5" height="41"/>
														</defs>
														<clipPath id="SVGID_7_">
															<use xlink:href="#SVGID_67_"  overflow="visible"/>
														</clipPath>
														<g id="g194" clip-path="url(#SVGID_7_)">
															<g>
																<defs>
																	<path id="SVGID_69_" d="M179.5-324.9c-1.5-0.8-2.5-2.3-2.5-4.1c0-2.3,1.7-4.3,4-4.6v1.4c-1.5,0.3-2.6,1.6-2.6,3.2
																		c0,1,0.4,1.9,1.2,2.5v-0.8h1.4v2.5v0.5c0,0,0,0,0,0l0,0C181-324.4,180.1-324.6,179.5-324.9"/>
																</defs>
																<clipPath id="SVGID_8_">
																	<use xlink:href="#SVGID_69_"  overflow="visible"/>
																</clipPath>
																<g id="g196" clip-path="url(#SVGID_8_)">
																	<g id="g202">
																		<defs>
																			
																				<rect id="SVGID_71_" x="-18.3" y="-477.2" transform="matrix(-0.7071 0.7071 -0.7071 -0.7071 35.3121 -634.2565)" width="334.7" height="334.7"/>
																		</defs>
																		<clipPath id="SVGID_9_">
																			<use xlink:href="#SVGID_71_"  overflow="visible"/>
																		</clipPath>
																	</g>
																</g>
															</g>
														</g>
													</g>
												</g>
											</g>
										</g>
									</g>
								</g>
							</g>
						</g>
					</g>
				</g>
			</g>
		</g>
	</g>
</g>
<g id="TextNow">
</g>
<g id="Uber">
</g>
<g id="mars">
</g>
<g id="twilio">
</g>
<g id="wit-ai">
</g>
<g id="indiegogo">
	<g>
		<polygon fill="#EB1478" points="333.8,327.6 371.2,327.6 371.2,322.9 368.9,322.9 368.9,325.2 336.2,325.2 336.2,292.5 
			368.9,292.5 368.9,311.7 371.2,311.7 371.2,290.2 333.8,290.2 		"/>
		<rect x="342" y="312.9" fill="#EB1478" width="2.4" height="8.8"/>
		<polygon fill="#EB1478" points="350.4,317 348,312.9 345.6,312.9 345.6,321.7 347.8,321.7 347.8,317.1 347.8,317.1 350.5,321.7 
			352.7,321.7 352.7,312.9 350.5,312.9 350.5,317 		"/>
		<path fill="#EB1478" d="M353.9,312.9v8.8h3c2.8,0,4.1-0.7,4.1-4.4c0-3.6-1.3-4.4-4.2-4.4H353.9z M358.6,317.3
			c0,2.2-0.6,2.4-1.5,2.4h-0.8V315h0.7C358,315,358.6,315.1,358.6,317.3z"/>
		<rect x="361.8" y="312.9" fill="#EB1478" width="2.4" height="8.8"/>
		<path fill="#EB1478" d="M383.7,312.8c-3.3,0-3.9,2.2-3.9,4.5c0,2.4,0.6,4.5,3.9,4.5c3.3,0,3.9-2.2,3.9-4.5
			C387.6,314.9,387,312.8,383.7,312.8z M383.7,319.7c-1.3,0-1.5-0.9-1.5-2.3c0-1.4,0.2-2.3,1.5-2.3c1.3,0,1.5,0.9,1.5,2.3
			C385.2,318.9,385,319.7,383.7,319.7z"/>
		<path fill="#EB1478" d="M400.2,312.8c-3.3,0-3.9,2.2-3.9,4.5c0,2.4,0.6,4.5,3.9,4.5c3.3,0,3.9-2.2,3.9-4.5
			C404.1,314.9,403.5,312.8,400.2,312.8z M400.2,319.7c-1.3,0-1.5-0.9-1.5-2.3c0-1.4,0.2-2.3,1.5-2.3c1.3,0,1.5,0.9,1.5,2.3
			C401.7,318.9,401.5,319.7,400.2,319.7z"/>
		<path fill="#EB1478" d="M404.9,320.3c-0.4,0-0.5,0.3-0.5,0.7c0,0.4,0.1,0.7,0.5,0.7c0.4,0,0.5-0.3,0.5-0.7
			C405.4,320.6,405.3,320.3,404.9,320.3z M404.9,321.6c-0.4,0-0.4-0.2-0.4-0.6c0-0.3,0.1-0.6,0.4-0.6c0.4,0,0.4,0.2,0.4,0.6
			C405.3,321.3,405.2,321.6,404.9,321.6z"/>
		<path fill="#EB1478" d="M405.2,320.8c0-0.2-0.1-0.3-0.3-0.3h-0.3v0.8h0.2v-0.3h0.1l0.1,0.3h0.2l-0.1-0.3
			C405.1,321.1,405.2,321,405.2,320.8z M404.9,321h-0.1v-0.2h0.1c0.1,0,0.1,0,0.1,0.1C405,320.9,405,321,404.9,321z"/>
		<path fill="#EB1478" d="M375.3,318.3h1.5v0.2c0,1,0,1.4-1.1,1.4c-1.1,0-1.5-0.5-1.5-2.5c0-2.1,0.6-2.3,1.6-2.3
			c0.7,0,1.2,0.2,1.6,0.4l1.3-2c-0.7-0.4-1.6-0.7-2.7-0.7c-3.1,0-4,1.5-4,4.5c0,2.7,0.7,4.5,3.6,4.5c0.5,0,1,0,1.3-0.1h2.2V318v-1.6
			h-3.4L375.3,318.3z"/>
		<path fill="#EB1478" d="M391.8,318.3h1.5v0.2c0,1,0,1.4-1.1,1.4c-1.1,0-1.5-0.5-1.5-2.5c0-2.1,0.6-2.3,1.5-2.3
			c0.7,0,1.2,0.2,1.6,0.4l1.3-2c-0.7-0.4-1.6-0.7-2.7-0.7c-3.1,0-4,1.5-4,4.5c0,2.7,0.7,4.5,3.6,4.5c0.5,0,1,0,1.3-0.1h2.2V318v-1.6
			h-3.4L391.8,318.3z"/>
		<polygon fill="#EB1478" points="371.2,315 371.2,312.9 365.4,312.9 365.4,321.7 371.2,321.7 371.2,319.6 367.7,319.6 367.7,318.3 
			370,318.3 370.3,316.2 367.7,316.2 367.7,315 		"/>
	</g>
</g>
<g id="Layer_34">
</g>
</svg>
