<?xml version="1.0" encoding="utf-8"?>
<!-- Generator: Adobe Illustrator 17.1.0, SVG Export Plug-In . SVG Version: 6.00 Build 0)  -->
<!DOCTYPE svg PUBLIC "-//W3C//DTD SVG 1.1//EN" "http://www.w3.org/Graphics/SVG/1.1/DTD/svg11.dtd">
<svg version="1.1" xmlns="http://www.w3.org/2000/svg" xmlns:xlink="http://www.w3.org/1999/xlink" x="0px" y="0px"
	 viewBox="190 -37.6 266 91.7" enable-background="new 190 -37.6 266 91.7" xml:space="preserve">
<g id="estimote">
</g>
<g id="Layer_2">
</g>
<g id="Spark">
</g>
<g id="Layer_4">
</g>
<g id="Layer_5">
</g>
<g id="Layer_6">
</g>
<g id="Base">
</g>
<g id="yelp">
</g>
<g id="Yext">
</g>
<g id="Estimote">
</g>
<g id="Kloudless">
</g>
<g id="Microsoft">
</g>
<g id="Big_Viking">
</g>
<g id="_x35_00px">
</g>
<g id="Magnet_Forensics">
</g>
<g id="Guides">
</g>
<g id="Wit.Ai">
</g>
<g id="Layer_18">
</g>
<g id="Kik">
</g>
<g id="Layer_20">
	<g>
		<g>
			<path fill="#141414" d="M313,1.1V19c0,1.4,0.6,2.1,2.1,2.1c1.6,0,4.4-0.9,6.7-2.2V1.1h6.4v25.6h-4.9l-0.6-2.2
				c-3.2,1.6-7.3,2.7-10.3,2.7c-4.3,0-5.8-3-5.8-7.6V1.1H313z"/>
			<path fill="#141414" d="M346,26.7V8.8c0-1.4-0.6-2.1-2.1-2.1c-1.6,0-4.4,0.9-6.7,2.2v17.8h-6.4V1.1h4.9l0.6,2.2
				c3.2-1.6,7.3-2.7,10.3-2.7c4.3,0,5.8,3,5.8,7.6v18.6H346z"/>
			<path fill="#141414" d="M355.1-2.6V-10h6.4v7.4H355.1z M355.1,26.7V1.1h6.4v25.6H355.1z"/>
			<path fill="#141414" d="M379.7,26.2c-1.4,0.6-4,1-5.6,1c-4.7,0-7-2.2-7-6.8V6.2h-3.8V1.1h3.8v-6.4l6.4-0.9v7.3h6.6l-0.4,5.1h-6.2
				v13.4c0,1.4,0.6,2.3,2.3,2.3c0.9,0,2.1-0.2,3.2-0.5L379.7,26.2z"/>
			<path fill="#141414" d="M397.6,26.7l-3.4,10.4h-6.1l3.2-10.4H389l-8.1-25.6h6.6l5.8,19.5l5.9-19.5h6.6L397.6,26.7z"/>
		</g>
		<path fill="#141414" d="M300.2-0.1l-6.6-24.5L269.1-18l-3.6,6.4l-7.4-0.1L240.2,6.3l17.9,17.9h0l7.4-0.1l3.6,6.4l24.5,6.6
			l6.6-24.5l-3.7-6.3L300.2-0.1z M284.8-15.4L274.1,3.3h-21.5l13.5-13.8L284.8-15.4z M274.1,9.3l10.8,18.6l-18.7-4.8L252.5,9.3
			H274.1z M279.3,6.3L290-12.3l5.2,18.6L290,24.9L279.3,6.3z"/>
	</g>
</g>
</svg>
