<?xml version="1.0" encoding="utf-8"?>
<!-- Generator: Adobe Illustrator 17.1.0, SVG Export Plug-In . SVG Version: 6.00 Build 0)  -->
<!DOCTYPE svg PUBLIC "-//W3C//DTD SVG 1.1//EN" "http://www.w3.org/Graphics/SVG/1.1/DTD/svg11.dtd">
<svg version="1.1" xmlns="http://www.w3.org/2000/svg" xmlns:xlink="http://www.w3.org/1999/xlink" x="0px" y="0px"
	 viewBox="495.8 350 174 60" enable-background="new 495.8 350 174 60" xml:space="preserve">
<g id="estimote">
</g>
<g id="Pebble">
</g>
<g id="Spark">
</g>
<g id="Layer_4">
</g>
<g id="Layer_5">
</g>
<g id="Layer_6">
</g>
<g id="Base">
</g>
<g id="yelp">
</g>
<g id="Yext">
</g>
<g id="Estimote">
</g>
<g id="Microsoft">
</g>
<g id="Big_Viking">
</g>
<g id="_x35_00px">
</g>
<g id="Magnet_Forensics">
</g>
<g id="Guides">
</g>
<g id="Wit.Ai" display="none">
</g>
<g id="Layer_18">
</g>
<g id="Kik">
</g>
<g id="Layer_20">
</g>
<g id="Affirm">
</g>
<g id="Shopify">
</g>
<g id="apple">
</g>
<g id="velocity">
</g>
<g id="pagerduty">
</g>
<g id="Layer_26">
</g>
<g id="bitalino">
</g>
<g id="TextNow">
</g>
<g id="Uber">
</g>
<g id="mars">
</g>
<g id="twilio">
</g>
<g id="wit-ai">
</g>
<g id="indiegogo">
</g>
<g id="Layer_34">
</g>
<g id="cisco">
</g>
<g id="teespring">
</g>
<g id="sendgrid">
</g>
<g id="kloudless">
</g>
<g id="uwaterloo">
</g>
<g id="loblaws">
</g>
<g id="Layer_40">
</g>
<g id="Layer_41">
</g>
<g id="conrad">
</g>
<g id="ziggeo">
</g>
<g id="n36">
</g>
<g id="communitech">
	<g>
		<path fill="#007DC2" d="M608.7,372.5h12v4.1h-3.9v10.9h-4.4l0-10.9h-3.8V372.5z M599.9,368.9l3.3,5.7v-2.1h4.4v9.6l6.9,12
			l7.2-12.5v-9.2h5.3l2.1-3.6H599.9z"/>
		<path fill="#231F20" d="M514.1,381.9h2.5v0.4c0,1.8-0.3,3-1,3.5c-0.7,0.5-2.1,0.8-4.4,0.8c-2.6,0-4.2-0.4-4.8-1.3
			c-0.6-0.8-0.9-3.1-0.9-6.8c0-2.2,0.4-3.6,1.2-4.3c0.8-0.7,2.5-1,5-1c1.9,0,3.1,0.3,3.7,0.8c0.6,0.6,0.9,1.7,0.9,3.3l0,0.3H514
			v-0.3c0-0.9-0.2-1.4-0.5-1.6c-0.3-0.2-1.1-0.4-2.2-0.4c-1.5,0-2.5,0.2-2.8,0.6c-0.3,0.4-0.5,1.5-0.5,3.3c0,2.5,0.1,4,0.4,4.4
			c0.3,0.5,1.2,0.7,2.7,0.7c1.2,0,2-0.1,2.4-0.4c0.4-0.3,0.5-0.8,0.5-1.7L514.1,381.9z"/>
		<path fill="#231F20" d="M525.1,375.5c-1.7,0-2.6,0.2-2.9,0.6c-0.3,0.4-0.4,1.9-0.4,4.4c0,1.9,0.2,3,0.5,3.4
			c0.3,0.4,1.3,0.6,2.9,0.6c1.5,0,2.4-0.2,2.7-0.6c0.3-0.4,0.5-1.7,0.5-3.9c0-2.2-0.1-3.5-0.4-3.9
			C527.6,375.7,526.7,375.5,525.1,375.5 M525.3,373.4c2.4,0,3.9,0.4,4.6,1.2c0.7,0.8,1,2.5,1,5.3c0,3-0.3,4.9-1,5.7
			c-0.7,0.8-2.3,1.2-5,1.2c-2.4,0-3.9-0.4-4.6-1.2c-0.7-0.8-1-2.5-1-5.1c0-3.1,0.3-5.1,1-5.9C521,373.8,522.6,373.4,525.3,373.4"/>
		<path fill="#231F20" d="M549.6,373.5v13.1h-2.5v-7.1c0-0.6,0-1.2,0-1.9l0-1l0-1h-0.1l-0.3,0.9l-0.3,0.9c-0.3,0.8-0.5,1.4-0.6,1.8
			l-2.9,7.4h-2.3l-2.9-7.3c-0.2-0.4-0.4-1-0.6-1.8l-0.3-0.9l-0.3-0.9h-0.1l0,0.9l0,1c0,0.7,0.1,1.4,0.1,1.9v7.1h-2.5v-13.1h4l2.3,6
			c0.2,0.4,0.4,1,0.6,1.8l0.3,0.9l0.3,0.9h0.1l0.3-0.9l0.3-0.9c0.2-0.8,0.4-1.4,0.6-1.8l2.3-6.1H549.6z"/>
		<path fill="#231F20" d="M568.9,373.5v13.1h-2.5v-7.1c0-0.6,0-1.2,0-1.9l0-1l0-1h-0.1l-0.3,0.9l-0.3,0.9c-0.3,0.8-0.5,1.4-0.6,1.8
			l-2.9,7.4h-2.3l-2.9-7.3c-0.2-0.4-0.4-1-0.6-1.8l-0.3-0.9l-0.3-0.9H556l0,0.9l0,1c0,0.7,0.1,1.4,0.1,1.9v7.1h-2.5v-13.1h4l2.3,6
			c0.2,0.4,0.4,1,0.6,1.8l0.3,0.9l0.3,0.9h0.1l0.3-0.9l0.3-0.9c0.2-0.8,0.4-1.4,0.6-1.8l2.3-6.1H568.9z"/>
		<path fill="#231F20" d="M581.4,373.5h2.5v8.7c0,1.8-0.3,3-1,3.6c-0.7,0.6-2.1,0.9-4.3,0.9c-2.3,0-3.8-0.3-4.5-0.8
			c-0.7-0.6-1.1-1.7-1.1-3.5v-8.8h2.5v8.8c0,1,0.2,1.6,0.5,1.8c0.3,0.3,1.2,0.4,2.4,0.4c1.3,0,2.1-0.1,2.5-0.4
			c0.3-0.3,0.5-0.9,0.5-1.9V373.5z"/>
		<path fill="#231F20" d="M600,373.5v13.1h-4.2l-3.7-7.2c-0.2-0.4-0.5-1-0.9-1.9l-0.4-0.9l-0.4-0.9h-0.1l0,0.9l0,0.9l0,1.7v7.5h-2.5
			v-13.1h4.2l3.4,6.6c0.3,0.6,0.6,1.3,1,2.1l0.5,1.1l0.5,1.1h0.1l0-0.8l0-0.8l0-1.7v-7.5H600z"/>
		<rect x="604.1" y="373.5" fill="#231F20" width="2.5" height="13.1"/>
		<polygon fill="#231F20" points="615.9,375.7 615.9,386.5 613.4,386.5 613.4,375.7 609.6,375.7 609.6,373.5 619.7,373.5 
			619.7,375.7 		"/>
		<polygon fill="#231F20" points="625,375.5 625,378.9 631.1,378.9 631.1,380.8 625,380.8 625,384.5 631.5,384.5 631.5,386.5 
			622.5,386.5 622.5,373.5 631.4,373.5 631.4,375.5 		"/>
		<g>
			<path fill="#231F20" d="M643.2,381.9h2.5v0.4c0,1.8-0.3,3-1,3.5c-0.7,0.5-2.1,0.8-4.4,0.8c-2.6,0-4.2-0.4-4.8-1.3
				c-0.6-0.8-0.9-3.1-0.9-6.8c0-2.2,0.4-3.6,1.2-4.3c0.8-0.7,2.5-1,5-1c1.9,0,3.1,0.3,3.7,0.8c0.6,0.6,0.9,1.7,0.9,3.3l0,0.3h-2.5
				v-0.3c0-0.9-0.2-1.4-0.5-1.6c-0.3-0.2-1.1-0.4-2.2-0.4c-1.5,0-2.5,0.2-2.8,0.6c-0.3,0.4-0.5,1.5-0.5,3.3c0,2.5,0.1,4,0.4,4.4
				c0.3,0.5,1.2,0.7,2.7,0.7c1.2,0,2-0.1,2.4-0.4c0.4-0.3,0.5-0.8,0.5-1.7L643.2,381.9z"/>
		</g>
		<polygon fill="#231F20" points="660,373.5 660,386.5 657.6,386.5 657.6,380.9 651.5,380.9 651.5,386.5 649,386.5 649,373.5 
			651.5,373.5 651.5,378.8 657.6,378.8 657.6,373.5 		"/>
	</g>
</g>
</svg>
