<?xml version="1.0" encoding="utf-8"?>
<!-- Generator: Adobe Illustrator 17.1.0, SVG Export Plug-In . SVG Version: 6.00 Build 0)  -->
<!DOCTYPE svg PUBLIC "-//W3C//DTD SVG 1.1//EN" "http://www.w3.org/Graphics/SVG/1.1/DTD/svg11.dtd">
<svg version="1.1" xmlns="http://www.w3.org/2000/svg" xmlns:xlink="http://www.w3.org/1999/xlink" x="0px" y="0px"
	 viewBox="282 312.3 174 60" enable-background="new 282 312.3 174 60" xml:space="preserve">
<g id="estimote">
</g>
<g id="Layer_2">
</g>
<g id="Spark">
</g>
<g id="Layer_4">
</g>
<g id="Layer_5">
</g>
<g id="Layer_6">
</g>
<g id="Base">
</g>
<g id="yelp">
</g>
<g id="Yext">
</g>
<g id="Estimote">
</g>
<g id="Kloudless">
</g>
<g id="Microsoft">
</g>
<g id="Big_Viking">
</g>
<g id="_x35_00px">
	<g>
		<path fill="#231F20" d="M344.4,331.7l-1.2,7l0.1,0.1c0.9-0.9,1.8-1.5,2.7-1.8c1-0.4,2.1-0.6,3.3-0.6c1.5,0,2.9,0.3,4.1,0.8
			c1.2,0.6,2.2,1.3,3,2.3c0.8,0.9,1.4,2.1,1.9,3.3c0.4,1.3,0.6,2.6,0.6,4.1c0,1.6-0.3,3.1-0.9,4.4c-0.6,1.4-1.5,2.6-2.5,3.6
			c-1,1-2.3,1.8-3.6,2.3c-1.4,0.5-2.9,0.8-4.4,0.8c-1.5,0-2.9-0.2-4.3-0.6c-1.4-0.4-2.6-1-3.6-1.8c-1.1-0.8-1.9-1.8-2.5-3.1
			c-0.6-1.2-1-2.6-1-4.3h6.3c0.1,1.4,0.7,2.5,1.6,3.4c0.9,0.8,2.1,1.3,3.5,1.3c0.8,0,1.6-0.2,2.2-0.5c0.7-0.3,1.2-0.8,1.7-1.3
			c0.5-0.5,0.8-1.2,1.1-1.9c0.3-0.7,0.4-1.5,0.4-2.2c0-0.8-0.1-1.5-0.4-2.3c-0.2-0.7-0.6-1.3-1.1-1.9c-0.5-0.5-1-0.9-1.7-1.2
			c-0.6-0.3-1.4-0.4-2.3-0.4c-1.1,0-2,0.2-2.7,0.6c-0.7,0.4-1.4,1-2,1.9h-5.7l3.1-17.1h17.3v5.2H344.4z"/>
		<path fill="#231F20" d="M371.5,357.3c1.1-0.4,2.1-0.9,3-1.5c0.9-0.6,1.8-1.4,2.6-2.2c0.8-0.8,1.7-1.7,2.5-2.6
			c0.8,0.9,1.6,1.8,2.5,2.6c0.9,0.8,1.8,1.6,2.7,2.2c1,0.6,2,1.1,3.1,1.5c1.1,0.4,2.3,0.6,3.6,0.6c1.6,0,3.1-0.3,4.5-0.9
			c1.3-0.6,2.4-1.4,3.3-2.5c0.9-1,1.6-2.3,2.1-3.7c0.5-1.4,0.7-2.9,0.7-4.5c0-1.6-0.2-3.1-0.7-4.4c-0.5-1.4-1.2-2.5-2.1-3.5
			c-0.9-1-2-1.8-3.3-2.4c-1.3-0.6-2.8-0.9-4.4-0.9c-1.3,0-2.5,0.2-3.7,0.6c-1.1,0.4-2.2,1-3.1,1.6c-1,0.7-1.9,1.5-2.7,2.4
			c-0.8,0.9-1.6,1.8-2.4,2.8c-0.8-1-1.6-1.9-2.5-2.8c-0.8-0.9-1.7-1.7-2.7-2.3c-1-0.7-2-1.2-3.1-1.6c-1.1-0.4-2.4-0.6-3.7-0.6
			c-1.6,0-3.1,0.3-4.4,0.9c-1.3,0.6-2.4,1.4-3.3,2.4c-0.9,1-1.6,2.2-2.1,3.6c-0.5,1.4-0.7,2.9-0.7,4.5s0.2,3.1,0.7,4.5
			c0.5,1.4,1.2,2.6,2.1,3.6c0.9,1,2.1,1.8,3.4,2.4c1.3,0.6,2.8,0.9,4.5,0.9C369.2,357.9,370.4,357.7,371.5,357.3z M364.2,350.3
			c-0.9-0.9-1.3-2.1-1.3-3.6c0-1.4,0.4-2.6,1.3-3.7c0.8-1.1,2-1.6,3.4-1.6c0.8,0,1.6,0.2,2.3,0.5c0.8,0.3,1.5,0.8,2.2,1.3
			c0.7,0.5,1.4,1.1,2.1,1.7c0.7,0.6,1.2,1.2,1.7,1.7c-0.5,0.6-1,1.2-1.7,1.7c-0.6,0.6-1.3,1.1-2,1.6c-0.7,0.5-1.4,0.9-2.2,1.2
			c-0.8,0.3-1.6,0.5-2.3,0.5C366.3,351.7,365.1,351.2,364.2,350.3z M389.2,351.3c-0.8-0.3-1.5-0.7-2.2-1.1c-0.7-0.5-1.4-1-2-1.6
			c-0.6-0.6-1.2-1.2-1.7-1.8c0.5-0.5,1-1.1,1.7-1.7c0.6-0.6,1.3-1.2,1.9-1.7c0.7-0.5,1.4-1,2.1-1.3c0.8-0.3,1.5-0.5,2.4-0.5
			c1.5,0,2.7,0.5,3.6,1.5c0.9,1,1.3,2.3,1.3,3.7c0,1.4-0.4,2.6-1.2,3.6c-0.8,1-2,1.5-3.5,1.5C390.8,351.7,390,351.5,389.2,351.3z"/>
	</g>
</g>
<g id="Guides">
</g>
</svg>
