<?xml version="1.0" encoding="utf-8"?>
<!-- Generator: Adobe Illustrator 17.1.0, SVG Export Plug-In . SVG Version: 6.00 Build 0)  -->
<!DOCTYPE svg PUBLIC "-//W3C//DTD SVG 1.1//EN" "http://www.w3.org/Graphics/SVG/1.1/DTD/svg11.dtd">
<svg version="1.1" xmlns="http://www.w3.org/2000/svg" xmlns:xlink="http://www.w3.org/1999/xlink" x="0px" y="0px"
	 viewBox="-91 -36.8 266 91.8" enable-background="new -91 -36.8 266 91.8" xml:space="preserve">
<g id="estimote">
</g>
<g id="Pebble">
</g>
<g id="Spark">
</g>
<g id="Layer_4">
</g>
<g id="Layer_5">
</g>
<g id="Layer_6">
</g>
<g id="Base">
</g>
<g id="yelp">
</g>
<g id="Yext">
</g>
<g id="Estimote">
</g>
<g id="Microsoft">
</g>
<g id="Big_Viking">
</g>
<g id="_x35_00px">
</g>
<g id="Magnet_Forensics">
</g>
<g id="Guides">
</g>
<g id="Wit.Ai" display="none">
</g>
<g id="Layer_18">
</g>
<g id="Kik">
</g>
<g id="Layer_20">
</g>
<g id="Affirm">
</g>
<g id="Shopify">
</g>
<g id="apple">
</g>
<g id="velocity">
</g>
<g id="pagerduty">
</g>
<g id="Layer_26">
</g>
<g id="bitalino">
</g>
<g id="TextNow">
</g>
<g id="Uber">
</g>
<g id="mars">
</g>
<g id="twilio">
</g>
<g id="wit-ai">
</g>
<g id="indiegogo">
</g>
<g id="Layer_34">
</g>
<g id="cisco">
</g>
<g id="teespring">
</g>
<g id="sendgrid">
</g>
<g id="kloudless">
</g>
<g id="uwaterloo">
</g>
<g id="loblaws">
</g>
<g id="Layer_40">
</g>
<g id="Layer_41">
</g>
<g id="conrad">
	<g>
		<path fill="#231F20" d="M-25.8,2.9L-25.8,2.9c0-9.1,7.3-16.4,16.9-16.4C0.8-13.5,8-6.2,8,2.8v0.1c0,9-7.3,16.3-16.9,16.3
			C-18.7,19.2-25.8,12-25.8,2.9z M-0.9,2.9L-0.9,2.9c0-4.6-3.3-8.6-8.1-8.6c-4.8,0-7.9,3.9-7.9,8.4v0.1c0,4.5,3.3,8.5,8,8.5
			C-4.1,11.3-0.9,7.5-0.9,2.9z"/>
		<path fill="#231F20" d="M12.1-12.8h8.1L33.2,3.8v-16.6h8.6v31.4h-7.6L20.7,1.3v17.2h-8.6V-12.8z"/>
		<path fill="#231F20" d="M47.7-12.8h14.8c4.8,0,8.1,1.3,10.2,3.4c1.8,1.8,2.8,4.2,2.8,7.3V-2c0,4.8-2.6,8-6.5,9.6l7.5,10.9h-10
			L60.2,9h-0.1h-3.7v9.5h-8.7V-12.8z M62.2,2.2c3,0,4.7-1.4,4.7-3.7v-0.1c0-2.5-1.8-3.7-4.7-3.7h-5.7v7.5H62.2z"/>
		<path fill="#231F20" d="M91.8-13.1h8.4l13.4,31.6h-9.3l-2.3-5.6H89.9l-2.2,5.6h-9.1L91.8-13.1z M99.5,6.2L96-2.7l-3.5,8.9H99.5z"
			/>
		<path fill="#231F20" d="M115.5-12.8h12.1c11.2,0,17.7,6.5,17.7,15.5v0.1c0,9.1-6.6,15.8-17.9,15.8h-11.9V-12.8z M127.8,10.8
			c5.2,0,8.7-2.9,8.7-7.9V2.8c0-5-3.5-7.9-8.7-7.9h-3.5v16H127.8z"/>
		<g>
			<path fill="#231F20" d="M-52.4-13.1h-8.9V-4C-59.6-8-56.5-11.3-52.4-13.1z"/>
			<path fill="#231F20" d="M-29.5-8.3v-4.8h-6C-33-12-31.1-10.3-29.5-8.3z"/>
			<path fill="#231F20" d="M-29.5-7.3l-6.9,5.2c-2-2.5-4.4-4.1-7.8-4.1c-5,0-8.5,4.1-8.5,9.2v0.1c0,5.2,3.5,9.3,8.5,9.3
				c3.7,0,5.9-1.7,8-4.2l6.7,4.6V-7.3z"/>
			<path fill="#231F20" d="M-61.3,10.4v8.3h7.5C-57.2,16.8-59.8,13.9-61.3,10.4z"/>
			<path fill="#231F20" d="M-34.5,18.7h5.1v-4.5C-30.9,16-32.5,17.6-34.5,18.7z"/>
		</g>
		<g>
			<path fill="#DC1351" d="M-61.3,25.1h1.3c1.5,0,2.7,0.5,2.7,1.6v0c0,0.9-0.7,1.3-1.4,1.5c0.8,0.2,1.5,0.6,1.5,1.5v0.1
				c0,1.1-1.2,1.8-2.9,1.8h-1.2V25.1z M-60,27.9c0.9,0,1.4-0.4,1.4-1v0c0-0.6-0.5-1-1.3-1h-0.2v2H-60z M-60,30.8
				c0.9,0,1.5-0.4,1.5-1v0c0-0.7-0.6-1-1.5-1h-0.2v2H-60z"/>
			<path fill="#DC1351" d="M-55.2,29.8v-4.7h1.2v4.8c0,0.7,0.4,1,0.9,1c0.5,0,0.9-0.3,0.9-1v-4.8h1.2v4.7c0,1.3-0.9,1.9-2.1,1.9
				C-54.4,31.7-55.2,31.1-55.2,29.8z"/>
			<path fill="#DC1351" d="M-49,31.4v-1c0.6,0.3,1,0.4,1.4,0.4c0.5,0,0.9-0.2,0.9-0.7v0c0-0.4-0.2-0.6-1-1.4c-1.1-1-1.5-1.4-1.5-2.1
				v0c0-1,0.9-1.6,2-1.6c0.6,0,1,0.1,1.4,0.2v1c-0.5-0.2-0.8-0.3-1.2-0.3c-0.5,0-0.9,0.3-0.9,0.7v0c0,0.4,0.2,0.6,1,1.3
				c1.2,1,1.5,1.5,1.5,2.2v0c0,1-0.9,1.6-2.1,1.6C-48,31.7-48.5,31.5-49,31.4z"/>
			<path fill="#DC1351" d="M-43.3,25.1h1.2v6.5h-1.2V25.1z"/>
			<path fill="#DC1351" d="M-39.7,25.1h1.2l1.9,3.9v-3.9h1.2v6.5h-1.1l-2-4.1v4.1h-1.2V25.1z"/>
			<path fill="#DC1351" d="M-33.1,25.1h3.3v0.9h-2v1.9h1.8v0.9h-1.8v2h2v0.9h-3.3V25.1z"/>
			<path fill="#DC1351" d="M-27.9,31.4v-1c0.6,0.3,1,0.4,1.4,0.4c0.5,0,0.9-0.2,0.9-0.7v0c0-0.4-0.2-0.6-1-1.4
				c-1.1-1-1.5-1.4-1.5-2.1v0c0-1,0.9-1.6,2-1.6c0.6,0,1,0.1,1.4,0.2v1c-0.5-0.2-0.8-0.3-1.2-0.3c-0.5,0-0.9,0.3-0.9,0.7v0
				c0,0.4,0.2,0.6,1,1.3c1.2,1,1.5,1.5,1.5,2.2v0c0,1-0.9,1.6-2.1,1.6C-27,31.7-27.5,31.5-27.9,31.4z"/>
			<path fill="#DC1351" d="M-22.6,31.4v-1c0.6,0.3,1,0.4,1.4,0.4c0.5,0,0.9-0.2,0.9-0.7v0c0-0.4-0.2-0.6-1-1.4
				c-1.1-1-1.5-1.4-1.5-2.1v0c0-1,0.9-1.6,2-1.6c0.6,0,1,0.1,1.4,0.2v1c-0.5-0.2-0.8-0.3-1.2-0.3c-0.5,0-0.9,0.3-0.9,0.7v0
				c0,0.4,0.2,0.6,1,1.3c1.2,1,1.5,1.5,1.5,2.2v0c0,1-0.9,1.6-2.1,1.6C-21.7,31.7-22.2,31.5-22.6,31.4z"/>
			<path fill="#DC1351" d="M-15.8,30.5h1.4v1.1h-1.4V30.5z"/>
			<path fill="#DC1351" d="M-10.6,25.1h3.3v0.9h-2v1.9h1.8v0.9h-1.8v2h2v0.9h-3.3V25.1z"/>
			<path fill="#DC1351" d="M-5.2,25.1h1.2l1.9,3.9v-3.9h1.2v6.5h-1.1l-2-4.1v4.1h-1.2V25.1z"/>
			<path fill="#DC1351" d="M2.2,25.9H1v-0.9h3.6v0.9H3.5v5.7H2.2V25.9z"/>
			<path fill="#DC1351" d="M6.6,25.1H8c1.6,0,2.7,0.6,2.7,2v0.1c0,0.9-0.5,1.4-1.2,1.7l1.3,2.7H9.5l-1.2-2.4c-0.1,0-0.1,0-0.2,0H7.9
				v2.4H6.6V25.1z M8.1,28.4c0.8,0,1.4-0.4,1.4-1.2v-0.1c0-0.9-0.6-1.2-1.4-1.2H7.9v2.5H8.1z"/>
			<path fill="#DC1351" d="M12.8,25.1h3.3v0.9h-2v1.9h1.8v0.9h-1.8v2h2v0.9h-3.3V25.1z"/>
			<path fill="#DC1351" d="M18.2,25.1h1.3c1.6,0,2.8,0.7,2.8,2.2v0c0,1.4-1.1,2.1-2.6,2.2h-0.2v2.2h-1.2V25.1z M19.6,28.6
				c0.8,0,1.4-0.5,1.4-1.3v0c0-0.9-0.5-1.3-1.4-1.3h-0.2v2.7H19.6z"/>
			<path fill="#DC1351" d="M24.2,25.1h1.4c1.6,0,2.7,0.6,2.7,2v0.1c0,0.9-0.5,1.4-1.2,1.7l1.3,2.7h-1.3L26,29.2c-0.1,0-0.1,0-0.2,0
				h-0.3v2.4h-1.2V25.1z M25.7,28.4c0.8,0,1.4-0.4,1.4-1.2v-0.1c0-0.9-0.6-1.2-1.4-1.2h-0.2v2.5H25.7z"/>
			<path fill="#DC1351" d="M30.4,25.1h3.3v0.9h-2v1.9h1.8v0.9h-1.8v2h2v0.9h-3.3V25.1z"/>
			<path fill="#DC1351" d="M35.8,25.1H37l1.9,3.9v-3.9h1.2v6.5H39l-2-4.1v4.1h-1.2V25.1z"/>
			<path fill="#DC1351" d="M42.4,25.1h3.3v0.9h-2v1.9h1.8v0.9h-1.8v2h2v0.9h-3.3V25.1z"/>
			<path fill="#DC1351" d="M47.8,29.8v-4.7H49v4.8c0,0.7,0.4,1,0.9,1c0.5,0,0.9-0.3,0.9-1v-4.8H52v4.7c0,1.3-0.9,1.9-2.1,1.9
				C48.6,31.7,47.8,31.1,47.8,29.8z"/>
			<path fill="#DC1351" d="M54.3,25.1h1.4c1.6,0,2.7,0.6,2.7,2v0.1c0,0.9-0.5,1.4-1.2,1.7l1.3,2.7h-1.3L56,29.2c-0.1,0-0.1,0-0.2,0
				h-0.3v2.4h-1.2V25.1z M55.7,28.4c0.8,0,1.4-0.4,1.4-1.2v-0.1c0-0.9-0.6-1.2-1.4-1.2h-0.2v2.5H55.7z"/>
			<path fill="#DC1351" d="M60.3,31.4v-1c0.6,0.3,1,0.4,1.4,0.4c0.5,0,0.9-0.2,0.9-0.7v0c0-0.4-0.2-0.6-1-1.4
				c-1.1-1-1.5-1.4-1.5-2.1v0c0-1,0.9-1.6,2-1.6c0.6,0,1,0.1,1.4,0.2v1c-0.5-0.2-0.8-0.3-1.2-0.3c-0.5,0-0.9,0.3-0.9,0.7v0
				c0,0.4,0.2,0.6,1,1.3c1.2,1,1.5,1.5,1.5,2.2v0c0,1-0.9,1.6-2.1,1.6C61.2,31.7,60.7,31.5,60.3,31.4z"/>
			<path fill="#DC1351" d="M65.8,25.1h1.2v2.8h1.7v-2.8h1.2v6.5h-1.2v-2.8h-1.7v2.8h-1.2V25.1z"/>
			<path fill="#DC1351" d="M72.4,25.1h1.2v6.5h-1.2V25.1z"/>
			<path fill="#DC1351" d="M76,25.1h1.3c1.6,0,2.8,0.7,2.8,2.2v0c0,1.4-1.1,2.1-2.6,2.2h-0.2v2.2H76V25.1z M77.4,28.6
				c0.8,0,1.4-0.5,1.4-1.3v0c0-0.9-0.5-1.3-1.4-1.3h-0.2v2.7H77.4z"/>
			<path fill="#DC1351" d="M82.7,30.5h1.4v1.1h-1.4V30.5z"/>
			<path fill="#DC1351" d="M87.8,25.9h-1.2v-0.9h3.6v0.9H89v5.7h-1.2V25.9z"/>
			<path fill="#DC1351" d="M92.2,25.1h3.3v0.9h-2v1.9h1.8v0.9h-1.8v2h2v0.9h-3.3V25.1z"/>
			<path fill="#DC1351" d="M97.3,28.4v-0.2c0-2.3,1.1-3.2,2.5-3.2c0.4,0,0.7,0,1,0.2v0.9c-0.3-0.1-0.6-0.2-0.9-0.2
				c-0.8,0-1.4,0.6-1.4,2.3v0.2c0,1.8,0.6,2.3,1.4,2.3c0.3,0,0.6-0.1,0.9-0.2v0.9c-0.3,0.1-0.6,0.2-1.1,0.2
				C98.3,31.6,97.3,30.7,97.3,28.4z"/>
			<path fill="#DC1351" d="M102.9,25.1h1.2v2.8h1.7v-2.8h1.2v6.5h-1.2v-2.8h-1.7v2.8h-1.2V25.1z"/>
			<path fill="#DC1351" d="M109.5,25.1h1.2l1.9,3.9v-3.9h1.2v6.5h-1.1l-2-4.1v4.1h-1.2V25.1z"/>
			<path fill="#DC1351" d="M115.6,28.5v-0.3c0-2.2,0.9-3.2,2.3-3.2c1.3,0,2.3,1,2.3,3.2v0.3c0,2.2-0.9,3.2-2.3,3.2
				C116.6,31.7,115.6,30.7,115.6,28.5z M118.9,28.5v-0.3c0-1.7-0.4-2.4-1-2.4c-0.6,0-1,0.7-1,2.4v0.3c0,1.7,0.4,2.4,1,2.4
				C118.5,30.8,118.9,30.2,118.9,28.5z"/>
			<path fill="#DC1351" d="M122.1,25.1h1.2v5.7h1.8v0.9h-3V25.1z"/>
			<path fill="#DC1351" d="M126.5,28.5v-0.3c0-2.2,0.9-3.2,2.3-3.2c1.3,0,2.3,1,2.3,3.2v0.3c0,2.2-0.9,3.2-2.3,3.2
				C127.5,31.7,126.5,30.7,126.5,28.5z M129.8,28.5v-0.3c0-1.7-0.4-2.4-1-2.4c-0.6,0-1,0.7-1,2.4v0.3c0,1.7,0.4,2.4,1,2.4
				C129.4,30.8,129.8,30.2,129.8,28.5z"/>
			<path fill="#DC1351" d="M132.8,28.4v-0.2c0-2.1,1.2-3.2,2.9-3.2c0.5,0,0.8,0.1,1.1,0.2v1c-0.4-0.2-0.7-0.3-1.1-0.3
				c-0.9,0-1.6,0.7-1.6,2.3v0.3c0,1.8,0.8,2.3,1.5,2.3c0.1,0,0.2,0,0.3,0v-1.9h-0.9V28h2.1v3.4c-0.5,0.2-0.9,0.3-1.5,0.3
				C134,31.7,132.8,30.7,132.8,28.4z"/>
			<path fill="#DC1351" d="M140.2,29l-1.7-3.9h1.3l1,2.7l1.1-2.7h1.3l-1.7,3.9v2.6h-1.2V29z"/>
		</g>
	</g>
</g>
</svg>
