<?xml version="1.0" encoding="utf-8"?>
<!-- Generator: Adobe Illustrator 17.1.0, SVG Export Plug-In . SVG Version: 6.00 Build 0)  -->
<!DOCTYPE svg PUBLIC "-//W3C//DTD SVG 1.1//EN" "http://www.w3.org/Graphics/SVG/1.1/DTD/svg11.dtd">
<svg version="1.1" xmlns="http://www.w3.org/2000/svg" xmlns:xlink="http://www.w3.org/1999/xlink" x="0px" y="0px"
	 viewBox="282.7 350 174 60" enable-background="new 282.7 350 174 60" xml:space="preserve">
<g id="estimote">
</g>
<g id="Pebble">
</g>
<g id="Spark">
</g>
<g id="Layer_4">
</g>
<g id="Layer_5">
</g>
<g id="Layer_6">
</g>
<g id="Base">
</g>
<g id="yelp">
</g>
<g id="Yext">
</g>
<g id="Estimote">
</g>
<g id="Microsoft">
</g>
<g id="Big_Viking">
</g>
<g id="_x35_00px">
</g>
<g id="Magnet_Forensics">
</g>
<g id="Guides">
</g>
<g id="Wit.Ai" display="none">
</g>
<g id="Layer_18">
</g>
<g id="Kik">
</g>
<g id="Layer_20">
</g>
<g id="Affirm">
</g>
<g id="Shopify">
	<g>
		<g opacity="5.000000e-02">
			<image overflow="visible" width="96" height="77" xlink:href="6795C9DABA9B0316.png"  transform="matrix(1 0 0 1 283 284)">
			</image>
		</g>
		<g opacity="0.12">
			<image overflow="visible" width="95" height="77" xlink:href="6795C9DABA9B0311.png"  transform="matrix(1 0 0 1 283 284)">
			</image>
		</g>
	</g>
</g>
<g id="apple">
</g>
<g id="velocity">
</g>
<g id="pagerduty">
</g>
<g id="Layer_26">
</g>
<g id="bitalino">
	<g>
		<g>
			<g>
				<defs>
					<rect id="SVGID_37_" x="92.6" y="-369.1" width="112.5" height="41"/>
				</defs>
				<clipPath id="SVGID_2_">
					<use xlink:href="#SVGID_37_"  overflow="visible"/>
				</clipPath>
				<g clip-path="url(#SVGID_2_)">
					<g>
						<defs>
							<rect id="SVGID_43_" x="92.6" y="-369.1" width="112.5" height="41"/>
						</defs>
						<clipPath id="SVGID_3_">
							<use xlink:href="#SVGID_43_"  overflow="visible"/>
						</clipPath>
						<g clip-path="url(#SVGID_3_)">
							<g>
								<defs>
									<rect id="SVGID_49_" x="92.6" y="-369.1" width="112.5" height="41"/>
								</defs>
								<clipPath id="SVGID_4_">
									<use xlink:href="#SVGID_49_"  overflow="visible"/>
								</clipPath>
								<g clip-path="url(#SVGID_4_)">
									<g>
										<defs>
											<rect id="SVGID_55_" x="92.6" y="-369.1" width="112.5" height="41"/>
										</defs>
										<clipPath id="SVGID_5_">
											<use xlink:href="#SVGID_55_"  overflow="visible"/>
										</clipPath>
										<g clip-path="url(#SVGID_5_)">
											<g>
												<defs>
													<rect id="SVGID_61_" x="92.6" y="-369.1" width="112.5" height="41"/>
												</defs>
												<clipPath id="SVGID_6_">
													<use xlink:href="#SVGID_61_"  overflow="visible"/>
												</clipPath>
												<g clip-path="url(#SVGID_6_)">
													<g>
														<defs>
															<rect id="SVGID_67_" x="92.6" y="-369.1" width="112.5" height="41"/>
														</defs>
														<clipPath id="SVGID_7_">
															<use xlink:href="#SVGID_67_"  overflow="visible"/>
														</clipPath>
														<g id="g194" clip-path="url(#SVGID_7_)">
															<g>
																<defs>
																	<path id="SVGID_69_" d="M179.5-380.9c-1.5-0.8-2.5-2.3-2.5-4.1c0-2.3,1.7-4.3,4-4.6v1.4c-1.5,0.3-2.6,1.6-2.6,3.2
																		c0,1,0.4,1.9,1.2,2.5v-0.8h1.4v2.5v0.5c0,0,0,0,0,0l0,0C181-380.4,180.1-380.6,179.5-380.9"/>
																</defs>
																<clipPath id="SVGID_8_">
																	<use xlink:href="#SVGID_69_"  overflow="visible"/>
																</clipPath>
																<g id="g196" clip-path="url(#SVGID_8_)">
																	<g id="g202">
																		<defs>
																			
																				<rect id="SVGID_71_" x="-18.3" y="-533.2" transform="matrix(-0.7071 0.7071 -0.7071 -0.7071 -4.2858 -729.8545)" width="334.7" height="334.7"/>
																		</defs>
																		<clipPath id="SVGID_9_">
																			<use xlink:href="#SVGID_71_"  overflow="visible"/>
																		</clipPath>
																	</g>
																</g>
															</g>
														</g>
													</g>
												</g>
											</g>
										</g>
									</g>
								</g>
							</g>
						</g>
					</g>
				</g>
			</g>
		</g>
	</g>
</g>
<g id="TextNow">
</g>
<g id="Uber">
</g>
<g id="mars">
</g>
<g id="twilio">
</g>
<g id="wit-ai">
</g>
<g id="indiegogo">
</g>
<g id="Layer_34">
</g>
<g id="cisco">
</g>
<g id="teespring">
</g>
<g id="sendgrid">
</g>
<g id="kloudless">
</g>
<g id="uwaterloo">
</g>
<g id="loblaws">
</g>
<g id="Layer_40">
</g>
<g id="Layer_41">
	<g>
		<path fill="#00B0DA" d="M347.7,388.4h24.3c0,0.5-0.5,1.9-0.7,2.2h-23.6V388.4z"/>
		<path fill="#00B0DA" d="M347.7,367.4h23.6c0.2,0.4,0.7,1.7,0.7,2.2h-24.4V367.4z"/>
		<path fill="#00B0DA" d="M352.1,380H369c0.6,0.4,1.6,1.7,2,2.2h-18.8V380z"/>
		<path fill="#00B0DA" d="M365.3,386.4h7c0-0.6-0.2-1.8-0.4-2.2h-6.6V386.4z"/>
		<path fill="#00B0DA" d="M352.1,378H369c0.6-0.4,1.6-1.7,2-2.2h-18.9V378z"/>
		<path fill="#00B0DA" d="M365.3,371.6h7c0,0.5-0.2,1.8-0.4,2.2h-6.6V371.6z"/>
		<path fill="#00B0DA" d="M347.7,392.6h22c-1.9,1.7-3.7,2.2-6.7,2.2h-2.2h-13.1V392.6z"/>
		<path fill="#00B0DA" d="M347.7,365.4h22c-1.9-1.7-3.7-2.2-6.7-2.2h-2.2h-13.1V365.4z"/>
		<rect x="330.2" y="363.2" fill="#00B0DA" width="15.3" height="2.2"/>
		<rect x="330.2" y="367.4" fill="#00B0DA" width="15.3" height="2.2"/>
		<rect x="330.2" y="388.4" fill="#00B0DA" width="15.3" height="2.2"/>
		<rect x="334.6" y="384.2" fill="#00B0DA" width="6.6" height="2.2"/>
		<rect x="334.6" y="380" fill="#00B0DA" width="6.6" height="2.2"/>
		<rect x="334.6" y="375.8" fill="#00B0DA" width="6.6" height="2.2"/>
		<rect x="334.6" y="371.6" fill="#00B0DA" width="6.6" height="2.2"/>
		<rect x="352.1" y="384.2" fill="#00B0DA" width="6.6" height="2.2"/>
		<rect x="352.1" y="371.6" fill="#00B0DA" width="6.6" height="2.2"/>
		<polygon fill="#00B0DA" points="388.6,386.4 394.6,386.4 395.4,384.2 387.8,384.2 		"/>
		<polygon fill="#00B0DA" points="387.1,382.2 396.1,382.2 396.9,380 386.3,380 		"/>
		<rect x="330.2" y="392.6" fill="#00B0DA" width="15.3" height="2.2"/>
		<polygon fill="#00B0DA" points="391.5,394.8 391.7,394.8 392.5,392.6 390.7,392.6 		"/>
		<rect x="378.4" y="384.2" fill="#00B0DA" width="6.6" height="2.2"/>
		<rect x="378.4" y="380" fill="#00B0DA" width="6.6" height="2.2"/>
		<rect x="374.1" y="392.6" fill="#00B0DA" width="11" height="2.2"/>
		<rect x="374.1" y="388.4" fill="#00B0DA" width="11" height="2.2"/>
		<polygon fill="#00B0DA" points="390,390.6 393.2,390.6 393.9,388.4 389.2,388.4 		"/>
		<rect x="398.2" y="384.2" fill="#00B0DA" width="6.6" height="2.2"/>
		<rect x="398.2" y="380" fill="#00B0DA" width="6.6" height="2.2"/>
		<rect x="398.2" y="392.6" fill="#00B0DA" width="11" height="2.2"/>
		<rect x="398.2" y="388.4" fill="#00B0DA" width="11" height="2.2"/>
		<polygon fill="#00B0DA" points="389.4,371.6 378.4,371.6 378.4,373.8 390.2,373.8 		"/>
		<polygon fill="#00B0DA" points="392.3,375.8 391.6,377.8 390.9,375.8 378.4,375.8 378.4,378 385,378 385,376.3 385.6,378 
			397.6,378 398.2,376.3 398.2,376.3 398.2,376.3 398.2,378 404.7,378 404.7,375.8 		"/>
		<polygon fill="#00B0DA" points="386.4,363.2 374.1,363.2 374.1,365.4 387.2,365.4 		"/>
		<polygon fill="#00B0DA" points="387.9,367.4 374.1,367.4 374.1,369.6 388.7,369.6 		"/>
		<polygon fill="#00B0DA" points="393.8,371.6 404.7,371.6 404.7,373.8 393,373.8 		"/>
		<polygon fill="#00B0DA" points="396.8,363.2 409.1,363.2 409.1,365.4 396,365.4 		"/>
		<polygon fill="#00B0DA" points="395.3,367.4 409.1,367.4 409.1,369.6 394.5,369.6 		"/>
	</g>
	<path fill="#00B0DA" d="M367.9,379c0-1,0.8-1.7,1.7-1.7c1,0,1.7,0.8,1.7,1.7c0,1-0.8,1.7-1.7,1.7C368.7,380.7,367.9,380,367.9,379z
		 M371.1,379c0-0.8-0.6-1.5-1.5-1.5c-0.8,0-1.5,0.7-1.5,1.5c0,0.9,0.6,1.5,1.5,1.5C370.5,380.5,371.1,379.8,371.1,379z M370.5,380
		h-0.3l-0.6-0.9h-0.4v0.9H369V378h0.8c0.5,0,0.7,0.2,0.7,0.5c0,0.4-0.3,0.5-0.6,0.5L370.5,380z M369.6,378.9c0.3,0,0.7,0,0.7-0.3
		c0-0.3-0.2-0.3-0.5-0.3h-0.6v0.7H369.6z"/>
</g>
<g id="conrad">
</g>
</svg>
