<?xml version="1.0" encoding="utf-8"?>
<!-- Generator: Adobe Illustrator 17.1.0, SVG Export Plug-In . SVG Version: 6.00 Build 0)  -->
<!DOCTYPE svg PUBLIC "-//W3C//DTD SVG 1.1//EN" "http://www.w3.org/Graphics/SVG/1.1/DTD/svg11.dtd">
<svg version="1.1" xmlns="http://www.w3.org/2000/svg" xmlns:xlink="http://www.w3.org/1999/xlink" x="0px" y="0px"
	 viewBox="-276.3 490 174 60" enable-background="new -276.3 490 174 60" xml:space="preserve">
<g id="estimote">
</g>
<g id="Pebble">
</g>
<g id="Spark">
</g>
<g id="Layer_4">
</g>
<g id="Layer_5">
</g>
<g id="Layer_6">
</g>
<g id="Base">
</g>
<g id="yelp">
</g>
<g id="Yext">
</g>
<g id="Estimote">
</g>
<g id="Microsoft">
</g>
<g id="Big_Viking">
</g>
<g id="_x35_00px">
</g>
<g id="Magnet_Forensics">
</g>
<g id="Guides">
</g>
<g id="Wit.Ai" display="none">
</g>
<g id="Layer_18">
</g>
<g id="Kik">
</g>
<g id="Layer_20">
</g>
<g id="Affirm">
</g>
<g id="Shopify">
</g>
<g id="apple">
</g>
<g id="velocity">
</g>
<g id="pagerduty">
</g>
<g id="Layer_26">
</g>
<g id="bitalino">
</g>
<g id="TextNow">
</g>
<g id="Uber">
</g>
<g id="mars">
</g>
<g id="twilio">
</g>
<g id="wit-ai">
</g>
<g id="indiegogo">
</g>
<g id="Layer_34">
</g>
<g id="cisco">
</g>
<g id="teespring">
</g>
<g id="sendgrid">
</g>
<g id="kloudless">
</g>
<g id="uwaterloo">
</g>
<g id="loblaws">
</g>
<g id="Layer_40">
</g>
<g id="Layer_41">
</g>
<g id="conrad">
</g>
<g id="ziggeo">
</g>
<g id="n36">
</g>
<g id="communitech">
</g>
<g id="Layer_46">
</g>
<g id="Backtrack">
	<g>
		<g>
			<path d="M-207.1,514c0.6-0.1,1.7-0.2,2.7-0.2c1.5,0,2.4,0.3,3.1,0.8c0.6,0.4,1,1.1,1,2c0,1.1-0.7,2.1-1.9,2.5v0
				c1.1,0.3,2.4,1.2,2.4,2.9c0,1-0.4,1.7-1,2.3c-0.8,0.7-2.1,1.1-4,1.1c-1,0-1.8-0.1-2.3-0.1V514z M-205.7,518.7h1.3
				c1.6,0,2.5-0.8,2.5-1.9c0-1.3-1-1.9-2.5-1.9c-0.7,0-1.1,0.1-1.3,0.1V518.7z M-205.7,524.2c0.3,0.1,0.7,0.1,1.2,0.1
				c1.5,0,2.9-0.6,2.9-2.2c0-1.6-1.3-2.2-3-2.2h-1.2V524.2z"/>
			<path d="M-196.1,521.7l-1.2,3.6h-1.5l3.9-11.5h1.8l3.9,11.5h-1.6l-1.2-3.6H-196.1z M-192.3,520.5l-1.1-3.3
				c-0.3-0.7-0.4-1.4-0.6-2.1h0c-0.2,0.7-0.4,1.4-0.6,2.1l-1.1,3.3H-192.3z"/>
			<path d="M-179.8,524.9c-0.5,0.3-1.6,0.5-3,0.5c-3.2,0-5.7-2-5.7-5.8c0-3.6,2.4-6,6-6c1.4,0,2.3,0.3,2.7,0.5l-0.4,1.2
				c-0.6-0.3-1.4-0.5-2.3-0.5c-2.7,0-4.5,1.7-4.5,4.7c0,2.8,1.6,4.6,4.4,4.6c0.9,0,1.8-0.2,2.4-0.5L-179.8,524.9z"/>
			<path d="M-177.9,513.8h1.5v5.5h0.1c0.3-0.4,0.6-0.8,0.9-1.2l3.5-4.3h1.8l-4.1,4.9l4.5,6.6h-1.8l-3.8-5.6l-1.1,1.3v4.4h-1.5V513.8
				z"/>
			<path d="M-166.2,515.1h-3.5v-1.3h8.5v1.3h-3.5v10.2h-1.5V515.1z"/>
			<path d="M-159.9,514c0.7-0.2,1.8-0.2,2.8-0.2c1.6,0,2.6,0.3,3.3,0.9c0.6,0.5,0.9,1.3,0.9,2.2c0,1.5-1,2.5-2.2,2.9v0.1
				c0.9,0.3,1.4,1.1,1.7,2.3c0.4,1.6,0.6,2.7,0.9,3.1h-1.5c-0.2-0.3-0.4-1.3-0.8-2.7c-0.3-1.6-1-2.2-2.3-2.2h-1.4v5h-1.5V514z
				 M-158.4,519.2h1.5c1.6,0,2.6-0.9,2.6-2.2c0-1.5-1.1-2.1-2.6-2.1c-0.7,0-1.2,0.1-1.5,0.1V519.2z"/>
			<path d="M-148.8,521.7l-1.2,3.6h-1.5l3.9-11.5h1.8l3.9,11.5h-1.6l-1.2-3.6H-148.8z M-145.1,520.5l-1.1-3.3
				c-0.3-0.7-0.4-1.4-0.6-2.1h0c-0.2,0.7-0.4,1.4-0.6,2.1l-1.1,3.3H-145.1z"/>
			<path d="M-132.5,524.9c-0.5,0.3-1.6,0.5-3,0.5c-3.2,0-5.7-2-5.7-5.8c0-3.6,2.4-6,6-6c1.4,0,2.3,0.3,2.7,0.5l-0.4,1.2
				c-0.6-0.3-1.4-0.5-2.3-0.5c-2.7,0-4.5,1.7-4.5,4.7c0,2.8,1.6,4.6,4.4,4.6c0.9,0,1.8-0.2,2.4-0.5L-132.5,524.9z"/>
			<path d="M-130.7,513.8h1.5v5.5h0.1c0.3-0.4,0.6-0.8,0.9-1.2l3.5-4.3h1.8l-4.1,4.9l4.5,6.6h-1.8l-3.8-5.6l-1.1,1.3v4.4h-1.5V513.8
				z"/>
		</g>
		<g>
			<circle fill="#27BAA9" cx="-236.3" cy="520" r="19.6"/>
			<g>
				<path fill="#FFFFFF" d="M-234.7,532.6C-234.7,532.6-234.7,532.6-234.7,532.6c0.1-0.1,0.1-0.2,0.1-0.3c0.1-0.2,0.2-0.5,0.3-0.8
					c0.1-0.3,0.3-0.8,0.3-1.2c0.1-0.5,0.2-1,0.2-1.5c0-0.3,0-0.6,0-0.9c0-0.1,0-0.3,0-0.4c0-0.2,0-0.3-0.1-0.5
					c-0.1-0.6-0.2-1.3-0.4-1.9c0-0.2-0.1-0.3-0.1-0.5c-0.1-0.2-0.1-0.3-0.2-0.5c-0.1-0.2-0.1-0.3-0.2-0.5c-0.1-0.2-0.1-0.3-0.2-0.5
					l-0.1-0.3l-0.1-0.3c0-0.1-0.1-0.2-0.1-0.3l-0.1-0.3c-0.1-0.2-0.1-0.4-0.2-0.6l-0.1-0.2c0-0.1,0-0.1-0.1-0.2
					c0-0.1-0.1-0.3-0.1-0.4c-0.1-0.3-0.1-0.5-0.2-0.8l-0.1-0.4c0-0.1-0.1-0.3-0.1-0.4c0-0.3-0.1-0.5-0.1-0.8c0-0.3,0-0.6,0-0.8
					c0-1.1,0.5-2.4,1-3.2c0.3-0.4,0.6-0.8,0.9-1.1c0.1-0.1,0.1-0.2,0.2-0.2c0.1-0.1,0.1-0.1,0.2-0.2c0.1-0.1,0.3-0.3,0.4-0.4
					c0.1-0.1,0.3-0.2,0.4-0.4l0,0c0,0,0,0,0,0l0,0l0,0l0,0l0.1-0.1c0.1-0.1,0.1-0.1,0.2-0.2c0.2-0.2,0.4-0.4,0.6-0.6
					c0.4-0.4,0.7-0.9,1-1.3c0.3-0.4,0.5-0.8,0.7-1.1c0.2-0.3,0.3-0.6,0.3-0.8c0.1-0.2,0.1-0.3,0.1-0.3l0-0.1c0-0.1,0.1-0.1,0.1-0.1
					c0,0,0.1,0.1,0.1,0.1c0,0,0,0.1,0,0.3c0,0.2,0,0.5,0,0.9c-0.1,0.8-0.4,1.8-1,3c-0.2,0.3-0.3,0.6-0.5,0.9
					c-0.2,0.3-0.4,0.6-0.6,0.9c-0.4,0.6-0.9,1.2-1.3,1.9c-0.4,0.7-0.6,1.5-0.6,2.3c0,0.8,0.1,1.6,0.4,2.4c0.1,0.4,0.2,0.8,0.4,1.2
					c0.1,0.2,0.1,0.4,0.2,0.6l0.1,0.3l0.1,0.3c0.3,0.8,0.4,1.6,0.6,2.4c0.1,0.8,0.2,1.6,0.1,2.3c0,0.7-0.2,1.5-0.3,2.1
					c-0.2,0.6-0.4,1.2-0.7,1.7c-0.3,0.5-0.5,0.8-0.8,1.1c-0.2,0.3-0.5,0.5-0.6,0.6c-0.1,0.1-0.1,0.1-0.2,0.1c0,0-0.1,0-0.1,0
					c-0.1,0-0.1,0-0.2,0C-234.8,532.8-234.8,532.7-234.7,532.6L-234.7,532.6z"/>
				<path fill="#FFFFFF" d="M-239,531.4C-239,531.4-239,531.4-239,531.4c0.1-0.1,0.1-0.2,0.1-0.2c0-0.1,0.1-0.2,0.2-0.3
					c0-0.1,0.1-0.1,0.1-0.2c0-0.1,0.1-0.1,0.1-0.2c0.1-0.3,0.3-0.7,0.4-1.1c0-0.2,0.1-0.4,0.1-0.7c0-0.1,0-0.2,0-0.4
					c0-0.1,0-0.1,0-0.2c0-0.1,0-0.1,0-0.2c0-0.1,0-0.3,0-0.4c0-0.1,0-0.3,0-0.4c0-0.1,0-0.3,0-0.4c0-0.1,0-0.3-0.1-0.4
					c0-0.1,0-0.3,0-0.4c0-0.1-0.1-0.3-0.1-0.5c0-0.1,0-0.2,0-0.2c0-0.1,0-0.2,0-0.2c0-0.2-0.1-0.3-0.1-0.5c0-0.2-0.1-0.3-0.1-0.5
					c-0.1-0.2-0.1-0.3-0.2-0.5c-0.1-0.3-0.2-0.6-0.3-1c-0.1-0.2-0.1-0.3-0.2-0.5c0-0.1-0.1-0.2-0.1-0.2l-0.1-0.3
					c-0.1-0.2-0.1-0.4-0.2-0.5l0-0.1l-0.1-0.2l-0.1-0.3c-0.1-0.2-0.1-0.5-0.2-0.7c0-0.2-0.1-0.4-0.1-0.7c0-0.2-0.1-0.5-0.1-0.7
					c0-0.3,0-0.5,0-0.7c0-1,0.4-2.1,0.9-2.9c0.3-0.4,0.5-0.7,0.8-1c0.1-0.1,0.1-0.1,0.2-0.2c0.1-0.1,0.1-0.1,0.2-0.2
					c0.1-0.1,0.2-0.2,0.4-0.4c0.1-0.1,0.2-0.2,0.3-0.3l0,0c0,0,0,0,0,0l0,0l0,0l0,0l0.1-0.1c0.1-0.1,0.1-0.1,0.2-0.2
					c0.2-0.2,0.4-0.4,0.5-0.6c0.4-0.4,0.6-0.8,0.9-1.2c0.2-0.4,0.4-0.7,0.6-1c0.1-0.3,0.2-0.5,0.3-0.7c0-0.2,0.1-0.3,0.1-0.3l0,0
					c0-0.1,0.1-0.1,0.1-0.1c0,0,0.1,0,0.1,0.1c0,0,0,0.1,0,0.3c0,0.2,0,0.5,0,0.8c-0.1,0.7-0.4,1.7-0.9,2.7
					c-0.3,0.5-0.6,1.1-1.1,1.6c-0.4,0.5-0.8,1.1-1.2,1.7c-0.3,0.6-0.5,1.3-0.5,2.1c0,0.7,0.1,1.5,0.3,2.2c0.1,0.4,0.2,0.7,0.4,1.1
					c0.1,0.4,0.2,0.7,0.4,1.1c0.1,0.4,0.2,0.7,0.3,1.1c0,0.2,0.1,0.4,0.1,0.6c0,0.2,0.1,0.4,0.1,0.6c0,0.2,0.1,0.4,0.1,0.5
					c0,0.2,0,0.4,0,0.5c0,0.2,0,0.4,0,0.5c0,0.2,0,0.3,0,0.5c0,0.2,0,0.3,0,0.5c0,0.2,0,0.3-0.1,0.5c0,0.2,0,0.3-0.1,0.5
					c0,0.2-0.1,0.3-0.1,0.4c0,0.1,0,0.1-0.1,0.2c0,0.1,0,0.1-0.1,0.2c0,0.1-0.1,0.3-0.1,0.4c0,0.1-0.1,0.2-0.2,0.4
					c-0.1,0.1-0.1,0.2-0.2,0.3c-0.2,0.4-0.5,0.8-0.7,1c-0.1,0.1-0.1,0.1-0.2,0.2c-0.1,0.1-0.1,0.1-0.2,0.2c-0.1,0.1-0.2,0.2-0.3,0.2
					c-0.1,0.1-0.1,0.1-0.2,0.1c0,0-0.1,0-0.1,0c0,0-0.1,0-0.1,0C-239,531.5-239,531.5-239,531.4L-239,531.4z"/>
				<path fill="#FFFFFF" d="M-242.3,529.8C-242.3,529.8-242.3,529.8-242.3,529.8c0.1-0.1,0.1-0.1,0.1-0.2c0-0.1,0.1-0.1,0.2-0.3
					c0.1-0.1,0.1-0.2,0.2-0.3c0.1-0.3,0.3-0.6,0.4-1c0.1-0.2,0.1-0.4,0.2-0.6c0-0.1,0-0.2,0.1-0.3c0-0.1,0-0.1,0-0.2
					c0-0.1,0-0.1,0-0.2c0-0.1,0-0.2,0-0.4c0-0.1,0-0.3,0-0.4c0-0.1,0-0.3,0-0.4c0-0.1,0-0.3,0-0.4c0-0.1,0-0.3,0-0.4
					c0-0.1,0-0.3-0.1-0.4c0-0.1,0-0.3-0.1-0.4c0-0.1-0.1-0.3-0.1-0.4c0-0.1-0.1-0.3-0.1-0.4c0-0.1-0.1-0.3-0.1-0.4
					c-0.1-0.3-0.2-0.6-0.3-0.9c-0.1-0.2-0.1-0.3-0.2-0.5c-0.1-0.2-0.1-0.3-0.2-0.5l-0.2-0.5l0-0.1l0-0.1l-0.1-0.3
					c-0.1-0.2-0.1-0.4-0.1-0.6c0-0.2-0.1-0.4-0.1-0.6c0-0.2-0.1-0.4-0.1-0.6c0-0.2,0-0.4,0-0.6c0-0.8,0.3-1.7,0.7-2.4
					c0.4-0.7,0.9-1.2,1.3-1.6c0.1-0.1,0.2-0.2,0.3-0.3c0.1-0.1,0.2-0.2,0.3-0.3c0.2-0.2,0.3-0.4,0.5-0.6c0.3-0.4,0.6-0.8,0.7-1.1
					c0.2-0.4,0.3-0.7,0.4-0.9c0.1-0.3,0.2-0.5,0.2-0.7c0-0.2,0-0.2,0-0.2l0,0c0,0,0-0.1,0.1-0.1c0,0,0.1,0,0.1,0.1c0,0,0,0.1,0,0.3
					c0,0.2,0,0.4,0,0.7c-0.1,0.6-0.3,1.5-0.8,2.4c-0.3,0.5-0.6,0.9-0.9,1.4c-0.4,0.5-0.8,1-1.1,1.5c-0.3,0.6-0.5,1.2-0.5,1.9
					c0,0.7,0.1,1.4,0.3,2c0.1,0.3,0.2,0.7,0.3,1c0.1,0.3,0.2,0.7,0.3,1c0.1,0.3,0.2,0.7,0.3,1c0,0.2,0.1,0.3,0.1,0.5
					c0,0.2,0,0.3,0.1,0.5c0,0.2,0,0.3,0.1,0.5c0,0.2,0,0.3,0,0.5c0,0.2,0,0.3,0,0.5c0,0.2,0,0.3,0,0.5c0,0.2,0,0.3,0,0.5
					c0,0.1,0,0.3-0.1,0.4c0,0.1,0,0.3-0.1,0.4c0,0.1-0.1,0.3-0.1,0.4c0,0.1,0,0.1,0,0.2c0,0.1,0,0.1-0.1,0.2c0,0.1-0.1,0.2-0.1,0.4
					c-0.1,0.2-0.2,0.4-0.3,0.6c-0.2,0.4-0.4,0.7-0.6,0.9c-0.1,0.1-0.1,0.1-0.1,0.2c0,0-0.1,0.1-0.1,0.1c-0.1,0.1-0.2,0.2-0.2,0.2
					c-0.1,0.1-0.1,0.1-0.1,0.1c0,0-0.1,0-0.1,0C-242.3,529.9-242.3,529.9-242.3,529.8C-242.4,529.9-242.4,529.8-242.3,529.8
					L-242.3,529.8z"/>
			</g>
		</g>
	</g>
</g>
<g id="Lani">
</g>
<g id="Taplytics">
</g>
</svg>
