<?xml version="1.0" encoding="utf-8"?>
<!-- Generator: Adobe Illustrator 17.1.0, SVG Export Plug-In . SVG Version: 6.00 Build 0)  -->
<!DOCTYPE svg PUBLIC "-//W3C//DTD SVG 1.1//EN" "http://www.w3.org/Graphics/SVG/1.1/DTD/svg11.dtd">
<svg version="1.1" xmlns="http://www.w3.org/2000/svg" xmlns:xlink="http://www.w3.org/1999/xlink" x="0px" y="0px"
	 viewBox="190 -147 266 91.7" enable-background="new 190 -147 266 91.7" xml:space="preserve">
<g id="estimote">
</g>
<g id="Pebble">
</g>
<g id="Spark">
</g>
<g id="Layer_4">
</g>
<g id="Layer_5">
</g>
<g id="Layer_6">
</g>
<g id="Base">
</g>
<g id="yelp">
</g>
<g id="Yext">
</g>
<g id="Estimote">
</g>
<g id="Microsoft">
</g>
<g id="Big_Viking">
</g>
<g id="_x35_00px">
</g>
<g id="Magnet_Forensics">
</g>
<g id="Guides">
</g>
<g id="Wit.Ai" display="none">
</g>
<g id="Layer_18">
</g>
<g id="Kik">
</g>
<g id="Layer_20">
</g>
<g id="Affirm">
</g>
<g id="Shopify">
</g>
<g id="apple">
</g>
<g id="velocity">
</g>
<g id="pagerduty">
</g>
<g id="Layer_26">
</g>
<g id="bitalino">
</g>
<g id="TextNow">
	<g>
		<g>
			<g>
				<defs>
					<path id="SVGID_103_" d="M239.3-76.4c-2.7,0-5.6-0.5-5.6-0.5s-6.1,4.6-12.6,4.8c-1.7,0.1-2.6-0.2-2.6-0.8
						c0-0.4,4.1-2.5,3.2-8.4c-0.1-0.7-0.4-0.9-0.4-0.9s-11.2-6.4-11.2-18.9c0-17.2,18.5-28.9,35.2-28.9c19.2,0,29.2,13,29.2,23.6
						C274.5-92,259.9-76.4,239.3-76.4L239.3-76.4z M218.8-118.7l-5.9,9.3c0,0-2.2,0.2-3.6,0.4c-0.6,0.1-0.8-0.2-0.8-0.2
						s-0.3-0.1-0.4-0.7c-0.2-1.1-0.5-3.1-0.7-4.3c-0.1-0.7,0.1-0.9,0.1-0.9s0.2-0.3,0.8-0.4c1.2-0.1,3-0.3,3-0.3s-0.2-1.3-0.4-2.4
						c-0.1-0.7,0-1,0.2-1.2c0.2-0.2,0.3-0.4,1.1-0.4c1.5-0.1,3.8-0.3,5.2-0.5c0.6-0.1,0.9,0.1,0.9,0.1s0.3,0.1,0.4,0.6
						C218.8-119.2,218.8-118.7,218.8-118.7L218.8-118.7z M276.9-101.7c-0.8,3.2-2.9,11.1-3.5,13.5c-0.1,0.4-0.3,0.5-0.3,0.5
						c0,0-0.3,0.2-0.8,0.2c-1.1,0-2.9-0.1-3.8-0.1c-0.5,0-0.7-0.2-0.7-0.2s-0.2-0.1-0.4-0.5c-0.3-0.7-0.7-1.7-0.7-1.7l4-12.9
						c0,0,3-0.1,5-0.2c0.8,0,1.1,0.3,1.1,0.3S277.1-102.6,276.9-101.7L276.9-101.7z"/>
				</defs>
				<use xlink:href="#SVGID_103_"  overflow="visible" fill="#4C99F3"/>
				<clipPath id="SVGID_2_">
					<use xlink:href="#SVGID_103_"  overflow="visible"/>
				</clipPath>
				<rect x="186" y="-131.7" clip-path="url(#SVGID_2_)" fill="#4C99F3" width="109.9" height="61"/>
			</g>
			<g>
				<defs>
					<path id="SVGID_105_" d="M272.3-88.9l-3.9-0.2l-1.7-5.2l-1.9,5l-4.1,0.1l-2.5-13.3l4.3,0.4l1.3,5.8l1.3-5.7l3.5,0l1.3,5.8
						l1.4-5.9l4.3-0.2L272.3-88.9L272.3-88.9z M250.9-88c-4.2,0.2-7.7-3.1-7.9-7.2c-0.2-4.2,3.1-7.7,7.2-7.9
						c4.2-0.2,7.7,3.1,7.9,7.2C258.3-91.7,255.1-88.2,250.9-88L250.9-88z M250.4-99.1c-2,0.1-3.5,1.8-3.5,3.8c0.1,2,1.8,3.5,3.8,3.5
						c2-0.1,3.5-1.8,3.5-3.8C254.1-97.7,252.4-99.2,250.4-99.1L250.4-99.1z M238.4-88l-5-5.1l0.6,5.7l-4.4,0.6l-1.2-13l4.2-0.4
						l4.9,5.2l-0.7-6.5l4.3-0.2l1.2,13.3L238.4-88L238.4-88z"/>
				</defs>
				<use xlink:href="#SVGID_105_"  overflow="visible" fill-rule="evenodd" clip-rule="evenodd" fill="#FFFFFF"/>
				<clipPath id="SVGID_3_">
					<use xlink:href="#SVGID_105_"  overflow="visible"/>
				</clipPath>
				<rect x="225" y="-114.3" clip-path="url(#SVGID_3_)" fill="#FFFFFF" width="54.2" height="40.3"/>
			</g>
			<g>
				<defs>
					<path id="SVGID_107_" d="M257-116.4l0,4.4l-4.5,0.1l0,11l-4,0.1l0-0.5l-1.9,2.6l-5.1-4.4l-4.1,4.8l-3.9-3.1l4.3-4.9l-2.7-2.4
						c0,0.2,0,0.4,0,0.6l0,0l0,0.1l-10.1,2.8c0.9,0.9,2.2,1.3,3.5,0.9c0.7-0.2,1.4-0.7,1.8-1.2l3.1,2.4c-0.9,1.2-2.2,2.1-3.8,2.6
						c-4,1.2-8.2-1.1-9.4-5.1c-0.6-2.1-0.3-4.3,0.7-6l-2.9,0.3l0.5,10.8l-3.8,0.3l-1.5-10.6l-4.1,0.4l-0.7-4.2l4.1-0.5l-0.5-3.8
						l5.5-0.5l0.2,3.7l4.4-0.5l0.1,3c0.8-0.8,1.9-1.4,3-1.8c3.3-1,6.8,0.4,8.6,3.3l1.8-2.5l5.3,4.4l2.3-2.6l-0.3-3.4l4.1-0.2
						l-0.3-3.7l5.8-0.2l0,3.7L257-116.4L257-116.4z M226.4-111.1c-1.4,0.4-2.3,1.5-2.5,2.9l6.2-1.8
						C229.1-111.1,227.7-111.5,226.4-111.1L226.4-111.1z M247.6-110.3l-3,3.6l3.6,3L247.6-110.3L247.6-110.3z M250.5-98
						c1.4-0.1,2.6,1,2.7,2.4c0.1,1.4-1,2.6-2.4,2.7c-1.4,0.1-2.6-1-2.7-2.4C248-96.7,249.1-97.9,250.5-98L250.5-98z"/>
				</defs>
				<use xlink:href="#SVGID_107_"  overflow="visible" fill-rule="evenodd" clip-rule="evenodd" fill="#FFFFFF"/>
				<clipPath id="SVGID_4_">
					<use xlink:href="#SVGID_107_"  overflow="visible"/>
				</clipPath>
				
					<rect x="204.8" y="-133.5" clip-path="url(#SVGID_4_)" fill-rule="evenodd" clip-rule="evenodd" fill="#FFFFFF" width="80.6" height="48.9"/>
			</g>
		</g>
		<g>
			<g>
				<path fill="#383838" d="M298.3-93.7l0,0.4c-0.4,3.4,0.9,4.3,4.9,4.3c2.5,0,5.7-0.4,8.3-1.1c0.4-0.1,0.8,0.1,0.8,0.6l0.4,5
					c0,0.4-0.3,0.9-0.7,1c-2.8,0.9-6.8,1.6-10.5,1.6c-9.6,0-12.7-4.7-11.9-12l0.7-6.9c0.7-6.4,4.1-11.8,13.9-11.8
					c9.8,0,11.3,5.8,10.6,12.2l-0.6,5.4c0,0.4-0.4,0.8-0.9,0.8h-14.3C298.7-94.1,298.3-93.9,298.3-93.7z M303.5-105.7
					c-3,0-4.2,1.7-4.4,3.8c0,0,0,0.3-0.1,0.6c0,0.4,0.3,0.6,0.7,0.6h6.1c0.4,0,0.8-0.3,0.9-0.6l0.1-0.6
					C307-104,306.6-105.7,303.5-105.7z"/>
				<path fill="#383838" d="M332-83.2l2-18.7c0.1-1.3-0.4-2.1-1.9-2.1c-1.4,0-3.9,0.9-5.9,1.8c-0.4,0.2-0.8,0.7-0.8,1.1l-1.9,17.9
					c0,0.4-0.4,0.8-0.9,0.8h-7.2c-0.4,0-0.7-0.4-0.7-0.8l3-27.9c0-0.4,0.4-0.8,0.9-0.8h4.9c0.4,0,0.9,0.3,1,0.7l0.2,0.8
					c0.1,0.4,0.6,0.6,1,0.4c3.7-1.6,8.1-2.5,11.3-2.5c5,0,6.4,3.8,5.8,9.5l-2.1,19.9c0,0.4-0.4,0.8-0.9,0.8h-7.2
					C332.3-82.4,332-82.8,332-83.2z"/>
				<path fill="#4AB4E6" d="M363.7-110.5l-1.1,5.6c-0.1,0.4-0.5,0.8-0.9,0.8h-4.4c-0.4,0-0.8,0.4-0.9,0.8l-2.2,20.2
					c0,0.4-0.4,0.8-0.9,0.8h-7.2c-0.4,0-0.7-0.4-0.7-0.8l2.2-20.2c0-0.4-0.3-0.8-0.7-0.8h-2.9c-0.4,0-0.7-0.4-0.7-0.8l0.6-5.6
					c0-0.4,0.4-0.8,0.9-0.8h2.9c0.4,0,0.8-0.4,0.9-0.8l0.4-3.6c0.7-6.1,3.9-9.5,11-9.5c2.2,0,3.8,0.2,5.5,0.6c0.4,0.1,0.6,0.5,0.5,1
					l-1.4,5.3c-0.1,0.4-0.5,0.7-1,0.6c-0.9-0.2-1.9-0.2-2.7-0.2c-2.8,0-3.1,1.2-3.3,3.2l-0.3,2.7c0,0.4,0.3,0.8,0.7,0.8h5
					C363.5-111.3,363.8-111,363.7-110.5z M438.6-111.2c0.2-0.4,0.1-0.7-0.3-0.7h-7.8c-0.4,0-1,0.3-1.2,0.7L421.1-98
					c-0.2,0.4-0.3,1-0.1,1.4l5.7,13.5c0.2,0.4,0.6,0.7,1.1,0.7h7.8c0.4,0,0.6-0.3,0.5-0.7L430-96.6c-0.2-0.4-0.1-1,0.1-1.4
					L438.6-111.2z M421.7-125.1l-7.3,1c-0.4,0.1-0.8,0.5-0.9,0.9l-4.3,40c0,0.4,0.3,0.8,0.7,0.8h7.2c0.4,0,0.8-0.4,0.9-0.8l4.4-41.2
					C422.5-124.8,422.1-125.1,421.7-125.1z M409.8-111.8c-9-1.1-16.5-0.4-22.6,1.2l0.1-0.5c0-0.4-0.3-0.8-0.7-0.8h-7.2
					c-0.4,0-0.8,0.4-0.9,0.8l-0.4,3.8c-1.3,0.6-2.5,1.2-3.5,1.9l2-18.9c0-0.4-0.3-0.7-0.7-0.7l-7.3,1c-0.4,0.1-0.8,0.5-0.9,0.9
					l-4.3,40c0,0.4,0.3,0.8,0.7,0.8h7.2c0.4,0,0.8-0.4,0.9-0.8l1.9-18.1c-5.4,1.2-8.4,2.5-8.4,2.5c0,0,14.1-7.7,37.2-6.3
					c0.9,0.1,1.7,0.1,2.5,0.1c0.8,0.1,1.6,0.2,2.4,0.4c0.4,0.1,0.8-0.2,1-0.6l1.5-5.7C410.5-111.3,410.2-111.7,409.8-111.8z
					 M379.8-115.6h7.2c0.4,0,0.8-0.4,0.9-0.8l0.8-7.7c0-0.4-0.3-0.8-0.7-0.8h-7.2c-0.4,0-0.8,0.4-0.9,0.8l-0.8,7.7
					C379.1-116,379.4-115.6,379.8-115.6z M375.5-83.2c0,0.4,0.3,0.8,0.7,0.8h7.2c0.4,0,0.8-0.4,0.9-0.8l2.1-19.7
					c-3.3,0.2-6.3,0.5-8.8,1L375.5-83.2z M406.4-89.8c-1.8,0.4-3.4,0.6-5.4,0.6c-3.5,0-4.6-1.4-4.3-4.4l0.8-7
					c0.1-0.8,0.3-1.5,0.5-2.1c-3.1-0.3-6.1-0.3-8.9-0.3c-0.2,0.8-0.3,1.6-0.4,2.5l-0.7,6.7c-0.9,8.4,2.6,12,12.2,12
					c1.9,0,3.8-0.2,6.5-0.7c0.4-0.1,0.8-0.5,0.8-0.9l-0.2-5.7C407.2-89.6,406.8-89.9,406.4-89.8z"/>
			</g>
			<g>
				<path fill="#4D4D4D" d="M409-80.9c0.2,0,0.3,0,0.5,0.1"/>
			</g>
		</g>
	</g>
</g>
<g id="Uber">
</g>
<g id="mars">
</g>
<g id="twilio">
</g>
<g id="wit-ai">
</g>
<g id="indiegogo">
</g>
<g id="Layer_34">
</g>
<g id="cisco">
</g>
<g id="teespring">
</g>
<g id="sendgrid">
</g>
<g id="kloudless">
</g>
<g id="uwaterloo">
</g>
</svg>
