<?xml version="1.0" encoding="utf-8"?>
<!-- Generator: Adobe Illustrator 17.1.0, SVG Export Plug-In . SVG Version: 6.00 Build 0)  -->
<!DOCTYPE svg PUBLIC "-//W3C//DTD SVG 1.1//EN" "http://www.w3.org/Graphics/SVG/1.1/DTD/svg11.dtd">
<svg version="1.1" xmlns="http://www.w3.org/2000/svg" xmlns:xlink="http://www.w3.org/1999/xlink" x="0px" y="0px"
	 viewBox="282 100 174 60" enable-background="new 282 100 174 60" xml:space="preserve">
<g id="estimote">
</g>
<g id="Layer_2">
</g>
<g id="Spark">
</g>
<g id="Layer_4">
</g>
<g id="Layer_5">
</g>
<g id="Layer_6">
</g>
<g id="Base">
	<g>
		<path fill="#676767" d="M357.7,140.4c0-0.9,0-22.1,0-22.6l1.5,0v10.6c1.3-2.2,3.8-3.8,6.6-3.8c4.3,0,7.4,2.8,7.4,8
			c0,4.7-3,8.3-7.5,8.3c-3.3,0-5.6-2.1-6.5-3.8l0,3.3 M365.5,126.1c-3.4,0-6.3,2.7-6.3,6.6c0,3.7,2.4,6.7,6.3,6.7
			c3.3,0,6.1-2.9,6.1-6.7C371.5,128.2,368.7,126.1,365.5,126.1z"/>
		<path fill="#676767" d="M390.2,124.6c0,6.2,0,8.3,0,15.8l-1.6,0v-3.3c-0.9,1.9-3.2,3.7-6.1,3.7c-4.6,0-7.8-3.3-7.8-8.1
			c0-5.2,3.1-8.3,7.8-8.3c2.8,0,4.9,1.6,6.2,3.6v-3.4 M382.6,125.9c-3.6,0-6.2,2.1-6.2,6.6c0,3.9,2.8,6.8,6.2,6.8
			c4,0,6.2-3.7,6.2-6.8C388.7,129.1,385.9,125.9,382.6,125.9z"/>
		<path fill="#676767" d="M402.5,127.5c-1.5-0.9-2.2-1.6-4.4-1.6c-2.5,0-3.9,1.3-3.9,2.7c0,1.4,1.2,2.3,4.2,2.9
			c3.5,0.8,5.4,2.4,5.3,4.8c-0.1,2.3-2.2,4.2-5.5,4.3c-2.7,0.1-4.6-1-6.2-2.3l0.9-1.1c2.8,1.8,4.3,1.8,5.3,1.9
			c1.2,0.1,4-0.7,3.9-2.7c-0.1-1.4-0.2-2.6-4.1-3.4c-3.7-0.7-5-2.2-5.3-4.3c-0.2-1.3,1.2-4.6,5.3-4.4c3.1,0.1,3.6,0.7,5.3,1.8"/>
		<path fill="#676767" d="M419.8,133.3c-4.9,0-12.1,0-12.9,0c0.1,3.4,2.7,5.9,6.8,5.9c2,0,4-1.7,4.7-2.4l1.1,1
			c-1.3,1.4-3.5,2.7-5.8,2.9c-4.3,0.4-8.1-2.7-8.4-7.9c-0.3-4.8,2.9-8.4,7.9-8.4C415.9,124.4,420.1,127.2,419.8,133.3 M413.3,125.9
			c-3.4-0.5-6.1,2.7-6.3,6h11.3C418,129,416.6,126.3,413.3,125.9z"/>
	</g>
	<rect x="334.3" y="123.3" fill="#68AF44" width="11.7" height="23.4"/>
	<rect x="322.7" y="123.3" fill="#118842" width="11.7" height="23.4"/>
	<rect x="322.7" y="111.7" fill="#2DB99B" width="11.7" height="11.7"/>
</g>
<g id="yelp">
</g>
<g id="Yext">
</g>
<g id="Estimote">
</g>
<g id="Kloudless">
</g>
<g id="Microsoft">
</g>
<g id="Big_Viking">
</g>
<g id="Guides">
</g>
</svg>
