<?xml version="1.0" encoding="utf-8"?>
<!-- Generator: Adobe Illustrator 17.1.0, SVG Export Plug-In . SVG Version: 6.00 Build 0)  -->
<!DOCTYPE svg PUBLIC "-//W3C//DTD SVG 1.1//EN" "http://www.w3.org/Graphics/SVG/1.1/DTD/svg11.dtd">
<svg version="1.1" xmlns="http://www.w3.org/2000/svg" xmlns:xlink="http://www.w3.org/1999/xlink" x="0px" y="0px"
	 viewBox="-87 490 174 60" enable-background="new -87 490 174 60" xml:space="preserve">
<g id="estimote">
</g>
<g id="Pebble">
</g>
<g id="Spark">
</g>
<g id="Layer_4">
</g>
<g id="Layer_5">
</g>
<g id="Layer_6">
</g>
<g id="Base">
</g>
<g id="yelp">
</g>
<g id="Yext">
</g>
<g id="Estimote">
</g>
<g id="Kloudless">
</g>
<g id="Microsoft">
</g>
<g id="Big_Viking">
</g>
<g id="_x35_00px">
</g>
<g id="Magnet_Forensics">
</g>
<g id="Guides">
</g>
<g id="Wit.Ai" display="none">
</g>
<g id="Layer_18">
</g>
<g id="Kik">
</g>
<g id="Layer_20">
</g>
<g id="Affirm">
</g>
<g id="Shopify">
</g>
<g id="apple">
</g>
<g id="velocity">
</g>
<g id="pagerduty">
</g>
<g id="Layer_26">
</g>
<g id="bitalino">
	<g>
		<g>
			<g>
				<defs>
					<rect id="SVGID_37_" x="92.6" y="-369.1" width="112.5" height="41"/>
				</defs>
				<clipPath id="SVGID_2_">
					<use xlink:href="#SVGID_37_"  overflow="visible"/>
				</clipPath>
				<g id="g14" clip-path="url(#SVGID_2_)">
					<g>
						<defs>
							<path id="SVGID_39_" d="M111.9-382.3L111.9-382.3l-2.2,0l0.4-1.4h1.1c-0.5-1.6-0.1-3.4,1.2-4.7c1.7-1.7,4.3-1.8,6.1-0.5l-1,1
								c-1.3-0.8-3-0.7-4.1,0.4c-1.1,1.1-1.3,2.8-0.4,4.1L111.9-382.3C112-382.3,112-382.3,111.9-382.3"/>
						</defs>
						<clipPath id="SVGID_3_">
							<use xlink:href="#SVGID_39_"  overflow="visible"/>
						</clipPath>
						<g id="g16" clip-path="url(#SVGID_3_)">
							<g id="g22">
								<defs>
									<rect id="SVGID_41_" x="11" y="-463.9" width="277.2" height="196.1"/>
								</defs>
								<clipPath id="SVGID_4_">
									<use xlink:href="#SVGID_41_"  overflow="visible"/>
								</clipPath>
							</g>
						</g>
					</g>
				</g>
				<g clip-path="url(#SVGID_2_)">
					<g>
						<defs>
							<rect id="SVGID_43_" x="92.6" y="-369.1" width="112.5" height="41"/>
						</defs>
						<clipPath id="SVGID_5_">
							<use xlink:href="#SVGID_43_"  overflow="visible"/>
						</clipPath>
						<g id="g50" clip-path="url(#SVGID_5_)">
							<g>
								<defs>
									<path id="SVGID_45_" d="M112.9-381.3l1-1c1.3,0.8,3,0.7,4.1-0.4c1.1-1.1,1.3-2.8,0.4-4.1l1-1c0,0,0,0,0,0v0h2.2l-0.4,1.4
										h-1.1c0.5,1.6,0.1,3.4-1.2,4.7c-0.9,0.9-2.1,1.4-3.3,1.4C114.7-380.4,113.7-380.7,112.9-381.3"/>
								</defs>
								<clipPath id="SVGID_6_">
									<use xlink:href="#SVGID_45_"  overflow="visible"/>
								</clipPath>
								<g id="g52" clip-path="url(#SVGID_6_)">
									<g id="g58">
										<defs>
											<rect id="SVGID_47_" x="11" y="-463.9" width="277.2" height="196.1"/>
										</defs>
										<clipPath id="SVGID_7_">
											<use xlink:href="#SVGID_47_"  overflow="visible"/>
										</clipPath>
									</g>
								</g>
							</g>
						</g>
						<g clip-path="url(#SVGID_5_)">
							<g>
								<defs>
									<rect id="SVGID_49_" x="92.6" y="-369.1" width="112.5" height="41"/>
								</defs>
								<clipPath id="SVGID_8_">
									<use xlink:href="#SVGID_49_"  overflow="visible"/>
								</clipPath>
								<g id="g86" clip-path="url(#SVGID_8_)">
									<g>
										<defs>
											<path id="SVGID_51_" d="M145-384.4h1.4c0.3,1.5,1.6,2.6,3.2,2.6c1.6,0,2.9-1.1,3.2-2.6h1.4v-1.4h-0.5v-1.4h1.9h0v4.2v0
												l-0.2,0l-1.6,0l-0.1,0.1c-0.8,1.5-2.3,2.5-4.1,2.5C147.3-380.4,145.3-382.1,145-384.4"/>
										</defs>
										<clipPath id="SVGID_9_">
											<use xlink:href="#SVGID_51_"  overflow="visible"/>
										</clipPath>
										<g id="g88" clip-path="url(#SVGID_9_)">
											<g id="g94">
												<defs>
													
														<rect id="SVGID_53_" x="17.8" y="-525.8" transform="matrix(-0.2713 0.9625 -0.9625 -0.2713 -161.7137 -609.191)" width="263.9" height="320"/>
												</defs>
												<clipPath id="SVGID_10_">
													<use xlink:href="#SVGID_53_"  overflow="visible"/>
												</clipPath>
											</g>
										</g>
									</g>
								</g>
								<g clip-path="url(#SVGID_8_)">
									<g>
										<defs>
											<rect id="SVGID_55_" x="92.6" y="-369.1" width="112.5" height="41"/>
										</defs>
										<clipPath id="SVGID_11_">
											<use xlink:href="#SVGID_55_"  overflow="visible"/>
										</clipPath>
										<g id="g122" clip-path="url(#SVGID_11_)">
											<g>
												<defs>
													<path id="SVGID_57_" d="M143.6-383L143.6-383l0-4.2v0l0.2,0l1.6,0l0.1-0.1c0.8-1.5,2.3-2.5,4.1-2.5
														c2.3,0,4.3,1.7,4.6,4h-1.4c-0.3-1.5-1.6-2.6-3.2-2.6c-1.6,0-2.9,1.1-3.2,2.6H145v1.4h0.5v1.4H143.6z"/>
												</defs>
												<clipPath id="SVGID_12_">
													<use xlink:href="#SVGID_57_"  overflow="visible"/>
												</clipPath>
												<g id="g124" clip-path="url(#SVGID_12_)">
													<g id="g130">
														<defs>
															
																<rect id="SVGID_59_" x="26.4" y="-520.9" transform="matrix(-0.1961 -0.9806 0.9806 -0.1961 537.8448 -290.7026)" width="246.7" height="310.3"/>
														</defs>
														<clipPath id="SVGID_13_">
															<use xlink:href="#SVGID_59_"  overflow="visible"/>
														</clipPath>
													</g>
												</g>
											</g>
										</g>
										<g clip-path="url(#SVGID_11_)">
											<g>
												<defs>
													<rect id="SVGID_61_" x="92.6" y="-369.1" width="112.5" height="41"/>
												</defs>
												<clipPath id="SVGID_14_">
													<use xlink:href="#SVGID_61_"  overflow="visible"/>
												</clipPath>
												<g id="g158" clip-path="url(#SVGID_14_)">
													<g>
														<defs>
															<path id="SVGID_63_" d="M145-384.4h1.4c0.3,1.5,1.6,2.6,3.2,2.6v1.4C147.3-380.4,145.3-382.2,145-384.4"/>
														</defs>
														<clipPath id="SVGID_15_">
															<use xlink:href="#SVGID_63_"  overflow="visible"/>
														</clipPath>
														<g id="g160" clip-path="url(#SVGID_15_)">
															<g id="g166">
																<defs>
																	
																		<rect id="SVGID_65_" x="17.8" y="-525.8" transform="matrix(-0.2713 0.9625 -0.9625 -0.2713 -161.7137 -609.191)" width="263.9" height="320"/>
																</defs>
																<clipPath id="SVGID_16_">
																	<use xlink:href="#SVGID_65_"  overflow="visible"/>
																</clipPath>
															</g>
														</g>
													</g>
												</g>
												<g clip-path="url(#SVGID_14_)">
													<g>
														<defs>
															<rect id="SVGID_67_" x="92.6" y="-369.1" width="112.5" height="41"/>
														</defs>
														<clipPath id="SVGID_17_">
															<use xlink:href="#SVGID_67_"  overflow="visible"/>
														</clipPath>
														<g id="g194" clip-path="url(#SVGID_17_)">
															<g>
																<defs>
																	<path id="SVGID_69_" d="M179.5-380.9c-1.5-0.8-2.5-2.3-2.5-4.1c0-2.3,1.7-4.3,4-4.6v1.4c-1.5,0.3-2.6,1.6-2.6,3.2
																		c0,1,0.4,1.9,1.2,2.5v-0.8h1.4v2.5v0.5c0,0,0,0,0,0l0,0C181-380.4,180.1-380.6,179.5-380.9"/>
																</defs>
																<clipPath id="SVGID_18_">
																	<use xlink:href="#SVGID_69_"  overflow="visible"/>
																</clipPath>
																<g id="g196" clip-path="url(#SVGID_18_)">
																	<g id="g202">
																		<defs>
																			
																				<rect id="SVGID_71_" x="-18.3" y="-533.2" transform="matrix(-0.7071 0.7071 -0.7071 -0.7071 -4.2858 -729.8545)" width="334.7" height="334.7"/>
																		</defs>
																		<clipPath id="SVGID_19_">
																			<use xlink:href="#SVGID_71_"  overflow="visible"/>
																		</clipPath>
																	</g>
																</g>
															</g>
														</g>
														<g clip-path="url(#SVGID_17_)">
															<g>
																<defs>
																	<rect id="SVGID_73_" x="92.6" y="-369.1" width="112.5" height="41"/>
																</defs>
																<clipPath id="SVGID_20_">
																	<use xlink:href="#SVGID_73_"  overflow="visible"/>
																</clipPath>
																<g id="g230" clip-path="url(#SVGID_20_)">
																	<g>
																		<defs>
																			<path id="SVGID_75_" d="M182.4-381.8c1.5-0.3,2.6-1.6,2.6-3.2c0-1-0.4-1.9-1.2-2.5v0.8h-1.4v-2.5v-0.5
																				c0,0,0,0,0,0l0,0c0,0,0.9,0.2,1.5,0.5c1.5,0.8,2.5,2.3,2.5,4.1c0,2.3-1.7,4.3-4,4.6V-381.8z"/>
																		</defs>
																		<clipPath id="SVGID_21_">
																			<use xlink:href="#SVGID_75_"  overflow="visible"/>
																		</clipPath>
																		<g id="g232" clip-path="url(#SVGID_21_)">
																			<g id="g238">
																				<defs>
																					<rect id="SVGID_77_" x="10.4" y="-463.9" width="277.2" height="196.1"/>
																				</defs>
																				<clipPath id="SVGID_22_">
																					<use xlink:href="#SVGID_77_"  overflow="visible"/>
																				</clipPath>
																			</g>
																		</g>
																	</g>
																</g>
															</g>
														</g>
													</g>
												</g>
											</g>
										</g>
									</g>
								</g>
							</g>
						</g>
					</g>
				</g>
			</g>
		</g>
	</g>
</g>
<g id="TextNow">
</g>
<g id="Uber">
</g>
<g id="mars">
</g>
<g id="twilio">
</g>
<g id="wit-ai">
</g>
<g id="indiegogo">
</g>
<g id="Layer_34">
</g>
<g id="cisco">
</g>
<g id="teespring">
</g>
<g id="sendgrid">
	<g>
		<g>
			<path fill="#444345" d="M-13.3,513.6c-0.2,0.5-0.4,0.9-0.6,1.3c-0.4-0.2-0.9-0.4-1.3-0.5c-0.5-0.1-1.1-0.2-1.8-0.2
				c-0.3,0-0.6,0-0.9,0.1c-0.3,0-0.6,0.1-0.8,0.3c-0.2,0.1-0.5,0.3-0.6,0.5c-0.2,0.2-0.3,0.5-0.3,0.9c0,0.5,0.2,0.9,0.6,1.3
				c0.4,0.3,0.8,0.7,1.4,1c0.5,0.3,1,0.6,1.4,0.9c0.4,0.3,0.8,0.6,1.2,0.9c0.3,0.3,0.6,0.7,0.8,1.1c0.2,0.4,0.3,0.9,0.3,1.4
				c0,0.8-0.1,1.5-0.4,2.2c-0.3,0.7-0.7,1.3-1.3,1.9c-0.6,0.5-1.3,0.9-2.2,1.3c-0.9,0.3-1.9,0.5-3.2,0.5c-1.4,0-2.8-0.3-4.2-0.8
				c0.1-0.5,0.2-0.9,0.3-1.4c0.2-0.5,0.4-0.9,0.6-1.4c0.6,0.2,1.2,0.4,1.7,0.5c0.6,0.1,1.2,0.2,1.7,0.2c0.5,0,0.9-0.1,1.3-0.2
				c0.4-0.1,0.7-0.3,1-0.5c0.3-0.2,0.5-0.5,0.7-0.8c0.2-0.3,0.2-0.7,0.2-1.1c0-0.3-0.1-0.6-0.2-0.8c-0.1-0.2-0.3-0.4-0.5-0.6
				c-0.2-0.2-0.5-0.4-0.7-0.5c-0.3-0.2-0.6-0.3-0.9-0.5c-1-0.6-1.7-1.2-2.3-1.8c-0.6-0.6-0.8-1.3-0.8-2.2c0-0.8,0.1-1.5,0.4-2.2
				c0.3-0.6,0.7-1.2,1.2-1.6c0.5-0.4,1.2-0.8,1.9-1c0.7-0.2,1.6-0.3,2.5-0.3c0.8,0,1.5,0.1,2.1,0.2c0.6,0.1,1.2,0.3,1.9,0.6
				C-13,512.7-13.1,513.2-13.3,513.6L-13.3,513.6z M-2.9,520.8c-0.3,0.5-0.7,0.9-1.3,1.3c-0.5,0.3-1.1,0.6-1.8,0.8
				c-0.7,0.2-1.4,0.4-2.1,0.5l-1.5,0.2c0.1,0.7,0.3,1.3,0.7,1.6c0.4,0.4,1,0.5,1.7,0.5c0.6,0,1.1-0.1,1.6-0.2
				c0.5-0.1,0.9-0.3,1.5-0.5c0.2,0.3,0.4,0.7,0.5,1.1c0.1,0.4,0.1,0.9,0.1,1.4c-0.3,0.1-0.5,0.2-0.9,0.3c-0.3,0.1-0.7,0.2-1.1,0.3
				c-0.4,0.1-0.7,0.1-1.1,0.2c-0.4,0-0.7,0.1-1,0.1c-0.9,0-1.7-0.1-2.4-0.3c-0.7-0.2-1.2-0.5-1.6-1c-0.4-0.4-0.7-0.9-0.9-1.5
				c-0.2-0.6-0.3-1.3-0.3-2c0-0.9,0.2-1.8,0.5-2.7c0.3-0.9,0.8-1.7,1.3-2.4c0.6-0.7,1.3-1.3,2.1-1.7c0.8-0.4,1.8-0.6,2.8-0.6
				c0.5,0,1,0.1,1.4,0.2c0.4,0.1,0.8,0.3,1.1,0.6c0.3,0.2,0.6,0.6,0.7,0.9c0.2,0.4,0.3,0.8,0.3,1.3C-2.5,519.7-2.6,520.3-2.9,520.8
				L-2.9,520.8z M-5.8,518.8c-0.2-0.2-0.4-0.3-0.8-0.3c-0.4,0-0.8,0.1-1.1,0.3c-0.3,0.2-0.6,0.4-0.8,0.7c-0.2,0.3-0.4,0.6-0.6,1
				c-0.2,0.4-0.3,0.7-0.4,1.1l1.2-0.2c0.6-0.1,1-0.2,1.4-0.4c0.4-0.1,0.6-0.3,0.9-0.5c0.2-0.2,0.4-0.3,0.4-0.5
				c0.1-0.2,0.1-0.4,0.1-0.5C-5.5,519.2-5.6,519-5.8,518.8L-5.8,518.8z M9.4,519.9c0,0.3-0.1,0.5-0.1,0.8L8,528.1
				c-0.6,0.1-1.1,0.1-1.7,0.1c-0.5,0-1,0-1.6-0.1l1.3-7.2c0.1-0.3,0.1-0.6,0.1-0.9c0-0.4-0.1-0.8-0.3-1c-0.2-0.2-0.5-0.3-0.8-0.3
				c-0.2,0-0.4,0.1-0.7,0.2c-0.3,0.1-0.5,0.3-0.8,0.7c-0.3,0.3-0.5,0.8-0.8,1.4c-0.3,0.6-0.5,1.4-0.7,2.4l-0.8,4.5
				c-0.6,0.1-1.1,0.1-1.6,0.1c-0.5,0-1,0-1.6-0.1l1.2-6.7c0.2-1,0.3-1.8,0.4-2.5c0.1-0.7,0.1-1.3,0.1-1.7c0-0.2,0-0.3,0-0.4
				c0-0.1,0-0.2,0-0.4c0.5-0.1,1-0.1,1.5-0.1c0.2,0,0.5,0,0.7,0c0.2,0,0.5,0.1,0.7,0.1c0,0.1,0.1,0.3,0.1,0.4c0,0.2,0,0.4,0,0.7
				c0,0.1,0,0.3,0,0.4c0,0.1,0,0.3-0.1,0.5c0.2-0.3,0.4-0.6,0.7-0.9c0.3-0.3,0.6-0.5,0.9-0.7c0.3-0.2,0.7-0.4,1.1-0.5
				c0.4-0.1,0.8-0.2,1.2-0.2c0.9,0,1.6,0.2,2.1,0.7c0.5,0.5,0.8,1.2,0.8,2.3C9.4,519.4,9.4,519.6,9.4,519.9L9.4,519.9z M22.2,514.9
				l-1.5,8.2c-0.2,0.9-0.3,1.8-0.4,2.5c-0.1,0.7-0.1,1.3-0.1,1.7c0,0.2,0,0.3,0,0.4c0,0.1,0,0.2,0,0.4c-0.5,0.1-1,0.1-1.5,0.1
				c-0.4,0-0.9,0-1.4-0.1c0-0.1-0.1-0.3-0.1-0.4c0-0.2,0-0.4,0-0.7c0-0.1,0-0.3,0-0.5c0-0.2,0-0.4,0.1-0.6c-0.2,0.3-0.5,0.7-0.8,1
				c-0.3,0.3-0.6,0.6-1,0.8c-0.4,0.2-0.7,0.4-1.1,0.5c-0.4,0.1-0.8,0.2-1.3,0.2c-1,0-1.7-0.3-2.2-1c-0.5-0.6-0.7-1.5-0.7-2.5
				c0-1.1,0.2-2.2,0.5-3.3c0.3-1.1,0.8-2,1.5-2.8c0.7-0.8,1.5-1.5,2.5-2c1-0.5,2.2-0.7,3.5-0.7c0.1,0,0.2,0,0.3,0c0.1,0,0.2,0,0.3,0
				c0.2-0.9,0.3-1.6,0.3-2.3c0.1-0.6,0.1-1.1,0.1-1.5c0-0.2,0-0.3,0-0.4c0-0.1,0-0.2,0-0.4c0.3,0,0.5-0.1,0.9-0.1c0.3,0,0.6,0,0.9,0
				c0.4,0,0.9,0,1.4,0.1c0.1,0.2,0.1,0.5,0.1,0.9C22.4,513.1,22.3,513.9,22.2,514.9L22.2,514.9z M17.9,518.8c-0.1,0-0.3,0-0.4,0
				c-0.7,0-1.3,0.2-1.8,0.5c-0.5,0.4-0.9,0.8-1.3,1.4c-0.3,0.5-0.6,1.1-0.7,1.8c-0.2,0.6-0.2,1.2-0.2,1.7c0,1.1,0.4,1.7,1.1,1.7
				c0.7,0,1.4-0.4,2-1.3c0.6-0.9,1.1-2.1,1.4-3.7l0.3-1.9C18.1,518.8,18,518.8,17.9,518.8L17.9,518.8z M35.1,513.6
				c-0.1,0.4-0.3,0.9-0.6,1.3c-0.5-0.2-0.9-0.3-1.3-0.4c-0.4-0.1-0.8-0.1-1.2-0.1c-1,0-1.9,0.2-2.6,0.7c-0.7,0.4-1.3,1-1.8,1.7
				c-0.5,0.7-0.8,1.5-1,2.4c-0.2,0.9-0.3,1.8-0.3,2.7c0,1.3,0.3,2.2,1,2.8c0.6,0.6,1.5,0.8,2.5,0.8c0.2,0,0.4,0,0.7,0
				c0.3,0,0.5,0,0.6-0.1l1-5.7c0.3-0.1,0.6-0.1,0.9-0.1c0.3,0,0.5,0,0.8,0c0.3,0,0.5,0,0.8,0c0.3,0,0.6,0.1,0.8,0.1l-1.4,8
				c-0.7,0.2-1.4,0.4-2.2,0.5c-0.8,0.1-1.6,0.1-2.3,0.1c-1.1,0-2.1-0.2-2.9-0.5c-0.8-0.3-1.5-0.8-2.1-1.3c-0.6-0.6-1-1.2-1.3-2
				c-0.3-0.8-0.4-1.6-0.4-2.5c0-1.5,0.2-2.8,0.7-4.1c0.4-1.3,1.1-2.4,1.8-3.4c0.8-1,1.7-1.7,2.9-2.3c1.1-0.6,2.4-0.8,3.7-0.8
				c0.7,0,1.3,0,1.9,0.1c0.6,0.1,1.1,0.3,1.7,0.5C35.4,512.7,35.2,513.1,35.1,513.6L35.1,513.6z M44.4,518.1
				c-0.1,0.5-0.2,0.8-0.4,1.1c-0.1,0-0.2,0-0.3,0c-0.1,0-0.2,0-0.4,0c-0.6,0-1.1,0.1-1.5,0.3c-0.4,0.2-0.7,0.5-1,0.9
				c-0.3,0.4-0.5,0.8-0.6,1.4c-0.2,0.5-0.3,1.1-0.4,1.8l-0.8,4.5c-0.6,0.1-1.1,0.1-1.7,0.1c-0.5,0-1,0-1.6-0.1l1.2-6.7
				c0.2-1,0.3-1.8,0.4-2.5c0.1-0.7,0.1-1.3,0.1-1.7c0-0.2,0-0.3,0-0.4c0-0.1,0-0.2,0-0.4c0.5-0.1,1-0.1,1.5-0.1c0.2,0,0.4,0,0.7,0
				c0.2,0,0.5,0.1,0.7,0.1c0,0.1,0.1,0.3,0.1,0.4c0,0.2,0,0.4,0,0.7c0,0.1,0,0.3,0,0.4c0,0.1,0,0.3-0.1,0.5c0.1-0.3,0.3-0.5,0.6-0.8
				c0.2-0.3,0.5-0.5,0.8-0.7c0.3-0.2,0.6-0.4,0.9-0.5c0.3-0.1,0.7-0.2,1.1-0.2c0.3,0,0.6,0,0.8,0.1c0,0.1,0,0.1,0,0.2s0,0.1,0,0.2
				C44.5,517.2,44.5,517.6,44.4,518.1L44.4,518.1z M48.2,528.1c-0.6,0.1-1.1,0.1-1.6,0.1c-0.5,0-1,0-1.5-0.1l1.6-9.2h-1.4
				c0,0,0-0.1,0-0.1c0,0,0-0.1,0-0.2c0-0.4,0-0.8,0.1-1.1c0.1-0.3,0.2-0.7,0.3-1h4.6L48.2,528.1L48.2,528.1z M62.5,514.9L61,523
				c-0.2,0.9-0.3,1.8-0.4,2.5c-0.1,0.7-0.1,1.3-0.1,1.7c0,0.2,0,0.3,0,0.4c0,0.1,0,0.2,0,0.4c-0.5,0.1-1,0.1-1.5,0.1
				c-0.4,0-0.9,0-1.4-0.1c0-0.1-0.1-0.3-0.1-0.4c0-0.2,0-0.4,0-0.7c0-0.1,0-0.3,0-0.5c0-0.2,0-0.4,0.1-0.6c-0.2,0.3-0.5,0.7-0.8,1
				c-0.3,0.3-0.6,0.6-1,0.8c-0.4,0.2-0.7,0.4-1.1,0.5c-0.4,0.1-0.8,0.2-1.3,0.2c-1,0-1.7-0.3-2.2-1c-0.5-0.6-0.7-1.5-0.7-2.5
				c0-1.1,0.2-2.2,0.5-3.3c0.3-1.1,0.8-2,1.5-2.8c0.7-0.8,1.5-1.5,2.5-2c1-0.5,2.2-0.7,3.5-0.7c0.1,0,0.2,0,0.3,0c0.1,0,0.2,0,0.3,0
				c0.2-0.9,0.3-1.6,0.3-2.3c0.1-0.6,0.1-1.1,0.1-1.5c0-0.2,0-0.3,0-0.4c0-0.1,0-0.2,0-0.4c0.3,0,0.6-0.1,0.9-0.1c0.3,0,0.6,0,0.9,0
				c0.4,0,0.9,0,1.4,0.1c0.1,0.2,0.1,0.5,0.1,0.9C62.7,513.1,62.6,513.9,62.5,514.9L62.5,514.9z M58.2,518.8c-0.1,0-0.3,0-0.4,0
				c-0.7,0-1.3,0.2-1.8,0.5c-0.5,0.4-0.9,0.8-1.3,1.4c-0.3,0.5-0.6,1.1-0.7,1.8c-0.1,0.6-0.2,1.2-0.2,1.7c0,1.1,0.4,1.7,1.1,1.7
				c0.7,0,1.4-0.4,2-1.3c0.6-0.9,1.1-2.1,1.4-3.7l0.3-1.9C58.4,518.8,58.3,518.8,58.2,518.8L58.2,518.8z"/>
			<g>
				<path fill="#467BBD" d="M-28.8,517.3C-28.8,517.3-28.8,517.2-28.8,517.3c-0.1-0.3-0.2-0.5-0.3-0.7c-0.2-0.2-0.4-0.4-0.6-0.5
					c-0.1-0.1-0.2-0.1-0.3-0.2c-0.1,0-0.1-0.1-0.2-0.1c-0.4-0.1-0.8-0.2-1.2-0.2c-1,0-2,0.3-3,0.9c-3.1,1.9-6.1,6.2-7.5,8.4l0.1-0.1
					l-0.6,0.9c2.5-0.1,8-0.3,11-2.3C-27.8,520.9-28.5,518.1-28.8,517.3z"/>
				<path fill="#467BBD" d="M-59.8,521.4c3.4-2,6.9-7.3,8.1-9.3c-3.1,0.1-8.2,0.5-11,2.3c-1.9,1.2-3.4,4-2.6,6.2c0,0,0,0,0,0.1
					c0.1,0.2,0.2,0.4,0.3,0.7c0.6,0.8,1.5,0.9,2.2,0.9C-61.9,522.3-60.8,522-59.8,521.4z"/>
				<path fill="#467BBD" d="M-39.6,520.7c-2.6-0.9-5.3-1.7-7.7-2.5c0-1.9-0.1-4.1-0.1-6.2c0-0.1,0-0.2,0-0.3c0-0.1,0-0.2,0-0.3
					c-0.1-1.8-0.1-3.4-0.2-4.3c-1.2,1.5-2.3,3.2-3.1,4.5c-0.1,0.1-0.1,0.2-0.2,0.3c0,0-0.1,0.1-0.1,0.1c0,0,0,0.1-0.1,0.1
					c-0.3,0.6-1.7,2.9-3.5,5.1c0.1,0.1,3,5.1,5.4,9c0.1,0.1,0.1,0.2,0.2,0.3c0.1,0.1,0.1,0.2,0.2,0.3c1.2,2,2.2,3.6,2.4,4l-8.1-2.6
					l-0.4-0.1l-0.4-0.1l-0.4-0.1c0.3-3.1,0.9-9.6,1.1-10.6c-1.4,1.8-3.2,3.6-4.9,4.6c-1,0.6-2.2,1-3.3,1c-0.7,0-1.2-0.1-1.7-0.4
					c-0.1,0-0.1-0.1-0.2-0.1c1.6,3.5,4.1,7.7,6.3,10.7c0.2,0.3,0.4,0.6,0.6,0.8c0,0,0,0,0,0c0.9,1,2.2,1.6,3.7,1.6
					c1,0,2-0.2,3.1-0.7c3.3-1.6,6.3-6.4,7.6-8.5c0,0,0,0,0,0c0.1-0.1,0.1-0.2,0.2-0.3c0,0,0-0.1,0.1-0.1l0,0c0,0,0.1-0.1,0.1-0.2
					c0.1-0.2,0.3-0.5,0.6-1c0.4-0.7,1.1-1.7,1.9-2.8C-40.2,521.6-39.9,521.2-39.6,520.7z"/>
				<path fill="#467BBD" d="M-45,511.4c0.1,0.1,0.1,0.2,0.2,0.3c2,3.4,4.4,7.6,5.2,9c1.4-1.7,3.1-3.6,4.9-4.7c1-0.6,2.2-1,3.3-1
					c0.3,0,0.6,0,0.9,0.1c0,0,0,0,0,0c0,0,0,0,0,0c-2.4-1.5-5.6-3.4-7.4-4.5c0.1-0.4,0.1-0.9,0.2-1.3c0-0.1,0-0.3,0.1-0.4
					c0-0.1,0-0.3,0.1-0.4c0.2-1.5,0.4-3,0.5-4.1c0.4,0.5,0.7,1,1.1,1.5c0.1,0.1,0.2,0.2,0.2,0.3c0.1,0.1,0.1,0.2,0.2,0.3
					c0,0.1,0.1,0.1,0.1,0.2c1.7,2.5,5,8.5,5,8.5l0.4,0.1c0.2,0.1,0.3,0.1,0.5,0.2c0,0,0,0,0,0c-0.6-1.4-1.4-2.9-2.3-4.4
					c-1.1-1.9-2.3-3.8-3.5-5.5c-0.1-0.2-0.2-0.3-0.3-0.5c-0.3-0.4-0.5-0.7-0.8-1c-0.2-0.2-0.3-0.4-0.5-0.6c0,0,0,0-0.1-0.1v0
					c-0.8-0.6-1.9-1-3.2-1c-1,0-2.1,0.2-2.9,0.7c-1.6,0.8-3.1,2.3-4.5,4c0.3,0.5,1.2,2.1,2.4,4.1C-45.1,511.2-45,511.3-45,511.4z"/>
			</g>
			<g>
				<path fill="#444345" d="M64.5,513.7c-0.6,0-1-0.4-1-1c0-0.6,0.4-1,1.1-1c0.6,0,1,0.4,1,1C65.6,513.2,65.2,513.7,64.5,513.7z
					 M64.6,511.9c-0.4,0-0.8,0.3-0.8,0.8c0,0.5,0.3,0.8,0.8,0.8c0.4,0,0.7-0.3,0.7-0.8C65.3,512.2,65,511.9,64.6,511.9z M64.7,513.1
					l-0.3-0.4v0.2c0,0,0,0,0,0.2h-0.3v-0.9l0-0.2h0.4c0.2,0,0.4,0.1,0.4,0.4c0,0.1-0.1,0.2-0.2,0.3l0.4,0.4H64.7z M64.5,512.6
					c0.1,0,0.2-0.1,0.2-0.2c0-0.1-0.1-0.2-0.2-0.2h0L64.5,512.6L64.5,512.6z"/>
			</g>
		</g>
		<path fill="#447BBE" d="M50.9,512.9c-0.1,0.5-0.2,1-0.4,1.5c-0.3,0-0.6,0.1-0.8,0.1c-0.3,0-0.6,0-0.8,0c-0.2,0-0.5,0-0.8,0
			c-0.3,0-0.6,0-0.8-0.1c0-0.5,0-1,0.1-1.5c0.1-0.5,0.2-1,0.4-1.5c0.3-0.1,0.6-0.1,0.9-0.1c0.3,0,0.6,0,0.8,0c0.2,0,0.5,0,0.8,0
			c0.3,0,0.6,0.1,0.8,0.1C51.1,511.9,51,512.4,50.9,512.9L50.9,512.9z"/>
	</g>
</g>
</svg>
