<?xml version="1.0" encoding="utf-8"?>
<!-- Generator: Adobe Illustrator 17.1.0, SVG Export Plug-In . SVG Version: 6.00 Build 0)  -->
<!DOCTYPE svg PUBLIC "-//W3C//DTD SVG 1.1//EN" "http://www.w3.org/Graphics/SVG/1.1/DTD/svg11.dtd">
<svg version="1.1" xmlns="http://www.w3.org/2000/svg" xmlns:xlink="http://www.w3.org/1999/xlink" x="0px" y="0px"
	 viewBox="-87 100 174 60" enable-background="new -87 100 174 60" xml:space="preserve">
<g id="estimote">
</g>
<g id="Layer_2">
</g>
<g id="Spark">
</g>
<g id="Layer_4">
</g>
<g id="Layer_5">
</g>
<g id="Layer_6">
</g>
<g id="Base">
</g>
<g id="yelp">
	<g id="layer1_2_" transform="translate(-559.08003,-313.13162)">
		<g id="g6545_2_" transform="matrix(3.9408543,0,0,3.9408543,-960.05773,-2371.0274)">
			<g id="g1338_2_" transform="matrix(1.25,0,0,-1.25,-46.875,1061.1122)">
				<g>
					<defs>
						<rect id="SVGID_1_" x="302.6" y="257.2" width="86.6" height="42.3"/>
					</defs>
					<clipPath id="SVGID_2_">
						<use xlink:href="#SVGID_1_"  overflow="visible"/>
					</clipPath>
					<g id="g1340_2_" clip-path="url(#SVGID_2_)">
						<g id="g1346_2_" transform="translate(405.717,287.389)">
							<path id="path1348_2_" fill="#FFFFFF" d="M-51.3-9.6c-0.1,0.1-0.1,0.1-0.8,0.3c0.6,0.1,0.6,0.2,0.7,0.2
								c0.2,0.2,0.4,0.4,0.3,0.7l0,0c0,0.5-0.6,1.3-1,1.5c-0.3,0.1-0.6,0.1-0.8,0C-53-6.9-53-6.9-53.5-7.5c0,0.7-0.1,2-0.1,2.1l0,0
								l0,0c-0.1,0.3-0.3,0.5-0.6,0.6c-0.5,0.1-1.7-0.2-2.1-0.6c-0.2-0.2-0.3-0.5-0.2-0.7l0-0.1l0,0c0-0.1,0.1-0.2,0.8-1.4l0.3-0.4
								C-56-7.8-56-7.8-56.2-7.8c-0.3,0-0.5-0.1-0.7-0.4l0,0C-56.9-8.3-57-8.4-57-8.6c-0.2,0.3-0.5,0.5-1,0.6c-0.3,0.1-0.7,0-1-0.1
								c-0.3,0.2-0.7,0.2-1,0c-0.1-0.1-0.2-0.1-0.2-0.2v0.4l0,0.2l0,0c-0.1,0.3-0.3,0.5-0.5,0.6l0,0C-61-7-61.3-7-61.6-7.1
								C-61.9-7.3-62-7.6-62-8v-0.8c-0.1,0.2-0.2,0.3-0.4,0.4c-0.4,0.3-0.9,0.4-1.5,0.3c-0.4-0.1-0.6-0.2-0.9-0.4c0,0,0,0,0,0
								c-0.1,0.2-0.3,0.4-0.6,0.4c-0.4,0.1-0.9,0-1.2-0.8c0,0,0-0.1-0.1-0.3c-0.1,0.2-0.3,0.6-0.3,0.7C-67.2-8.1-67.6-8-68-8.1
								c-0.4-0.1-0.6-0.5-0.6-0.9c0-0.1,0-0.3,0.1-0.4l0,0c0,0,0.8-1.6,1-2.1c-0.4-0.1-0.6-0.4-0.7-0.7c0,0,0-0.1,0-0.1
								c0-0.2,0.1-0.5,0.3-0.6c0.3-0.3,0.7-0.3,1.2-0.2c0.5,0.1,0.9,0.4,1.1,1.1l0.3,1c0.1-0.4,0.3-0.7,0.5-0.9
								c0.3-0.3,0.8-0.6,1.6-0.5c0.6,0.1,1,0.4,1.3,0.7l0-0.1c0.1-0.2,0.2-0.4,0.5-0.5c0.2-0.1,0.5-0.1,0.8,0
								c0.1,0.1,0.2,0.1,0.3,0.3v-0.3c0-0.5,0.3-0.8,0.5-0.9c0.2-0.1,0.5-0.1,0.8,0c0.2,0.1,0.4,0.3,0.5,0.5l0,0l0,0.2
								c0,0,0,0.1,0,0.1c0.3,0,0.7,0,1,0.2c0.1,0.1,0.3,0.2,0.4,0.2h0.2c0.1-0.1,0.3-0.1,0.4-0.1c0.1,0,0.3,0,0.4,0.1h0.6
								c0.4-0.2,1-0.4,1.4-0.4c0.3,0.1,0.5,0.2,0.6,0.5l0,0c0,0.1,0,0.1,0,0.8c0.4-0.6,0.4-0.6,0.5-0.7c0.2-0.2,0.5-0.2,0.8-0.1
								c0.4,0.2,1.1,1,1.2,1.5c0,0,0,0.1,0,0.1C-51.1-10-51.2-9.7-51.3-9.6z M-58-8C-58-8-58-8-58-8C-58-8-58-8-58-8L-58-8z
								 M-52.2-11.8L-52.2-11.8C-52.2-11.8-52.2-11.8-52.2-11.8L-52.2-11.8"/>
						</g>
						<g id="g1350_2_" transform="translate(405.717,287.389)">
							
								<path id="path1352_2_" fill="none" stroke="#BDBCBC" stroke-width="0.145" stroke-linecap="round" stroke-linejoin="round" d="
								M-51.3-9.6c-0.1,0.1-0.1,0.1-0.8,0.3c0.6,0.1,0.6,0.2,0.7,0.2c0.2,0.2,0.4,0.4,0.3,0.7l0,0c0,0.5-0.6,1.3-1,1.5
								c-0.3,0.1-0.6,0.1-0.8,0C-53-6.9-53-6.9-53.5-7.5c0,0.7-0.1,2-0.1,2.1l0,0l0,0c-0.1,0.3-0.3,0.5-0.6,0.6
								c-0.5,0.1-1.7-0.2-2.1-0.6c-0.2-0.2-0.3-0.5-0.2-0.7l0-0.1l0,0c0-0.1,0.1-0.2,0.8-1.4l0.3-0.4C-56-7.8-56-7.8-56.2-7.8
								c-0.3,0-0.5-0.1-0.7-0.4l0,0C-56.9-8.3-57-8.4-57-8.6c-0.2,0.3-0.5,0.5-1,0.6c-0.3,0.1-0.7,0-1-0.1c-0.3,0.2-0.7,0.2-1,0
								c-0.1-0.1-0.2-0.1-0.2-0.2v0.4l0,0.2l0,0c-0.1,0.3-0.3,0.5-0.5,0.6l0,0C-61-7-61.3-7-61.6-7.1C-61.9-7.3-62-7.6-62-8v-0.8
								c-0.1,0.2-0.2,0.3-0.4,0.4c-0.4,0.3-0.9,0.4-1.5,0.3c-0.4-0.1-0.6-0.2-0.9-0.4c0,0,0,0,0,0c-0.1,0.2-0.3,0.4-0.6,0.4
								c-0.4,0.1-0.9,0-1.2-0.8c0,0,0-0.1-0.1-0.3c-0.1,0.2-0.3,0.6-0.3,0.7C-67.2-8.1-67.6-8-68-8.1c-0.4-0.1-0.6-0.5-0.6-0.9
								c0-0.1,0-0.3,0.1-0.4l0,0c0,0,0.8-1.6,1-2.1c-0.4-0.1-0.6-0.4-0.7-0.7c0,0,0-0.1,0-0.1c0-0.2,0.1-0.5,0.3-0.6
								c0.3-0.3,0.7-0.3,1.2-0.2c0.5,0.1,0.9,0.4,1.1,1.1l0.3,1c0.1-0.4,0.3-0.7,0.5-0.9c0.3-0.3,0.8-0.6,1.6-0.5
								c0.6,0.1,1,0.4,1.3,0.7l0-0.1c0.1-0.2,0.2-0.4,0.5-0.5c0.2-0.1,0.5-0.1,0.8,0c0.1,0.1,0.2,0.1,0.3,0.3v-0.3
								c0-0.5,0.3-0.8,0.5-0.9c0.2-0.1,0.5-0.1,0.8,0c0.2,0.1,0.4,0.3,0.5,0.5l0,0l0,0.2c0,0,0,0.1,0,0.1c0.3,0,0.7,0,1,0.2
								c0.1,0.1,0.3,0.2,0.4,0.2h0.2c0.1-0.1,0.3-0.1,0.4-0.1c0.1,0,0.3,0,0.4,0.1h0.6c0.4-0.2,1-0.4,1.4-0.4
								c0.3,0.1,0.5,0.2,0.6,0.5l0,0c0,0.1,0,0.1,0,0.8c0.4-0.6,0.4-0.6,0.5-0.7c0.2-0.2,0.5-0.2,0.8-0.1c0.4,0.2,1.1,1,1.2,1.5
								c0,0,0,0.1,0,0.1C-51.1-10-51.2-9.7-51.3-9.6z"/>
							<g id="g1354_2_" transform="translate(-23.075,5.382)">
								
									<path id="path1356_2_" fill="none" stroke="#BDBCBC" stroke-width="0.145" stroke-linecap="round" stroke-linejoin="round" d="
									M-34.9-13.4C-34.9-13.4-34.9-13.4-34.9-13.4C-34.9-13.4-34.9-13.4-34.9-13.4L-34.9-13.4z"/>
								<g id="g1358_2_" transform="translate(20.06,-12.978)">
									
										<path id="path1360_2_" fill="none" stroke="#BDBCBC" stroke-width="0.145" stroke-linecap="round" stroke-linejoin="round" d="
										M-49.2-4.2L-49.2-4.2C-49.2-4.2-49.2-4.2-49.2-4.2L-49.2-4.2z"/>
								</g>
							</g>
						</g>
					</g>
				</g>
			</g>
			<g id="g1362_2_" transform="matrix(1.25,0,0,-1.25,438.16125,697.87345)">
				<path id="path1364_2_" fill="#E9E9E9" d="M-38.8-11.9c-0.1-0.2-0.1-0.7-0.1-1c0-0.1,0-0.2,0.1-0.3c0-0.1,0.1-0.1,0.2-0.1
					c0.1,0,0.1,0,1,0.3c0,0,0.4,0.1,0.4,0.1c0.1,0,0.2,0.1,0.2,0.3c0,0.1-0.1,0.2-0.2,0.3l-0.3,0.1c-1,0.4-1.1,0.4-1.1,0.4
					C-38.6-11.7-38.7-11.8-38.8-11.9"/>
			</g>
			<g id="g1366_2_" transform="matrix(1.25,0,0,-1.25,448.16,711.61345)">
				<path id="path1368_2_" fill="#E9E9E9" d="M-44.5-4c0,0,0,0.1,0,1.1c0,0,0,0.4,0,0.5c0,0.1-0.1,0.2-0.2,0.3c-0.1,0-0.2,0-0.3-0.1
					c0,0-0.2-0.2-0.2-0.2c-0.7-0.9-0.8-0.9-0.8-0.9c0,0,0-0.1,0-0.1c0,0,0-0.1,0.1-0.1c0.2-0.2,1-0.5,1.2-0.5
					C-44.5-4.2-44.5-4.1-44.5-4"/>
			</g>
			<g id="g1370_2_" transform="matrix(1.25,0,0,-1.25,455.2225,710.0922)">
				<path id="path1372_2_" fill="#E9E9E9" d="M-48.5-4.9c0.2,0.1,0.8,0.8,0.8,1c0,0.1,0,0.2-0.1,0.2c0,0-0.1,0-1,0.4
					c0,0-0.4,0.1-0.4,0.1c-0.1,0-0.2,0-0.3-0.1c-0.1-0.1-0.1-0.2,0-0.3l0.2-0.3c0.6-0.9,0.6-1,0.7-1C-48.6-4.9-48.6-4.9-48.5-4.9"/>
			</g>
			<g id="g1374_2_" transform="matrix(1.25,0,0,-1.25,453.07875,699.7722)">
				<path id="path1376_2_" fill="#E9E9E9" d="M-47.3-10.8c1.1,0.3,1.1,0.3,1.2,0.3c0.1,0,0.1,0.1,0.1,0.2c0,0,0,0,0,0
					c0,0.3-0.5,1-0.7,1.1c-0.1,0-0.2,0-0.2,0c0,0-0.1-0.1-0.7-0.9c0,0-0.3-0.4-0.3-0.4c-0.1-0.1-0.1-0.2,0-0.3
					c0.1-0.1,0.2-0.2,0.3-0.1c0,0,0,0,0,0C-47.5-10.8-47.4-10.8-47.3-10.8"/>
			</g>
			<g id="g1378_2_" transform="matrix(1.25,0,0,-1.25,448.33375,695.87095)">
				<path id="path1380_2_" fill="#E9E9E9" d="M-44.6-13c0,0.4-0.1,2.4-0.2,2.4c0,0.1-0.1,0.1-0.2,0.2c-0.3,0.1-1.3-0.2-1.5-0.4
					c-0.1-0.1-0.1-0.1-0.1-0.2c0-0.1,1.4-2.1,1.4-2.1c0.2-0.3,0.4-0.3,0.4-0.3S-44.5-13.4-44.6-13"/>
			</g>
			<g id="g1382_2_" transform="matrix(1.25,0,0,-1.25,438.53875,696.92845)">
				<path id="path1384_2_" fill="#BF2519" d="M-39-12.4c-0.1-0.2-0.1-0.7-0.1-1c0-0.1,0-0.2,0.1-0.3c0-0.1,0.1-0.1,0.2-0.1
					c0.1,0,0.1,0,1,0.3c0,0,0.4,0.1,0.4,0.1c0.1,0,0.2,0.1,0.2,0.3c0,0.1-0.1,0.2-0.2,0.3c0,0-0.3,0.1-0.3,0.1
					c-1,0.4-1.1,0.4-1.1,0.4C-38.9-12.3-38.9-12.3-39-12.4"/>
			</g>
			<g id="g1386_2_" transform="matrix(1.25,0,0,-1.25,448.53875,710.66595)">
				<path id="path1388_2_" fill="#BF2519" d="M-44.7-4.6c0,0,0,0.1,0,1.1c0,0,0,0.4,0,0.5c0,0.1-0.1,0.2-0.2,0.3
					c-0.1,0-0.2,0-0.3-0.1c0,0-0.2-0.3-0.2-0.3C-46.1-4-46.1-4-46.1-4c0,0,0-0.1,0-0.1c0,0,0-0.1,0.1-0.1c0.2-0.2,1-0.5,1.2-0.5
					C-44.8-4.7-44.7-4.7-44.7-4.6"/>
			</g>
			<g id="g1390_2_" transform="matrix(1.25,0,0,-1.25,455.60375,709.1447)">
				<path id="path1392_2_" fill="#BF2519" d="M-48.7-5.4c0.2,0.1,0.8,0.8,0.8,1c0,0.1,0,0.2-0.1,0.2c0,0-0.1,0-1,0.4
					c0,0-0.4,0.1-0.4,0.1c-0.1,0-0.2,0-0.3-0.1c-0.1-0.1-0.1-0.2,0-0.3l0.2-0.3c0.6-0.9,0.6-1,0.7-1C-48.9-5.5-48.8-5.5-48.7-5.4"/>
			</g>
			<g id="g1394_2_" transform="matrix(1.25,0,0,-1.25,453.455,698.8272)">
				<path id="path1396_2_" fill="#BF2519" d="M-47.5-11.3c1.1,0.3,1.1,0.3,1.2,0.3c0.1,0,0.1,0.1,0.1,0.2c0,0,0,0,0,0
					c0,0.3-0.5,1-0.7,1.1c-0.1,0-0.2,0-0.2,0c0,0-0.1-0.1-0.7-0.9c0,0-0.3-0.4-0.3-0.4c-0.1-0.1-0.1-0.2,0-0.3
					c0.1-0.1,0.2-0.2,0.3-0.1c0,0,0,0,0,0C-47.7-11.4-47.6-11.4-47.5-11.3"/>
			</g>
			<g id="g1398_2_" transform="matrix(1.25,0,0,-1.25,448.7125,694.92595)">
				<path id="path1400_2_" fill="#BF2519" d="M-44.8-13.5c0,0.4-0.1,2.4-0.2,2.4c0,0.1-0.1,0.1-0.2,0.2c-0.3,0.1-1.3-0.2-1.5-0.4
					c-0.1-0.1-0.1-0.1-0.1-0.2c0-0.1,1.4-2.1,1.4-2.1C-45.2-14-45-14-45-14C-44.9-14-44.7-13.9-44.8-13.5"/>
			</g>
			<g id="g1402_2_" transform="matrix(1.25,0,0,-1.25,390.21,714.68845)">
				<path id="path1404_2_" fill="#231F20" d="M-11.5-2.3c0.1-0.1,0.4-0.2,0.7-0.1c0.3,0.1,0.5,0.2,0.7,0.8l0.9,2.8
					c0,0.1,0,0.3,0,0.4c0,0.1-0.1,0.1-0.2,0.2c-0.2,0-0.4,0-0.5-0.4l-0.5-1.6c0,0-0.9,1.8-0.9,1.8c-0.1,0.1-0.2,0.2-0.4,0.1
					C-12,1.5-12.1,1.3-12,1.1c0,0,1.1-2.3,1.1-2.3c0,0,0-0.1,0-0.1c0,0,0-0.1,0-0.1c0-0.1,0-0.2-0.1-0.2c-0.1,0-0.1-0.1-0.2-0.1
					c0,0-0.2,0-0.2,0c-0.2,0-0.3-0.1-0.3-0.3C-11.6-2.1-11.6-2.2-11.5-2.3"/>
			</g>
			<g id="g1406_2_" transform="matrix(1.25,0,0,-1.25,409.75875,703.3197)">
				<path id="path1408_2_" fill="#231F20" d="M-22.6-8.8h-1.2c0,0,0,0.1,0,0.2c0,0.1,0,0.1,0.1,0.2c0,0,0,0,0,0.1
					c0.1,0.1,0.2,0.2,0.3,0.2c0.4,0.1,0.7-0.1,0.8-0.5C-22.6-8.7-22.6-8.8-22.6-8.8z M-21.9-8.5c0,0.4-0.2,0.7-0.4,0.9
					c-0.3,0.2-0.7,0.3-1.1,0.2c-0.6-0.1-0.9-0.5-1-1.2c-0.1-0.8,0-1.4,0.4-1.7c0.3-0.3,0.6-0.4,1.1-0.3c0.7,0.1,1,0.5,1,0.7
					c0,0.2-0.1,0.3-0.3,0.3c-0.1,0-0.2,0-0.3-0.1c-0.2-0.2-0.5-0.3-0.7-0.2c-0.2,0-0.3,0.2-0.4,0.3c0,0,0,0.1,0,0.1
					c0,0.1,0,0.2,0,0.2l0,0h1.5c0.1,0,0.2,0,0.2,0.1C-21.8-9.2-21.8-8.9-21.9-8.5"/>
			</g>
			<g id="g1410_2_" transform="matrix(1.25,0,0,-1.25,418.79625,693.2322)">
				<path id="path1412_2_" fill="#231F20" d="M-27.7-14.5c-0.1,0-0.2,0-0.4,0c-0.1-0.1-0.2-0.2-0.2-0.3v-3.5c0,0,0-0.1,0-0.1
					c0-0.1,0.1-0.2,0.2-0.2c0.1,0,0.2,0,0.3,0c0.1,0.1,0.2,0.2,0.2,0.3v3.5c0,0,0,0.2,0,0.2C-27.6-14.6-27.7-14.5-27.7-14.5"/>
			</g>
			<g id="g1414_2_" transform="matrix(1.25,0,0,-1.25,430.81125,708.65345)">
				<path id="path1416_2_" fill="#231F20" d="M-34.6-5.7c-0.5,0-0.6,0.4-0.6,0.8c0,0,0,0.2,0,0.2s0,0.1,0,0.1c0,0.6,0.1,0.8,0.4,0.8
					c0.2,0,0.4,0,0.5-0.1C-34.1-4-34-4.3-34-4.8C-34-5.3-34.1-5.7-34.6-5.7z M-34.5-3.1c-0.3,0.1-0.6,0-0.9-0.2c0,0,0,0,0,0l0,0
					l-0.1,0l0,0.1l0,0l0,0l0,0c0,0,0,0,0,0c-0.1,0.1-0.3,0.2-0.5,0.1c-0.1-0.1-0.1-0.1-0.1-0.3V-7c0-0.2,0.1-0.3,0.2-0.4
					c0.1-0.1,0.2-0.1,0.3,0c0.1,0,0.2,0.1,0.2,0.2l0,0.1v0.6l0,0.1l0,0l0,0l0,0.1l0.1-0.1c0,0,0,0,0,0l0,0c0,0,0,0,0,0c0,0,0,0,0,0
					c0.3-0.1,0.7-0.1,1,0c0.4,0.2,0.6,0.6,0.6,1.2C-33.5-3.9-33.8-3.3-34.5-3.1"/>
			</g>
			<g id="g1418_2_" transform="matrix(1.25,0,0,-1.25,437.5,709.8197)">
				<path id="path1420_2_" fill="#231F20" d="M-38.4-5.1L-38.4-5.1c0.1,0,0.1,0,0.1,0C-38.3-5-38.3-5-38.4-5.1L-38.4-5.1L-38.4-5.1z
					 M-38.4-5L-38.4-5c0.1,0,0.2,0,0.2-0.1c0,0,0-0.1-0.1-0.1l0.1-0.1h0l-0.1,0.1h0v-0.1h0V-5z M-38.3-5.2c0.1,0,0.2,0.1,0.2,0.2
					c0,0.1-0.1,0.2-0.2,0.2c-0.1,0-0.2-0.1-0.2-0.2C-38.5-5.2-38.4-5.2-38.3-5.2z M-38.3-4.9c0.1,0,0.2-0.1,0.2-0.2
					c0-0.1-0.1-0.2-0.2-0.2c-0.1,0-0.2,0.1-0.2,0.2C-38.5-5-38.5-4.9-38.3-4.9"/>
			</g>
		</g>
	</g>
</g>
<g id="Yext">
</g>
<g id="Estimote">
</g>
<g id="Kloudless">
</g>
<g id="Microsoft">
</g>
<g id="Big_Viking">
</g>
<g id="Guides">
	<line fill="none" x1="525.7" y1="140.5" x2="-155.8" y2="140.5"/>
</g>
</svg>
