<?xml version="1.0" encoding="utf-8"?>
<!-- Generator: Adobe Illustrator 17.1.0, SVG Export Plug-In . SVG Version: 6.00 Build 0)  -->
<!DOCTYPE svg PUBLIC "-//W3C//DTD SVG 1.1//EN" "http://www.w3.org/Graphics/SVG/1.1/DTD/svg11.dtd">
<svg version="1.1" xmlns="http://www.w3.org/2000/svg" xmlns:xlink="http://www.w3.org/1999/xlink" x="0px" y="0px"
	 viewBox="-87 350 174 60" enable-background="new -87 350 174 60" xml:space="preserve">
<g id="estimote">
</g>
<g id="Pebble">
</g>
<g id="Spark">
</g>
<g id="Layer_4">
</g>
<g id="Layer_5">
</g>
<g id="Layer_6">
</g>
<g id="Base">
</g>
<g id="yelp">
</g>
<g id="Yext">
</g>
<g id="Estimote">
</g>
<g id="Kloudless">
</g>
<g id="Microsoft">
</g>
<g id="Big_Viking">
</g>
<g id="_x35_00px">
</g>
<g id="Magnet_Forensics">
</g>
<g id="Guides">
</g>
<g id="Wit.Ai" display="none">
	<g display="inline">
		<g>
			<polygon fill="#BAD4EE" stroke="#101E46" stroke-width="0.7" stroke-miterlimit="10" points="-25,382.6 -29.4,382.4 -42.6,382.1 
				-42.6,382.9 -25.1,383.3 			"/>
			<polygon fill="#BAD4EE" stroke="#101E46" stroke-width="0.7" stroke-miterlimit="10" points="-43.3,382 -43.3,382.9 -46.8,383.1 
				-46.8,382.6 -44.2,382.2 			"/>
			<g>
				<g>
					<path fill="#BAD4EE" stroke="#101E46" stroke-width="0.7" stroke-miterlimit="10" d="M-46.8,367.1v2.6l0,0.5
						c0.6,0.5,1,1.9,1,3.7c0,1.6-0.5,3.1-1,3.7l0,0.7v3.7l3.5-0.6v-17C-43.3,364.4-46.9,366.1-46.8,367.1z"/>
				</g>
			</g>
			<path fill="#BAD4EE" stroke="#101E46" stroke-width="0.7" stroke-miterlimit="10" d="M-48.4,373.9c0,1.6,0.5,2.9,1.1,3
				c0.6,0,1.1-1.3,1.2-2.9c0-1.6-0.5-2.9-1.1-3C-47.9,371-48.4,372.3-48.4,373.9z"/>
			<path fill="#BAD4EE" stroke="#101E46" stroke-width="0.7" stroke-miterlimit="10" d="M-20.5,394.8v-9.2c0,0,0.2-1.5-1.3-1.6
				l-24.7-0.4c0,0-2.5-0.5-2.6,1.7v9.5H-20.5z"/>
			<path fill="#BAD4EE" stroke="#101E46" stroke-width="0.7" stroke-miterlimit="10" d="M-49.6,394.8v-9.5c0,0,0.1-1.3-1.1-1.2
				c0,0-3,0-3.7,2.5v8.2H-49.6z"/>
			<path fill="#BAD4EE" stroke="#101E46" stroke-width="0.7" stroke-miterlimit="10" d="M-26.8,364.3l-13.6-0.6c0,0-2.1-0.3-2.3,1.6
				v15.1v1l17.6,0.4v-15.5C-25.1,366.3-25.1,364.4-26.8,364.3z"/>
			<circle fill="#FFFFFF" stroke="#101E46" stroke-width="0.7" stroke-miterlimit="10" cx="-37.3" cy="371.8" r="1.7"/>
			<circle fill="#FFFFFF" stroke="#101E46" stroke-width="0.7" stroke-miterlimit="10" cx="-29.3" cy="371.8" r="1.7"/>
		</g>
		<g>
			<path fill="#231F20" d="M-8.7,389.9l-4.9-19.4h2.7l2.3,9.8c0.6,2.4,1.1,4.8,1.4,6.7h0.1c0.3-1.9,0.9-4.2,1.6-6.7l2.6-9.8h2.6
				l2.4,9.9c0.5,2.3,1.1,4.6,1.4,6.7h0.1c0.4-2.1,1-4.3,1.6-6.7l2.6-9.8h2.6l-5.5,19.4H2l-2.4-10.1c-0.6-2.5-1-4.4-1.3-6.3h-0.1
				c-0.3,1.9-0.8,3.8-1.5,6.3l-2.8,10.1H-8.7z"/>
			<path fill="#231F20" d="M14.8,372c0,0.9-0.6,1.6-1.6,1.6c-0.9,0-1.5-0.7-1.5-1.6c0-0.9,0.7-1.6,1.6-1.6
				C14.2,370.4,14.8,371.1,14.8,372z M12,389.9v-13.9h2.5v13.9H12z"/>
			<path fill="#231F20" d="M21.8,371.9v4h3.6v1.9h-3.6v7.5c0,1.7,0.5,2.7,1.9,2.7c0.7,0,1.2-0.1,1.5-0.2l0.1,1.9
				c-0.5,0.2-1.3,0.3-2.2,0.3c-1.2,0-2.1-0.4-2.7-1.1c-0.7-0.7-1-2-1-3.6v-7.6h-2.2v-1.9h2.2v-3.3L21.8,371.9z"/>
			<path fill="#231F20" d="M27.5,388.4c0-1.1,0.7-1.8,1.7-1.8c1,0,1.7,0.7,1.7,1.8c0,1-0.7,1.8-1.7,1.8
				C28.2,390.2,27.5,389.4,27.5,388.4z"/>
			<path fill="#231F20" d="M37.3,383.8l-2,6.1h-2.6l6.6-19.4h3l6.6,19.4h-2.7l-2.1-6.1H37.3z M43.7,381.8l-1.9-5.6
				c-0.4-1.3-0.7-2.4-1-3.5h-0.1c-0.3,1.2-0.6,2.3-1,3.5l-1.9,5.6H43.7z"/>
			<path fill="#231F20" d="M54.3,370.4v19.4h-2.5v-19.4H54.3z"/>
		</g>
	</g>
</g>
<g id="Layer_18">
</g>
<g id="Kik">
</g>
<g id="Layer_20">
</g>
<g id="Affirm">
</g>
<g id="Shopify">
</g>
<g id="apple">
</g>
<g id="velocity">
</g>
<g id="pagerduty">
</g>
<g id="Layer_26">
</g>
<g id="bitalino">
	<g>
		<g>
			<g>
				<defs>
					<rect id="SVGID_37_" x="92.6" y="-313.1" width="112.5" height="41"/>
				</defs>
				<clipPath id="SVGID_2_">
					<use xlink:href="#SVGID_37_"  overflow="visible"/>
				</clipPath>
				<g clip-path="url(#SVGID_2_)">
					<g>
						<defs>
							<rect id="SVGID_43_" x="92.6" y="-313.1" width="112.5" height="41"/>
						</defs>
						<clipPath id="SVGID_3_">
							<use xlink:href="#SVGID_43_"  overflow="visible"/>
						</clipPath>
						<g clip-path="url(#SVGID_3_)">
							<g>
								<defs>
									<rect id="SVGID_49_" x="92.6" y="-313.1" width="112.5" height="41"/>
								</defs>
								<clipPath id="SVGID_4_">
									<use xlink:href="#SVGID_49_"  overflow="visible"/>
								</clipPath>
								<g id="g86" clip-path="url(#SVGID_4_)">
									<g>
										<defs>
											<path id="SVGID_51_" d="M145-328.4h1.4c0.3,1.5,1.6,2.6,3.2,2.6c1.6,0,2.9-1.1,3.2-2.6h1.4v-1.4h-0.5v-1.4h1.9h0v4.2v0
												l-0.2,0l-1.6,0l-0.1,0.1c-0.8,1.5-2.3,2.5-4.1,2.5C147.3-324.4,145.3-326.1,145-328.4"/>
										</defs>
										<clipPath id="SVGID_5_">
											<use xlink:href="#SVGID_51_"  overflow="visible"/>
										</clipPath>
										<g id="g88" clip-path="url(#SVGID_5_)">
											<g id="g94">
												<defs>
													
														<rect id="SVGID_53_" x="17.8" y="-469.8" transform="matrix(-0.2713 0.9625 -0.9625 -0.2713 -107.8132 -538.0009)" width="263.9" height="320"/>
												</defs>
												<clipPath id="SVGID_6_">
													<use xlink:href="#SVGID_53_"  overflow="visible"/>
												</clipPath>
											</g>
										</g>
									</g>
								</g>
								<g clip-path="url(#SVGID_4_)">
									<g>
										<defs>
											<rect id="SVGID_55_" x="92.6" y="-313.1" width="112.5" height="41"/>
										</defs>
										<clipPath id="SVGID_7_">
											<use xlink:href="#SVGID_55_"  overflow="visible"/>
										</clipPath>
										<g id="g122" clip-path="url(#SVGID_7_)">
											<g>
												<defs>
													<path id="SVGID_57_" d="M143.6-327L143.6-327l0-4.2v0l0.2,0l1.6,0l0.1-0.1c0.8-1.5,2.3-2.5,4.1-2.5
														c2.3,0,4.3,1.7,4.6,4h-1.4c-0.3-1.5-1.6-2.6-3.2-2.6c-1.6,0-2.9,1.1-3.2,2.6H145v1.4h0.5v1.4H143.6z"/>
												</defs>
												<clipPath id="SVGID_8_">
													<use xlink:href="#SVGID_57_"  overflow="visible"/>
												</clipPath>
												<g id="g124" clip-path="url(#SVGID_8_)">
													<g id="g130">
														<defs>
															
																<rect id="SVGID_59_" x="26.4" y="-464.9" transform="matrix(-0.1961 -0.9806 0.9806 -0.1961 482.9323 -223.7201)" width="246.7" height="310.3"/>
														</defs>
														<clipPath id="SVGID_9_">
															<use xlink:href="#SVGID_59_"  overflow="visible"/>
														</clipPath>
													</g>
												</g>
											</g>
										</g>
										<g clip-path="url(#SVGID_7_)">
											<g>
												<defs>
													<rect id="SVGID_61_" x="92.6" y="-313.1" width="112.5" height="41"/>
												</defs>
												<clipPath id="SVGID_10_">
													<use xlink:href="#SVGID_61_"  overflow="visible"/>
												</clipPath>
												<g id="g158" clip-path="url(#SVGID_10_)">
													<g>
														<defs>
															<path id="SVGID_63_" d="M145-328.4h1.4c0.3,1.5,1.6,2.6,3.2,2.6v1.4C147.3-324.4,145.3-326.2,145-328.4"/>
														</defs>
														<clipPath id="SVGID_11_">
															<use xlink:href="#SVGID_63_"  overflow="visible"/>
														</clipPath>
														<g id="g160" clip-path="url(#SVGID_11_)">
															<g id="g166">
																<defs>
																	
																		<rect id="SVGID_65_" x="17.8" y="-469.8" transform="matrix(-0.2713 0.9625 -0.9625 -0.2713 -107.8132 -538.0009)" width="263.9" height="320"/>
																</defs>
																<clipPath id="SVGID_12_">
																	<use xlink:href="#SVGID_65_"  overflow="visible"/>
																</clipPath>
															</g>
														</g>
													</g>
												</g>
												<g clip-path="url(#SVGID_10_)">
													<g>
														<defs>
															<rect id="SVGID_67_" x="92.6" y="-313.1" width="112.5" height="41"/>
														</defs>
														<clipPath id="SVGID_13_">
															<use xlink:href="#SVGID_67_"  overflow="visible"/>
														</clipPath>
														<g id="g194" clip-path="url(#SVGID_13_)">
															<g>
																<defs>
																	<path id="SVGID_69_" d="M179.5-324.9c-1.5-0.8-2.5-2.3-2.5-4.1c0-2.3,1.7-4.3,4-4.6v1.4c-1.5,0.3-2.6,1.6-2.6,3.2
																		c0,1,0.4,1.9,1.2,2.5v-0.8h1.4v2.5v0.5c0,0,0,0,0,0l0,0C181-324.4,180.1-324.6,179.5-324.9"/>
																</defs>
																<clipPath id="SVGID_14_">
																	<use xlink:href="#SVGID_69_"  overflow="visible"/>
																</clipPath>
																<g id="g196" clip-path="url(#SVGID_14_)">
																	<g id="g202">
																		<defs>
																			
																				<rect id="SVGID_71_" x="-18.3" y="-477.2" transform="matrix(-0.7071 0.7071 -0.7071 -0.7071 35.3121 -634.2565)" width="334.7" height="334.7"/>
																		</defs>
																		<clipPath id="SVGID_15_">
																			<use xlink:href="#SVGID_71_"  overflow="visible"/>
																		</clipPath>
																	</g>
																</g>
															</g>
														</g>
													</g>
												</g>
											</g>
										</g>
									</g>
								</g>
							</g>
						</g>
					</g>
				</g>
			</g>
		</g>
	</g>
</g>
<g id="TextNow">
</g>
<g id="Uber">
</g>
<g id="mars">
</g>
<g id="twilio">
</g>
<g id="wit-ai">
</g>
<g id="indiegogo">
</g>
<g id="Layer_34">
	<g>
		<g>
			<g>
				<path fill="#231F20" d="M-40.1,395.9c0,0-0.9,0.6,8-6.2c8.9-6.8,7.9-11.5,7.9-11.5V362h-17.7l3.6,0H-56v16.3c0,0-1,4.7,7.9,11.5
					C-39.2,396.6-40.1,395.9-40.1,395.9L-40.1,395.9z"/>
			</g>
			<g>
				<path fill="#FFFFFF" d="M-40.1,393.4c0,0-0.8,0.5,7.1-5.4c7.9-5.9,7-10,7-10v-14.2h-15.8l3.2,0h-15.8v14.2c0,0-0.8,4.1,7,10
					C-39.3,394-40.1,393.4-40.1,393.4L-40.1,393.4z"/>
			</g>
			<g>
				<rect x="-44.5" y="384.1" fill="#BBBDBF" width="9.2" height="0.8"/>
				<g>
					<path fill="#231F20" d="M-44.4,370.8c0-1.4,0.6-2.1,2-2.1c1.3,0,1.9,0.8,1.9,2v1.3c0,0.5-0.1,1.3-0.3,1.8l-2.6,7.6h3v1.1h-4.1
						v-1.3l2.6-7.5c0.2-0.6,0.3-1.2,0.3-1.9v-1.1c0-0.8-0.2-1.1-0.8-1.1c-0.5,0-0.8,0.4-0.8,1.1v1.6h-1.2V370.8z"/>
					<path fill="#231F20" d="M-39.2,370.8c0-1.7,1.1-2,2-2c0.9,0,2,0.3,2,2v9.9c0,1.7-1.1,2-2,2c-0.9,0-2-0.3-2-2V370.8z
						 M-36.5,370.7c0-0.3,0-1-0.8-1c-0.8,0-0.8,0.6-0.8,1v10.2c0,0.3,0,1,0.8,1c0.8,0,0.8-0.6,0.8-1V370.7z"/>
				</g>
			</g>
		</g>
		<g>
			<path fill="#231F20" d="M-13.3,375.5c-1.1,0-1.6-0.5-1.6-1.7l0.1-5c-0.4,0-1,0-1.2,0c-0.1,0-0.1-0.2-0.1-0.2
				c0.9-0.6,1.6-1.4,2.4-2.2c0,0,0.1,0,0.1,0.1c0,0.4-0.1,1.3-0.1,1.7h1c0.8,0,1.3,0,1.6-0.1c0.1,0,0.1,0.8-0.1,0.8
				c-0.2,0-0.5,0-1.2-0.1h-1.2l-0.1,4.6c0,1.1,0.5,1.4,1.3,1.4c0.4,0,0.9-0.1,1.3-0.2c0,0,0.1,0.1,0,0.2
				C-11.8,375.2-12.8,375.5-13.3,375.5z"/>
			<path fill="#231F20" d="M-3,375.2c-0.7,0-1.2,0-1.8,0.1c-0.1,0,0-0.2,0-0.2c0.9-0.1,1.1-0.2,1.1-1.6v-2.7c0-1.6-0.4-2.3-1.3-2.3
				c-0.6,0-1,0.1-2.4,1v4c0,1.3,0.2,1.5,1.1,1.6c0,0,0.1,0.2,0,0.2c-0.4-0.1-1.2-0.1-1.7-0.1c-0.7,0-1.5,0-2,0.1c-0.1,0,0-0.2,0-0.2
				c1.2-0.1,1.4-0.2,1.4-1.6v-8.7c0-1.2-0.2-1.4-1.2-1.1c0,0-0.1-0.1,0-0.2c0.7-0.4,1.8-1,2.4-1.5c0,0,0.2,0,0.1,0.1
				c-0.1,0.3-0.1,1.9-0.1,2.6l0,4.5c1.4-1.1,2.3-1.4,3.2-1.4c1.3,0,1.7,0.8,1.7,2.2v3.5c0,1.3,0.1,1.5,1.4,1.6c0,0,0.1,0.2,0,0.2
				C-1.5,375.3-2.5,375.2-3,375.2z"/>
			<path fill="#231F20" d="M1.8,375.2c-0.7,0-1.5,0-2,0.1c-0.1,0,0-0.2,0-0.2c1.2-0.1,1.4-0.2,1.4-1.6v-3.1c0-1.2-0.2-1.4-1.2-1.1
				c0,0-0.1-0.1,0-0.2c0.7-0.4,1.8-1,2.4-1.6c0,0,0.2,0,0.2,0.1c-0.1,0.4-0.1,2-0.1,2.7v3.1c0,1.4,0.1,1.5,1.4,1.6
				c0,0,0.1,0.2,0,0.2C3.2,375.2,2.5,375.2,1.8,375.2z M2,365.3c-0.4,0-0.7-0.4-0.7-0.8c0-0.4,0.3-0.8,0.8-0.8
				c0.4,0,0.7,0.4,0.7,0.8C2.8,364.9,2.4,365.3,2,365.3z"/>
			<path fill="#231F20" d="M11.3,370.6l-5.1,0.1c0,0.2,0,0.4,0,0.6c0,2.4,1.4,3.4,2.7,3.4c0.8,0,1.7-0.3,2.3-0.8
				c0,0,0.1,0.1,0.1,0.2c-0.6,0.7-1.8,1.3-3,1.3c-2,0-3.4-1.5-3.4-3.6c0-2.2,1.9-4.1,3.8-4.1c1.8,0,2.7,1.3,2.7,2.4
				C11.3,370.3,11.3,370.5,11.3,370.6z M8.2,368.3c-0.9,0-1.7,0.8-2,2.2l3.8-0.1C10,369.4,9.4,368.3,8.2,368.3z"/>
			<path fill="#231F20" d="M14,375.2c-0.7,0-1.4,0-1.9,0.1c-0.1,0,0-0.2,0-0.2c1.2-0.1,1.4-0.2,1.4-1.6v-8.7c0-1.2-0.2-1.4-1.2-1.1
				c0,0-0.1-0.1,0-0.2c0.7-0.4,1.8-1,2.4-1.5c0,0,0.2,0,0.2,0.1c-0.1,0.3-0.1,1.9-0.1,2.6v8.8c0,1.4,0.1,1.5,1.4,1.6
				c0,0,0.1,0.2,0,0.2C15.4,375.2,14.7,375.2,14,375.2z"/>
			<path fill="#231F20" d="M-10,379.8c-0.5,0-1.1-0.8-1.9-0.8c-1.2,0-1.6,0.9-1.6,4v1.1h1c0.8,0,1.3,0,1.5-0.1c0.1,0,0.1,0.7,0,0.7
				c-0.2,0-0.6,0-1.2,0h-1.2v4.8c0,1.3,0.2,1.5,1.8,1.6c0,0,0.1,0.2,0,0.2c-0.4-0.1-1.8-0.1-2.3-0.1c-0.7,0-1.5,0-2,0.1
				c-0.1,0,0-0.2,0-0.2c1.2-0.1,1.4-0.2,1.4-1.6v-4.8c-0.4,0-1.3,0-1.5,0c-0.1,0-0.1-0.3-0.1-0.3c0.7,0,1.2-0.1,1.5-0.3v-0.7
				c0-3.1,1.8-5.3,4-5.3c0.7,0,1.4,0.5,1.4,0.7C-9.4,379.1-9.8,379.8-10,379.8z"/>
			<path fill="#231F20" d="M-3.5,386.6l-5.1,0.1c0,0.2,0,0.4,0,0.6c0,2.4,1.4,3.4,2.7,3.4c0.8,0,1.7-0.3,2.3-0.8
				c0,0,0.1,0.1,0.1,0.2c-0.6,0.7-1.8,1.3-3,1.3c-2,0-3.4-1.5-3.4-3.6c0-2.2,1.9-4.1,3.8-4.1c1.8,0,2.7,1.3,2.7,2.4
				C-3.5,386.3-3.5,386.5-3.5,386.6z M-6.6,384.2c-0.9,0-1.7,0.8-2,2.2l3.8-0.1C-4.8,385.4-5.4,384.2-6.6,384.2z"/>
			<path fill="#231F20" d="M-0.5,391.2c-0.7,0-1.4,0-1.9,0.1c-0.1,0,0-0.2,0-0.2c1.2-0.1,1.4-0.2,1.4-1.6v-8.7
				c0-1.2-0.2-1.4-1.2-1.1c0,0-0.1-0.1,0-0.2c0.7-0.4,1.8-1,2.4-1.5c0,0,0.2,0,0.2,0.1c-0.1,0.3-0.1,1.9-0.1,2.6v8.8
				c0,1.4,0.1,1.5,1.4,1.6c0,0,0.1,0.2,0,0.2C1,391.2,0.2,391.2-0.5,391.2z"/>
			<path fill="#231F20" d="M5,391.2c-0.7,0-1.4,0-1.9,0.1c-0.1,0,0-0.2,0-0.2c1.2-0.1,1.4-0.2,1.4-1.6v-8.7c0-1.2-0.2-1.4-1.2-1.1
				c0,0-0.1-0.1,0-0.2c0.7-0.4,1.8-1,2.4-1.5c0,0,0.2,0,0.2,0.1c-0.1,0.3-0.1,1.9-0.1,2.6v8.8c0,1.4,0.1,1.5,1.4,1.6
				c0,0,0.1,0.2,0,0.2C6.5,391.2,5.7,391.2,5,391.2z"/>
			<path fill="#231F20" d="M11.5,391.5c-2.3,0-3.7-1.8-3.7-3.7c0-2,1.5-4,3.9-4c2.3,0,3.7,1.8,3.7,3.7
				C15.4,389.5,13.9,391.5,11.5,391.5z M11.3,384.2c-1.5,0-2.2,1.3-2.2,2.8c0,2.5,1.1,4,2.8,4c1.5,0,2.2-1.3,2.2-2.8
				C14.1,385.7,13,384.2,11.3,384.2z"/>
			<path fill="#231F20" d="M26.6,385.7l-2.3,5.7c0,0.1-0.2,0.1-0.3,0l-1.9-5.4l-2.1,5.4c0,0.1-0.2,0.1-0.3,0l-2.3-5.7
				c-0.5-1.2-0.8-1.5-1.8-1.6c0,0-0.1-0.2,0-0.2c0.3,0.1,1.3,0.1,1.8,0.1c0.7,0,1.3,0,1.8-0.1c0.1,0,0,0.2,0,0.2
				c-1,0.1-1.1,0.3-0.6,1.6l1.6,4l1.6-4.2c-0.4-1.1-0.8-1.3-1.6-1.4c0,0-0.1-0.2,0-0.2c0.4,0.1,1.3,0.1,1.8,0.1c0.7,0,1.3,0,1.8-0.1
				c0.1,0,0,0.2,0,0.2c-1,0.1-1.2,0.3-0.7,1.6l1.4,3.9l1.5-3.9c0.5-1.2,0.3-1.5-0.6-1.6c0,0-0.1-0.2,0-0.2C26,384,26.3,384,27,384
				c0.5,0,1,0,1.4-0.1c0.1,0,0,0.2,0,0.2C27.4,384.2,27,384.6,26.6,385.7z"/>
			<path fill="#231F20" d="M30.7,391.5c-0.8,0-1.5-0.2-2.1-0.5c-0.1-0.1-0.1-1.2-0.1-2c0-0.1,0.2,0,0.2,0c0.4,1.6,1.3,2.2,2.3,2.2
				c0.9,0,1.3-0.5,1.3-1.3c0-1.8-3.5-1.9-3.5-4c0-1.1,0.9-2.1,2.5-2.1c0.7,0,1.1,0.1,1.5,0.3c0.1,0.1,0.2,1.1,0.2,1.8
				c0,0-0.2,0-0.2,0c-0.3-1.1-1.1-1.8-1.9-1.8c-0.7,0-1,0.5-1,1.2c0,1.7,3.4,1.7,3.4,3.8C33.3,390.4,32.3,391.5,30.7,391.5z"/>
			<path fill="#231F20" d="M41,391.2c-0.7,0-1.2,0-1.8,0.1c-0.1,0,0-0.2,0-0.2c0.9-0.1,1.1-0.2,1.1-1.6v-2.7c0-1.6-0.4-2.3-1.3-2.3
				c-0.6,0-1,0.1-2.4,1v4c0,1.3,0.2,1.5,1.1,1.6c0,0,0.1,0.2,0,0.2c-0.4-0.1-1.2-0.1-1.7-0.1c-0.7,0-1.5,0-2,0.1c-0.1,0,0-0.2,0-0.2
				c1.2-0.1,1.4-0.2,1.4-1.6v-8.7c0-1.2-0.2-1.4-1.2-1.1c0,0-0.1-0.1,0-0.2c0.7-0.4,1.8-1,2.4-1.5c0,0,0.2,0,0.1,0.1
				c-0.1,0.3-0.1,1.9-0.1,2.6l0,4.5c1.4-1.1,2.3-1.4,3.2-1.4c1.3,0,1.7,0.8,1.7,2.2v3.5c0,1.3,0.1,1.5,1.4,1.6c0,0,0.1,0.2,0,0.2
				C42.6,391.2,41.5,391.2,41,391.2z"/>
			<path fill="#231F20" d="M45.4,391.2c-0.7,0-1.5,0-2,0.1c-0.1,0,0-0.2,0-0.2c1.2-0.1,1.4-0.2,1.4-1.6v-3.1c0-1.2-0.2-1.4-1.2-1.1
				c0,0-0.1-0.1,0-0.2c0.7-0.4,1.8-1,2.4-1.6c0,0,0.2,0,0.2,0.1c-0.1,0.4-0.1,2-0.1,2.7v3.1c0,1.4,0.1,1.5,1.4,1.6
				c0,0,0.1,0.2,0,0.2C46.9,391.2,46.1,391.2,45.4,391.2z M45.6,381.3c-0.4,0-0.7-0.4-0.7-0.8c0-0.4,0.3-0.8,0.8-0.8
				c0.4,0,0.7,0.4,0.7,0.8C46.4,380.9,46.1,381.3,45.6,381.3z"/>
			<path fill="#231F20" d="M51.6,391.5c-0.4,0-0.8,0-1.2-0.2v2.8c0,1.4,0.2,1.5,1.8,1.5c0,0,0.1,0.2,0,0.2c-0.5,0-1.9,0-2.4,0
				c-0.7,0-1.3,0.1-1.8,0.1c-0.1,0,0-0.2,0-0.2c1.1-0.2,1.2-0.3,1.2-1.6v-3.3c-0.2-0.1-0.4-0.2-0.6-0.3l0.6-0.9v-3.1
				c0-1.2-0.2-1.4-1.2-1.1c0,0-0.1-0.1,0-0.2c0.7-0.4,1.6-1.1,2.2-1.6c0,0,0.1,0.1,0.1,0.1c0.1,0.3,0,1,0.1,1.4
				c0.9-0.8,1.8-1.1,2.6-1.1c1.8,0,3.1,1.5,3.1,3.3C56,389.3,54.1,391.5,51.6,391.5z M52.2,384.8c-0.6,0-1.2,0.2-1.8,0.6v4.8
				c0.8,0.4,1.6,0.6,2.3,0.6c1.2,0,2.1-1.2,2.1-3.1C54.7,385.8,53.4,384.8,52.2,384.8z"/>
		</g>
	</g>
</g>
</svg>
