<?xml version="1.0" encoding="utf-8"?>
<!-- Generator: Adobe Illustrator 17.1.0, SVG Export Plug-In . SVG Version: 6.00 Build 0)  -->
<!DOCTYPE svg PUBLIC "-//W3C//DTD SVG 1.1//EN" "http://www.w3.org/Graphics/SVG/1.1/DTD/svg11.dtd">
<svg version="1.1" xmlns="http://www.w3.org/2000/svg" xmlns:xlink="http://www.w3.org/1999/xlink" x="0px" y="0px"
	 viewBox="190 -147 266 91.7" enable-background="new 190 -147 266 91.7" xml:space="preserve">
<g id="estimote">
</g>
<g id="Pebble">
</g>
<g id="Spark">
</g>
<g id="Layer_4">
</g>
<g id="Layer_5">
</g>
<g id="Layer_6">
</g>
<g id="Base">
</g>
<g id="yelp">
</g>
<g id="Yext">
</g>
<g id="Estimote">
</g>
<g id="Kloudless">
</g>
<g id="Microsoft">
</g>
<g id="Big_Viking">
</g>
<g id="_x35_00px">
</g>
<g id="Magnet_Forensics">
</g>
<g id="Guides">
</g>
<g id="Wit.Ai" display="none">
</g>
<g id="Layer_18">
</g>
<g id="Kik">
</g>
<g id="Layer_20">
</g>
<g id="Affirm">
</g>
<g id="Shopify">
</g>
<g id="apple">
</g>
<g id="Layer_24">
</g>
<g id="pagerduty">
</g>
<g id="Layer_26">
</g>
<g id="bitalino">
</g>
<g id="Layer_28">
</g>
<g id="TextNow">
</g>
<g id="Uber">
	<g>
		<g>
			<g>
				<path fill="#131326" d="M245.6-115.8V-99c0,5.7-2.8,9.1-11.1,9.1c-8.3,0-11.1-3.4-11.1-9.1v-11.8c-0.1-2.8-2.4-5-5.2-5v3.3
					c1,0,1.8,0.8,1.9,1.8v13c0,6.7,5.2,11.4,14.4,11.4c9.2,0,14.4-4.7,14.4-11.4v-17.9H245.6z"/>
				<path fill="#131326" d="M341.2-90.3v-7.9c0-1.1,0.9-2,2-2h14.3v-3.3h-14.4c-0.7,0-1.3,0.2-1.9,0.4v-9.5h23.4v-3.3h-26.7V-87
					h27.7v-3.3H341.2z"/>
			</g>
		</g>
		<path fill="#131326" d="M425.8-90.1c-0.8,0.6-1.9,0.5-2.6-0.2l-6.3-8c5.1,0.9,9.8-0.7,8.5-8.7c-0.8-4.8-3.9-8.8-8.8-8.8h-21.3V-87
			h3.3l0-9.4c0-1,0.9-1.9,2-1.9l12.1,0l7.9,10c1.8,2.1,5,2.5,7.2,0.8L425.8-90.1z M400.5-101.4c-0.7,0-1.4,0.1-2,0.4l0-11.7l18.1,0
			c3.1,0,5.7,2.5,5.7,5.7c0,3.1-2.5,5.7-5.7,5.7L400.5-101.4z"/>
		<path fill="#131326" d="M304.8-101.9c1.9-1.4,3.1-3.6,3.1-6.2c0-4.3-3.5-7.8-7.8-7.8l-21.6,0V-87H300c4.5,0,8.2-3.7,8.2-8.2
			C308.2-98,306.8-100.4,304.8-101.9z M281.8-112.7l18.3,0c2.6,0,4.6,2.1,4.6,4.6c0,2.6-2.1,4.6-4.6,4.6h-16.6
			c-0.6,0-1.2,0.2-1.7,0.4V-112.7z M300-90.1l-18.2,0v-8.2c0-1.1,0.9-2,2-2l16.2,0c2.8,0,5.1,2.3,5.1,5.1
			C305.1-92.4,302.8-90.1,300-90.1z"/>
	</g>
</g>
</svg>
