<?xml version="1.0" encoding="utf-8"?>
<!-- Generator: Adobe Illustrator 17.1.0, SVG Export Plug-In . SVG Version: 6.00 Build 0)  -->
<!DOCTYPE svg PUBLIC "-//W3C//DTD SVG 1.1//EN" "http://www.w3.org/Graphics/SVG/1.1/DTD/svg11.dtd">
<svg version="1.1" xmlns="http://www.w3.org/2000/svg" xmlns:xlink="http://www.w3.org/1999/xlink" x="0px" y="0px"
	 viewBox="98 25 174 60" enable-background="new 98 25 174 60" xml:space="preserve">
<g id="estimote">
</g>
<g id="Layer_2">
</g>
<g id="Layer_3">
</g>
<g id="Layer_4">
</g>
<g id="Layer_5">
	<g>
		<path fill="#56575C" d="M124.3,41.7c0.4,0.6,0.6,1.2,0.8,2.4c1.6-1.6,3.6-2.4,5.7-2.4c1.9,0,3.5,0.6,4.8,1.9
			c0.3,0.3,0.7,0.7,0.9,1.1c2.1-2.2,4.1-3.1,6.6-3.1c1.8,0,3.6,0.5,4.6,1.5c1.3,1.1,1.7,2.5,1.7,5.7v16.7h-5.9V50.1
			c0-2.8-0.3-3.3-1.9-3.3c-1.1,0-2.8,0.8-4.1,2v16.8h-5.8V50.3c0-2.9-0.4-3.6-2.1-3.6c-1.1,0-2.7,0.6-4,1.8v17.1h-6V49.2
			c0-3.4-0.2-4.8-0.9-6L124.3,41.7z"/>
		<path fill="#56575C" d="M171.4,45.2c1.9,2.2,2.7,4.8,2.7,8.6c0,4-0.9,6.8-2.9,9.1c-1.8,2-4.1,3.3-7.7,3.3
			c-6.4,0-10.5-4.8-10.5-12.1c0-7.4,4.2-12.3,10.5-12.3C166.8,41.7,169.4,42.8,171.4,45.2z M160.4,48.6c-0.4,1.2-0.6,2.9-0.6,5.2
			c0,2.7,0.3,4.7,0.8,5.9c0.6,1.3,1.9,1.9,3.1,1.9c2.7,0,3.8-2.4,3.8-7.9c0-3.2-0.4-5.2-1.2-6.3c-0.6-0.8-1.5-1.2-2.6-1.2
			C162.1,46.2,160.9,47.1,160.4,48.6z"/>
		<path fill="#56575C" d="M193.8,42.2v4.2l-10.3,15h10.8l-1.5,4.3h-17.2v-3.8l11-15.3h-10.1v-4.3H193.8z"/>
		<path fill="#56575C" d="M204.2,35.7c0,2.1-1.7,3.8-3.8,3.8c-2.1,0-3.7-1.7-3.7-3.8c0-2.1,1.7-3.8,3.8-3.8
			C202.6,31.9,204.2,33.6,204.2,35.7z M203.5,41.6v24h-6.1v-23L203.5,41.6z"/>
		<path fill="#56575C" d="M214.6,37.8v18.3c0,4,0,4.6,0.4,5.2c0.2,0.4,0.7,0.6,1.2,0.6c0.2,0,0.4,0,0.7-0.1l1,3.7
			c-1,0.4-2.3,0.6-3.7,0.6c-2.6,0-4.7-1.2-5.4-3.2c-0.5-1.2-0.6-1.9-0.6-5.3V40.2c0-3.1-0.1-4.9-0.3-7l6.3-1.4
			C214.5,33,214.6,34.5,214.6,37.8z"/>
		<path fill="#56575C" d="M227.4,37.8v18.3c0,4,0.1,4.6,0.4,5.2c0.2,0.4,0.7,0.6,1.2,0.6c0.2,0,0.4,0,0.7-0.1l1,3.7
			c-1,0.4-2.3,0.6-3.7,0.6c-2.6,0-4.7-1.2-5.4-3.2c-0.5-1.2-0.5-1.9-0.5-5.3V40.2c0-3.1-0.1-4.9-0.3-7l6.3-1.4
			C227.3,33,227.4,34.5,227.4,37.8z"/>
		<path fill="#56575C" d="M237,43c2.3-1,4.2-1.4,6.4-1.4c3.9,0,6.6,1.5,7.6,4.1c0.3,1,0.4,1.7,0.4,4.2l-0.1,7.9c0,0.1,0,0.3,0,0.4
			c0,2.5,0.4,3.5,2.2,4.8l-3.3,3.8c-1.4-0.6-2.7-1.7-3.3-2.8c-0.5,0.5-1,0.9-1.4,1.2c-1.1,0.8-2.8,1.3-4.7,1.3
			c-5.2,0-8.1-2.7-8.1-7.3c0-5.5,3.8-8.1,11.3-8.1c0.4,0,0.9,0,1.4,0.1v-1c0-2.6-0.5-3.5-2.8-3.5c-1.9,0-4.3,1-6.8,2.7l-2.6-4.4
			C234.4,44.2,235.3,43.7,237,43z M244.9,55.3c-4.2,0-5.7,0.8-5.7,3.6c0,1.8,1.2,3.1,2.7,3.1c1.1,0,2.3-0.6,3.2-1.6l0.1-5H244.9z"/>
	</g>
</g>
<g id="Layer_6">
</g>
<g id="Guides">
	<line fill="none" x1="460" y1="65.4" x2="-154" y2="65.4"/>
</g>
</svg>
