<?xml version="1.0" encoding="utf-8"?>
<!-- Generator: Adobe Illustrator 17.1.0, SVG Export Plug-In . SVG Version: 6.00 Build 0)  -->
<!DOCTYPE svg PUBLIC "-//W3C//DTD SVG 1.1//EN" "http://www.w3.org/Graphics/SVG/1.1/DTD/svg11.dtd">
<svg version="1.1" xmlns="http://www.w3.org/2000/svg" xmlns:xlink="http://www.w3.org/1999/xlink" x="0px" y="0px"
	 viewBox="98 700 174 60" enable-background="new 98 700 174 60" xml:space="preserve">
<g id="estimote">
</g>
<g id="Pebble">
</g>
<g id="Spark">
</g>
<g id="Layer_4">
</g>
<g id="Layer_5">
</g>
<g id="Layer_6">
</g>
<g id="Base">
</g>
<g id="yelp">
</g>
<g id="Yext">
</g>
<g id="Estimote">
</g>
<g id="Microsoft">
</g>
<g id="Big_Viking">
</g>
<g id="_x35_00px">
</g>
<g id="Magnet_Forensics">
</g>
<g id="Guides">
</g>
<g id="Wit.Ai" display="none">
</g>
<g id="Layer_18">
</g>
<g id="Kik">
</g>
<g id="Layer_20">
</g>
<g id="Affirm">
</g>
<g id="Shopify">
</g>
<g id="apple">
</g>
<g id="velocity">
</g>
<g id="pagerduty">
</g>
<g id="Layer_26">
</g>
<g id="bitalino">
	<g>
		<g>
			<g>
				<defs>
					<rect id="SVGID_37_" x="92.6" y="-369.1" width="112.5" height="41"/>
				</defs>
				<clipPath id="SVGID_2_">
					<use xlink:href="#SVGID_37_"  overflow="visible"/>
				</clipPath>
				<g id="g14" clip-path="url(#SVGID_2_)">
					<g>
						<defs>
							<path id="SVGID_39_" d="M111.9-382.3L111.9-382.3l-2.2,0l0.4-1.4h1.1c-0.5-1.6-0.1-3.4,1.2-4.7c1.7-1.7,4.3-1.8,6.1-0.5l-1,1
								c-1.3-0.8-3-0.7-4.1,0.4c-1.1,1.1-1.3,2.8-0.4,4.1L111.9-382.3C112-382.3,112-382.3,111.9-382.3"/>
						</defs>
						<clipPath id="SVGID_3_">
							<use xlink:href="#SVGID_39_"  overflow="visible"/>
						</clipPath>
						<g id="g16" clip-path="url(#SVGID_3_)">
							<g id="g22">
								<defs>
									<rect id="SVGID_41_" x="11" y="-463.9" width="277.2" height="196.1"/>
								</defs>
								<clipPath id="SVGID_4_">
									<use xlink:href="#SVGID_41_"  overflow="visible"/>
								</clipPath>
							</g>
						</g>
					</g>
				</g>
				<g clip-path="url(#SVGID_2_)">
					<g>
						<defs>
							<rect id="SVGID_43_" x="92.6" y="-369.1" width="112.5" height="41"/>
						</defs>
						<clipPath id="SVGID_5_">
							<use xlink:href="#SVGID_43_"  overflow="visible"/>
						</clipPath>
						<g id="g50" clip-path="url(#SVGID_5_)">
							<g>
								<defs>
									<path id="SVGID_45_" d="M112.9-381.3l1-1c1.3,0.8,3,0.7,4.1-0.4c1.1-1.1,1.3-2.8,0.4-4.1l1-1c0,0,0,0,0,0v0h2.2l-0.4,1.4
										h-1.1c0.5,1.6,0.1,3.4-1.2,4.7c-0.9,0.9-2.1,1.4-3.3,1.4C114.7-380.4,113.7-380.7,112.9-381.3"/>
								</defs>
								<clipPath id="SVGID_6_">
									<use xlink:href="#SVGID_45_"  overflow="visible"/>
								</clipPath>
								<g id="g52" clip-path="url(#SVGID_6_)">
									<g id="g58">
										<defs>
											<rect id="SVGID_47_" x="11" y="-463.9" width="277.2" height="196.1"/>
										</defs>
										<clipPath id="SVGID_7_">
											<use xlink:href="#SVGID_47_"  overflow="visible"/>
										</clipPath>
									</g>
								</g>
							</g>
						</g>
						<g clip-path="url(#SVGID_5_)">
							<g>
								<defs>
									<rect id="SVGID_49_" x="92.6" y="-369.1" width="112.5" height="41"/>
								</defs>
								<clipPath id="SVGID_8_">
									<use xlink:href="#SVGID_49_"  overflow="visible"/>
								</clipPath>
								<g id="g86" clip-path="url(#SVGID_8_)">
									<g>
										<defs>
											<path id="SVGID_51_" d="M145-384.4h1.4c0.3,1.5,1.6,2.6,3.2,2.6c1.6,0,2.9-1.1,3.2-2.6h1.4v-1.4h-0.5v-1.4h1.9h0v4.2v0
												l-0.2,0l-1.6,0l-0.1,0.1c-0.8,1.5-2.3,2.5-4.1,2.5C147.3-380.4,145.3-382.1,145-384.4"/>
										</defs>
										<clipPath id="SVGID_9_">
											<use xlink:href="#SVGID_51_"  overflow="visible"/>
										</clipPath>
										<g id="g88" clip-path="url(#SVGID_9_)">
											<g id="g94">
												<defs>
													
														<rect id="SVGID_53_" x="17.8" y="-525.8" transform="matrix(-0.2713 0.9625 -0.9625 -0.2713 -161.7137 -609.191)" width="263.9" height="320"/>
												</defs>
												<clipPath id="SVGID_10_">
													<use xlink:href="#SVGID_53_"  overflow="visible"/>
												</clipPath>
											</g>
										</g>
									</g>
								</g>
								<g clip-path="url(#SVGID_8_)">
									<g>
										<defs>
											<rect id="SVGID_55_" x="92.6" y="-369.1" width="112.5" height="41"/>
										</defs>
										<clipPath id="SVGID_11_">
											<use xlink:href="#SVGID_55_"  overflow="visible"/>
										</clipPath>
										<g id="g122" clip-path="url(#SVGID_11_)">
											<g>
												<defs>
													<path id="SVGID_57_" d="M143.6-383L143.6-383l0-4.2v0l0.2,0l1.6,0l0.1-0.1c0.8-1.5,2.3-2.5,4.1-2.5
														c2.3,0,4.3,1.7,4.6,4h-1.4c-0.3-1.5-1.6-2.6-3.2-2.6c-1.6,0-2.9,1.1-3.2,2.6H145v1.4h0.5v1.4H143.6z"/>
												</defs>
												<clipPath id="SVGID_12_">
													<use xlink:href="#SVGID_57_"  overflow="visible"/>
												</clipPath>
												<g id="g124" clip-path="url(#SVGID_12_)">
													<g id="g130">
														<defs>
															
																<rect id="SVGID_59_" x="26.4" y="-520.9" transform="matrix(-0.1961 -0.9806 0.9806 -0.1961 537.8448 -290.7026)" width="246.7" height="310.3"/>
														</defs>
														<clipPath id="SVGID_13_">
															<use xlink:href="#SVGID_59_"  overflow="visible"/>
														</clipPath>
													</g>
												</g>
											</g>
										</g>
										<g clip-path="url(#SVGID_11_)">
											<g>
												<defs>
													<rect id="SVGID_61_" x="92.6" y="-369.1" width="112.5" height="41"/>
												</defs>
												<clipPath id="SVGID_14_">
													<use xlink:href="#SVGID_61_"  overflow="visible"/>
												</clipPath>
												<g id="g158" clip-path="url(#SVGID_14_)">
													<g>
														<defs>
															<path id="SVGID_63_" d="M145-384.4h1.4c0.3,1.5,1.6,2.6,3.2,2.6v1.4C147.3-380.4,145.3-382.2,145-384.4"/>
														</defs>
														<clipPath id="SVGID_15_">
															<use xlink:href="#SVGID_63_"  overflow="visible"/>
														</clipPath>
														<g id="g160" clip-path="url(#SVGID_15_)">
															<g id="g166">
																<defs>
																	
																		<rect id="SVGID_65_" x="17.8" y="-525.8" transform="matrix(-0.2713 0.9625 -0.9625 -0.2713 -161.7137 -609.191)" width="263.9" height="320"/>
																</defs>
																<clipPath id="SVGID_16_">
																	<use xlink:href="#SVGID_65_"  overflow="visible"/>
																</clipPath>
															</g>
														</g>
													</g>
												</g>
												<g clip-path="url(#SVGID_14_)">
													<g>
														<defs>
															<rect id="SVGID_67_" x="92.6" y="-369.1" width="112.5" height="41"/>
														</defs>
														<clipPath id="SVGID_17_">
															<use xlink:href="#SVGID_67_"  overflow="visible"/>
														</clipPath>
														<g id="g194" clip-path="url(#SVGID_17_)">
															<g>
																<defs>
																	<path id="SVGID_69_" d="M179.5-380.9c-1.5-0.8-2.5-2.3-2.5-4.1c0-2.3,1.7-4.3,4-4.6v1.4c-1.5,0.3-2.6,1.6-2.6,3.2
																		c0,1,0.4,1.9,1.2,2.5v-0.8h1.4v2.5v0.5c0,0,0,0,0,0l0,0C181-380.4,180.1-380.6,179.5-380.9"/>
																</defs>
																<clipPath id="SVGID_18_">
																	<use xlink:href="#SVGID_69_"  overflow="visible"/>
																</clipPath>
																<g id="g196" clip-path="url(#SVGID_18_)">
																	<g id="g202">
																		<defs>
																			
																				<rect id="SVGID_71_" x="-18.3" y="-533.2" transform="matrix(-0.7071 0.7071 -0.7071 -0.7071 -4.2858 -729.8545)" width="334.7" height="334.7"/>
																		</defs>
																		<clipPath id="SVGID_19_">
																			<use xlink:href="#SVGID_71_"  overflow="visible"/>
																		</clipPath>
																	</g>
																</g>
															</g>
														</g>
														<g clip-path="url(#SVGID_17_)">
															<g>
																<defs>
																	<rect id="SVGID_73_" x="92.6" y="-369.1" width="112.5" height="41"/>
																</defs>
																<clipPath id="SVGID_20_">
																	<use xlink:href="#SVGID_73_"  overflow="visible"/>
																</clipPath>
																<g id="g230" clip-path="url(#SVGID_20_)">
																	<g>
																		<defs>
																			<path id="SVGID_75_" d="M182.4-381.8c1.5-0.3,2.6-1.6,2.6-3.2c0-1-0.4-1.9-1.2-2.5v0.8h-1.4v-2.5v-0.5
																				c0,0,0,0,0,0l0,0c0,0,0.9,0.2,1.5,0.5c1.5,0.8,2.5,2.3,2.5,4.1c0,2.3-1.7,4.3-4,4.6V-381.8z"/>
																		</defs>
																		<clipPath id="SVGID_21_">
																			<use xlink:href="#SVGID_75_"  overflow="visible"/>
																		</clipPath>
																		<g id="g232" clip-path="url(#SVGID_21_)">
																			<g id="g238">
																				<defs>
																					<rect id="SVGID_77_" x="10.4" y="-463.9" width="277.2" height="196.1"/>
																				</defs>
																				<clipPath id="SVGID_22_">
																					<use xlink:href="#SVGID_77_"  overflow="visible"/>
																				</clipPath>
																			</g>
																		</g>
																	</g>
																</g>
															</g>
														</g>
													</g>
												</g>
											</g>
										</g>
									</g>
								</g>
							</g>
						</g>
					</g>
				</g>
			</g>
		</g>
	</g>
</g>
<g id="TextNow">
</g>
<g id="Uber">
</g>
<g id="mars">
</g>
<g id="twilio">
</g>
<g id="wit-ai">
</g>
<g id="indiegogo">
</g>
<g id="Layer_34">
</g>
<g id="cisco">
</g>
<g id="teespring">
</g>
<g id="sendgrid">
</g>
<g id="kloudless">
</g>
<g id="uwaterloo">
	<g>
		<g>
			<polygon fill="#231F20" points="148,733.2 150.9,733.2 153.6,741.7 156.4,733.1 158.8,733.1 161.6,741.7 164.2,733.2 
				167.1,733.2 162.8,745.8 160.4,745.8 157.5,737.6 154.7,745.8 152.3,745.8 			"/>
			<path fill="#231F20" d="M174.4,740.6l-1.7-4.1l-1.7,4.1H174.4z M171.5,733.2h2.6l5.4,12.6h-2.9l-1.2-2.8H170l-1.2,2.8h-2.8
				L171.5,733.2z"/>
			<polygon fill="#231F20" points="182.4,735.8 178.6,735.8 178.6,733.3 189,733.3 189,735.8 185.2,735.8 185.2,745.8 182.4,745.8 
							"/>
			<polygon fill="#231F20" points="191.1,733.3 200.6,733.3 200.6,735.7 193.9,735.7 193.9,738.3 199.8,738.3 199.8,740.7 
				193.9,740.7 193.9,743.3 200.7,743.3 200.7,745.8 191.1,745.8 			"/>
			<path fill="#231F20" d="M209.3,739.4c1.4,0,2.1-0.7,2.1-1.8v0c0-1.2-0.8-1.8-2.2-1.8h-2.8v3.6H209.3z M203.7,733.3h5.8
				c1.6,0,2.8,0.4,3.7,1.3c0.7,0.7,1.1,1.7,1.1,2.9v0c0,2-1.1,3.3-2.7,3.9l3.1,4.5h-3.2l-2.7-4h-2.2v4h-2.8V733.3z"/>
			<polygon fill="#231F20" points="217.3,733.3 220,733.3 220,743.3 225.9,743.3 225.9,745.8 217.3,745.8 			"/>
			<path fill="#231F20" d="M236.9,739.6L236.9,739.6c0-2.2-1.6-4-3.8-4c-2.2,0-3.8,1.8-3.8,3.9v0c0,2.1,1.6,3.9,3.8,3.9
				C235.3,743.5,236.9,741.7,236.9,739.6 M226.4,739.6L226.4,739.6c0-3.6,2.8-6.5,6.7-6.5c3.9,0,6.7,2.9,6.7,6.4v0
				c0,3.6-2.8,6.5-6.7,6.5C229.2,746,226.4,743.1,226.4,739.6"/>
			<path fill="#231F20" d="M251,739.6L251,739.6c0-2.2-1.6-4-3.8-4c-2.2,0-3.8,1.8-3.8,3.9v0c0,2.1,1.6,3.9,3.8,3.9
				C249.5,743.5,251,741.7,251,739.6 M240.5,739.6L240.5,739.6c0-3.6,2.8-6.5,6.7-6.5c3.9,0,6.7,2.9,6.7,6.4v0
				c0,3.6-2.8,6.5-6.7,6.5C243.3,746,240.5,743.1,240.5,739.6"/>
			<g>
				<path fill="#231F20" d="M155,726.9v-3.3h1.3v3.3c0,0.9,0.5,1.4,1.3,1.4c0.8,0,1.3-0.5,1.3-1.4v-3.3h1.3v3.3c0,1.7-1,2.6-2.5,2.6
					C156,729.5,155,728.6,155,726.9z"/>
				<path fill="#231F20" d="M163.5,723.6h1.2l2.7,3.6v-3.6h1.3v5.8h-1.1l-2.8-3.7v3.7h-1.3V723.6z"/>
				<path fill="#231F20" d="M172.2,723.6h1.3v5.8h-1.3V723.6z"/>
				<path fill="#231F20" d="M176.7,723.6h1.4l1.5,4.1l1.5-4.1h1.4l-2.3,5.8H179L176.7,723.6z"/>
				<path fill="#231F20" d="M185.5,723.6h4.4v1.1h-3.1v1.2h2.7v1.1h-2.7v1.2h3.1v1.1h-4.4V723.6z"/>
				<path fill="#231F20" d="M193.3,723.6h2.7c0.7,0,1.3,0.2,1.7,0.6c0.3,0.3,0.5,0.8,0.5,1.3v0c0,0.9-0.5,1.5-1.2,1.8l1.4,2.1h-1.5
					l-1.2-1.8h-1v1.8h-1.3V723.6z M195.8,726.4c0.6,0,1-0.3,1-0.8v0c0-0.5-0.4-0.8-1-0.8h-1.3v1.7H195.8z"/>
				<path fill="#231F20" d="M201.1,728.6l0.8-0.9c0.5,0.4,1.1,0.7,1.7,0.7c0.5,0,0.8-0.2,0.8-0.5v0c0-0.3-0.2-0.5-1.2-0.7
					c-1.2-0.3-1.9-0.6-1.9-1.8v0c0-1,0.8-1.7,2-1.7c0.8,0,1.6,0.3,2.2,0.7l-0.7,1c-0.5-0.4-1-0.6-1.5-0.6c-0.5,0-0.7,0.2-0.7,0.5v0
					c0,0.4,0.2,0.5,1.3,0.8c1.2,0.3,1.8,0.7,1.8,1.7v0c0,1.1-0.9,1.8-2.1,1.8C202.6,729.5,201.7,729.2,201.1,728.6z"/>
				<path fill="#231F20" d="M209,723.6h1.3v5.8H209V723.6z"/>
				<path fill="#231F20" d="M215.2,724.8h-1.8v-1.2h4.8v1.2h-1.8v4.6h-1.3V724.8z"/>
				<path fill="#231F20" d="M223.1,727.1l-2.2-3.5h1.5l1.4,2.3l1.4-2.3h1.5l-2.2,3.5v2.3h-1.3V727.1z"/>
				<path fill="#231F20" d="M233.8,726.5L233.8,726.5c0-1.7,1.3-3,3.1-3c1.8,0,3.1,1.3,3.1,3v0c0,1.6-1.3,3-3.1,3
					C235.1,729.5,233.8,728.2,233.8,726.5z M238.7,726.5L238.7,726.5c0-1-0.7-1.8-1.8-1.8c-1,0-1.7,0.8-1.7,1.8v0
					c0,1,0.7,1.8,1.8,1.8C238,728.3,238.7,727.5,238.7,726.5z"/>
				<path fill="#231F20" d="M242.7,723.6h4.4v1.2H244v1.2h2.8v1.2H244v2.2h-1.3V723.6z"/>
			</g>
		</g>
		<g>
			<path fill="#FFFFFF" d="M130.3,755.4l-0.3-0.2c-3.8-1.7-6.8-4.3-8.8-7.3c-4.8-7.3-4.9-14.8-5.1-22.7c0-0.6,0-1.2,0-1.8l0-0.8
				h28.5l0,0.8c0,0.6,0,1.2,0,1.8c-0.2,7.9-0.3,15.4-5.1,22.7c-2,3-5,5.5-8.8,7.3L130.3,755.4z"/>
		</g>
		<path fill="#FFD13F" d="M130.2,732.4l-11.2,8.8c-1.8-5.5-1.7-11.3-1.9-17.2h26.1c-0.1,5.9-0.1,11.7-1.9,17.2L130.2,732.4z"/>
		<path fill="#FFD13F" d="M139.3,745.9c-0.3,0.5-0.6,1-0.9,1.5c-2,3-4.9,5.3-8.2,6.8c-3.3-1.5-6.2-3.7-8.2-6.8
			c-0.3-0.5-0.9-1.4-0.9-1.4l9.1-7.2L139.3,745.9z"/>
		<path fill="#C3002F" d="M122.6,728.4c-1.3-0.3-2.5-1.3-2.2-2.5c0,0-0.1-0.3-0.2-0.4c0,0,0,0,0,0c-0.1,0-0.1,0-0.1-0.1
			c0,0-0.1,0-0.1-0.1c0,0.1,0,0.1-0.1,0.1c0,0,0,0,0,0.1c0,0,0,0,0,0.1c-0.1,0.1,0,0.2,0,0.4c0,0,0,0.1,0,0.1c0,0,0,0-0.1,0
			c0,0,0,0,0,0c0,0-0.1,0-0.1,0c0,0,0,0,0,0c0,0-0.1-0.1-0.1-0.2c0,0,0-0.1,0-0.1c0-0.1-0.2-0.2-0.1-0.2c0,0,0,0-0.1-0.1
			c-0.1,0-0.2,0-0.2,0c0,0,0,0,0,0c-0.1,0.1-0.2,0.1-0.3,0.1c0,0,0,0,0,0c0.1,0.1,0,0.1,0,0.2c0,0.1,0.1,0.1,0.1,0.2
			c0.1,0,0.2,0,0.2,0.1c0,0,0.1,0,0,0.1c-0.2,0.2-0.4,0-0.5,0.4c0.2-0.1,0.2,0.2,0.3,0.3c0.4,0.1,0.7,0.1,1,0.6
			c0.1,0.3-0.3,0.3,0.1,0.3c0.2,0,0.3,0.1,0.4,0.3c0.1,0.1,0.1,0.3,0.2,0.4c0.1,0.1,0.1,0.1,0.2,0.2c0,0,0.2,0.1,0.2,0.1
			c0,0,0.1,0,0.1,0.1c0,0,0.1,0,0.1,0.1c0,0,0.1,0.1,0.1,0.1c0,0.1,0,0.1,0,0.2c0,0,0.1,0,0.1,0c0,0,0.1,0,0.1,0c0.1,0,0.1,0,0.2,0
			c0.1,0,0.1,0,0.2,0c0,0,0,0,0.1,0c0,0,0.1,0,0.1,0c0-0.1,0.1-0.2,0.2-0.4c0.1-0.1,0.1-0.1,0.2-0.3
			C122.4,728.5,122.6,728.4,122.6,728.4"/>
		<path fill="#C3002F" d="M119.3,728.5c0.4,0.2,0.3,0.7,0.7,0.9c0.6,0.3,1.4,0.5,2,0.2c-0.1,0.5,0,0.8,0,0.9c-0.2,0.2-0.8,0-1.2-0.2
			c-0.3-0.1-0.5,0.3-0.8,0.3c0,0,0.1-0.1,0-0.2c0-0.1-0.1-0.2-0.3-0.2c-0.2,0-0.1,0.1-0.3,0.3c-0.1-0.1-0.3-0.1-0.3,0.1
			c0,0.1-0.2-0.3-0.1-0.4c0.2-0.3,0.2-0.3,0.2-0.4c0-0.1-0.4-0.2-0.4-0.1c-0.1,0.2-0.4-0.6,0.5-0.5c-0.2-0.2-0.2-0.2-0.2-0.4
			c0,0-0.1-0.1-0.1-0.1c0-0.1,0-0.2,0.1-0.2C119,728.4,119.1,728.4,119.3,728.5"/>
		<path fill="#C3002F" d="M121.1,726.6c0.6,0.1,1.4-0.6,1.9,0.3C122.6,726.8,121.6,727.3,121.1,726.6"/>
		<path fill="#C3002F" d="M125.8,727.9c0,0.7-0.8,1.5-0.2,2.2c-0.3,0-0.5-0.1-0.7-0.2c-0.1-0.1-0.1,0.3-0.1,0.4
			c0,0.1-0.5-0.4-0.6-0.3c-0.5,0.4-0.7,0.5-1.5,0.5c-0.2,0-0.3,0.2-0.4,0.4c-0.2-0.3,0-1.1,0.1-1.5c0.3-1,1.2-1.2,2-1.7
			c0.6-0.3,0.8-1,0.8-1.6C125.6,726.5,125.8,727.2,125.8,727.9"/>
		<path fill="#C3002F" d="M122.2,736c0.1,0,0,0.1,0,0.1c-0.1,0.1-0.1,0.1-0.2,0.2c0,0.1-0.1,0.1,0,0.2c0,0.1,0,0.1,0,0.1
			c0,0,0,0,0.1,0.1c0,0,0,0.1,0,0.1c0-0.1,0.1-0.1,0.1-0.1c0.5,0.3,0.5-0.3,0.8-0.5c0.1-0.1,0.4,0,0.3,0.3c0.3-0.2,0.4-0.5,0.6-0.8
			c0.5-0.5,1.2-0.9,1.8-1.2c-0.2-0.3-0.6-0.5-0.8-0.8c-0.1-0.1-0.2-0.4,0-0.4c0.8,0.2,1.3-0.3,1.4-0.9c1.2,0.2,1.5-1,1.7-1.8
			c0.1-0.4,0.3-0.4,0.1-1.2c-0.1-0.3,0.5-0.4,0.4-0.9c0-0.1-0.2-0.3-0.3-0.3c0.1,0.3-0.4,0.3-0.4,0.5c-0.1,0.2-0.2,0.3-0.2,0.5
			c-0.4-0.5-0.1-1.2,0.3-1.7c0.5-0.7,1.6-0.3,2.1,0.1c0-0.2-0.2-0.5-0.3-0.7c0.4-0.1,0.9,0.2,1.5-0.1c0.3-0.2,0.7-0.3,0.9-0.7
			c-0.7,0.1-1.7-0.5-2.4-0.6c-1.2-0.2-2.1,0.6-2.5,1.6c-0.4,1-0.2,1.7,0.3,2.5c0.1,0.2-0.4,0.1-0.6,0.2c-0.2,0.1-0.3,0.4-0.2,0.6
			c0.3-0.3,1-0.1,1,0.4c0.1,0.6-0.6,1.6-1.2,1.3c-0.7-0.3-1.1-1-1.3-1.8c-0.6,0.5-1.6,0.1-2.1,0.6c-0.5,0.5,0.7,0.8,1.2,1
			c0.2,0.1,0.3,0.3,0.3,0.5c-0.7-0.4-1.6,0.1-1.6,0.8c0,0.6,0.8,1,1.4,1c0.2,0,0.4,0.3,0.1,0.5c-0.5,0.3-1.1,0.7-1.7,0.1
			c-0.1-0.1-0.4,0-0.5,0.1c0,0.1,0,0.2,0,0.3c0-0.1,0.1-0.1,0.1-0.1c0.1,0,0.1,0.1,0.1,0.1c0,0.3-0.4,0.1-0.6,0.3c0,0,0,0,0,0
			c0,0,0,0,0,0.1c-0.1,0.2-0.2,0.3,0,0.4c0,0,0.1,0.1,0.1,0.2c0-0.1,0.2-0.1,0.2-0.1L122.2,736L122.2,736z"/>
		<path fill="#C3002F" d="M119.7,733.3c-0.1,0-0.2,0-0.2,0c0,0-0.1,0-0.1,0c0,0,0,0.1,0,0.1c0,0,0,0.1,0,0.1c-0.1,0-0.2-0.1-0.3-0.1
			c0,0,0,0-0.1-0.1c0,0,0,0,0-0.1c0,0,0-0.1,0-0.1c0-0.1,0-0.1,0-0.2c0,0,0-0.1,0.1-0.1c0,0,0,0,0.1-0.1c0.1,0,0.1-0.1,0.2-0.1
			c0.1,0,0.2,0,0.3,0c0.1,0,0.2,0,0.2,0.1c0,0,0.1-0.1,0.1-0.1c-0.3-0.1-0.3-0.1-0.3-0.4c0,0-0.1,0-0.1,0c0-0.5,0.6-0.5,0.8-0.3
			c0.4,0.3,0.1,0.8,0.5,1c0.2,0.1,0.5,0.1,0.7,0c0.4-0.2,0-0.6,0.1-1c0.3-0.7,0.9-0.8,1.6-0.1c-0.7,0.2-1,1.1-0.6,1.6
			c-0.6-0.2-1.3,0.2-1.7,0.4c0.4-0.4-0.2-0.7-0.3-0.6l-0.2,0.1c-0.1,0.1-0.1,0.2-0.2,0.3c-0.1,0.1-0.1,0.1-0.2,0.1
			c-0.1,0-0.2,0-0.2,0c0,0-0.1,0-0.1,0c0,0.1,0,0.1,0,0.1c0,0-0.1-0.1-0.1-0.1c-0.1,0-0.1-0.1-0.2-0.1c0-0.1-0.1-0.2,0-0.3
			c0-0.1,0.1-0.1,0.2-0.2C119.8,733.3,119.8,733.3,119.7,733.3"/>
		<path fill="#C3002F" d="M133.8,726.9c0.1,0,0,0.1-0.1,0.1c-0.1,0-0.2,0-0.2,0c-0.3,0.1-0.3,0.8-0.2,0.7c0-0.1,0.2,0,0.4,0
			c0.2,0,0.4-0.4,0.5-0.4c0.3,0,0.6,0.4,0.8,0.7c0,0-0.1,0.1-0.1,0.2c0.5,0,0.8,0.2,1.2,0.5c0.2-0.3,0.3-0.4,0.5-0.6
			c-0.7-0.7-2-0.9-1.8-2.1c0-0.2-0.1-0.3-0.2-0.4c-0.1-0.1-0.3-0.1-0.4-0.1c0.1,0.3-0.1,0.3-0.1,0.7c0,0,0,0-0.1,0
			c-0.1,0-0.1-0.1-0.2-0.1c-0.1,0-0.1,0-0.2,0c0,0-0.1,0-0.1,0.1c-0.1,0-0.1,0.1-0.1,0.2c0,0,0,0,0,0c0,0,0,0.1,0,0.1
			c0,0,0.1,0,0.2,0c0,0,0,0.1,0.1,0.2c0,0.1,0.1,0.1,0.2,0.1C133.5,726.8,133.6,726.9,133.8,726.9"/>
		<path fill="#C3002F" d="M135.5,726.4c0.4,0,0.8-0.4,1.3,0.2c-0.1,0-0.2-0.1-0.2,0c-0.5,0.4-1.1,0.3-1.5-0.2
			C135.3,726.3,135.4,726.4,135.5,726.4"/>
		<path fill="#C3002F" d="M137.4,727.9c0.7-0.3,1.4-0.6,1.7-1.5c0.1-0.2,0.2,0.2,0.2,0.3c0.4,1-0.4,2.1-0.2,3.2
			c-0.2-0.1-0.5-0.3-0.8-0.3c-1,0-1.2,0.5-1.2,0.5c-0.3-0.3-1-0.5-1-0.4C135.6,729.2,136.9,728.2,137.4,727.9"/>
		<path fill="#C3002F" d="M135.5,734.9c0.1,0.1,0-0.1,0.1,0.2c0.5-0.2,1-0.5,1.6-0.2c-0.2-1.1,0.6-1.4,0.6-1.6
			c0.1-0.3-0.4-0.8-0.9-0.7c-0.5,0.2-0.3,0.9-0.4,1.3c-0.1,0.3-0.4,0.4-0.6,0.4c-0.4-0.2-0.6-0.6-0.7-1c-0.1-0.3-0.7-0.3-0.8-0.1
			c-0.4,0.7,0.2-0.1,0.2,0.5c0,0.1-0.4,0-0.5,0.3c-0.1,0.2,0.1,0.4,0.4,0.4c0,0-0.1-0.1,0-0.1c0,0,0.2,0.1,0.2,0.1
			c-0.3,0.2-0.3,0.5,0.1,0.7c0,0,0-0.1,0-0.2C135.1,734.6,135.5,734.9,135.5,734.9"/>
		<path fill="#C3002F" d="M127.9,742c0.4,0.2,0.6,0,1.1-0.1c0.1,0,0.4,0.2,0.5,0.3C128.9,742.3,128.3,742.8,127.9,742"/>
		<path fill="#C3002F" d="M127.7,742.4C127.6,742.4,127.6,742.4,127.7,742.4c-0.1-0.1-0.2-0.1-0.2-0.1c0,0-0.1,0-0.1,0
			c0,0,0,0.1,0,0.1c0,0-0.1,0-0.1,0.1c0,0,0,0,0,0.1c0,0,0,0.1,0,0.2c0,0,0,0.1,0,0.1c0,0,0,0.1,0,0.1c0,0,0.1,0.1,0.1,0.1
			c0.1,0.1,0,0,0.1,0.1c0,0,0,0.1-0.1,0.1c-0.3-0.1-0.4-0.5-0.7-0.6c-0.2-0.1-0.5,0.1-0.6,0.4c0.1,0,0.1,0,0.2,0.1
			c0.1,0.3,0.6,0.1,0.6,0.4c0,0.2-0.4,0-0.5,0.1c-0.2,0.1-0.2,0.5,0,0.7c0.2-0.2,0.4,0.1,0.6,0c0.1-0.1,0.2-0.2,0.3-0.3
			c0.4-0.2,0.5,0.2,0.4,0.5c0.2-0.1,0.7-0.2,0.8-0.2c0.2-0.1,0.2-0.5,0.4-0.7c-0.3,0-0.8-0.1-0.9-0.5c0,0,0-0.1,0-0.1
			c0-0.1,0-0.2-0.1-0.4c0,0,0,0,0,0c0,0,0,0,0-0.1C127.8,742.5,127.8,742.5,127.7,742.4C127.7,742.5,127.7,742.5,127.7,742.4"/>
		<path fill="#C3002F" d="M125.2,744.8c0.1,0.3-0.6-0.2-0.9,0.3c-0.1,0.1,0,0.4,0,0.6c0.2-0.2,0.3,0.1,0.6-0.1c0,0,0.1,0.1,0,0.1
			c-0.1,0.1-0.2,0.3-0.1,0.4c0,0.1,0.3,0.3,0.3,0.3c0-0.2,0.3,0,0.4-0.4c0-0.2,0.1-0.4,0.3-0.3c0.2,0.1,0.2,0.3,0.2,0.5
			c0.3-0.1,0.9-0.4,1.2-0.2c0.5,0.3,1.2,0.5,1.7,0.6c-0.4-0.2-0.5-0.9-0.4-1.3c-0.8,0.2-1.7,0.1-2.5-0.2c-0.2-0.1-0.2-0.3-0.2-0.5
			c-0.1-0.2-0.4-0.4-0.6-0.4c-0.1,0-0.5,0.3-0.4,0.3c0,0,0,0,0,0.1c0.1,0,0.1,0,0.2,0.1c0,0,0,0.1,0.1,0.1
			C125.1,744.7,125.2,744.7,125.2,744.8"/>
		<path fill="#C3002F" d="M127.2,749.3c0.2-0.2,0.3-0.1,0.4-0.1c0.2,0,0.2,0.2,0.1,0.4c0.7-0.3,1.3-0.8,2.1-0.6
			c-0.5-0.5-0.3-1.5,0.3-1.6c0,0-0.4-0.1-0.5-0.1c-0.6-0.4-1.2-0.7-1.6,0c-0.2,0.4,0.2,0.7,0.4,1c0,0.1,0,0.1-0.1,0.1
			c-0.6,0.2-1.7,0.2-1.8-0.7c0-0.1-0.2-0.2-0.4-0.2c-0.5,0-0.4,0.6-0.4,0.5c0.1-0.1,0.4,0,0.4,0.2c0,0.2-0.5-0.1-0.6,0.1
			c-0.1,0.2-0.1,0.5,0,0.7c0-0.1,0.1-0.1,0.1-0.1c0.5-0.1,0.5,0.1,0.4,0.5c0,0,0.1,0.3,0.2,0.3c0,0,0-0.1,0-0.1c0,0,0,0,0.1,0
			c0.1,0,0.1,0,0.2,0c0,0,0,0,0.1,0c0,0,0.1-0.1,0.1-0.1c0.1-0.1,0.2-0.3,0.4-0.3C127.1,749.2,127.1,749.2,127.2,749.3"/>
		<path fill="#C3002F" d="M132,751.4c0.4-0.4,0.7-1,1.2-1.4c-0.5-0.3-1.1-0.6-1.2-1.3c0,0,0.1-0.1,0.1-0.1c0.7,0.4,1.6,0.4,2.1-0.3
			c0.4-0.6,0.6-1.5,1.4-1.6c-0.3-0.5,0-1.1,0.5-1.3c-0.1-0.1-0.3-0.2-0.5-0.1c-0.2,0-0.3,0.3-0.5,0.3c0.4-1.2-0.3-2.9-1.7-2.9
			c-0.2,0-0.6,0.2-0.7,0.5c-0.1,0.3-0.1,0.6,0.1,0.8c0.4,0.5,0.7,1.1,0.6,1.8c0.3-0.3,0.6-0.7,0.6-1.1c0-0.1,0.2,0,0.2-0.1
			c0.4-0.5-0.2-0.9-0.5-1.2c-0.1-0.1,0.1-0.2,0.2-0.2c1.1,0.3,1.2,1.7,0.8,2.6c-0.1-0.2-0.6-0.1-0.8-0.2c0.5,0.3,0.4,0.3,0.4,0.4
			c0,0.2-0.5,0.1-0.6,0.2c-0.2,0.2-0.3,0.3-0.3,1c0.2-0.2,0.5-0.6,0.8-0.4c0.7,0.3,0,1.5-0.7,1.7c-0.5,0.2-1,0-1.4-0.5
			c-0.5-0.7-0.1-1.5-0.5-2.2c-0.3,0.1-0.2,0.4-0.4,0.4c-0.5-0.2-0.8-0.8-1.2-1.3c-0.2,0.1-0.2,0.2-0.4,0.2c-0.2,0-0.7-0.1-0.7,0
			c-0.1,0.1-0.2,1.1,0.7,1.4c0.6,0.2,1.1,0.4,1.5,0.9c-0.3,0-0.4-0.1-0.6-0.1c-0.2,0-0.4,0.1-0.5,0.2c-0.2,0.1-0.3,0.4-0.3,0.6
			c0.1,1.2,1.5,1.2,2.1,1.9c0.1,0.1-0.2,0.6-0.4,0.8c-0.2,0.2-0.7-0.3-0.7-0.6c0.1-0.3-0.6-0.5-0.9-0.2c0.1,0,0.1,0.1,0.1,0.1
			c0,0.3,0.3,0.3,0.3,0.4c0,0.2-0.2-0.1-0.3-0.1c-0.3-0.1-0.6,0-0.7,0.3c-0.1,0.1-0.2,0.2-0.1,0.3c0.2-0.1,0.3,0.2,0.5,0.1
			c0.1-0.1,0.2-0.2,0.4-0.1c0.1,0,0.1,0.1,0.1,0.1c-0.4,0.3-0.7,0.6-0.4,1c0-0.1,0.1-0.2,0.1-0.2c0.1,0,0.3,0,0.4,0
			c0.2-0.1,0.1-0.2,0.2-0.4c0.1-0.2,0.5-0.6,0.7-0.3c0,0,0,0.2-0.1,0.2c0.1,0,0.2,0.1,0.3,0.1c0,0,0.1,0,0.1,0c0,0,0,0,0.1,0
			c0,0,0.1-0.1,0.1-0.2c0.1,0,0.2,0,0.3-0.1C131.9,751.5,132,751.4,132,751.4"/>
		<path fill="#C3002F" d="M130.1,743.1c0.7-0.2,1.6-0.6,1.8-1.4c0.2,0.1,0.3,0.4,0.3,0.6c0,1-0.4,1.9-0.2,3c0,0.1,0.2,0.5,0.1,0.5
			c-0.1-0.1-0.4-0.3-0.5-0.2c-0.2,0.1-0.2,0.4-0.3,0.3c-0.3-0.2-0.7-0.5-0.8-0.9c-0.1-0.1,0-0.4-0.1-0.4c-0.2,0.3-0.8,0.3-1.1,0.4
			c0.1-0.1,0.2-0.4,0.1-0.4c-0.3-0.1-0.7,0.4-0.7,0.3c0-0.2,0-0.2,0-0.3C128.9,743.9,129.3,743.3,130.1,743.1"/>
		<path fill="#C3002F" d="M124.5,725.4c0.2,0,0.3-0.1,0.5-0.3c0,0.1,0.2,0.3,0.1,0.4c-0.1,0.1-0.3,0.2-0.3,0.4
			c-0.1,0.3,0.1,0.5,0,0.8c-0.5,0.8-1.5,0.5-2.2,0.7c0-0.1,0-0.2-0.1-0.3c0.3,0,0.7,0,0.8-0.3c0.1-0.3,0.2-0.5,0-0.8
			c-0.2-0.4-0.7-0.2-1.1-0.1c-0.1-0.2,0.2-0.4,0.3-0.4c0.4-0.1,0.7-0.3,1.1-0.4C123.9,725.2,124.2,725.4,124.5,725.4 M124,725.8
			C124,725.8,124,725.8,124,725.8c-0.2-0.4-0.6-0.4-0.7,0C123.2,726,123.8,725.9,124,725.8"/>
		<path fill="#C3002F" d="M138.3,727c-0.1,0.1-0.3,0.1-0.4,0.2c-0.1,0-0.1,0.1-0.2,0.1c0,0-0.1,0.1-0.2,0.1c-0.1,0-0.1,0-0.2,0
			c-0.1,0-0.1,0-0.1,0c-0.1,0-0.2,0-0.3,0c-0.1,0-0.2,0-0.3,0c-0.1,0-0.2,0-0.2-0.1c0,0-0.1,0-0.2,0c0-0.1,0-0.1,0.1-0.1
			c0.1,0,0.1,0,0.2,0c0,0,0.1,0,0.1,0c0,0,0,0,0.1,0c0,0,0.1,0,0.1,0c0,0,0.1,0,0.1-0.1c0,0,0,0,0,0c0,0,0.1,0,0.1-0.1
			c0.1-0.1,0.1-0.2,0.1-0.3c0-0.1,0-0.2,0-0.3c0,0,0,0,0,0c0-0.1,0-0.1-0.1-0.2c-0.2-0.4-0.7,0-1,0c0-0.1,0-0.2,0-0.3
			c0.2-0.3,0.6-0.2,0.8-0.3c0.7-0.5,0.8-0.1,1.5,0.1c0.2,0.1,0.5-0.1,0.7-0.2c0,0,0,0.3,0,0.4c-0.1,0.2-0.3,0.2-0.4,0.4
			C138.6,726.4,138.6,726.8,138.3,727 M137.9,725.7C137.9,725.7,137.8,725.7,137.9,725.7c-0.3-0.1-0.7-0.3-0.8,0.1
			C137,726,137.6,725.8,137.9,725.7"/>
		<path fill="#C3002F" d="M131,740.9c0.3,0.1,0.6,0.1,0.8-0.2c0.1,0.4-0.3,0.5-0.4,0.7c-0.1,0.3-0.1,0.6-0.4,0.8
			c-0.6,0.3-1.3,0.7-2,0.7c0-0.1-0.1-0.2,0.1-0.2c0.2,0,0.4-0.2,0.5-0.3c0.1-0.2,0-0.7-0.2-0.8c-0.2-0.1-0.4,0.1-0.6,0.1
			c-0.1-0.2,0.2-0.5,0.8-0.5c0,0,0.3-0.3,0.2-0.3C130.2,740.7,130.6,740.8,131,740.9 M130.1,741.5c0.1,0,0.5-0.1,0.6-0.2
			c0,0,0.1,0,0.1-0.1c0,0,0,0,0,0c-0.1,0-0.2,0-0.3,0c-0.1,0-0.1-0.1-0.2-0.1c0,0,0,0-0.1,0c0,0,0,0-0.1,0c0,0-0.1,0-0.1,0
			c0,0-0.1,0.1-0.1,0.1c0,0,0,0.1,0,0.2C130,741.4,130.1,741.5,130.1,741.5"/>
		<path fill="#C3002F" d="M140.2,738.1c0-0.1,0.2-0.4,0.2-0.6c0-0.7,0.5-1.1,0.5-1.9c0-0.2-0.9-0.4-0.9-0.8c0-0.2-0.1-0.5,0.1-0.5
			c0.3,0,0.6,0,0.8-0.2c0.9-0.8,0.1-1.9,0-2.8c0-0.2,0.4-0.7,0.4-0.8c-0.1-0.8-0.2-1.5,0.1-2.3c-0.2,0.2-0.3,0.5-0.5,0.7
			c-0.1,0.1-0.1-0.1-0.1-0.1c0.1-0.7,0.4-1.3,0.7-2c0.4-0.8,0.2-1.4-0.5-1.7c-0.7-0.2-1.3,0.4-1.3,1c-0.1,0.6,0.1,1.2,0.2,1.7
			c0,0.1,0,0.3,0,0.4c0.1-0.5,0.1-1,0.1-1.5c0-0.1,0.1-0.3,0.2-0.3c0.4-0.1,0.6,0.2,0.6,0.4c-0.1,0.7-0.2,1.3-0.4,2.1
			c-0.2,0.8,0.1,1.7,0.2,2.5c-0.3-0.2-0.7-0.2-0.8,0.3c-0.1,0.3,0.2,0.5,0.2,0.8c0-0.3,0.3-0.8,0.6-0.6c0.4,0.2,0.4,1.4,0.3,1.6
			c-0.2,0.3-0.5,0.6-0.9,0.5c-0.2-0.1-0.1-0.4-0.3-0.5c-0.7-0.7-1.1-1.6-1.1-2.7c0-0.2,0.1-0.5,0-0.6c-0.9-0.4-1.4,0-1.8,0.6
			c-0.1-0.2-0.4-0.4-0.5-0.4c-0.2,0.3-0.1,0.9,0.1,1.2c0.7,0.6,1.5,1.1,1.9,1.9c-0.4,0.1-0.9,0.2-1,0.6c-0.2,0.5-0.1,1.1,0.4,1.3
			c0.4,0.2,1.1,0,1.3,0c0.4,0.1,0.9,0.4,0.9,0.8c0,0-0.2,1-0.6,0.7c-0.2-0.1-0.1-0.7-0.4-0.7c-0.5-0.1-0.6,0.5-0.5,0.5
			c0.1-0.1,0.3,0.1,0.5,0.2c-1-0.2-0.7,0.7-0.6,0.6c0.1-0.1,0.2,0,0.6,0c0,0-0.1,0.1-0.1,0.1c-0.1,0.1-0.1,0.1-0.1,0.2
			c0,0,0,0.1,0,0.1c0,0,0,0.1,0,0.1c0,0,0,0,0,0c0,0,0,0,0,0c0,0,0-0.1,0-0.1c0,0,0.1,0,0.1,0c0,0,0.1,0,0.1,0c0,0,0.1,0,0.1,0
			c0.1,0,0.1,0,0.1,0c0,0,0.1,0,0.1-0.1c-0.1,0,0.1-0.1,0.1-0.1c0.1-0.1,0.1-0.1,0.1-0.1c0.1-0.2,0.2-0.2,0.4-0.2c0,0,0.1,0,0.1,0.1
			c0,0,0.1,0.1,0.1,0.1C140.2,737.9,140.2,738,140.2,738.1"/>
		<path fill="#C3002F" d="M133.2,729.2c-0.1,0-0.1-0.1-0.1-0.2c0,0,0,0,0,0c0,0,0,0,0-0.1c0-0.1,0-0.3,0.1-0.4c0,0,0,0,0,0
			c0,0,0,0,0,0c0,0,0,0,0,0c0,0,0,0,0,0c0,0,0-0.1,0-0.1c0,0,0.1,0,0.1,0c0,0,0,0,0,0c0.2,0,0.3,0.1,0.4,0.2l0.1,0.1
			c0.2,0.4,0.1,1.3,1,1.5c0.5,0.1,0.9,0.3,1.4,0.2c-0.1,0.5-0.1,1,0.3,1.4c-0.5-0.3-0.9-0.2-1.4-0.7c-0.2-0.2-0.7-0.5-0.9-0.4
			c-0.1,0,0.1-0.3-0.1-0.4c-0.1,0-0.5,0-0.6,0.1c-0.3,0.5-0.6,0.5-0.7,0.6c0.1-0.1-0.5-0.6,0.3-0.9c0.1,0,0.1-0.2,0-0.2
			c-0.2-0.1-0.3,0-0.4,0.1c-0.2,0.1-0.2-0.3-0.5-0.1c-0.1-0.8,0.7-0.9,1.1-0.4c0,0,0.1,0,0.1-0.1L133.2,729.2z"/>
		<path fill="#231F20" d="M116.9,723.7l0,0.3c0,0.6,0,1.2,0,1.8c0.2,7.6,0.3,14.8,4.8,21.8c1.9,2.9,4.7,5.2,8.3,6.9l0.1,0l0.1,0
			c3.6-1.6,6.4-4,8.3-6.9c4.5-6.9,4.7-14.1,4.8-21.8c0-0.6,0-1.2,0-1.8l0-0.3H116.9z M119.7,742.4l10.5-8.3l10.4,8.2
			c-0.3,0.7-0.6,1.4-0.9,2l-9.5-7.5l-9.6,7.6C120.3,743.8,120,743.1,119.7,742.4z M138.2,747.2c-1.8,2.7-4.6,5-8,6.6
			c-3.4-1.6-6.2-3.9-8-6.6c-0.3-0.5-0.6-0.9-0.8-1.4l8.9-7l8.8,7C138.8,746.3,138.5,746.7,138.2,747.2z M142.9,725.7
			c-0.1,5.3-0.2,10.3-1.8,15.2l-11-8.7l-11,8.7c-1.6-4.9-1.7-9.9-1.8-15.2c0-0.5,0-1,0-1.5H143C143,724.7,142.9,725.2,142.9,725.7z"
			/>
	</g>
</g>
<g id="loblaws">
</g>
<g id="Layer_40">
</g>
<g id="Layer_41">
</g>
<g id="conrad">
</g>
</svg>
