<?xml version="1.0" encoding="utf-8"?>
<!-- Generator: Adobe Illustrator 17.1.0, SVG Export Plug-In . SVG Version: 6.00 Build 0)  -->
<!DOCTYPE svg PUBLIC "-//W3C//DTD SVG 1.1//EN" "http://www.w3.org/Graphics/SVG/1.1/DTD/svg11.dtd">
<svg version="1.1" xmlns="http://www.w3.org/2000/svg" xmlns:xlink="http://www.w3.org/1999/xlink" x="0px" y="0px"
	 viewBox="282 24 174 60" enable-background="new 282 24 174 60" xml:space="preserve">
<g id="estimote">
</g>
<g id="Layer_2">
</g>
<g id="Spark">
</g>
<g id="Layer_4">
	<g>
		<g>
			<path fill="#00A5DB" d="M421.8,40.4v2.1h-0.4v-2.1h-0.7V40h1.8v0.4H421.8z M424.8,42.5v-1.6l-0.5,1h-0.4l-0.5-1v1.6h-0.4V40h0.4
				l0.7,1.4l0.7-1.4h0.4v2.5H424.8z"/>
		</g>
		<g>
			<path fill="#00A5DB" d="M325.7,65.2c-5.2,0-9.5-1-12.9-4.5l5.4-5.4c1.8,1.8,4.9,2.4,7.6,2.4c3.3,0,4.9-1.1,4.9-3.1
				c0-0.8-0.2-1.5-0.7-2c-0.4-0.4-1.1-0.8-2.2-0.9l-4.1-0.6c-3-0.4-5.3-1.4-6.8-3c-1.6-1.6-2.3-3.9-2.3-6.8
				c0-6.2,4.7-10.8,12.4-10.8c4.9,0,8.6,1.1,11.5,4.1l-5.3,5.3c-2.2-2.2-5-2-6.5-2c-2.9,0-4.1,1.7-4.1,3.2c0,0.4,0.1,1.1,0.7,1.6
				c0.4,0.4,1.2,0.9,2.3,1l4.1,0.6c3.1,0.4,5.3,1.4,6.7,2.8c1.8,1.8,2.5,4.3,2.5,7.5C338.9,61.4,332.9,65.2,325.7,65.2z"/>
			<path fill="#00A5DB" d="M349.7,64.9c-5.7,0-8-4.1-8-7.6V30.8h7.8v25.9c0,1,0.5,1.6,1.6,1.6h2.7v6.6H349.7z"/>
			<path fill="#00A5DB" d="M367.3,67.9c-0.5,1.5-1.2,2.6-2,3.4c-1.5,1.6-3.5,2.2-5.8,2.2h-3v-7.1h1.7c1.4,0,2.1-0.3,2.6-1.9l0.7-2.2
				L353,39.1h8.2l4.4,13.4l4.2-13.4h8.2L367.3,67.9z"/>
			<path fill="#00A5DB" d="M389.6,65.2c-4.5,0-11.6-1.9-11.6-13.2c0-11.2,7.1-13.2,11.6-13.2c3.6,0,6.4,1.2,8.5,3.3l-5.3,5.3
				c-1-1-1.9-1.5-3.2-1.5c-1.1,0-1.8,0.3-2.4,1c-0.9,1-1.3,2.6-1.3,5.1c0,2.4,0.4,4.1,1.3,5.1c0.7,0.7,1.4,1,2.4,1
				c1.3,0,2.2-0.5,3.2-1.5l5.3,5.3C395.9,64,393.2,65.2,389.6,65.2z"/>
			<path fill="#00A5DB" d="M406.5,54.5c0,2.1,1.6,4,4.5,4c2.7,0,3.9-0.8,5.3-2.2l4.7,4.7c-2.6,2.6-5.2,4.1-10,4.1
				c-5.7,0-12.3-2.1-12.3-13.2c0-8.4,4.8-13.2,11.5-13.2c7.5,0,11.6,5.5,11.6,12.2v3.5H406.5z M413.7,47.3c-0.5-1.1-1.5-2-3.4-2
				c-1.9,0-2.9,0.9-3.4,2c-0.3,0.7-0.4,1.4-0.4,2h7.7C414.2,48.7,414.1,48,413.7,47.3z"/>
		</g>
	</g>
</g>
<g id="Layer_5">
</g>
<g id="Layer_6">
</g>
<g id="Base">
</g>
<g id="yelp">
</g>
<g id="Yext">
</g>
<g id="Estimote">
</g>
<g id="Kloudless">
</g>
<g id="Microsoft">
</g>
<g id="Big_Viking">
</g>
<g id="Guides">
</g>
</svg>
