<?xml version="1.0" encoding="utf-8"?>
<!-- Generator: Adobe Illustrator 17.1.0, SVG Export Plug-In . SVG Version: 6.00 Build 0)  -->
<!DOCTYPE svg PUBLIC "-//W3C//DTD SVG 1.1//EN" "http://www.w3.org/Graphics/SVG/1.1/DTD/svg11.dtd">
<svg version="1.1" xmlns="http://www.w3.org/2000/svg" xmlns:xlink="http://www.w3.org/1999/xlink" x="0px" y="0px"
	 viewBox="-89 -367 266 91.7" enable-background="new -89 -367 266 91.7" xml:space="preserve">
<g id="estimote">
</g>
<g id="Pebble">
</g>
<g id="Spark">
</g>
<g id="Layer_4">
</g>
<g id="Layer_5">
</g>
<g id="Layer_6">
</g>
<g id="Base">
</g>
<g id="yelp">
</g>
<g id="Yext">
</g>
<g id="Estimote">
</g>
<g id="Microsoft">
</g>
<g id="Big_Viking">
</g>
<g id="_x35_00px">
</g>
<g id="Magnet_Forensics">
</g>
<g id="Guides">
</g>
<g id="Wit.Ai" display="none">
</g>
<g id="Layer_18">
</g>
<g id="Kik">
</g>
<g id="Layer_20">
</g>
<g id="Affirm">
</g>
<g id="Shopify">
</g>
<g id="apple">
</g>
<g id="velocity">
</g>
<g id="pagerduty">
	<g>
		<g>
			<path fill="#47BA04" d="M-28.9-317.4c-0.6-1.1-1.3-2-2.2-2.7c-0.9-0.7-1.8-1.2-2.8-1.5c-1-0.3-1.9-0.5-2.8-0.5h-15v6h15
				c0.8,0,1.4,0.2,1.9,0.7c0.5,0.5,0.8,1.1,0.8,2v2.6h-11.5c-1.6,0-2.9,0.3-4,0.9c-1.1,0.6-2,1.3-2.7,2.2c-0.7,0.9-1.2,1.8-1.5,2.8
				c-0.3,1-0.5,2-0.5,2.8c0,1.6,0.3,2.9,0.9,4c0.6,1.1,1.3,2,2.2,2.7c0.9,0.7,1.8,1.2,2.8,1.5c1,0.3,1.9,0.5,2.8,0.5h8.8
				c1.6,0,2.9-0.3,4-0.9c1.1-0.6,2-1.3,2.7-2.2c0.7-0.9,1.2-1.8,1.5-2.8c0.3-1,0.5-1.9,0.5-2.8v-11.3C-28-315-28.3-316.3-28.9-317.4
				z M-34-302.2c0,0.8-0.2,1.4-0.7,1.9s-1.1,0.8-2,0.8h-8.8c-0.7,0-1.4-0.2-1.9-0.7c-0.5-0.5-0.8-1.1-0.8-1.9c0-0.8,0.2-1.4,0.7-1.9
				c0.5-0.5,1.1-0.8,2-0.8H-34V-302.2z"/>
		</g>
		<g>
			<path fill="#47BA04" d="M22.3-304.7c1.6,0,2.9-0.3,4-0.9c1.1-0.6,2-1.3,2.7-2.2c0.7-0.9,1.2-1.8,1.5-2.8c0.3-1,0.5-2,0.5-2.8
				c0-1.6-0.3-2.9-0.9-4c-0.6-1.1-1.3-2-2.2-2.7c-0.9-0.7-1.8-1.2-2.8-1.5c-1-0.3-2-0.5-2.8-0.5h-8.9c-1.6,0-2.9,0.3-4,0.9
				c-1.1,0.6-2,1.3-2.7,2.2c-0.7,0.9-1.2,1.8-1.5,2.8c-0.3,1-0.5,2-0.5,2.8v11.3c0,1.6,0.3,2.9,0.9,4c0.6,1.1,1.3,2,2.2,2.7
				c0.9,0.7,1.8,1.2,2.8,1.5c1,0.3,2,0.5,2.8,0.5h16.7v-6H13.5c-0.8,0-1.4-0.2-2-0.7c-0.5-0.5-0.8-1.1-0.8-2v-2.7H22.3z M10.7-313.3
				c0-0.8,0.2-1.4,0.7-2c0.5-0.5,1.1-0.8,2-0.8h8.9c0.7,0,1.4,0.2,1.9,0.7c0.5,0.5,0.8,1.1,0.8,1.9c0,0.8-0.2,1.4-0.7,2
				c-0.5,0.5-1.1,0.8-2,0.8H10.7V-313.3z"/>
		</g>
		<g>
			<path fill="#47BA04" d="M74.2-293.5C74.2-293.5,74.2-293.5,74.2-293.5l-9.5,0c-3.4,0-5.4-1.4-6.4-2.5c-2.1-2.3-2.1-5.3-2.1-6.1
				v-11.4c0-3.3,1.3-5.3,2.5-6.3c2.3-2.2,5.3-2.2,6.1-2.2h11.9v-10.3h6.1v30.4c0,3.1-1.3,5-2.3,6.1
				C77.9-293.6,74.8-293.5,74.2-293.5z M62.2-301.7c0,0.3,0.1,1.2,0.5,1.7c0.4,0.5,1.3,0.6,2,0.6h9.5c2.4,0,2.4-1.8,2.4-2.4v-14
				l-12.1,0c0,0,0,0,0,0c-0.3,0-1.2,0.1-1.7,0.6c-0.4,0.4-0.5,1-0.5,1.9L62.2-301.7z"/>
		</g>
		<g>
			<path fill="#47BA04" d="M-77.6-283.2h-6.1v-30.4c0-3.1,1.3-5,2.4-6.1c2.4-2.3,5.6-2.4,6.1-2.4h9.5c3.4,0,5.4,1.4,6.4,2.5
				c2.1,2.3,2.1,5.3,2.1,6.1v11.5c0,3.3-1.3,5.3-2.5,6.3c-2.3,2.2-5.4,2.2-6.1,2.2h-11.9V-283.2z M-65.4-299.6
				c0.3,0,1.2-0.1,1.7-0.6c0.4-0.4,0.5-1,0.5-1.9l0-11.8c0-0.3-0.1-1.2-0.5-1.7c-0.4-0.5-1.3-0.6-2-0.6h-9.6c-2.4,0-2.4,1.8-2.4,2.4
				v14.1L-65.4-299.6z"/>
		</g>
		<g>
			<path fill="#47BA04" d="M39.5-293.5h-6.1v-20.1c0-3.1,1.3-5,2.3-6.1c2.4-2.3,5.6-2.4,6.2-2.4h11.8v6.1H41.9
				c-2.4,0-2.4,1.8-2.4,2.4V-293.5z"/>
		</g>
		<g>
			<path fill="#47BA04" d="M94.3-293.4c-0.5,0-3.7-0.1-6.1-2.5c-1.1-1.1-2.3-3-2.3-6v-20.1h6.1v20.1c0,1.3,0.5,1.8,0.9,2
				c0.6,0.3,1.3,0.4,1.5,0.4l11.8,0v-22.6h6.1v28.6L94.3-293.4C94.3-293.4,94.3-293.4,94.3-293.4z"/>
		</g>
		<g>
			<path fill="#47BA04" d="M-7.3-283.5h-14.4v-6.1h14.4c1.5,0,2-0.6,2.4-1.2c0.4-0.7,0.5-1.5,0.5-1.7v-1.2h-11.4c-0.8,0-4,0-6.4-2.3
				c-1.2-1.1-2.6-3.2-2.6-6.7v-10.6c0-0.7,0-4,2.3-6.4c1.1-1.2,3.2-2.6,6.6-2.6h8.6c3.6,0,8.9,2.4,8.9,8.9v20.8
				C1.6-288.8-0.8-283.5-7.3-283.5z M-18.8-313.3l0,0.1l0,0v10.6c0,1.1,0.2,1.8,0.7,2.2c0.7,0.7,2,0.7,2,0.7l0.2,0h11.5l0-13.5
				c0-1.6-0.6-2.1-1.3-2.5c-0.8-0.4-1.6-0.4-1.6-0.4h-8.6c-1,0-1.8,0.2-2.2,0.7C-18.7-314.8-18.8-313.7-18.8-313.3z"/>
		</g>
		<g>
			<path fill="#47BA04" d="M162.8-283.4h-14.4v-6.1h14.4c1.5,0,2-0.6,2.4-1.2c0.4-0.7,0.5-1.5,0.5-1.7v-1.1h-11.5
				c-3.5,0-5.6-1.4-6.7-2.6c-2.3-2.5-2.3-5.7-2.3-6.4V-322h6.1l0,19.8c0,0.4,0.1,1.5,0.7,2.1c0.4,0.4,1.2,0.7,2.2,0.7h11.5v-22.6
				h6.1v29.8C171.6-288.7,169.2-283.4,162.8-283.4z"/>
		</g>
		<g>
			<polygon fill="#47BA04" points="131.7,-293.4 125.6,-293.4 125.6,-316 115.3,-316 115.3,-322.1 125.6,-322.1 125.6,-329.8 
				131.7,-329.8 131.7,-322.1 142,-322.1 142,-316 131.7,-316 			"/>
		</g>
	</g>
</g>
<g id="Layer_26">
</g>
<g id="bitalino">
</g>
<g id="TextNow">
</g>
<g id="Uber">
</g>
<g id="mars">
</g>
<g id="twilio">
</g>
<g id="wit-ai">
</g>
<g id="indiegogo">
</g>
<g id="Layer_34">
</g>
<g id="cisco">
</g>
<g id="teespring">
</g>
<g id="sendgrid">
</g>
<g id="kloudless">
</g>
<g id="uwaterloo">
</g>
</svg>
