<?xml version="1.0" encoding="utf-8"?>
<!-- Generator: Adobe Illustrator 17.1.0, SVG Export Plug-In . SVG Version: 6.00 Build 0)  -->
<!DOCTYPE svg PUBLIC "-//W3C//DTD SVG 1.1//EN" "http://www.w3.org/Graphics/SVG/1.1/DTD/svg11.dtd">
<svg version="1.1" xmlns="http://www.w3.org/2000/svg" xmlns:xlink="http://www.w3.org/1999/xlink" x="0px" y="0px"
	 viewBox="475 -38 266 91.8" enable-background="new 475 -38 266 91.8" xml:space="preserve">
<g id="estimote">
</g>
<g id="Pebble">
</g>
<g id="Spark">
</g>
<g id="Layer_4">
</g>
<g id="Layer_5">
</g>
<g id="Layer_6">
</g>
<g id="Base">
</g>
<g id="yelp">
</g>
<g id="Yext">
</g>
<g id="Estimote">
</g>
<g id="Microsoft">
</g>
<g id="Big_Viking">
</g>
<g id="_x35_00px">
</g>
<g id="Magnet_Forensics">
</g>
<g id="Guides">
</g>
<g id="Wit.Ai" display="none">
</g>
<g id="Layer_18">
</g>
<g id="Kik">
</g>
<g id="Layer_20">
</g>
<g id="Affirm">
</g>
<g id="Shopify">
</g>
<g id="apple">
</g>
<g id="velocity">
</g>
<g id="pagerduty">
</g>
<g id="Layer_26">
</g>
<g id="bitalino">
</g>
<g id="TextNow">
</g>
<g id="Uber">
</g>
<g id="mars">
</g>
<g id="twilio">
</g>
<g id="wit-ai">
</g>
<g id="indiegogo">
</g>
<g id="Layer_34">
</g>
<g id="cisco">
</g>
<g id="teespring">
</g>
<g id="sendgrid">
</g>
<g id="kloudless">
</g>
<g id="uwaterloo">
</g>
<g id="loblaws">
</g>
<g id="Layer_40">
</g>
<g id="Layer_41">
</g>
<g id="conrad">
</g>
<g id="ziggeo">
</g>
<g id="n36">
</g>
<g id="communitech">
</g>
<g id="Layer_46">
</g>
<g id="Backtrack">
</g>
<g id="Lani">
</g>
<g id="Taplytics">
</g>
<g id="Facebook">
	<rect x="526" y="-22.6" fill="#3664A2" width="164" height="61"/>
	<g>
		<path fill="#FFFFFF" d="M594.5,2.9c-6.1,0-7.8,3.2-7.8,7.2v3.7c0,4.5,2.4,7.6,8.3,7.6c2.7,0,4.1-0.1,6.9-0.7v-4.5
			c-2.9,0.5-4.2,0.6-6.4,0.6c-2.5,0-3.2-0.5-3.2-2.6v-0.4h10.1v-3.7C602.3,6.1,600.6,2.9,594.5,2.9 M596.8,10.1h-4.6V9.4
			c0-1.3,0.4-2.3,2.3-2.3c1.9,0,2.3,1,2.3,2.3V10.1z M629.9,2.9c-6.5,0-8.1,3.6-8.1,7.4v3.6c0,3.7,1.6,7.4,8.1,7.4
			c6.5,0,8-3.6,8-7.4v-3.6C637.9,6.6,636.4,2.9,629.9,2.9 M632.4,14.5c0,1.3-0.7,2.3-2.5,2.3c-1.9,0-2.5-1-2.5-2.3V9.8
			c0-1.3,0.7-2.3,2.5-2.3c1.9,0,2.5,1,2.5,2.3V14.5z M647.6,2.9c-6.5,0-8.1,3.6-8.1,7.4v3.6c0,3.7,1.6,7.4,8.1,7.4
			c6.5,0,8-3.6,8-7.4v-3.6C655.6,6.6,654.1,2.9,647.6,2.9 M650.1,14.5c0,1.3-0.7,2.3-2.5,2.3c-1.9,0-2.5-1-2.5-2.3V9.8
			c0-1.3,0.7-2.3,2.5-2.3c1.9,0,2.5,1,2.5,2.3V14.5z M571.2,10.5v3.2c0,4.5,2.4,7.6,8.3,7.6c1.4,0,3-0.1,5.5-0.7v-4.5
			c-2.9,0.5-3.7,0.6-5.1,0.6c-2.5,0-3.2-0.5-3.2-2.6v-4c0-2.1,0.7-2.6,3.2-2.6c1.4,0,2.2,0.1,5.1,0.6V3.6c-2.5-0.6-4.1-0.7-5.5-0.7
			C573.6,2.9,571.2,6,571.2,10.5 M554.7,3.2h-4.2l0-2.3c0-1.2,0.1-1.8,1.8-1.8h2.3v-4.6H551c-4.4,0-6,2.2-6,6v2.8h-2.8v4.6h2.8v13.4
			h5.5V7.8h3.7L554.7,3.2z M561.6,3.2h-5.2L556,7.8h4.7c2.9,0,3.1,0.6,3.1,2.4V11H560c-3.8,0-5.8,1.3-5.8,5c0,3.1,1.8,5.4,5.2,5.4
			c1.2,0,3.1-0.2,5.2-1.4l0.2,1.2h4.6V10.2C569.4,5.2,568,3.2,561.6,3.2 M563.8,16.7c-0.8,0.4-1.5,0.7-2.6,0.7
			c-1.1,0-1.5-0.5-1.5-1.5c0-1,0.5-1.2,1.7-1.2h2.5V16.7z M613.8,2.9c-1.4,0-3,0.2-4.1,0.7v-8.7l-5.5,0.9v24.9
			c3,0.5,4.6,0.7,7.3,0.7c7.5,0,8.8-3.2,8.8-7.5V9.4C620.3,5.4,619.3,2.9,613.8,2.9 M614.7,13.9c0,1.7-0.4,3-3.1,3
			c-0.7,0-1.2,0-2-0.1V8.3c0.8-0.4,1.6-0.7,2.8-0.7c1.9,0,2.3,1,2.3,2.3V13.9z M673.8,3.2h-6l-5.1,8V-5.1l-5.5,0.9v25.3h5.5v-8.4
			l5.1,8.4h6l-5.5-9.2L673.8,3.2z"/>
	</g>
</g>
</svg>
