<?xml version="1.0" encoding="utf-8"?>
<!-- Generator: Adobe Illustrator 17.1.0, SVG Export Plug-In . SVG Version: 6.00 Build 0)  -->
<!DOCTYPE svg PUBLIC "-//W3C//DTD SVG 1.1//EN" "http://www.w3.org/Graphics/SVG/1.1/DTD/svg11.dtd">
<svg version="1.1" xmlns="http://www.w3.org/2000/svg" xmlns:xlink="http://www.w3.org/1999/xlink" x="0px" y="0px"
	 viewBox="190 -367 266 91.7" enable-background="new 190 -367 266 91.7" xml:space="preserve">
<g id="estimote">
</g>
<g id="Pebble">
</g>
<g id="Spark">
</g>
<g id="Layer_4">
</g>
<g id="Layer_5">
</g>
<g id="Layer_6">
</g>
<g id="Base">
</g>
<g id="yelp">
</g>
<g id="Yext">
</g>
<g id="Estimote">
</g>
<g id="Kloudless">
</g>
<g id="Microsoft">
</g>
<g id="Big_Viking">
</g>
<g id="_x35_00px">
</g>
<g id="Magnet_Forensics">
</g>
<g id="Guides">
</g>
<g id="Wit.Ai" display="none">
</g>
<g id="Layer_18">
</g>
<g id="Kik">
</g>
<g id="Layer_20">
</g>
<g id="Affirm">
</g>
<g id="Shopify">
</g>
<g id="apple">
</g>
<g id="velocity">
</g>
<g id="pagerduty">
</g>
<g id="Layer_26">
	<g>
		<g>
			<path fill="#A0272F" d="M393.7-340C393.7-340,393.7-340,393.7-340c-0.2-0.5-0.5-1.1-1-1.6c-11-12.1-81.5-1.2-111.5,5.3l-0.7,0.2
				c-0.1,0-0.2,0.2-0.2,0.3c0,0.1,0.2,0.2,0.3,0.2l0.7-0.1c24.9-4.4,76.6-10.6,87.7,0.5c3.4,3.4,2.6,7.7-1.3,12.8
				c2.1,1.4,3.6,3.5,4.3,6.2c0.5-0.3,0.9-0.6,1.4-0.9c-0.4,0.3-0.9,0.6-1.4,0.9c0.1,0.5,0.2,1,0.3,1.5c0,0,0.1,0,0.1-0.1
				C389.6-325.4,399-332,393.7-340z M394-338.3c0-0.1,0-0.2,0-0.3C394-338.4,394-338.3,394-338.3z M393.9-339.4c0-0.1,0-0.2-0.1-0.3
				C393.8-339.6,393.9-339.5,393.9-339.4z M394-338.9c0-0.1,0-0.2,0-0.3C394-339,394-338.9,394-338.9z M392.8-334.6
				c0,0.1-0.1,0.1-0.1,0.2C392.7-334.5,392.8-334.5,392.8-334.6z M394-337.9c0,0.1,0,0.2,0,0.3C393.9-337.7,393.9-337.8,394-337.9z
				 M393.9-337.3c0,0.1,0,0.2-0.1,0.3C393.8-337.1,393.8-337.2,393.9-337.3z M393.7-336.6c0,0.1-0.1,0.2-0.1,0.3
				C393.6-336.4,393.7-336.5,393.7-336.6z M393.5-336c0,0.1-0.1,0.2-0.1,0.3C393.4-335.8,393.4-335.9,393.5-336z M393.2-335.3
				c0,0.1-0.1,0.2-0.1,0.3C393.1-335.1,393.1-335.2,393.2-335.3z M387.8-328.5c0.1-0.1,0.3-0.3,0.4-0.4
				C388.1-328.7,388-328.6,387.8-328.5z M373.8-317.4c0.3-0.2,0.6-0.4,0.9-0.6C374.4-317.9,374.1-317.7,373.8-317.4z M375.2-318.4
				c0.3-0.2,0.5-0.4,0.8-0.6C375.7-318.8,375.5-318.6,375.2-318.4z M376.5-319.3c0.2-0.2,0.5-0.3,0.7-0.5
				C377-319.7,376.8-319.5,376.5-319.3z M377.8-320.3c0.2-0.2,0.5-0.3,0.7-0.5C378.3-320.6,378-320.4,377.8-320.3z M379-321.2
				c0.2-0.2,0.4-0.3,0.7-0.5C379.5-321.5,379.3-321.3,379-321.2z M380.2-322.1c0.2-0.2,0.4-0.3,0.6-0.5
				C380.6-322.4,380.4-322.2,380.2-322.1z M381.4-323c0.2-0.2,0.4-0.3,0.6-0.5C381.8-323.3,381.6-323.1,381.4-323z M382.5-323.8
				c0.2-0.2,0.4-0.3,0.6-0.5C382.9-324.2,382.7-324,382.5-323.8z M383.6-324.7c0.2-0.2,0.4-0.4,0.6-0.5
				C384-325.1,383.8-324.9,383.6-324.7z M385-325.9c0.2-0.2,0.4-0.3,0.6-0.5C385.4-326.2,385.2-326,385-325.9z M386-326.8
				c0.2-0.1,0.3-0.3,0.5-0.4C386.3-327.1,386.2-327,386-326.8z M387-327.7c0.1-0.1,0.3-0.3,0.4-0.4
				C387.2-327.9,387.1-327.8,387-327.7z M391.4-332.4c0.1-0.1,0.2-0.2,0.2-0.3C391.5-332.6,391.5-332.5,391.4-332.4z M388.6-329.3
				c0.1-0.1,0.2-0.2,0.4-0.4C388.9-329.6,388.8-329.4,388.6-329.3z M389.4-330.1c0.1-0.1,0.2-0.2,0.3-0.4
				C389.6-330.3,389.5-330.2,389.4-330.1z M390.1-330.9c0.1-0.1,0.2-0.2,0.3-0.3C390.3-331.1,390.2-331,390.1-330.9z M390.8-331.7
				c0.1-0.1,0.2-0.2,0.3-0.3C391-331.9,390.9-331.8,390.8-331.7z M392.1-333.4c-0.1,0.1-0.1,0.2-0.2,0.3
				C392-333.3,392-333.4,392.1-333.4z"/>
			<path fill="#A0272F" d="M347.1-304.6C347.1-304.6,347.1-304.6,347.1-304.6c-7,4.9-15.2,10.1-24.1,15.5l-0.3,0.2
				c-0.1,0.1-0.1,0.2-0.1,0.4c0.1,0.1,0.2,0.1,0.4,0.1l0.3-0.2c1.2-0.6,2.4-1.2,3.6-1.9c-0.2,0.1-0.3,0.2-0.5,0.3
				c8.7-3.9,15.8-7.4,22.5-11c-0.2-0.3-0.4-0.6-0.6-0.9C347.8-302.8,347.4-303.7,347.1-304.6z M345.2-300.4c1-0.5,1.9-1.1,2.9-1.6
				C347.2-301.4,346.2-300.9,345.2-300.4z M331.4-292.9c0.1,0,0.1-0.1,0.2-0.1C331.5-293,331.5-292.9,331.4-292.9z M334-294.3
				c0.1-0.1,0.2-0.1,0.4-0.2C334.2-294.4,334.1-294.3,334-294.3z M336.7-295.7c0.2-0.1,0.4-0.2,0.5-0.3
				C337-295.9,336.9-295.8,336.7-295.7z M339.5-297.2c0.2-0.1,0.4-0.2,0.6-0.3C339.9-297.5,339.7-297.4,339.5-297.2z M342.3-298.8
				c0.3-0.2,0.6-0.3,0.9-0.5C342.9-299.1,342.6-298.9,342.3-298.8z"/>
		</g>
		<g id="Wordmark">
			<path fill="#003A6F" d="M351.6-307.8c0.1,4.3,2.8,7.7,6.3,7.7c6.8,0,9.7-8.4,9.5-13.9c-0.1-4.3-2.9-7.7-6.4-7.7
				C355.1-321.7,351.4-313.4,351.6-307.8z M348-308c-0.3-7.3,5.4-14.7,13.7-14.7c5.5,0,9.1,3.7,9.3,9.3c0.3,7.7-5.1,14.7-13.7,14.7
				C351.8-298.7,348.2-302.4,348-308z"/>
			<path fill="#003A6F" d="M269.7-309.9c-0.3,0.1-0.7,0.2-1.1,0.3c-0.5,0.1-1.3,0.3-2.6,0.5c-0.9,0.1-1.5,0.3-1.8,0.6
				c-0.3,0.2-0.5,0.5-0.6,0.9c-0.1,0.4,0.1,0.7,0.4,0.9c0.3,0.2,0.9,0.3,1.7,0.3c0.6,0,1.2-0.1,1.7-0.3c0.6-0.2,1-0.4,1.4-0.7
				c0.3-0.2,0.5-0.5,0.6-0.9C269.4-308.6,269.5-309.1,269.7-309.9z M276.8-314.4c0,0.7-0.1,1.3-0.3,2.3l-1.2,6.8
				c-0.1,0.6,0.1,1.1,0.7,1.4l0,0.3l-7,0l-0.1-1.7c-1,0.6-2.2,1.1-3.3,1.4c-1.1,0.3-2,0.4-3.3,0.4c-2.2,0-3.5-0.2-4.4-1
				c-0.9-0.8-1.3-1.3-1.3-2.4c0-0.6,0.4-1.5,0.8-2c0.5-0.6,1.1-1,1.9-1.3c0.7-0.3,1.6-0.6,2.8-0.8c1.2-0.2,2.9-0.4,5.2-0.6
				c1.2-0.1,1.9-0.4,2.3-0.5c0.5-0.2,0.7-0.4,0.7-0.8c0.1-0.7-0.1-1.1-1-1.3c-2.5-0.5-7.2,0.3-9.6,0.9l1.3-3.6
				c3.2-0.5,6.2-0.8,9.3-0.8C275.3-317.7,276.9-316.2,276.8-314.4z"/>
			<path fill="#003A6F" d="M297-303.6l2.4-13.6h6.7l-2.4,13.6H297z M299.8-320.4c0.2-1.1,2-2,3.9-2c2,0,3.4,0.9,3.2,2
				c-0.2,1.1-2,2-4,2C301-318.4,299.6-319.3,299.8-320.4z"/>
			<path fill="#003A6F" d="M329.8-309.9c-0.3,0.1-0.7,0.2-1.2,0.3c-0.5,0.1-1.3,0.2-2.6,0.5c-0.9,0.1-1.5,0.3-1.8,0.6
				c-0.3,0.2-0.5,0.5-0.6,0.9c-0.1,0.4,0.1,0.7,0.4,0.9c0.3,0.2,0.9,0.3,1.7,0.3c0.6,0,1.1-0.1,1.7-0.3c0.6-0.2,1-0.4,1.4-0.7
				c0.3-0.2,0.5-0.5,0.6-0.9C329.5-308.6,329.6-309.1,329.8-309.9z M337-314.4c0,0.7-0.1,1.3-0.3,2.3l-1.2,6.8
				c-0.1,0.6,0.1,1.1,0.7,1.4l0,0.2l-7,0l-0.1-1.7c-1,0.6-2.2,1.1-3.3,1.4c-1.1,0.3-2,0.4-3.3,0.4c-2.2,0-3.5-0.2-4.4-1
				c-0.9-0.8-1.3-1.3-1.3-2.4c0-0.6,0.4-1.5,0.8-2c0.5-0.6,1.1-1,1.9-1.3c0.7-0.3,1.6-0.6,2.8-0.8c1.2-0.2,3-0.4,5.3-0.6
				c1.2-0.1,1.9-0.4,2.3-0.5c0.5-0.2,0.7-0.4,0.7-0.8c0.1-0.7-0.1-1.1-1-1.3c-2.5-0.5-7.2,0.3-9.6,0.9l1.3-3.5
				c3.2-0.5,6.2-0.8,9.3-0.8C335.4-317.6,337-316.2,337-314.4z"/>
			<path fill="#003A6F" d="M255.6-308.5c-2.2,0.4-3.4,0.6-5.5,0.6c-3.2,0-5.7-1.6-5.6-4.5c0.1-1.9,2.4-6,8.2-6
				c1.8,0,3.3,0.3,5.2,1.4l0.8-4.7c-2.6-1-4.3-1.1-6.6-1.1c-7.6,0.1-14.9,3.5-15.8,10.6c-0.9,7.2,7.8,9,11.7,8.9
				c2.2,0,4.6-0.1,6.7-0.3L255.6-308.5z"/>
			<path fill="#003A6F" d="M309.8-317.4l0.5-2.8l7-1.5l-0.7,4.3l3.4,0l-0.6,2.7l-3.3,0l-2,11c0,0-6.7,0-6.7,0l2-10.9h-2.5l0.5-2.8
				H309.8z"/>
			<polygon fill="#003A6F" points="343.7,-303.7 336.9,-303.6 340.3,-322.7 347,-322.5 			"/>
			<path fill="#003A6F" d="M288.2-314.1c-0.9,0-1.7,0.3-2.4,0.8c-0.7,0.5-1.1,1.3-1.3,2.3c-0.2,1.2-0.1,2,0.4,2.6
				c0.5,0.5,1.2,0.8,2.1,0.8c0.6,0,1.2-0.1,1.7-0.3c0.6-0.3,1-0.6,1.3-1.1c0.4-0.5,0.6-1.1,0.7-1.8c0.2-1.1,0-1.9-0.5-2.4
				C289.7-313.8,289.1-314.1,288.2-314.1z M276.1-298.9l3.2-18.3h5.9l-0.5,2.3c0.5-0.7,1.3-1.3,2.4-1.7c1.1-0.5,2.4-0.8,3.8-0.8
				c1.5,0,2.5,0.1,3.6,0.7c1.1,0.6,1.9,1.5,2.4,2.6c0.4,1.1,0.5,2.4,0.3,3.7c-0.4,2.3-1.5,4-3.3,5.3c-1.8,1.3-3.4,1.6-5.7,1.7
				c-0.8,0-1.5-0.1-2.1-0.2c-0.6-0.1-1-0.3-1.3-0.5c-0.3-0.2-0.7-0.5-1.1-1l-1.1,6.3H276.1z"/>
			<path fill="#003A6F" d="M397.1-312.4c0-1.1-0.6-1.8-1.7-1.8c-2.7,0-5.6,5.4-6.1,7.5C393.7-306.7,397.2-309.4,397.1-312.4z
				 M397.6-304l0.5,0.4c-1.3,2.7-4.1,4.9-7.2,4.9c-2.6,0-4.7-1.7-4.9-5c-0.2-5.8,5.3-11.3,9.7-11.3c1.9,0,3.7,0.8,3.8,2.9
				c0.2,4.6-6.4,6.1-10.7,6.2c-0.1,0.5-0.2,1-0.2,1.7c0.1,1.9,1.2,3.5,3.6,3.5C394.5-300.7,396.6-302.4,397.6-304z"/>
			<path fill="#003A6F" d="M370.9-312.6c0.5-0.1,1.2-0.1,1.5-0.1c0.5,0,1,0.1,1,0.6c0,0.3-0.5,2.4-0.6,2.8l-1,4.6
				c-0.4,1.9-0.9,3.8-1.3,5.4h2.7l1.5-7.3c4.6-4.8,6.3-6.3,7.4-6.3c0.5,0,0.8,0.3,0.8,0.8c0,0.8-0.5,2.7-0.7,3.3l-1.5,5.3
				c-0.3,1.2-0.6,2.3-0.6,3c0,1.2,0.7,1.7,1.8,1.7c2,0,3.4-2,4.6-4l-0.4-0.7c-0.5,0.8-1.7,2.6-2.6,2.6c-0.3,0-0.6-0.2-0.6-0.7
				c0-0.6,0.2-1.5,0.4-2.2l1.7-6.2c0.5-1.7,0.7-2.8,0.7-3.4c0-1.2-0.7-1.7-1.8-1.7c-1.8,0-4.1,1.3-9,7h-0.1l0.6-2.8
				c0.3-1.5,0.7-3.1,1-4.2c-1.7,0.6-4.2,1.3-5.7,1.6L370.9-312.6z"/>
		</g>
		<path id="Trademark" fill="#003A6F" d="M400-317.5c0-1.4,1.1-2.4,2.4-2.4c1.3,0,2.4,1,2.4,2.4c0,1.4-1.1,2.4-2.4,2.4
			C401.1-315.1,400-316.1,400-317.5z M402.4-315.5c1.1,0,1.9-0.8,1.9-2c0-1.1-0.8-2-1.9-2c-1.1,0-1.9,0.8-1.9,2
			C400.5-316.3,401.3-315.5,402.4-315.5z M401.9-316.1h-0.4v-2.7h1c0.6,0,1,0.2,1,0.8c0,0.5-0.3,0.7-0.7,0.8l0.8,1.2h-0.5l-0.7-1.2
			h-0.5V-316.1z M402.4-317.7c0.4,0,0.7,0,0.7-0.5c0-0.3-0.3-0.4-0.6-0.4h-0.6v0.9H402.4z"/>
	</g>
</g>
<g id="bitalino">
</g>
<g id="TextNow">
</g>
<g id="Uber">
</g>
<g id="mars">
</g>
<g id="twilio">
</g>
<g id="wit-ai">
</g>
</svg>
