<?xml version="1.0" encoding="utf-8"?>
<!-- Generator: Adobe Illustrator 17.1.0, SVG Export Plug-In . SVG Version: 6.00 Build 0)  -->
<!DOCTYPE svg PUBLIC "-//W3C//DTD SVG 1.1//EN" "http://www.w3.org/Graphics/SVG/1.1/DTD/svg11.dtd">
<svg version="1.1" xmlns="http://www.w3.org/2000/svg" xmlns:xlink="http://www.w3.org/1999/xlink" x="0px" y="0px"
	 viewBox="98 100 174 60" enable-background="new 98 100 174 60" xml:space="preserve">
<g id="estimote">
</g>
<g id="Layer_2">
</g>
<g id="Spark">
</g>
<g id="Layer_4">
</g>
<g id="Layer_5">
</g>
<g id="Layer_6">
</g>
<g id="Base">
</g>
<g id="yelp">
</g>
<g id="Yext">
	
		<image display="none" overflow="visible" width="800" height="274" xlink:href="../yext.png"  transform="matrix(0.1337 0 0 0.1337 131.0703 110.8771)">
	</image>
	<g>
		<path fill="#54646C" d="M203.4,128.5c-0.2-0.3-2-2.9-4.1-5.7l-3.7-5.1l-2.8,0c-2.1,0-2.7,0-2.7,0c0.1,0.2,2.2,3.3,4.2,6
			c2,2.7,3.7,5.1,3.7,5.2c0,0.2-1.8,2.7-4,5.7c-2.2,3-3.9,5.9-3.9,5.9s3.5,0,5.2,0l4.2-5.8C202.2,131.1,203.6,128.8,203.4,128.5z"/>
		<path fill="#54646C" d="M181.1,130.9l8.5,0l-0.1-2.7c-0.7-6.9-4.6-10.9-10.9-10.9c-3.6,0-5.8,1-8.2,3.6c-2.2,2.4-3,4.6-3,8.4
			c0,5.5,3.2,9.8,8.4,11.2c4,1.1,9.2-0.1,11.6-2.7c0.6-0.6,0.9-1.1,0.8-1.2c-0.1-0.1-0.7-0.6-1.4-1.1l-1.2-1l-2,1.2
			c-1.5,0.9-2.6,1.2-4.5,1.2c-2.8,0-4.1-0.7-5.8-3.2c-0.7-1-1.5-2.6-1.5-2.6S175.1,130.9,181.1,130.9z M171.9,127.3
			c0,0,0.4-1.4,1-2.6c1-2.1,3.3-3.6,5.4-3.6c3.1,0,6,2.6,6,5.3c0,0.2,0,0.9,0,0.9s-1.9,0-6,0C174.5,127.3,171.9,127.3,171.9,127.3z"
			/>
		<path fill="#54646C" d="M158.7,126.3c-1.5,4.4-2.9,8-3,8s-0.7-1.2-1.3-2.8c-0.6-1.5-2-5.3-3.2-8.4l-2.2-5.6c-2,0-3.3,0-5.2,0
			c0,0.1,2.1,5.3,4.6,11.4c2.5,6.1,4.6,11.3,4.6,11.6c0,0.3-0.5,1.1-1.1,1.7c-0.9,0.9-1.4,1-3.2,0.8c-2.1-0.3-2.2-0.2-2.9,1.3
			c-0.4,0.8-0.7,1.6-0.7,1.7c0,0.2,2.1,1,3.3,1.3c1.7,0.4,4.9-0.2,6.2-1.3c1.8-1.4,2.4-2.2,7.7-16.1l4.7-12.3c-1.9,0-5.1,0-5.1,0
			C161.9,117.6,160.3,121.9,158.7,126.3z"/>
		<path fill="#54646C" d="M220.2,127.8l0-6.2h3.3l3.2,0c0-1.3,0-2.2,0-3.9h-3.2h-3.3l0-3.4l0-3.3l-2.6,0h-2.3c0,2.8,0,17.8,0,27
			c0,1,3.7,2.6,6.1,2.6c1.4,0,3.1-0.2,3.8-0.4c1-0.4,1.1-0.7,1.1-2.3v-1.9l-2.5,0C220.2,135.9,220.2,135.4,220.2,127.8z"/>
		<path fill="#54646C" d="M202.5,123.2c0,0,2.8,3.6,2.8,3.6l6.8-9.1h-5.6C206.6,117.6,202.6,123.2,202.5,123.2z"/>
		<path fill="#54646C" d="M202.5,134.6l4,5.9h5.5l-6.8-9.6C205.3,131,202.5,134.6,202.5,134.6z"/>
	</g>
</g>
<g id="Estimote">
</g>
<g id="Kloudless">
</g>
<g id="Microsoft">
</g>
<g id="Big_Viking">
</g>
<g id="Guides">
</g>
</svg>
