<?xml version="1.0" encoding="utf-8"?>
<!-- Generator: Adobe Illustrator 17.1.0, SVG Export Plug-In . SVG Version: 6.00 Build 0)  -->
<!DOCTYPE svg PUBLIC "-//W3C//DTD SVG 1.1//EN" "http://www.w3.org/Graphics/SVG/1.1/DTD/svg11.dtd">
<svg version="1.1" xmlns="http://www.w3.org/2000/svg" xmlns:xlink="http://www.w3.org/1999/xlink" x="0px" y="0px"
	 viewBox="473 700 174 60" enable-background="new 473 700 174 60" xml:space="preserve">
<g id="estimote">
</g>
<g id="Pebble">
</g>
<g id="Spark">
</g>
<g id="Layer_4">
</g>
<g id="Layer_5">
</g>
<g id="Layer_6">
</g>
<g id="Base">
</g>
<g id="yelp">
</g>
<g id="Yext">
</g>
<g id="Estimote">
</g>
<g id="Microsoft">
</g>
<g id="Big_Viking">
</g>
<g id="_x35_00px">
</g>
<g id="Magnet_Forensics">
</g>
<g id="Guides">
</g>
<g id="Wit.Ai" display="none">
</g>
<g id="Layer_18">
</g>
<g id="Kik">
</g>
<g id="Layer_20">
</g>
<g id="Affirm">
</g>
<g id="Shopify">
</g>
<g id="apple">
</g>
<g id="velocity">
</g>
<g id="pagerduty">
</g>
<g id="Layer_26">
</g>
<g id="bitalino">
</g>
<g id="TextNow">
</g>
<g id="Uber">
</g>
<g id="mars">
</g>
<g id="twilio">
</g>
<g id="wit-ai">
</g>
<g id="indiegogo">
</g>
<g id="Layer_34">
</g>
<g id="cisco">
</g>
<g id="teespring">
</g>
<g id="sendgrid">
</g>
<g id="kloudless">
</g>
<g id="uwaterloo">
</g>
<g id="loblaws">
</g>
<g id="Layer_40">
</g>
<g id="Layer_41">
</g>
<g id="conrad">
</g>
<g id="ziggeo">
</g>
<g id="n36">
</g>
<g id="communitech">
</g>
<g id="Layer_46">
</g>
<g id="Backtrack">
</g>
<g id="Lani">
</g>
<g id="Taplytics">
	<g>
		<g>
			<path fill="#211F1F" d="M535.8,727.2h-3.1v8.2h-3v-8.2h-3.1v-2.6h9.2V727.2z"/>
			<path fill="#211F1F" d="M537.9,735.4l4-10.8h2.4l4,10.8h-3.1l-0.7-2.1h-2.9l-0.6,2.1H537.9z M543.2,727.7l-1,3.6h2L543.2,727.7z"
				/>
			<path fill="#211F1F" d="M552.2,735.4v-10.8h4.7c0.5,0,1,0.1,1.5,0.3c0.4,0.2,0.8,0.5,1.2,0.9c0.3,0.4,0.6,0.8,0.8,1.2
				c0.2,0.4,0.3,0.9,0.3,1.4c0,0.5-0.1,0.9-0.3,1.4c-0.2,0.5-0.4,0.9-0.7,1.2c-0.3,0.4-0.7,0.6-1.1,0.8c-0.4,0.2-0.9,0.3-1.5,0.3
				h-1.8v3.3H552.2z M555.2,729.5h1.6c0.2,0,0.4-0.1,0.5-0.3c0.2-0.2,0.2-0.5,0.2-0.9c0-0.4-0.1-0.8-0.3-0.9
				c-0.2-0.2-0.4-0.2-0.6-0.2h-1.5V729.5z"/>
			<path fill="#211F1F" d="M564.7,735.4v-10.8h3v8.2h4.9v2.6H564.7z"/>
			<path fill="#211F1F" d="M577.4,724.6l1.9,4.7l2-4.7h3.2l-3.7,7.2v3.6h-3v-3.6l-3.7-7.2H577.4z"/>
			<path fill="#211F1F" d="M596.8,727.2h-3.1v8.2h-3v-8.2h-3.1v-2.6h9.2V727.2z"/>
			<path fill="#211F1F" d="M600.9,735.4v-10.8h3v10.8H600.9z"/>
			<path fill="#211F1F" d="M608.2,729.9c0-0.7,0.1-1.3,0.3-2c0.2-0.6,0.6-1.2,1-1.7c0.4-0.5,1-0.9,1.6-1.2c0.6-0.3,1.4-0.5,2.2-0.5
				c1,0,1.8,0.2,2.5,0.6c0.7,0.4,1.3,1,1.6,1.7l-2.3,1.6c-0.1-0.3-0.2-0.5-0.4-0.7c-0.1-0.2-0.3-0.3-0.5-0.4
				c-0.2-0.1-0.4-0.2-0.5-0.2c-0.2,0-0.4-0.1-0.5-0.1c-0.4,0-0.7,0.1-1,0.3c-0.3,0.2-0.5,0.4-0.7,0.7c-0.2,0.3-0.3,0.6-0.4,0.9
				c-0.1,0.3-0.1,0.7-0.1,1c0,0.4,0,0.7,0.1,1.1c0.1,0.3,0.2,0.6,0.4,0.9c0.2,0.3,0.4,0.5,0.7,0.6c0.3,0.2,0.6,0.2,0.9,0.2
				c0.2,0,0.3,0,0.5-0.1c0.2,0,0.4-0.1,0.5-0.2c0.2-0.1,0.3-0.2,0.5-0.4c0.1-0.2,0.2-0.4,0.3-0.6l2.4,1.4c-0.2,0.4-0.4,0.8-0.7,1.1
				c-0.3,0.3-0.7,0.6-1.1,0.8c-0.4,0.2-0.8,0.4-1.3,0.5c-0.4,0.1-0.9,0.2-1.3,0.2c-0.8,0-1.4-0.2-2.1-0.5c-0.6-0.3-1.2-0.7-1.6-1.3
				c-0.4-0.5-0.8-1.1-1.1-1.8C608.3,731.3,608.2,730.6,608.2,729.9z"/>
			<path fill="#211F1F" d="M628.3,728.1c-0.3-0.2-0.6-0.3-0.9-0.5c-0.3-0.1-0.6-0.2-0.9-0.3c-0.3-0.1-0.7-0.2-1-0.2
				c-0.3,0-0.5,0-0.6,0.1c-0.2,0.1-0.2,0.2-0.2,0.4c0,0.1,0,0.3,0.1,0.3c0.1,0.1,0.2,0.2,0.4,0.3c0.2,0.1,0.4,0.2,0.6,0.2
				c0.2,0.1,0.5,0.2,0.8,0.3c0.5,0.2,0.9,0.3,1.4,0.5c0.4,0.2,0.7,0.4,1,0.6c0.3,0.2,0.5,0.6,0.7,0.9c0.2,0.4,0.2,0.8,0.2,1.3
				c0,0.6-0.1,1.2-0.4,1.6c-0.2,0.4-0.6,0.8-0.9,1.1c-0.4,0.3-0.8,0.5-1.3,0.6c-0.5,0.1-1,0.2-1.5,0.2c-0.4,0-0.8,0-1.2-0.1
				c-0.4-0.1-0.8-0.1-1.2-0.3c-0.4-0.1-0.8-0.2-1.2-0.4c-0.4-0.2-0.7-0.3-1.1-0.5l1.3-2.6c0.4,0.2,0.7,0.4,1.1,0.6
				c0.3,0.2,0.7,0.3,1.1,0.4c0.4,0.1,0.8,0.2,1.3,0.2c0.3,0,0.6,0,0.7-0.1c0.1-0.1,0.2-0.2,0.2-0.3c0-0.2-0.1-0.3-0.2-0.4
				c-0.1-0.1-0.3-0.2-0.5-0.3c-0.2-0.1-0.5-0.2-0.8-0.2c-0.3-0.1-0.6-0.2-0.9-0.3c-0.5-0.2-0.9-0.3-1.2-0.5
				c-0.3-0.2-0.6-0.4-0.9-0.6c-0.2-0.2-0.4-0.5-0.5-0.8c-0.1-0.3-0.2-0.7-0.2-1.1c0-0.6,0.1-1.1,0.3-1.6c0.2-0.5,0.5-0.8,0.9-1.1
				c0.4-0.3,0.8-0.5,1.3-0.7c0.5-0.2,1-0.2,1.5-0.2c0.4,0,0.8,0,1.2,0.1c0.4,0.1,0.7,0.2,1.1,0.3c0.4,0.1,0.7,0.2,1,0.4
				c0.3,0.1,0.6,0.3,0.8,0.4L628.3,728.1z"/>
		</g>
		<g>
			<polygon fill="#211F1F" points="495.3,724.6 495.3,727.6 499.2,727.6 499.2,735.4 502.2,735.4 502.2,724.6 			"/>
			<polygon fill="#211F1F" points="508.1,732.4 508.1,724.6 505.1,724.6 505.1,735.4 512,735.4 512,732.4 			"/>
		</g>
		<path fill="#211F1F" d="M490.1,719.5v21.1h27v-21.1H490.1z M516.2,739.6h-25.1v-19.1h25.1V739.6z"/>
	</g>
</g>
<g id="Facebook">
</g>
<g id="Layer_51">
</g>
</svg>
