<?xml version="1.0" encoding="utf-8"?>
<!-- Generator: Adobe Illustrator 17.1.0, SVG Export Plug-In . SVG Version: 6.00 Build 0)  -->
<!DOCTYPE svg PUBLIC "-//W3C//DTD SVG 1.1//EN" "http://www.w3.org/Graphics/SVG/1.1/DTD/svg11.dtd">
<svg version="1.1" xmlns="http://www.w3.org/2000/svg" xmlns:xlink="http://www.w3.org/1999/xlink" x="0px" y="0px"
	 viewBox="190 -477 266 91.7" enable-background="new 190 -477 266 91.7" xml:space="preserve">
<g id="estimote">
</g>
<g id="Pebble">
</g>
<g id="Spark">
</g>
<g id="Layer_4">
</g>
<g id="Layer_5">
</g>
<g id="Layer_6">
</g>
<g id="Base">
</g>
<g id="yelp">
</g>
<g id="Yext">
</g>
<g id="Estimote">
</g>
<g id="Kloudless">
</g>
<g id="Microsoft">
</g>
<g id="Big_Viking">
</g>
<g id="_x35_00px">
</g>
<g id="Magnet_Forensics">
</g>
<g id="Guides">
</g>
<g id="Wit.Ai" display="none">
</g>
<g id="Layer_18">
</g>
<g id="Kik">
</g>
<g id="Layer_20">
</g>
<g id="Affirm">
</g>
<g id="Shopify">
</g>
<g id="apple">
</g>
<g id="velocity">
	<g>
		<g>
			<path fill="#231F20" d="M392.7-443.9c-1.4,0-2.5,1.1-2.5,2.5c0,1.4,1.1,2.5,2.5,2.5c1.4,0,2.5-1.1,2.5-2.5
				C395.2-442.8,394.1-443.9,392.7-443.9"/>
			<path fill="#231F20" d="M399.1-443.9c-1.4,0-2.5,1.1-2.5,2.5c0,1.4,1.1,2.5,2.5,2.5c1.4,0,2.5-1.1,2.5-2.5
				C401.7-442.8,400.5-443.9,399.1-443.9"/>
			<path fill="#231F20" d="M405.6-443.9c-1.4,0-2.5,1.1-2.5,2.5c0,1.4,1.1,2.5,2.5,2.5c1.4,0,2.5-1.1,2.5-2.5
				C408.1-442.8,407-443.9,405.6-443.9"/>
			<path fill="#231F20" d="M412-443.9c-1.4,0-2.5,1.1-2.5,2.5c0,1.4,1.1,2.5,2.5,2.5c1.4,0,2.5-1.1,2.5-2.5
				C414.6-442.8,413.4-443.9,412-443.9"/>
			<path fill="#231F20" d="M418.5-443.9c-1.4,0-2.5,1.1-2.5,2.5c0,1.4,1.1,2.5,2.5,2.5c1.4,0,2.5-1.1,2.5-2.5
				C421-442.8,419.9-443.9,418.5-443.9"/>
			<path fill="#231F20" d="M424.9-443.9c-1.4,0-2.5,1.1-2.5,2.5c0,1.4,1.1,2.5,2.5,2.5c1.4,0,2.5-1.1,2.5-2.5
				C427.5-442.8,426.3-443.9,424.9-443.9"/>
			<path fill="#231F20" d="M386.2-443.9c-1.4,0-2.5,1.1-2.5,2.5c0,1.4,1.1,2.5,2.5,2.5c1.4,0,2.5-1.1,2.5-2.5
				C388.8-442.8,387.6-443.9,386.2-443.9"/>
			<path fill="#231F20" d="M379.8-443.4c-1.1,0-2,0.9-2,2c0,1.1,0.9,2,2,2c1.1,0,2-0.9,2-2C381.8-442.5,380.9-443.4,379.8-443.4"/>
			<path fill="#231F20" d="M431.4-443.4c-1.1,0-2,0.9-2,2c0,1.1,0.9,2,2,2c1.1,0,2-0.9,2-2C433.4-442.5,432.5-443.4,431.4-443.4"/>
			<path fill="#231F20" d="M373.3-442.7c-0.8,0-1.4,0.6-1.4,1.4c0,0.8,0.6,1.4,1.4,1.4c0.8,0,1.4-0.6,1.4-1.4
				C374.7-442.1,374.1-442.7,373.3-442.7"/>
			<path fill="#231F20" d="M392.7-450.6c-1.4,0-2.5,1.1-2.5,2.5s1.1,2.5,2.5,2.5c1.4,0,2.5-1.1,2.5-2.5S394.1-450.6,392.7-450.6"/>
			<path fill="#231F20" d="M399.1-450.6c-1.4,0-2.5,1.1-2.5,2.5s1.1,2.5,2.5,2.5c1.4,0,2.5-1.1,2.5-2.5S400.5-450.6,399.1-450.6"/>
			<path fill="#231F20" d="M405.6-450.6c-1.4,0-2.5,1.1-2.5,2.5s1.1,2.5,2.5,2.5c1.4,0,2.5-1.1,2.5-2.5S407-450.6,405.6-450.6"/>
			<path fill="#231F20" d="M412-450.6c-1.4,0-2.5,1.1-2.5,2.5s1.1,2.5,2.5,2.5c1.4,0,2.5-1.1,2.5-2.5S413.4-450.6,412-450.6"/>
			<path fill="#231F20" d="M386.2-450.6c-1.4,0-2.5,1.1-2.5,2.5s1.1,2.5,2.5,2.5c1.4,0,2.5-1.1,2.5-2.5S387.6-450.6,386.2-450.6"/>
			<path fill="#231F20" d="M379.8-450.1c-1.1,0-2,0.9-2,2c0,1.1,0.9,2,2,2c1.1,0,2-0.9,2-2C381.8-449.2,380.9-450.1,379.8-450.1"/>
			<path fill="#231F20" d="M373.3-449.5c-0.8,0-1.4,0.6-1.4,1.4c0,0.8,0.6,1.4,1.4,1.4c0.8,0,1.4-0.6,1.4-1.4
				C374.7-448.9,374.1-449.5,373.3-449.5"/>
			<path fill="#231F20" d="M366.9-449.5c-0.8,0-1.4,0.6-1.4,1.4c0,0.8,0.6,1.4,1.4,1.4c0.8,0,1.4-0.6,1.4-1.4
				C368.2-448.9,367.6-449.5,366.9-449.5"/>
			<path fill="#231F20" d="M334.6-449c-0.5,0-0.9,0.4-0.9,0.9c0,0.5,0.4,0.9,0.9,0.9c0.5,0,0.9-0.4,0.9-0.9
				C335.5-448.6,335.1-449,334.6-449"/>
			<path fill="#231F20" d="M354-435.5c-0.5,0-0.9,0.4-0.9,0.9c0,0.5,0.4,0.9,0.9,0.9c0.5,0,0.9-0.4,0.9-0.9
				C354.8-435.1,354.4-435.5,354-435.5"/>
			<path fill="#231F20" d="M366.9-442.2c-0.5,0-0.9,0.4-0.9,0.9c0,0.5,0.4,0.9,0.9,0.9c0.5,0,0.9-0.4,0.9-0.9
				C367.7-441.9,367.3-442.2,366.9-442.2"/>
			<path fill="#231F20" d="M379.8-455.7c-0.5,0-0.9,0.4-0.9,0.9c0,0.5,0.4,0.9,0.9,0.9c0.5,0,0.9-0.4,0.9-0.9
				C380.6-455.3,380.2-455.7,379.8-455.7"/>
			<path fill="#231F20" d="M373.3-455.7c-0.5,0-0.9,0.4-0.9,0.9c0,0.5,0.4,0.9,0.9,0.9c0.5,0,0.9-0.4,0.9-0.9
				C374.2-455.3,373.8-455.7,373.3-455.7"/>
			<path fill="#231F20" d="M373.3-428.8c-0.5,0-0.9,0.4-0.9,0.9c0,0.5,0.4,0.9,0.9,0.9c0.5,0,0.9-0.4,0.9-0.9
				C374.2-428.4,373.8-428.8,373.3-428.8"/>
			<path fill="#231F20" d="M386.2-428.8c-0.5,0-0.9,0.4-0.9,0.9c0,0.5,0.4,0.9,0.9,0.9c0.5,0,0.9-0.4,0.9-0.9
				C387.1-428.4,386.7-428.8,386.2-428.8"/>
			<path fill="#231F20" d="M392.7-428.8c-0.5,0-0.9,0.4-0.9,0.9c0,0.5,0.4,0.9,0.9,0.9c0.5,0,0.9-0.4,0.9-0.9
				C393.5-428.4,393.2-428.8,392.7-428.8"/>
			<path fill="#231F20" d="M347.5-435.5c-0.5,0-0.9,0.4-0.9,0.9c0,0.5,0.4,0.9,0.9,0.9c0.5,0,0.9-0.4,0.9-0.9
				C348.4-435.1,348-435.5,347.5-435.5"/>
			<path fill="#231F20" d="M334.6-435.5c-0.5,0-0.9,0.4-0.9,0.9c0,0.5,0.4,0.9,0.9,0.9c0.5,0,0.9-0.4,0.9-0.9
				C335.5-435.1,335.1-435.5,334.6-435.5"/>
			<path fill="#231F20" d="M328.2-449c-0.5,0-0.9,0.4-0.9,0.9c0,0.5,0.4,0.9,0.9,0.9c0.5,0,0.9-0.4,0.9-0.9
				C329-448.6,328.6-449,328.2-449"/>
			<path fill="#231F20" d="M321.7-449c-0.5,0-0.9,0.4-0.9,0.9c0,0.5,0.4,0.9,0.9,0.9c0.5,0,0.9-0.4,0.9-0.9
				C322.6-448.6,322.2-449,321.7-449"/>
			<path fill="#231F20" d="M315.2-449c-0.5,0-0.9,0.4-0.9,0.9c0,0.5,0.4,0.9,0.9,0.9c0.5,0,0.9-0.4,0.9-0.9
				C316.1-448.6,315.7-449,315.2-449"/>
			<path fill="#231F20" d="M289.4-449c-0.5,0-0.9,0.4-0.9,0.9c0,0.5,0.4,0.9,0.9,0.9c0.5,0,0.9-0.4,0.9-0.9
				C290.3-448.6,289.9-449,289.4-449"/>
			<path fill="#231F20" d="M263.6-449c-0.5,0-0.9,0.4-0.9,0.9c0,0.5,0.4,0.9,0.9,0.9c0.5,0,0.9-0.4,0.9-0.9
				C264.5-448.6,264.1-449,263.6-449"/>
			<path fill="#231F20" d="M302.3-449c-0.5,0-0.9,0.4-0.9,0.9c0,0.5,0.4,0.9,0.9,0.9c0.5,0,0.9-0.4,0.9-0.9
				C303.2-448.6,302.8-449,302.3-449"/>
			<path fill="#231F20" d="M360.4-449.5c-0.8,0-1.4,0.6-1.4,1.4c0,0.8,0.6,1.4,1.4,1.4c0.8,0,1.4-0.6,1.4-1.4
				C361.8-448.9,361.2-449.5,360.4-449.5"/>
			<path fill="#231F20" d="M366.9-436c-0.8,0-1.4,0.6-1.4,1.4c0,0.8,0.6,1.4,1.4,1.4c0.8,0,1.4-0.6,1.4-1.4
				C368.2-435.4,367.6-436,366.9-436"/>
			<path fill="#231F20" d="M360.4-436c-0.8,0-1.4,0.6-1.4,1.4c0,0.8,0.6,1.4,1.4,1.4c0.8,0,1.4-0.6,1.4-1.4
				C361.8-435.4,361.2-436,360.4-436"/>
			<path fill="#231F20" d="M354-449.5c-0.8,0-1.4,0.6-1.4,1.4c0,0.8,0.6,1.4,1.4,1.4c0.8,0,1.4-0.6,1.4-1.4
				C355.3-448.9,354.7-449.5,354-449.5"/>
			<path fill="#231F20" d="M347.5-449.5c-0.7,0-1.4,0.6-1.4,1.4c0,0.8,0.6,1.4,1.4,1.4c0.8,0,1.4-0.6,1.4-1.4
				C348.9-448.9,348.3-449.5,347.5-449.5"/>
			<path fill="#231F20" d="M341.1-449.5c-0.8,0-1.4,0.6-1.4,1.4c0,0.8,0.6,1.4,1.4,1.4c0.8,0,1.4-0.6,1.4-1.4
				C342.4-448.9,341.8-449.5,341.1-449.5"/>
			<path fill="#231F20" d="M392.7-437.2c-1.4,0-2.5,1.1-2.5,2.5c0,1.4,1.1,2.5,2.5,2.5c1.4,0,2.5-1.1,2.5-2.5
				C395.2-436.1,394.1-437.2,392.7-437.2"/>
			<path fill="#231F20" d="M399.1-437.2c-1.4,0-2.5,1.1-2.5,2.5c0,1.4,1.1,2.5,2.5,2.5c1.4,0,2.5-1.1,2.5-2.5
				C401.7-436.1,400.5-437.2,399.1-437.2"/>
			<path fill="#231F20" d="M405.6-437.2c-1.4,0-2.5,1.1-2.5,2.5c0,1.4,1.1,2.5,2.5,2.5c1.4,0,2.5-1.1,2.5-2.5
				C408.1-436.1,407-437.2,405.6-437.2"/>
			<path fill="#231F20" d="M412-437.2c-1.4,0-2.5,1.1-2.5,2.5c0,1.4,1.1,2.5,2.5,2.5c1.4,0,2.5-1.1,2.5-2.5
				C414.6-436.1,413.4-437.2,412-437.2"/>
			<path fill="#231F20" d="M386.2-437.2c-1.4,0-2.5,1.1-2.5,2.5c0,1.4,1.1,2.5,2.5,2.5c1.4,0,2.5-1.1,2.5-2.5
				C388.8-436.1,387.6-437.2,386.2-437.2"/>
			<path fill="#231F20" d="M379.8-436.7c-1.1,0-2,0.9-2,2c0,1.1,0.9,2,2,2c1.1,0,2-0.9,2-2C381.8-435.8,380.9-436.7,379.8-436.7"/>
			<path fill="#231F20" d="M418.5-436.7c-1.1,0-2,0.9-2,2c0,1.1,0.9,2,2,2c1.1,0,2-0.9,2-2C420.5-435.8,419.6-436.7,418.5-436.7"/>
			<path fill="#231F20" d="M373.3-436c-0.8,0-1.4,0.6-1.4,1.4c0,0.8,0.6,1.4,1.4,1.4c0.8,0,1.4-0.6,1.4-1.4
				C374.7-435.4,374.1-436,373.3-436"/>
			<path fill="#231F20" d="M424.9-436c-0.8,0-1.4,0.6-1.4,1.4c0,0.8,0.6,1.4,1.4,1.4c0.7,0,1.4-0.6,1.4-1.4
				C426.3-435.4,425.7-436,424.9-436"/>
			<path fill="#231F20" d="M412-429.3c-0.8,0-1.4,0.6-1.4,1.4c0,0.8,0.6,1.4,1.4,1.4c0.8,0,1.4-0.6,1.4-1.4
				C413.4-428.7,412.8-429.3,412-429.3"/>
			<path fill="#231F20" d="M405.6-429.3c-0.8,0-1.4,0.6-1.4,1.4c0,0.8,0.6,1.4,1.4,1.4c0.8,0,1.4-0.6,1.4-1.4
				C406.9-428.7,406.3-429.3,405.6-429.3"/>
			<path fill="#231F20" d="M399.1-429.3c-0.8,0-1.4,0.6-1.4,1.4c0,0.8,0.6,1.4,1.4,1.4c0.8,0,1.4-0.6,1.4-1.4
				C400.5-428.7,399.9-429.3,399.1-429.3"/>
			<path fill="#231F20" d="M399.1-453.5c0.8,0,1.4-0.6,1.4-1.4c0-0.8-0.6-1.4-1.4-1.4c-0.8,0-1.4,0.6-1.4,1.4
				C397.8-454.1,398.4-453.5,399.1-453.5"/>
			<path fill="#231F20" d="M392.7-453.5c0.8,0,1.4-0.6,1.4-1.4c0-0.8-0.6-1.4-1.4-1.4c-0.8,0-1.4,0.6-1.4,1.4
				C391.3-454.1,391.9-453.5,392.7-453.5"/>
			<path fill="#231F20" d="M386.2-453.5c0.8,0,1.4-0.6,1.4-1.4c0-0.8-0.6-1.4-1.4-1.4c-0.8,0-1.4,0.6-1.4,1.4
				C384.9-454.1,385.5-453.5,386.2-453.5"/>
			<path fill="#231F20" d="M418.5-446.7c0.8,0,1.4-0.6,1.4-1.4c0-0.8-0.6-1.4-1.4-1.4c-0.7,0-1.4,0.6-1.4,1.4
				C417.1-447.4,417.7-446.7,418.5-446.7"/>
		</g>
		<g>
			<polygon fill="#231F20" points="235.2,-414.5 225.6,-391.3 216,-414.5 212.6,-414.5 224.2,-387.4 226.9,-387.4 238.4,-414.5 			
				"/>
			<polygon fill="#231F20" points="247.5,-414.5 247.5,-387.6 267.1,-387.6 267.1,-390.4 250.5,-390.4 250.5,-399.8 265.2,-399.8 
				265.2,-402.6 250.5,-402.6 250.5,-411.7 267,-411.7 267,-414.5 			"/>
			<polygon fill="#231F20" points="276.3,-414.5 276.3,-387.6 294.4,-387.6 294.4,-390.4 279.3,-390.4 279.3,-414.5 			"/>
			<g>
				<path fill="#231F20" d="M299.5-401L299.5-401c0-7.5,5.6-14,13.8-14c8.2,0,13.7,6.4,13.7,13.8c0,0,0,0,0,0.1
					c0,7.4-5.6,13.9-13.8,13.9C305-387.2,299.5-393.6,299.5-401 M323.8-401L323.8-401c0-6.2-4.5-11.2-10.6-11.2
					c-6.1,0-10.5,4.9-10.5,11v0.1c0,6.1,4.5,11.1,10.6,11.1C319.4-390,323.8-394.9,323.8-401"/>
				<path fill="#231F20" d="M333.7-401L333.7-401c0-7.7,5.7-14,13.6-14c4.9,0,7.8,1.7,10.5,4.3l-2.1,2.2c-2.3-2.2-4.8-3.7-8.5-3.7
					c-6,0-10.4,4.8-10.4,11v0.1c0,6.2,4.5,11.1,10.4,11.1c3.7,0,6.1-1.4,8.7-3.9l2,2c-2.8,2.8-5.9,4.7-10.8,4.7
					C339.5-387.2,333.7-393.3,333.7-401"/>
			</g>
			<rect x="368.2" y="-414.5" fill="#231F20" width="3" height="26.9"/>
			<polygon fill="#231F20" points="380.2,-414.5 380.2,-411.7 389.2,-411.7 389.2,-387.6 392.3,-387.6 392.3,-411.7 401.3,-411.7 
				401.3,-414.5 			"/>
			<polygon fill="#231F20" points="429.9,-414.5 420.7,-401.1 411.6,-414.5 407.9,-414.5 419.1,-398.3 419.1,-387.6 422.2,-387.6 
				422.2,-398.3 433.4,-414.5 			"/>
		</g>
	</g>
</g>
<g id="pagerduty">
</g>
<g id="Layer_26">
</g>
<g id="bitalino">
</g>
<g id="Layer_28">
</g>
<g id="TextNow">
</g>
<g id="Uber">
</g>
</svg>
