<?xml version="1.0" encoding="utf-8"?>
<!-- Generator: Adobe Illustrator 17.1.0, SVG Export Plug-In . SVG Version: 6.00 Build 0)  -->
<!DOCTYPE svg PUBLIC "-//W3C//DTD SVG 1.1//EN" "http://www.w3.org/Graphics/SVG/1.1/DTD/svg11.dtd">
<svg version="1.1" xmlns="http://www.w3.org/2000/svg" xmlns:xlink="http://www.w3.org/1999/xlink" x="0px" y="0px"
	 viewBox="98 350 174 60" enable-background="new 98 350 174 60" xml:space="preserve">
<g id="estimote">
</g>
<g id="Pebble">
</g>
<g id="Spark">
</g>
<g id="Layer_4">
</g>
<g id="Layer_5">
</g>
<g id="Layer_6">
</g>
<g id="Base">
</g>
<g id="yelp">
</g>
<g id="Yext">
</g>
<g id="Estimote">
</g>
<g id="Kloudless">
</g>
<g id="Microsoft">
</g>
<g id="Big_Viking">
</g>
<g id="_x35_00px">
</g>
<g id="Magnet_Forensics">
</g>
<g id="Guides">
</g>
<g id="Wit.Ai" display="none">
</g>
<g id="Layer_18">
</g>
<g id="Kik">
</g>
<g id="Layer_20">
</g>
<g id="Affirm">
</g>
<g id="Shopify">
</g>
<g id="apple">
</g>
<g id="velocity">
</g>
<g id="pagerduty">
</g>
<g id="Layer_26">
</g>
<g id="bitalino">
	<g>
		<g>
			<g>
				<defs>
					<rect id="SVGID_37_" x="92.6" y="-313.1" width="112.5" height="41"/>
				</defs>
				<clipPath id="SVGID_2_">
					<use xlink:href="#SVGID_37_"  overflow="visible"/>
				</clipPath>
				<g clip-path="url(#SVGID_2_)">
					<g>
						<defs>
							<rect id="SVGID_43_" x="92.6" y="-313.1" width="112.5" height="41"/>
						</defs>
						<clipPath id="SVGID_3_">
							<use xlink:href="#SVGID_43_"  overflow="visible"/>
						</clipPath>
						<g clip-path="url(#SVGID_3_)">
							<g>
								<defs>
									<rect id="SVGID_49_" x="92.6" y="-313.1" width="112.5" height="41"/>
								</defs>
								<clipPath id="SVGID_4_">
									<use xlink:href="#SVGID_49_"  overflow="visible"/>
								</clipPath>
								<g id="g86" clip-path="url(#SVGID_4_)">
									<g>
										<defs>
											<path id="SVGID_51_" d="M145-328.4h1.4c0.3,1.5,1.6,2.6,3.2,2.6c1.6,0,2.9-1.1,3.2-2.6h1.4v-1.4h-0.5v-1.4h1.9h0v4.2v0
												l-0.2,0l-1.6,0l-0.1,0.1c-0.8,1.5-2.3,2.5-4.1,2.5C147.3-324.4,145.3-326.1,145-328.4"/>
										</defs>
										<clipPath id="SVGID_5_">
											<use xlink:href="#SVGID_51_"  overflow="visible"/>
										</clipPath>
										<g id="g88" clip-path="url(#SVGID_5_)">
											<g id="g94">
												<defs>
													
														<rect id="SVGID_53_" x="17.8" y="-469.8" transform="matrix(-0.2713 0.9625 -0.9625 -0.2713 -107.8132 -538.0009)" width="263.9" height="320"/>
												</defs>
												<clipPath id="SVGID_6_">
													<use xlink:href="#SVGID_53_"  overflow="visible"/>
												</clipPath>
											</g>
										</g>
									</g>
								</g>
								<g clip-path="url(#SVGID_4_)">
									<g>
										<defs>
											<rect id="SVGID_55_" x="92.6" y="-313.1" width="112.5" height="41"/>
										</defs>
										<clipPath id="SVGID_7_">
											<use xlink:href="#SVGID_55_"  overflow="visible"/>
										</clipPath>
										<g id="g122" clip-path="url(#SVGID_7_)">
											<g>
												<defs>
													<path id="SVGID_57_" d="M143.6-327L143.6-327l0-4.2v0l0.2,0l1.6,0l0.1-0.1c0.8-1.5,2.3-2.5,4.1-2.5
														c2.3,0,4.3,1.7,4.6,4h-1.4c-0.3-1.5-1.6-2.6-3.2-2.6c-1.6,0-2.9,1.1-3.2,2.6H145v1.4h0.5v1.4H143.6z"/>
												</defs>
												<clipPath id="SVGID_8_">
													<use xlink:href="#SVGID_57_"  overflow="visible"/>
												</clipPath>
												<g id="g124" clip-path="url(#SVGID_8_)">
													<g id="g130">
														<defs>
															
																<rect id="SVGID_59_" x="26.4" y="-464.9" transform="matrix(-0.1961 -0.9806 0.9806 -0.1961 482.9323 -223.7201)" width="246.7" height="310.3"/>
														</defs>
														<clipPath id="SVGID_9_">
															<use xlink:href="#SVGID_59_"  overflow="visible"/>
														</clipPath>
													</g>
												</g>
											</g>
										</g>
										<g clip-path="url(#SVGID_7_)">
											<g>
												<defs>
													<rect id="SVGID_61_" x="92.6" y="-313.1" width="112.5" height="41"/>
												</defs>
												<clipPath id="SVGID_10_">
													<use xlink:href="#SVGID_61_"  overflow="visible"/>
												</clipPath>
												<g id="g158" clip-path="url(#SVGID_10_)">
													<g>
														<defs>
															<path id="SVGID_63_" d="M145-328.4h1.4c0.3,1.5,1.6,2.6,3.2,2.6v1.4C147.3-324.4,145.3-326.2,145-328.4"/>
														</defs>
														<clipPath id="SVGID_11_">
															<use xlink:href="#SVGID_63_"  overflow="visible"/>
														</clipPath>
														<g id="g160" clip-path="url(#SVGID_11_)">
															<g id="g166">
																<defs>
																	
																		<rect id="SVGID_65_" x="17.8" y="-469.8" transform="matrix(-0.2713 0.9625 -0.9625 -0.2713 -107.8132 -538.0009)" width="263.9" height="320"/>
																</defs>
																<clipPath id="SVGID_12_">
																	<use xlink:href="#SVGID_65_"  overflow="visible"/>
																</clipPath>
															</g>
														</g>
													</g>
												</g>
												<g clip-path="url(#SVGID_10_)">
													<g>
														<defs>
															<rect id="SVGID_67_" x="92.6" y="-313.1" width="112.5" height="41"/>
														</defs>
														<clipPath id="SVGID_13_">
															<use xlink:href="#SVGID_67_"  overflow="visible"/>
														</clipPath>
														<g id="g194" clip-path="url(#SVGID_13_)">
															<g>
																<defs>
																	<path id="SVGID_69_" d="M179.5-324.9c-1.5-0.8-2.5-2.3-2.5-4.1c0-2.3,1.7-4.3,4-4.6v1.4c-1.5,0.3-2.6,1.6-2.6,3.2
																		c0,1,0.4,1.9,1.2,2.5v-0.8h1.4v2.5v0.5c0,0,0,0,0,0l0,0C181-324.4,180.1-324.6,179.5-324.9"/>
																</defs>
																<clipPath id="SVGID_14_">
																	<use xlink:href="#SVGID_69_"  overflow="visible"/>
																</clipPath>
																<g id="g196" clip-path="url(#SVGID_14_)">
																	<g id="g202">
																		<defs>
																			
																				<rect id="SVGID_71_" x="-18.3" y="-477.2" transform="matrix(-0.7071 0.7071 -0.7071 -0.7071 35.3121 -634.2565)" width="334.7" height="334.7"/>
																		</defs>
																		<clipPath id="SVGID_15_">
																			<use xlink:href="#SVGID_71_"  overflow="visible"/>
																		</clipPath>
																	</g>
																</g>
															</g>
														</g>
													</g>
												</g>
											</g>
										</g>
									</g>
								</g>
							</g>
						</g>
					</g>
				</g>
			</g>
		</g>
	</g>
</g>
<g id="Layer_28">
</g>
<g id="TextNow">
</g>
<g id="Uber">
</g>
<g id="mars">
	<g>
		<g>
			<circle fill="#003DA6" cx="153.2" cy="380" r="19.5"/>
			<path fill="#FFFFFF" d="M144.1,384.6v-2.2c0-0.9,0-1.8,0.1-2.5c-0.3,0.7-0.8,1.8-1.1,2.4l-1.2,2.6l-1.2-2.6
				c-0.3-0.7-0.8-1.7-1.1-2.4c0,0.7,0.1,1.6,0.1,2.5v2.2h-2.4v-9.3h2.4l1.1,2.5c0.6,1.2,1,2.3,1.2,2.8c0.2-0.5,0.6-1.5,1.2-2.8
				l1.1-2.5h2.3v9.3H144.1z"/>
			<path fill="#FFFFFF" d="M151.2,384.6v-0.5c-0.5,0.3-1.1,0.6-1.7,0.6c-1.4,0-2.3-0.8-2.3-2.4c0-1.5,1-2.3,2.5-2.3
				c0.6,0,1.1,0.1,1.4,0.3V380c0-0.6-0.3-0.8-1-0.8c-0.7,0-1.3,0.1-1.9,0.5l-0.6-1.6c0.9-0.4,1.8-0.6,3-0.6c2,0,2.8,1,2.8,2.6v4.5
				H151.2z M151.2,381.7c-0.3-0.1-0.6-0.2-1-0.2c-0.5,0-0.7,0.3-0.7,0.7c0,0.4,0.2,0.8,0.7,0.8c0.4,0,0.8-0.2,1-0.3V381.7z"/>
			<path fill="#FFFFFF" d="M159.3,384.6l-1.5-3.1h-1v3.1h-2.5v-9.3h4.2c2.2,0,3.6,0.8,3.6,3c0,1.4-0.7,2.3-1.7,2.7l1.9,3.5H159.3z
				 M158.4,377.4h-1.6v2h1.5c0.8,0,1.2-0.4,1.2-1C159.5,377.8,159.2,377.4,158.4,377.4z"/>
			<path fill="#FFFFFF" d="M166.3,384.7c-1.5,0-2.9-0.5-3.9-1.1l1.2-2c0.7,0.5,1.9,0.9,2.7,0.9c0.9,0,1.2-0.2,1.2-0.6
				c0-0.3-0.3-0.6-1.6-0.9c-2.2-0.5-3.3-1.1-3.3-3c0-1.8,1.4-2.9,3.7-2.9c1.6,0,2.7,0.4,3.7,1.1l-1.2,2c-0.8-0.6-1.6-0.9-2.6-0.9
				c-0.8,0-1,0.2-1,0.6c0,0.3,0.3,0.5,1.5,0.8c2.3,0.6,3.4,1.3,3.4,3C170.1,383.8,168.5,384.7,166.3,384.7z"/>
		</g>
		<g>
			<g>
				<path fill="#D62027" d="M185.6,388.4c-2.5,0-4.2-1.1-5.3-2.4l2.3-2.5c0.9,1,1.8,1.6,3,1.6c1.3,0,2.2-0.8,2.2-2.7v-10.5h3.7v10.6
					C191.3,386.5,189,388.4,185.6,388.4z"/>
			</g>
			<g>
				<path fill="#D62027" d="M201.8,388.5c-5,0-8.6-3.7-8.6-8.4v0c0-4.6,3.6-8.4,8.7-8.4c5,0,8.6,3.7,8.6,8.4v0
					C210.5,384.7,206.9,388.5,201.8,388.5z"/>
			</g>
			<g>
				<path fill="#D62027" d="M213,388.2v-16.3h3.6v13h8.1v3.3H213z"/>
			</g>
			<g>
				<path fill="#D62027" d="M231.3,375.2v13h-3.6v-13h-4.9v-3.3h13.5v3.3H231.3z"/>
			</g>
		</g>
	</g>
</g>
<g id="twilio">
</g>
</svg>
