<?xml version="1.0" encoding="utf-8"?>
<!-- Generator: Adobe Illustrator 17.1.0, SVG Export Plug-In . SVG Version: 6.00 Build 0)  -->
<!DOCTYPE svg PUBLIC "-//W3C//DTD SVG 1.1//EN" "http://www.w3.org/Graphics/SVG/1.1/DTD/svg11.dtd">
<svg version="1.1" xmlns="http://www.w3.org/2000/svg" xmlns:xlink="http://www.w3.org/1999/xlink" x="0px" y="0px"
	 viewBox="282 280 174 60" enable-background="new 282 280 174 60" xml:space="preserve">
<g id="estimote">
</g>
<g id="Layer_2">
</g>
<g id="Spark">
</g>
<g id="Layer_4">
</g>
<g id="Layer_5">
</g>
<g id="Layer_6">
</g>
<g id="Base">
</g>
<g id="yelp">
</g>
<g id="Yext">
</g>
<g id="Estimote">
</g>
<g id="Kloudless">
</g>
<g id="Microsoft">
</g>
<g id="Big_Viking">
</g>
<g id="_x35_00px">
</g>
<g id="Magnet_Forensics">
</g>
<g id="Guides">
</g>
<g id="Wit.Ai">
</g>
<g id="Layer_18">
</g>
<g id="Kik">
</g>
<g id="Layer_20">
</g>
<g id="Affirm">
</g>
<g id="Shopify">
	<g>
		<g opacity="5.000000e-02">
			<image overflow="visible" width="96" height="77" xlink:href="E0E8EC7FF5B9E573.png"  transform="matrix(1 0 0 1 282 284)">
			</image>
		</g>
		<g opacity="0.12">
			<image overflow="visible" width="95" height="77" xlink:href="E0E8EC7FF5B9E571.png"  transform="matrix(1 0 0 1 283 284)">
			</image>
		</g>
		<g>
			<linearGradient id="SVGID_2_" gradientUnits="userSpaceOnUse" x1="324.9517" y1="317.1126" x2="324.9517" y2="319.1035">
				<stop  offset="0" style="stop-color:#000000;stop-opacity:0"/>
				<stop  offset="1" style="stop-color:#000000;stop-opacity:0.52"/>
			</linearGradient>
			<path fill="url(#SVGID_2_)" d="M333.2,302.2c-0.2,0-0.7-1-0.7-1c0,0-11.2,3.3-11.4,3.5c-0.2,0.2-4.9,17-4.9,17l17.4,3.3
				L333.2,302.2z"/>
			<linearGradient id="SVGID_3_" gradientUnits="userSpaceOnUse" x1="338.2267" y1="316.5429" x2="338.2267" y2="318.6783">
				<stop  offset="0" style="stop-color:#000000;stop-opacity:0"/>
				<stop  offset="1" style="stop-color:#000000;stop-opacity:0.52"/>
			</linearGradient>
			<path fill="url(#SVGID_3_)" d="M338.1,301.8c0,0,0-0.1-0.1-0.2c-0.1-0.1-0.2-0.1-0.2-0.1l-2.5-0.2l-1.8-1.8
				c-0.1-0.1-0.1-0.1-0.2-0.1l0.3,25.4l9.4-2L338.1,301.8z"/>
		</g>
		<linearGradient id="SVGID_4_" gradientUnits="userSpaceOnUse" x1="340.4729" y1="323.8777" x2="326.828" y2="319.3187">
			<stop  offset="0" style="stop-color:#000000;stop-opacity:0"/>
			<stop  offset="1" style="stop-color:#000000;stop-opacity:0.4"/>
		</linearGradient>
		<polygon fill="url(#SVGID_4_)" points="333.7,325 343.7,325.1 347.6,322.9 343.1,322.9 		"/>
		<path opacity="0.3" fill="#FFFFFF" d="M333.7,302.9c0.4,0.1,0.7-0.1,0.8-0.5c0.1-0.4-0.2-0.9-0.5-1c-0.4-0.1-0.7,0.1-0.8,0.5
			C333.1,302.4,333.3,302.8,333.7,302.9z"/>
		<path opacity="0.62" fill="#595961" d="M326.2,304.4C326.2,304.4,326.2,304.4,326.2,304.4c-0.4,0-0.6-0.3-0.6-0.6
			c0-0.3-0.2-6.9,3.7-8.4c1-0.4,1.9-0.3,2.6,0.3c0.9,0.7,1.6,2,2,3.9c0.3,1.4,0.3,2.5,0.3,2.6c0,0.3-0.2,0.5-0.5,0.4
			c-0.3,0-0.5-0.3-0.6-0.6c0-1.2-0.5-4.5-1.8-5.5c-0.4-0.3-1-0.3-1.6-0.1c-3.3,1.3-3.2,7.5-3.2,7.6
			C326.7,304.2,326.5,304.4,326.2,304.4z"/>
		<path opacity="0.62" fill="#595961" d="M326.2,304.4C326.2,304.4,326.2,304.4,326.2,304.4c-0.4,0-0.6-0.3-0.6-0.6
			c0-0.3-0.2-6.9,3.7-8.4c1-0.4,1.9-0.3,2.6,0.3c0.9,0.7,1.6,2,2,3.9c0.3,1.4,0.3,2.5,0.3,2.6c0,0.3-0.2,0.5-0.5,0.4
			c-0.3,0-0.5-0.3-0.6-0.6c0-1.2-0.5-4.5-1.8-5.5c-0.4-0.3-1-0.3-1.6-0.1c-3.3,1.3-3.2,7.5-3.2,7.6
			C326.7,304.2,326.5,304.4,326.2,304.4z"/>
		<path opacity="0.46" fill="#B2B2C2" d="M331.8,295.7c-0.7-0.5-1.5-0.6-2.4-0.2c-1.6,0.6-2.7,2.2-3.2,4.7c-0.4,1.8-0.4,3.5-0.4,3.5
			c0,0.1,0,0.2,0.1,0.2c0.1,0.1,0.1,0.1,0.2,0.1c0,0,0,0,0,0c0.2,0,0.3-0.1,0.3-0.3c0-0.1-0.2-6.4,3.3-7.7c0.7-0.3,1.3-0.2,1.8,0.1
			c1.4,1,1.9,4.4,1.9,5.7c0,0.2,0.2,0.3,0.3,0.4c0.2,0,0.3-0.1,0.3-0.3C334,301.7,333.8,297.1,331.8,295.7z"/>
		<path opacity="0.46" fill="#B2B2C2" d="M326.1,303.9C326.1,303.9,326.1,303.9,326.1,303.9c-0.1,0-0.2-0.1-0.2-0.2
			c0-0.1,0-1.7,0.4-3.5c0.5-2.4,1.6-4,3.2-4.6c0.9-0.3,1.7-0.3,2.3,0.2c2,1.4,2.2,5.9,2.2,6.1c0,0.1-0.1,0.2-0.2,0.2
			c-0.1,0-0.2-0.1-0.2-0.2c0,0-0.2-4.5-2-5.8c-0.5-0.4-1.2-0.4-1.9-0.1c-3.5,1.4-3.3,7.8-3.3,7.8
			C326.3,303.8,326.2,303.9,326.1,303.9z"/>
		<path opacity="0.62" fill="#595961" d="M327.5,298.8c0.1-0.3,0.3-0.5,0.4-0.8c-0.1,0.1-0.4,1-1.5,0.9
			C326.4,298.8,327.1,299,327.5,298.8z"/>
		<path opacity="0.62" fill="#595961" d="M327.1,299.9c0.1-0.3,0.2-0.6,0.3-0.9c0,0.1-0.2,1.1-1.3,1.1
			C326.1,300.1,326.7,300.2,327.1,299.9z"/>
		<path opacity="0.62" fill="#595961" d="M326.9,301.1c0.1-0.3,0.1-0.6,0.2-0.9c0,0.1-0.1,1.1-1.2,1.2
			C325.9,301.4,326.5,301.4,326.9,301.1z"/>
		<path opacity="0.62" fill="#595961" d="M333.3,297.6c-0.1-0.3-0.3-0.6-0.5-0.9c0,0.1,0.6,1.1,0,1.8
			C332.9,298.6,333.3,298.2,333.3,297.6z"/>
		<path opacity="0.62" fill="#595961" d="M332.4,296c-0.3-0.2-0.6-0.4-0.9-0.6c0.1,0.1,1,0.7,1,1.7
			C332.5,297.1,332.7,296.6,332.4,296z"/>
		<path opacity="0.62" fill="#595961" d="M333.8,299.3c-0.1-0.3-0.2-0.7-0.3-1c0,0.1,0.4,1.2-0.4,1.7
			C333.2,300,333.7,299.8,333.8,299.3z"/>
		<path opacity="0.62" fill="#595961" d="M334.2,300.9c0-0.3-0.1-0.7-0.2-1c0,0.1,0.2,1.2-0.6,1.6
			C333.4,301.6,334,301.4,334.2,300.9z"/>
		<path opacity="0.62" fill="#595961" d="M326.7,302.4c0-0.3,0.1-0.6,0.1-0.9c0,0.1,0,1.1-1,1.4
			C325.8,302.8,326.4,302.8,326.7,302.4z"/>
		<path opacity="0.62" fill="#595961" d="M328,297.8c0.2-0.2,0.4-0.4,0.6-0.7c-0.1,0.1-0.7,0.8-1.7,0.5
			C326.9,297.7,327.5,298,328,297.8z"/>
		<path opacity="0.62" fill="#595961" d="M328.7,297c0.2-0.2,0.5-0.4,0.7-0.6c-0.1,0.1-0.8,0.6-1.8,0.2
			C327.6,296.7,328.2,297.1,328.7,297z"/>
		<path opacity="0.62" fill="#595961" d="M329.7,296.4c0.3-0.1,0.6-0.2,0.9-0.3c-0.1,0-1,0.4-1.9-0.3
			C328.6,295.8,329.1,296.3,329.7,296.4z"/>
		<path opacity="0.62" fill="#595961" d="M330.5,296.1c0.3,0,0.5,0.1,0.8,0.1c-0.1,0-0.9-0.1-1.3-0.8
			C329.9,295.4,330.1,295.9,330.5,296.1z"/>
		<path opacity="0.62" fill="#595961" d="M331.5,296.5c0.2,0.2,0.4,0.4,0.6,0.6c-0.1-0.1-0.7-0.7-0.5-1.4
			C331.6,295.7,331.4,296.1,331.5,296.5z"/>
		
			<linearGradient id="SVGID_5_" gradientUnits="userSpaceOnUse" x1="268.8678" y1="295.5677" x2="267.1286" y2="302.8632" gradientTransform="matrix(1 0 0.1763 1 9.2041 0)">
			<stop  offset="0" style="stop-color:#FFFFFF;stop-opacity:0.65"/>
			<stop  offset="1" style="stop-color:#FFFFFF;stop-opacity:0"/>
		</linearGradient>
		<path opacity="0.74" fill="url(#SVGID_5_)" d="M333.7,301.7c0-0.2-0.2-4.7-2.1-6c-0.4-0.3-0.8-0.4-1.2-0.4c-0.3,0-0.7,0.1-1,0.2
			c-1.5,0.6-2.6,2.2-3.1,4.6c-0.4,1.8-0.4,3.4-0.4,3.5c0,0.1,0,0.1,0.1,0.1c0,0,0,0,0,0c0,0,0.1,0,0.1-0.1c0-0.1-0.2-6.5,3.4-7.9
			c0.8-0.3,1.5-0.2,2,0.2c1.8,1.3,2,5.8,2,5.9C333.5,301.7,333.5,301.8,333.7,301.7C333.6,301.8,333.6,301.8,333.7,301.7
			C333.6,301.8,333.7,301.8,333.7,301.7z"/>
		<g>
			
				<linearGradient id="SVGID_6_" gradientUnits="userSpaceOnUse" x1="270.635" y1="297.8238" x2="271.4645" y2="303.4285" gradientTransform="matrix(1 0 0.1763 1 9.2041 0)">
				<stop  offset="0" style="stop-color:#000000;stop-opacity:0"/>
				<stop  offset="1" style="stop-color:#000000;stop-opacity:0.4"/>
			</linearGradient>
			<path fill="url(#SVGID_6_)" d="M334,299.5c-0.4-1.9-1.1-3.2-2-3.9c-0.5-0.4-1.1-0.5-1.7-0.5c0.5,0,0.9,0.2,1.3,0.5
				c0.9,0.7,1.6,2,2,3.9c0.3,1.4,0.3,2.5,0.3,2.6c0,0.2-0.1,0.4-0.3,0.4c0,0,0.1,0,0.1,0c0.3,0,0.5-0.2,0.5-0.4
				C334.3,302,334.3,300.9,334,299.5z"/>
		</g>
		
			<linearGradient id="SVGID_7_" gradientUnits="userSpaceOnUse" x1="265.2322" y1="301.6158" x2="268.1407" y2="295.5126" gradientTransform="matrix(1 0 0.1763 1 9.2041 0)">
			<stop  offset="0" style="stop-color:#000000;stop-opacity:0"/>
			<stop  offset="1" style="stop-color:#000000;stop-opacity:0.4"/>
		</linearGradient>
		<path fill="url(#SVGID_7_)" d="M329.5,296.4c-3.3,1.3-3.2,7.5-3.2,7.6c0,0.2-0.1,0.4-0.3,0.4c0,0,0.1,0,0.1,0c0,0,0.1,0,0.1,0
			c0.3,0,0.4-0.2,0.4-0.5c0-0.1-0.2-6.3,3.2-7.6c0.2-0.1,0.4-0.1,0.6-0.2C330.2,296.2,329.9,296.2,329.5,296.4z"/>
		<linearGradient id="SVGID_8_" gradientUnits="userSpaceOnUse" x1="328.9087" y1="297.1484" x2="330.4858" y2="305.0995">
			<stop  offset="0" style="stop-color:#000000;stop-opacity:0"/>
			<stop  offset="1" style="stop-color:#000000;stop-opacity:0.4"/>
		</linearGradient>
		<path fill="url(#SVGID_8_)" d="M326.2,304.4C326.2,304.4,326.2,304.4,326.2,304.4c-0.4,0-0.6-0.3-0.6-0.6c0-0.3-0.2-6.9,3.7-8.4
			c1-0.4,1.9-0.3,2.6,0.3c0.9,0.7,1.6,2,2,3.9c0.3,1.4,0.3,2.5,0.3,2.6c0,0.3-0.2,0.5-0.5,0.4c-0.3,0-0.5-0.3-0.6-0.6
			c0-1.2-0.5-4.5-1.8-5.5c-0.4-0.3-1-0.3-1.6-0.1c-3.3,1.3-3.2,7.5-3.2,7.6C326.7,304.2,326.5,304.4,326.2,304.4z"/>
		<linearGradient id="SVGID_9_" gradientUnits="userSpaceOnUse" x1="332.127" y1="299.2815" x2="322.6366" y2="322.6478">
			<stop  offset="0" style="stop-color:#B8D26E"/>
			<stop  offset="1" style="stop-color:#7FB525"/>
		</linearGradient>
		<path fill="url(#SVGID_9_)" d="M334.6,297.9l-15,4.7c0,0-0.6,0.2-0.8,0.4c-0.2,0.2-0.2,0.7-0.2,0.7l-2.3,17.9l17.4,3.3l1.3-26.9
			C334.8,297.9,334.6,297.9,334.6,297.9z"/>
		<linearGradient id="SVGID_10_" gradientUnits="userSpaceOnUse" x1="346.2277" y1="309.4958" x2="337.4241" y2="310.8755">
			<stop  offset="0" style="stop-color:#B4E034"/>
			<stop  offset="1" style="stop-color:#60A927"/>
		</linearGradient>
		<path fill="url(#SVGID_10_)" d="M339.8,300.2c0,0,0-0.1-0.1-0.2c-0.1-0.1-0.2-0.1-0.2-0.1l-2.5-0.2l-1.8-1.8
			c-0.1-0.1-0.1-0.1-0.2-0.1l-1.3,26.9l9.4-2L339.8,300.2z"/>
		
			<linearGradient id="SVGID_11_" gradientUnits="userSpaceOnUse" x1="328.5103" y1="301.7367" x2="326.2105" y2="320.4635" gradientTransform="matrix(0.9991 4.350000e-02 -4.350000e-02 0.9991 10.524 -4.6967)">
			<stop  offset="0" style="stop-color:#1D1D1B;stop-opacity:0.5"/>
			<stop  offset="8.962709e-02" style="stop-color:#1D1D1B;stop-opacity:0.4552"/>
			<stop  offset="1" style="stop-color:#1D1D1B;stop-opacity:0"/>
		</linearGradient>
		<path opacity="0.47" fill="url(#SVGID_11_)" d="M328.2,312.7c-0.3-0.4-0.6-0.7-0.9-1c-0.3-0.3-0.7-0.5-1-0.7
			c-0.2-0.1-0.4-0.3-0.6-0.4c-0.2-0.1-0.3-0.3-0.4-0.4c-0.1-0.1-0.2-0.3-0.2-0.4c-0.1-0.1-0.1-0.3-0.1-0.4c0-0.2,0.1-0.4,0.1-0.5
			c0.1-0.2,0.2-0.3,0.3-0.4c0.1-0.1,0.3-0.2,0.5-0.3c0.2-0.1,0.4-0.1,0.7-0.1c0.3,0,0.5,0,0.8,0c0.2,0,0.5,0.1,0.7,0.1
			c0.2,0.1,0.4,0.1,0.6,0.2c0.2,0.1,0.3,0.1,0.5,0.2l1.2-3.5c-0.2-0.1-0.4-0.2-0.6-0.2c-0.2-0.1-0.5-0.1-0.8-0.2
			c-0.3,0-0.6-0.1-1-0.1c-0.3,0-0.7,0-1.1,0.1c-0.8,0.1-1.5,0.3-2.1,0.6c-0.6,0.3-1.1,0.7-1.6,1.2c-0.4,0.5-0.8,1-1,1.6
			c-0.2,0.6-0.4,1.2-0.4,2c0,0.4,0,0.8,0.1,1.2c0.1,0.4,0.2,0.7,0.4,1c0.2,0.3,0.4,0.6,0.7,0.9c0.3,0.3,0.5,0.5,0.8,0.7
			c0.2,0.2,0.5,0.4,0.6,0.5c0.2,0.2,0.3,0.3,0.4,0.5c0.1,0.2,0.2,0.3,0.2,0.5c0,0.2,0.1,0.3,0.1,0.5c0,0.2,0,0.4-0.1,0.5
			c-0.1,0.2-0.2,0.3-0.3,0.4c-0.1,0.1-0.3,0.2-0.5,0.2c-0.2,0-0.4,0-0.6,0c-0.3,0-0.5-0.1-0.8-0.2c-0.3-0.1-0.5-0.2-0.7-0.3
			c-0.2-0.1-0.4-0.3-0.6-0.4c-0.2-0.1-0.4-0.3-0.5-0.4l-0.8,2.6c0.1,0.2,0.3,0.3,0.5,0.5c0.2,0.2,0.4,0.3,0.7,0.5
			c0.3,0.2,0.5,0.3,0.8,0.4c0.3,0.1,0.6,0.2,1,0.3c0,0,0,0,0,0c0,0,0,0,0,0c0,0,0,0,0,0c0,0,0,0,0,0c0.7,0.2,1.4,0.2,2.1,0.1
			c0.7-0.1,1.3-0.3,1.8-0.7c0.5-0.4,1-0.9,1.3-1.5c0.3-0.7,0.5-1.4,0.6-2.4c0-0.6-0.1-1.1-0.2-1.5
			C328.7,313.5,328.5,313.1,328.2,312.7z"/>
		
			<linearGradient id="SVGID_12_" gradientUnits="userSpaceOnUse" x1="328.6848" y1="301.9112" x2="326.385" y2="320.638" gradientTransform="matrix(0.9991 4.350000e-02 -4.350000e-02 0.9991 10.524 -4.6967)">
			<stop  offset="0" style="stop-color:#FFFFFF"/>
			<stop  offset="1" style="stop-color:#CECEEB"/>
		</linearGradient>
		<path fill="url(#SVGID_12_)" d="M328.4,312.9c-0.3-0.4-0.6-0.7-0.9-1c-0.3-0.3-0.7-0.5-1-0.7c-0.2-0.1-0.4-0.3-0.6-0.4
			c-0.2-0.1-0.3-0.3-0.4-0.4c-0.1-0.1-0.2-0.3-0.2-0.4c-0.1-0.1-0.1-0.3-0.1-0.4c0-0.2,0.1-0.4,0.1-0.5c0.1-0.2,0.2-0.3,0.3-0.4
			c0.1-0.1,0.3-0.2,0.5-0.3c0.2-0.1,0.4-0.1,0.7-0.1c0.3,0,0.5,0,0.8,0c0.2,0,0.5,0.1,0.7,0.1c0.2,0.1,0.4,0.1,0.6,0.2
			c0.2,0.1,0.3,0.1,0.5,0.2l1.2-3.5c-0.2-0.1-0.4-0.2-0.6-0.2c-0.2-0.1-0.5-0.1-0.8-0.2c-0.3,0-0.6-0.1-1-0.1c-0.3,0-0.7,0-1.1,0.1
			c-0.8,0.1-1.5,0.3-2.1,0.6c-0.6,0.3-1.1,0.7-1.6,1.2c-0.4,0.5-0.8,1-1,1.6c-0.2,0.6-0.4,1.2-0.4,2c0,0.4,0,0.8,0.1,1.2
			c0.1,0.4,0.2,0.7,0.4,1c0.2,0.3,0.4,0.6,0.7,0.9c0.3,0.3,0.5,0.5,0.8,0.7c0.2,0.2,0.5,0.4,0.6,0.5c0.2,0.2,0.3,0.3,0.4,0.5
			c0.1,0.2,0.2,0.3,0.2,0.5c0,0.2,0.1,0.3,0.1,0.5c0,0.2,0,0.4-0.1,0.5c-0.1,0.2-0.2,0.3-0.3,0.4c-0.1,0.1-0.3,0.2-0.5,0.2
			c-0.2,0-0.4,0-0.6,0c-0.3,0-0.5-0.1-0.8-0.2c-0.3-0.1-0.5-0.2-0.7-0.3c-0.2-0.1-0.4-0.3-0.6-0.4c-0.2-0.1-0.4-0.3-0.5-0.4
			l-0.8,2.6c0.1,0.2,0.3,0.3,0.5,0.5c0.2,0.2,0.4,0.3,0.7,0.5c0.3,0.2,0.5,0.3,0.8,0.4c0.3,0.1,0.6,0.2,1,0.3c0,0,0,0,0,0
			c0,0,0,0,0,0c0,0,0,0,0,0c0,0,0,0,0,0c0.7,0.2,1.4,0.2,2.1,0.1c0.7-0.1,1.3-0.3,1.8-0.7c0.5-0.4,1-0.9,1.3-1.5
			c0.3-0.7,0.5-1.4,0.6-2.4c0-0.6-0.1-1.1-0.2-1.5C328.9,313.6,328.6,313.2,328.4,312.9z"/>
		<linearGradient id="SVGID_13_" gradientUnits="userSpaceOnUse" x1="330.0244" y1="311.7758" x2="341.4844" y2="310.6689">
			<stop  offset="0" style="stop-color:#1D1D1B;stop-opacity:0.5"/>
			<stop  offset="3.803299e-02" style="stop-color:#1D1D1B;stop-opacity:0.4837"/>
			<stop  offset="0.4243" style="stop-color:#1D1D1B;stop-opacity:0.3185"/>
			<stop  offset="1" style="stop-color:#1D1D1B;stop-opacity:0"/>
		</linearGradient>
		<path opacity="0.41" fill="url(#SVGID_13_)" d="M337.6,319.8l-0.6-20l-0.1-0.1l0.3,19.8c0,0-2.5,3.8-2.9,3.7
			c-0.6-0.2,1.1-25,1.1-25l-0.2-0.2c-0.1-0.1-0.2-0.1-0.2-0.1l-1.3,26.6l0,0l0,0.4l0.5-0.6l0,0L337.6,319.8z"/>
		<linearGradient id="SVGID_14_" gradientUnits="userSpaceOnUse" x1="332.049" y1="298.6107" x2="330.7254" y2="300.6319">
			<stop  offset="0" style="stop-color:#000000;stop-opacity:0"/>
			<stop  offset="1" style="stop-color:#000000;stop-opacity:0.4"/>
		</linearGradient>
		<path fill="url(#SVGID_14_)" d="M330.9,299.1c-0.2,0.8-0.5,1.6-0.7,2.1c-0.1,0.3,0,0.6,0.3,0.6c0.3,0,0.6-0.2,0.7-0.4
			c0,0,0.5-1.2,0.8-2.6c0,0,0,0,0,0L330.9,299.1z"/>
		<linearGradient id="SVGID_15_" gradientUnits="userSpaceOnUse" x1="324.046" y1="301.0915" x2="322.9192" y2="302.433">
			<stop  offset="0" style="stop-color:#000000;stop-opacity:0"/>
			<stop  offset="1" style="stop-color:#000000;stop-opacity:0.4"/>
		</linearGradient>
		<path fill="url(#SVGID_15_)" d="M322.9,301.5c-0.2,0.5-0.5,1-0.7,1.3c-0.2,0.3-0.1,0.5,0.2,0.6c0.3,0.1,0.6-0.1,0.8-0.3
			c0,0,0.5-0.9,1-2L322.9,301.5z"/>
		<linearGradient id="SVGID_16_" gradientUnits="userSpaceOnUse" x1="338.1041" y1="322.6801" x2="338.5474" y2="324.376">
			<stop  offset="0" style="stop-color:#000000;stop-opacity:0"/>
			<stop  offset="1" style="stop-color:#000000;stop-opacity:0.4"/>
		</linearGradient>
		<polygon opacity="0.32" fill="url(#SVGID_16_)" points="333.7,324.8 337.6,319.8 343.1,322.8 		"/>
		<linearGradient id="SVGID_17_" gradientUnits="userSpaceOnUse" x1="337.5169" y1="320.0104" x2="338.5406" y2="324.4323">
			<stop  offset="0" style="stop-color:#FFFFFF;stop-opacity:0.5"/>
			<stop  offset="8.962709e-02" style="stop-color:#FFFFFF;stop-opacity:0.4552"/>
			<stop  offset="1" style="stop-color:#FFFFFF;stop-opacity:0"/>
		</linearGradient>
		<polygon opacity="0.19" fill="url(#SVGID_17_)" points="333.7,324.8 337.6,319.8 343.1,322.8 		"/>
		<linearGradient id="SVGID_18_" gradientUnits="userSpaceOnUse" x1="337.1173" y1="320.5013" x2="338.9111" y2="325.14">
			<stop  offset="0" style="stop-color:#000000;stop-opacity:0"/>
			<stop  offset="1" style="stop-color:#000000;stop-opacity:0.4"/>
		</linearGradient>
		<polygon opacity="0.19" fill="url(#SVGID_18_)" points="333.7,324.8 337.6,319.8 343.1,322.8 		"/>
		<linearGradient id="SVGID_19_" gradientUnits="userSpaceOnUse" x1="335.2374" y1="301.322" x2="323.8527" y2="314.1757">
			<stop  offset="0" style="stop-color:#FFFFFF;stop-opacity:0.5"/>
			<stop  offset="1" style="stop-color:#FFFFFF;stop-opacity:0"/>
		</linearGradient>
		<path opacity="0.6" fill="url(#SVGID_19_)" d="M329.8,310.8c2.1,2.8,3.4,5.8,4.1,8.7l1.1-21.6c-0.2,0-0.4,0-0.4,0l-15,4.7
			c0,0-0.1,0-0.3,0.1C323,304,326.8,306.8,329.8,310.8z"/>
		<linearGradient id="SVGID_20_" gradientUnits="userSpaceOnUse" x1="333.3637" y1="311.0813" x2="345.9971" y2="311.4676">
			<stop  offset="0" style="stop-color:#1D1D1B;stop-opacity:0.5"/>
			<stop  offset="8.962709e-02" style="stop-color:#1D1D1B;stop-opacity:0.4552"/>
			<stop  offset="1" style="stop-color:#1D1D1B;stop-opacity:0"/>
		</linearGradient>
		<path fill="url(#SVGID_20_)" d="M339.7,300c0.1,0.1,0.1,0.2,0.1,0.2l3.3,22.6l-5.4-3l-0.6-20l2.4,0.2
			C339.5,300,339.6,300,339.7,300z"/>
		<linearGradient id="SVGID_21_" gradientUnits="userSpaceOnUse" x1="342.8359" y1="301.0016" x2="341.8568" y2="304.6315">
			<stop  offset="0" style="stop-color:#FFFFFF;stop-opacity:0.4"/>
			<stop  offset="1" style="stop-color:#FFFFFF;stop-opacity:0"/>
		</linearGradient>
		<path fill="url(#SVGID_21_)" d="M339.3,300.1c0,0,0.1,0,0.2,0.1c0.1,0.1,0.1,0.2,0.1,0.2l3.2,22.3l0.2,0.1l-3.3-22.6
			c0,0,0-0.1-0.1-0.2c-0.1-0.1-0.2-0.1-0.2-0.1l-2.4-0.2L339.3,300.1z"/>
		<linearGradient id="SVGID_22_" gradientUnits="userSpaceOnUse" x1="324.1042" y1="324.5886" x2="324.957" y2="320.2382">
			<stop  offset="0" style="stop-color:#1D1D1B;stop-opacity:0.5"/>
			<stop  offset="8.962709e-02" style="stop-color:#1D1D1B;stop-opacity:0.4552"/>
			<stop  offset="1" style="stop-color:#1D1D1B;stop-opacity:0"/>
		</linearGradient>
		<polygon fill="url(#SVGID_22_)" points="316.2,321.6 333.7,324.8 334.5,306.4 318,306.5 		"/>
		
			<ellipse transform="matrix(-0.3434 0.9392 -0.9392 -0.3434 718.0538 104.1767)" opacity="0.3" fill="#FFFFFF" cx="322.6" cy="303.1" rx="0.8" ry="0.7"/>
		
			<ellipse transform="matrix(-0.3434 0.9392 -0.9392 -0.3434 717.8686 103.9118)" opacity="0.89" cx="322.6" cy="302.9" rx="0.8" ry="0.7"/>
		<linearGradient id="SVGID_23_" gradientUnits="userSpaceOnUse" x1="331.6888" y1="311.2505" x2="343.1921" y2="311.7226">
			<stop  offset="0" style="stop-color:#1D1D1B;stop-opacity:0.5"/>
			<stop  offset="1" style="stop-color:#1D1D1B;stop-opacity:0"/>
		</linearGradient>
		<path fill="url(#SVGID_23_)" d="M337,299.8l-1.8-1.8c-0.1-0.1-0.2-0.1-0.2-0.1l-1.3,26.9l4-5L337,299.8z"/>
		<linearGradient id="SVGID_24_" gradientUnits="userSpaceOnUse" x1="327.6514" y1="297.9789" x2="325.6801" y2="319.5322">
			<stop  offset="0" style="stop-color:#FFFFFF;stop-opacity:0.5"/>
			<stop  offset="1" style="stop-color:#FFFFFF;stop-opacity:0"/>
		</linearGradient>
		<path fill="url(#SVGID_24_)" d="M334.6,297.9l-15,4.7c0,0-0.6,0.2-0.8,0.4c0,0,0,0,0,0l15.1-4.2c0.1,0,0.4-0.1,0.4,0.7l-0.9,25.3
			l0.3,0.1l1.3-26.9C334.8,297.9,334.6,297.9,334.6,297.9z"/>
		<linearGradient id="SVGID_25_" gradientUnits="userSpaceOnUse" x1="327.6514" y1="297.9789" x2="325.6801" y2="319.5322">
			<stop  offset="0" style="stop-color:#FFFFFF;stop-opacity:0.5"/>
			<stop  offset="1" style="stop-color:#FFFFFF;stop-opacity:0"/>
		</linearGradient>
		<path fill="url(#SVGID_25_)" d="M334.6,297.9l-15,4.7c0,0-0.6,0.2-0.8,0.4c0,0,0,0,0,0l3.5-1l12.1-3.7c0,0,0.2-0.1,0.4,0
			l-1.3,26.5l0.3,0l1.3-26.9C334.8,297.9,334.6,297.9,334.6,297.9z"/>
		<linearGradient id="SVGID_26_" gradientUnits="userSpaceOnUse" x1="337.625" y1="320.0527" x2="333.7078" y2="326.2445">
			<stop  offset="0" style="stop-color:#FFFFFF;stop-opacity:0.5"/>
			<stop  offset="8.962709e-02" style="stop-color:#FFFFFF;stop-opacity:0.4552"/>
			<stop  offset="1" style="stop-color:#FFFFFF;stop-opacity:0"/>
		</linearGradient>
		<path opacity="0.32" fill="url(#SVGID_26_)" d="M338.4,320.2l-0.8-0.4l-4,5l0.2,0c0,0,3.5-4.5,3.8-4.7
			C337.9,320,338.4,320.2,338.4,320.2z"/>
		<linearGradient id="SVGID_27_" gradientUnits="userSpaceOnUse" x1="336.4129" y1="319.5092" x2="336.1397" y2="320.5222">
			<stop  offset="0" style="stop-color:#000000;stop-opacity:0"/>
			<stop  offset="1" style="stop-color:#000000;stop-opacity:0.4"/>
		</linearGradient>
		<path opacity="0.57" fill="url(#SVGID_27_)" d="M333.7,324.8l4-5C337.6,319.8,335.1,322.5,333.7,324.8z"/>
		<linearGradient id="SVGID_28_" gradientUnits="userSpaceOnUse" x1="340.5721" y1="320.6017" x2="340.5047" y2="320.8516">
			<stop  offset="0" style="stop-color:#000000;stop-opacity:0"/>
			<stop  offset="1" style="stop-color:#000000;stop-opacity:0.4"/>
		</linearGradient>
		<path opacity="0.46" fill="url(#SVGID_28_)" d="M343.1,322.8l-5.5-3C337.6,319.8,338.3,319.9,343.1,322.8z"/>
		
			<ellipse transform="matrix(-0.3435 0.9392 -0.9392 -0.3435 727.0223 94.2549)" opacity="0.3" fill="#FFFFFF" cx="330.6" cy="301.2" rx="0.8" ry="0.7"/>
		
			<ellipse transform="matrix(-0.3435 0.9392 -0.9392 -0.3435 726.841 93.9974)" opacity="0.89" cx="330.6" cy="301.1" rx="0.8" ry="0.7"/>
		<path fill="#595961" d="M322.6,303.5C322.6,303.5,322.5,303.5,322.6,303.5c-0.4,0-0.6-0.3-0.5-0.6c0-0.3,1-6.9,5.2-8.4
			c1-0.4,1.9-0.3,2.6,0.3c0.8,0.7,1.3,2,1.3,3.9c0.1,1.4-0.1,2.5-0.1,2.6c0,0.3-0.3,0.5-0.6,0.4c-0.3,0-0.5-0.3-0.4-0.6
			c0.2-1.2,0.3-4.5-0.8-5.5c-0.4-0.3-0.9-0.3-1.6-0.1c-3.6,1.3-4.5,7.5-4.5,7.6C323.1,303.3,322.8,303.5,322.6,303.5z"/>
		<path opacity="0.46" fill="#B2B2C2" d="M329.7,294.7c-0.6-0.5-1.4-0.6-2.4-0.2c-1.7,0.6-3.1,2.2-4.1,4.7c-0.7,1.8-1,3.5-1,3.5
			c0,0.1,0,0.2,0.1,0.2c0.1,0.1,0.1,0.1,0.2,0.1c0,0,0,0,0,0c0.2,0,0.3-0.1,0.3-0.3c0-0.1,1-6.4,4.6-7.7c0.7-0.3,1.3-0.2,1.8,0.1
			c1.3,1,1.1,4.4,0.9,5.7c0,0.2,0.1,0.3,0.3,0.4c0.2,0,0.3-0.1,0.4-0.3C330.8,300.8,331.4,296.2,329.7,294.7z"/>
		<path opacity="0.81" fill="#B2B2C2" d="M322.5,302.9C322.5,302.9,322.5,302.9,322.5,302.9c-0.1,0-0.2-0.1-0.2-0.2
			c0-0.1,0.2-1.7,1-3.5c1-2.4,2.4-4,4-4.6c0.9-0.3,1.7-0.3,2.3,0.2c1.7,1.4,1.1,5.9,1.1,6.1c0,0.1-0.1,0.2-0.2,0.2
			c-0.1,0-0.2-0.1-0.2-0.2c0,0,0.6-4.5-1-5.8c-0.5-0.4-1.1-0.4-1.9-0.1c-3.7,1.4-4.7,7.8-4.7,7.8
			C322.7,302.9,322.6,302.9,322.5,302.9z"/>
		<path opacity="0.42" fill="#595961" d="M324.8,297.9c0.2-0.3,0.4-0.5,0.5-0.8c-0.1,0.1-0.6,1-1.6,0.9
			C323.7,297.9,324.3,298.1,324.8,297.9z"/>
		<path opacity="0.42" fill="#595961" d="M324.2,299c0.2-0.3,0.3-0.6,0.4-0.9c-0.1,0.1-0.4,1.1-1.5,1.1
			C323.2,299.2,323.8,299.3,324.2,299z"/>
		<path opacity="0.42" fill="#595961" d="M323.8,300.2c0.1-0.3,0.3-0.6,0.4-0.9c0,0.1-0.2,1.1-1.4,1.2
			C322.7,300.5,323.4,300.5,323.8,300.2z"/>
		<path opacity="0.62" fill="#595961" d="M330.9,296.7c-0.1-0.3-0.2-0.6-0.3-0.9c0,0.1,0.4,1.1-0.3,1.8
			C330.2,297.6,330.8,297.3,330.9,296.7z"/>
		<path opacity="0.62" fill="#595961" d="M330.2,295.1c-0.2-0.2-0.5-0.4-0.7-0.6c0.1,0.1,0.9,0.7,0.7,1.7
			C330.1,296.2,330.4,295.6,330.2,295.1z"/>
		<path opacity="0.62" fill="#595961" d="M331,298.4c0-0.3-0.1-0.7-0.1-1c0,0.1,0.2,1.2-0.7,1.7C330.3,299.1,330.8,298.9,331,298.4z
			"/>
		<path opacity="0.62" fill="#595961" d="M331.1,300c0-0.3,0-0.7,0-1c0,0.1,0,1.2-0.9,1.6C330.2,300.7,330.9,300.5,331.1,300z"/>
		<path opacity="0.42" fill="#595961" d="M323.4,301.5c0.1-0.3,0.2-0.6,0.3-0.9c0,0.1-0.2,1.1-1.3,1.4
			C322.4,301.9,323,301.9,323.4,301.5z"/>
		<path opacity="0.42" fill="#595961" d="M325.5,296.9c0.2-0.2,0.5-0.4,0.7-0.7c-0.1,0.1-0.8,0.8-1.8,0.5
			C324.4,296.7,325,297.1,325.5,296.9z"/>
		<path opacity="0.42" fill="#595961" d="M326.3,296.1c0.3-0.2,0.5-0.4,0.8-0.6c-0.1,0.1-0.9,0.6-1.9,0.2
			C325.3,295.7,325.8,296.2,326.3,296.1z"/>
		<path opacity="0.62" fill="#595961" d="M327.4,295.5c0.3-0.1,0.6-0.2,0.9-0.3c-0.1,0-1.1,0.4-1.8-0.3
			C326.5,294.9,326.8,295.4,327.4,295.5z"/>
		<path opacity="0.62" fill="#595961" d="M328.3,295.2c0.2,0,0.5,0.1,0.7,0.1c-0.1,0-0.9-0.1-1.2-0.8
			C327.9,294.5,328,294.9,328.3,295.2z"/>
		<path opacity="0.62" fill="#595961" d="M329.3,295.6c0.2,0.2,0.3,0.4,0.5,0.6c-0.1-0.1-0.6-0.7-0.3-1.4
			C329.5,294.8,329.2,295.2,329.3,295.6z"/>
		<linearGradient id="SVGID_29_" gradientUnits="userSpaceOnUse" x1="328.0695" y1="294.6477" x2="326.3303" y2="301.9433">
			<stop  offset="0" style="stop-color:#FFFFFF;stop-opacity:0.65"/>
			<stop  offset="1" style="stop-color:#FFFFFF;stop-opacity:0"/>
		</linearGradient>
		<path fill="url(#SVGID_29_)" d="M330.5,300.8c0-0.2,0.6-4.7-1.1-6c-0.3-0.3-0.7-0.4-1.1-0.4c-0.3,0-0.7,0.1-1,0.2
			c-1.6,0.6-3,2.2-3.9,4.6c-0.7,1.8-1,3.4-1,3.5c0,0.1,0,0.1,0.1,0.1c0,0,0,0,0,0c0,0,0.1,0,0.1-0.1c0-0.1,1-6.5,4.8-7.9
			c0.8-0.3,1.5-0.2,2,0.2c1.6,1.3,1,5.8,1,5.9c0,0.1,0,0.1,0.1,0.1C330.4,300.9,330.4,300.9,330.5,300.8
			C330.4,300.9,330.5,300.9,330.5,300.8z"/>
		<g>
			<linearGradient id="SVGID_30_" gradientUnits="userSpaceOnUse" x1="329.8368" y1="296.9038" x2="330.6664" y2="302.5085">
				<stop  offset="0" style="stop-color:#000000;stop-opacity:0"/>
				<stop  offset="1" style="stop-color:#000000;stop-opacity:0.4"/>
			</linearGradient>
			<path fill="url(#SVGID_30_)" d="M331.2,298.6c-0.1-1.9-0.5-3.2-1.3-3.9c-0.4-0.4-1-0.5-1.6-0.5c0.5,0,0.9,0.2,1.2,0.5
				c0.8,0.7,1.3,2,1.3,3.9c0.1,1.4-0.1,2.5-0.1,2.6c0,0.2-0.2,0.4-0.4,0.4c0,0,0.1,0,0.1,0c0.3,0,0.6-0.2,0.6-0.4
				C331.1,301.1,331.2,299.9,331.2,298.6z"/>
		</g>
		<linearGradient id="SVGID_31_" gradientUnits="userSpaceOnUse" x1="324.4341" y1="300.6959" x2="327.3425" y2="294.5927">
			<stop  offset="0" style="stop-color:#000000;stop-opacity:0"/>
			<stop  offset="1" style="stop-color:#000000;stop-opacity:0.4"/>
		</linearGradient>
		<path fill="url(#SVGID_31_)" d="M327.3,295.5c-3.6,1.3-4.5,7.5-4.5,7.6c0,0.2-0.2,0.4-0.4,0.4c0,0,0.1,0,0.1,0c0,0,0.1,0,0.1,0
			c0.3,0,0.5-0.2,0.5-0.5c0-0.1,0.9-6.3,4.5-7.6c0.2-0.1,0.5-0.1,0.7-0.2C328,295.3,327.7,295.3,327.3,295.5z"/>
		<g opacity="0.45">
			<linearGradient id="SVGID_32_" gradientUnits="userSpaceOnUse" x1="322.4238" y1="300.5767" x2="322.6103" y2="302.715">
				<stop  offset="0" style="stop-color:#000000;stop-opacity:0"/>
				<stop  offset="1" style="stop-color:#000000;stop-opacity:0.4"/>
			</linearGradient>
			<path fill="url(#SVGID_32_)" d="M322.5,302.7c-0.2-0.1-0.3-0.2-0.4-0.4c-0.1,0.3-0.1,0.5-0.1,0.5c0,0.3,0.2,0.6,0.4,0.6
				c0,0,0.1,0,0.1,0c0.3,0,0.5-0.2,0.5-0.5c0,0,0-0.2,0.1-0.4C323,302.8,322.7,302.8,322.5,302.7z"/>
			<linearGradient id="SVGID_33_" gradientUnits="userSpaceOnUse" x1="330.4951" y1="299.8725" x2="330.6816" y2="302.0108">
				<stop  offset="0" style="stop-color:#000000;stop-opacity:0"/>
				<stop  offset="1" style="stop-color:#000000;stop-opacity:0.4"/>
			</linearGradient>
			<path fill="url(#SVGID_33_)" d="M330.4,300.7c-0.1-0.1-0.3-0.2-0.3-0.3c0,0.2,0,0.4-0.1,0.6c0,0.3,0.2,0.6,0.4,0.6
				c0.3,0,0.6-0.2,0.6-0.4c0,0,0-0.2,0.1-0.6C330.9,300.7,330.7,300.8,330.4,300.7z"/>
		</g>
		<g>
			<path d="M348.5,315.5c0.7,0.3,1.9,0.8,3,0.8c1,0,1.6-0.6,1.6-1.2c0-0.7-0.4-1.1-1.5-1.8c-1.4-0.8-2.4-1.9-2.4-3.4
				c0-2.6,2.2-4.4,5.4-4.4c1.4,0,2.5,0.3,3.1,0.6l-0.8,2.6c-0.5-0.2-1.3-0.5-2.3-0.5c-1,0-1.7,0.5-1.7,1.2c0,0.6,0.5,1,1.4,1.5
				c1.4,0.8,2.6,1.9,2.6,3.5c0,2.9-2.4,4.6-5.6,4.5c-1.5,0-2.9-0.4-3.6-0.9L348.5,315.5z"/>
			<path d="M357.6,318.8l3.6-18.7h3.7l-1.4,7.3l0.1,0c1-1.2,2.3-1.9,3.9-1.9c1.9,0,3,1.2,3,3.3c0,0.6-0.1,1.6-0.3,2.4l-1.4,7.6H365
				l1.4-7.3c0.1-0.5,0.2-1.1,0.2-1.6c0-0.8-0.3-1.4-1.1-1.4c-1.2,0-2.4,1.5-2.9,3.9l-1.2,6.4H357.6z"/>
			<path d="M383.6,310.6c0,4.5-2.9,8.4-7.2,8.4c-3.3,0-5-2.3-5-5.1c0-4.4,2.9-8.4,7.3-8.4C382,305.5,383.6,308,383.6,310.6z
				 M375,313.8c0,1.3,0.5,2.4,1.8,2.4c1.9,0,3-3.4,3-5.7c0-1.1-0.4-2.2-1.7-2.2C376.1,308.3,375,311.7,375,313.8z"/>
			<path d="M382.7,324l2.5-13.4c0.3-1.5,0.6-3.5,0.7-4.9h3.2l-0.2,2h0.1c1-1.4,2.4-2.2,3.9-2.2c2.7,0,3.8,2.2,3.8,4.7
				c0,4.5-2.8,8.9-7.1,8.9c-0.9,0-1.7-0.2-2.1-0.5h-0.1l-1,5.4H382.7z M387.9,315.7c0.4,0.3,0.8,0.5,1.5,0.5c2,0,3.4-3.4,3.4-5.7
				c0-1-0.3-2-1.5-2c-1.3,0-2.5,1.5-2.9,3.8L387.9,315.7z"/>
			<path d="M396.8,318.8l2.5-13h3.7l-2.5,13H396.8z M401.5,304.2c-1,0-1.7-0.7-1.7-1.8c0-1.2,0.9-2.1,2.1-2.1c1.1,0,1.8,0.8,1.8,1.8
				C403.7,303.4,402.7,304.2,401.5,304.2L401.5,304.2z"/>
			<path d="M403.6,318.8l1.9-10.2h-1.7l0.5-2.8h1.7l0.1-0.6c0.3-1.5,0.9-3.1,2.1-4.1c1-0.8,2.3-1.2,3.6-1.2c0.9,0,1.6,0.1,2,0.3
				l-0.7,2.9c-0.3-0.1-0.7-0.2-1.2-0.2c-1.2,0-2,1.1-2.2,2.4l-0.1,0.6h2.5l-0.5,2.8h-2.5l-1.9,10.2H403.6z"/>
			<path d="M416.8,305.8l0.6,5.8c0.2,1.3,0.3,2.2,0.3,3.1h0.1c0.3-0.9,0.6-1.7,1.1-3.1l2.2-5.8h3.8l-4.5,9.6
				c-1.6,3.3-3.1,5.7-4.8,7.3c-1.3,1.2-2.8,1.8-3.6,2l-1-3.1c0.6-0.2,1.4-0.5,2.1-1c0.8-0.6,1.6-1.4,2-2.2c0.1-0.2,0.1-0.3,0.1-0.6
				l-2.2-11.9H416.8z"/>
		</g>
	</g>
</g>
</svg>
