<?xml version="1.0" encoding="utf-8"?>
<!-- Generator: Adobe Illustrator 17.1.0, SVG Export Plug-In . SVG Version: 6.00 Build 0)  -->
<!DOCTYPE svg PUBLIC "-//W3C//DTD SVG 1.1//EN" "http://www.w3.org/Graphics/SVG/1.1/DTD/svg11.dtd">
<svg version="1.1" xmlns="http://www.w3.org/2000/svg" xmlns:xlink="http://www.w3.org/1999/xlink" x="0px" y="0px"
	 viewBox="-87 -147 266 91.7" enable-background="new -87 -147 266 91.7" xml:space="preserve">
<g id="estimote">
</g>
<g id="Pebble">
	<g>
		<g>
			<path fill="#231F20" d="M-47.2-115.1h3v7.1c2.7-4.2,6.8-7.8,13.1-7.8c7.6,0,15.4,6.1,15.4,16.5v0.1c0,10.3-7.8,16.6-15.4,16.6
				c-6.3,0-10.4-3.6-13.1-7.6v16.8h-3V-115.1z M-19-99.2v-0.1c0-8.3-5.8-13.7-12.4-13.7c-6.6,0-12.9,5.5-12.9,13.6v0.1
				c0,8.1,6.3,13.6,12.9,13.6C-24.5-85.6-19-90.6-19-99.2z"/>
			<path fill="#231F20" d="M28.7-90.3v6.8h-3v-45.4h3v20.7c2.7-4.2,6.8-7.8,13-7.8c7.6,0,15.4,6.1,15.4,16.5v0.1
				c0,10.3-7.8,16.6-15.4,16.6C35.4-82.7,31.3-86.3,28.7-90.3z M53.9-99.2v-0.1c0-8.3-5.8-13.7-12.4-13.7c-6.6,0-12.9,5.5-12.9,13.6
				v0.1c0,8.1,6.3,13.6,12.9,13.6C48.4-85.6,53.9-90.6,53.9-99.2z"/>
			<path fill="#231F20" d="M66.3-90.3v6.8h-3.1v-45.4h3.1v20.7c2.7-4.2,6.8-7.8,13-7.8c7.6,0,15.4,6.1,15.4,16.5v0.1
				c0,10.3-7.8,16.6-15.4,16.6C73-82.7,68.9-86.3,66.3-90.3z M91.5-99.2v-0.1c0-8.3-5.8-13.7-12.4-13.7c-6.6,0-12.9,5.5-12.9,13.6
				v0.1c0,8.1,6.3,13.6,12.9,13.6C85.9-85.6,91.5-90.6,91.5-99.2z"/>
			<path fill="#231F20" d="M100.8-128.8h3v45.4h-3V-128.8z"/>
			<path fill="#231F20" d="M-6.1-96C-4.8-89.4,0.4-85.5,6-85.5c4.9,0,8.3-2.2,10.9-5l2.1,1.9c-3.2,3.5-7,6-13.1,6
				c-8.3,0-15.5-6.6-15.5-16.5v-0.1c0-9.2,6.5-16.5,15-16.5c7.2,0,12.3,4.8,14,11.6c0.1,0.4,0.2,0.9,0.3,1.3L-6.1-96z M15.9-104.8
				c-1.5-4.6-4.9-8.3-10.6-8.3c-6.3,0-11.1,5.3-11.7,12.3v1.9L15.9-104.8z"/>
			<path fill="#231F20" d="M113.4-96c1.3,6.7,6.5,10.5,12.2,10.5c4.9,0,8.3-2.2,10.9-5l2.1,1.9c-3.2,3.5-7,6-13.1,6
				c-8.3,0-15.5-6.6-15.5-16.5v-0.1c0-9.2,6.5-16.5,15-16.5c7.2,0,12.3,4.8,14,11.6c0.1,0.4,0.2,0.9,0.3,1.3L113.4-96z M135.4-104.8
				c-1.5-4.6-4.9-8.3-10.6-8.3c-6.3,0-11.1,5.3-11.7,12.3v1.9L135.4-104.8z"/>
		</g>
	</g>
</g>
<g id="Spark">
</g>
<g id="Layer_4">
</g>
<g id="Layer_5">
</g>
<g id="Layer_6">
</g>
<g id="Base">
</g>
<g id="yelp">
</g>
<g id="Yext">
</g>
<g id="Estimote">
</g>
<g id="Kloudless">
</g>
<g id="Microsoft">
</g>
<g id="Big_Viking">
</g>
<g id="_x35_00px">
</g>
<g id="Magnet_Forensics">
</g>
<g id="Guides">
</g>
<g id="Wit.Ai" display="none">
</g>
<g id="Layer_18">
</g>
<g id="Kik">
</g>
<g id="Layer_20">
</g>
<g id="Affirm">
</g>
<g id="Shopify">
</g>
<g id="apple">
</g>
<g id="Layer_24">
</g>
<g id="pagerduty">
</g>
<g id="Layer_26">
</g>
<g id="bitalino">
</g>
<g id="Layer_28">
</g>
<g id="TextNow">
</g>
<g id="Uber">
</g>
</svg>
