<?xml version="1.0" encoding="utf-8"?>
<!-- Generator: Adobe Illustrator 17.1.0, SVG Export Plug-In . SVG Version: 6.00 Build 0)  -->
<!DOCTYPE svg PUBLIC "-//W3C//DTD SVG 1.1//EN" "http://www.w3.org/Graphics/SVG/1.1/DTD/svg11.dtd">
<svg version="1.1" xmlns="http://www.w3.org/2000/svg" xmlns:xlink="http://www.w3.org/1999/xlink" x="0px" y="0px"
	 viewBox="282 350 174 60" enable-background="new 282 350 174 60" xml:space="preserve">
<g id="estimote">
</g>
<g id="Pebble">
</g>
<g id="Spark">
</g>
<g id="Layer_4">
</g>
<g id="Layer_5">
</g>
<g id="Layer_6">
</g>
<g id="Base">
</g>
<g id="yelp">
</g>
<g id="Yext">
</g>
<g id="Estimote">
</g>
<g id="Kloudless">
</g>
<g id="Microsoft">
</g>
<g id="Big_Viking">
</g>
<g id="_x35_00px">
</g>
<g id="Magnet_Forensics">
</g>
<g id="Guides">
</g>
<g id="Wit.Ai" display="none">
</g>
<g id="Layer_18">
</g>
<g id="Kik">
</g>
<g id="Layer_20">
</g>
<g id="Affirm">
</g>
<g id="Shopify">
	<g>
		<g opacity="5.000000e-02">
			<image overflow="visible" width="96" height="77" xlink:href="A778DD834836ED99.png"  transform="matrix(1 0 0 1 282 284)">
			</image>
		</g>
		<g opacity="0.12">
			<image overflow="visible" width="95" height="77" xlink:href="A778DD834836ED9B.png"  transform="matrix(1 0 0 1 283 284)">
			</image>
		</g>
	</g>
</g>
<g id="apple">
</g>
<g id="velocity">
</g>
<g id="pagerduty">
</g>
<g id="Layer_26">
</g>
<g id="bitalino">
	<g>
		<g>
			<g>
				<defs>
					<rect id="SVGID_37_" x="92.6" y="-313.1" width="112.5" height="41"/>
				</defs>
				<clipPath id="SVGID_2_">
					<use xlink:href="#SVGID_37_"  overflow="visible"/>
				</clipPath>
				<g clip-path="url(#SVGID_2_)">
					<g>
						<defs>
							<rect id="SVGID_43_" x="92.6" y="-313.1" width="112.5" height="41"/>
						</defs>
						<clipPath id="SVGID_3_">
							<use xlink:href="#SVGID_43_"  overflow="visible"/>
						</clipPath>
						<g clip-path="url(#SVGID_3_)">
							<g>
								<defs>
									<rect id="SVGID_49_" x="92.6" y="-313.1" width="112.5" height="41"/>
								</defs>
								<clipPath id="SVGID_4_">
									<use xlink:href="#SVGID_49_"  overflow="visible"/>
								</clipPath>
								<g id="g86" clip-path="url(#SVGID_4_)">
									<g>
										<defs>
											<path id="SVGID_51_" d="M145-328.4h1.4c0.3,1.5,1.6,2.6,3.2,2.6c1.6,0,2.9-1.1,3.2-2.6h1.4v-1.4h-0.5v-1.4h1.9h0v4.2v0
												l-0.2,0l-1.6,0l-0.1,0.1c-0.8,1.5-2.3,2.5-4.1,2.5C147.3-324.4,145.3-326.1,145-328.4"/>
										</defs>
										<clipPath id="SVGID_5_">
											<use xlink:href="#SVGID_51_"  overflow="visible"/>
										</clipPath>
										<g id="g88" clip-path="url(#SVGID_5_)">
											<g id="g94">
												<defs>
													
														<rect id="SVGID_53_" x="17.8" y="-469.8" transform="matrix(-0.2713 0.9625 -0.9625 -0.2713 -107.8132 -538.0009)" width="263.9" height="320"/>
												</defs>
												<clipPath id="SVGID_6_">
													<use xlink:href="#SVGID_53_"  overflow="visible"/>
												</clipPath>
											</g>
										</g>
									</g>
								</g>
								<g clip-path="url(#SVGID_4_)">
									<g>
										<defs>
											<rect id="SVGID_55_" x="92.6" y="-313.1" width="112.5" height="41"/>
										</defs>
										<clipPath id="SVGID_7_">
											<use xlink:href="#SVGID_55_"  overflow="visible"/>
										</clipPath>
										<g id="g122" clip-path="url(#SVGID_7_)">
											<g>
												<defs>
													<path id="SVGID_57_" d="M143.6-327L143.6-327l0-4.2v0l0.2,0l1.6,0l0.1-0.1c0.8-1.5,2.3-2.5,4.1-2.5
														c2.3,0,4.3,1.7,4.6,4h-1.4c-0.3-1.5-1.6-2.6-3.2-2.6c-1.6,0-2.9,1.1-3.2,2.6H145v1.4h0.5v1.4H143.6z"/>
												</defs>
												<clipPath id="SVGID_8_">
													<use xlink:href="#SVGID_57_"  overflow="visible"/>
												</clipPath>
												<g id="g124" clip-path="url(#SVGID_8_)">
													<g id="g130">
														<defs>
															
																<rect id="SVGID_59_" x="26.4" y="-464.9" transform="matrix(-0.1961 -0.9806 0.9806 -0.1961 482.9323 -223.7201)" width="246.7" height="310.3"/>
														</defs>
														<clipPath id="SVGID_9_">
															<use xlink:href="#SVGID_59_"  overflow="visible"/>
														</clipPath>
													</g>
												</g>
											</g>
										</g>
										<g clip-path="url(#SVGID_7_)">
											<g>
												<defs>
													<rect id="SVGID_61_" x="92.6" y="-313.1" width="112.5" height="41"/>
												</defs>
												<clipPath id="SVGID_10_">
													<use xlink:href="#SVGID_61_"  overflow="visible"/>
												</clipPath>
												<g id="g158" clip-path="url(#SVGID_10_)">
													<g>
														<defs>
															<path id="SVGID_63_" d="M145-328.4h1.4c0.3,1.5,1.6,2.6,3.2,2.6v1.4C147.3-324.4,145.3-326.2,145-328.4"/>
														</defs>
														<clipPath id="SVGID_11_">
															<use xlink:href="#SVGID_63_"  overflow="visible"/>
														</clipPath>
														<g id="g160" clip-path="url(#SVGID_11_)">
															<g id="g166">
																<defs>
																	
																		<rect id="SVGID_65_" x="17.8" y="-469.8" transform="matrix(-0.2713 0.9625 -0.9625 -0.2713 -107.8132 -538.0009)" width="263.9" height="320"/>
																</defs>
																<clipPath id="SVGID_12_">
																	<use xlink:href="#SVGID_65_"  overflow="visible"/>
																</clipPath>
															</g>
														</g>
													</g>
												</g>
												<g clip-path="url(#SVGID_10_)">
													<g>
														<defs>
															<rect id="SVGID_67_" x="92.6" y="-313.1" width="112.5" height="41"/>
														</defs>
														<clipPath id="SVGID_13_">
															<use xlink:href="#SVGID_67_"  overflow="visible"/>
														</clipPath>
														<g id="g194" clip-path="url(#SVGID_13_)">
															<g>
																<defs>
																	<path id="SVGID_69_" d="M179.5-324.9c-1.5-0.8-2.5-2.3-2.5-4.1c0-2.3,1.7-4.3,4-4.6v1.4c-1.5,0.3-2.6,1.6-2.6,3.2
																		c0,1,0.4,1.9,1.2,2.5v-0.8h1.4v2.5v0.5c0,0,0,0,0,0l0,0C181-324.4,180.1-324.6,179.5-324.9"/>
																</defs>
																<clipPath id="SVGID_14_">
																	<use xlink:href="#SVGID_69_"  overflow="visible"/>
																</clipPath>
																<g id="g196" clip-path="url(#SVGID_14_)">
																	<g id="g202">
																		<defs>
																			
																				<rect id="SVGID_71_" x="-18.3" y="-477.2" transform="matrix(-0.7071 0.7071 -0.7071 -0.7071 35.3121 -634.2565)" width="334.7" height="334.7"/>
																		</defs>
																		<clipPath id="SVGID_15_">
																			<use xlink:href="#SVGID_71_"  overflow="visible"/>
																		</clipPath>
																	</g>
																</g>
															</g>
														</g>
													</g>
												</g>
											</g>
										</g>
									</g>
								</g>
							</g>
						</g>
					</g>
				</g>
			</g>
		</g>
	</g>
</g>
<g id="Layer_28">
</g>
<g id="TextNow">
</g>
<g id="Uber">
</g>
<g id="mars">
</g>
<g id="twilio">
	<g>
		<g>
			<path fill="#E02429" d="M394.9,368.4h-6.7c-0.2,0-0.3,0.2-0.3,0.3v3.9c0,0.2,0.2,0.3,0.3,0.3h6.7c0.2,0,0.3-0.2,0.3-0.3v-3.9
				C395.3,368.6,395.1,368.4,394.9,368.4z"/>
			<path fill="#E02429" d="M394.8,374.2h-12.9c-0.2,0-0.4,0.1-0.4,0.3l-1.7,6.3v0l-0.1,0.3l-2-6.7c-0.1-0.2-0.2-0.3-0.4-0.3h-5
				c-0.2,0-0.4,0.1-0.4,0.3l-1.9,6.4l0,0l-0.1,0.3l-0.1-0.3v0l-0.8-3.1l-0.8-3.1c0-0.2-0.2-0.3-0.4-0.3h-10.2v-5.5
				c0-0.2-0.2-0.4-0.4-0.3l-6.4,2c-0.2,0.1-0.3,0.2-0.3,0.3v3.4h-1.7c-0.2,0-0.3,0.2-0.3,0.3v4.8c0,0.2,0.2,0.3,0.3,0.3h1.7v5.9
				c0,4.2,2.3,6.2,6.5,6.2c1.7,0,3.4-0.4,4.6-1v-0.3c0,0,0-3.6,0-4.7c0-0.3-0.2-0.3-0.4-0.3c-0.7,0.3-1.2,0.4-1.8,0.4
				c-1.1,0-1.7-0.5-1.7-1.8v-4.4h3.6c0.2,0,0.3-0.2,0.3-0.3v-4.1l4.8,15.9c0.1,0.2,0.2,0.3,0.4,0.3h5.3c0.2,0,0.4-0.1,0.4-0.3
				l2.3-7.1l1.2,3.7l1.1,3.4c0.1,0.2,0.3,0.3,0.4,0.3h5.3c0.2,0,0.4-0.1,0.4-0.3l4.9-16v16c0,0.2,0.2,0.3,0.3,0.3h6.5
				c0.2,0,0.3-0.2,0.3-0.3v-16.7C395.1,374.4,395,374.2,394.8,374.2z"/>
			<path fill="#E02429" d="M403.3,368.4h-6.5c-0.2,0-0.3,0.2-0.3,0.3v22.5c0,0.2,0.2,0.3,0.3,0.3h6.5c0.2,0,0.3-0.2,0.3-0.3v-22.5
				C403.7,368.6,403.5,368.4,403.3,368.4z"/>
			<path fill="#E02429" d="M412,368.4h-6.7c-0.2,0-0.3,0.2-0.3,0.3v3.9c0,0.2,0.2,0.3,0.3,0.3h6.7c0.2,0,0.3-0.2,0.3-0.3v-3.9
				C412.3,368.6,412.2,368.4,412,368.4z"/>
			<path fill="#E02429" d="M411.8,374.2h-6.5c-0.2,0-0.3,0.2-0.3,0.3v16.7c0,0.2,0.2,0.3,0.3,0.3h6.5c0.2,0,0.3-0.2,0.3-0.3v-16.7
				C412.2,374.4,412,374.2,411.8,374.2z"/>
			<path fill="#E02429" d="M422.6,373.8c-5.7,0-9.7,4.2-9.7,9v0.1c0,4.9,4,9,9.7,9c5.7,0,9.7-4.2,9.7-9v-0.1
				C432.2,377.9,428.2,373.8,422.6,373.8z M425.3,382.9c0,1.6-1.2,3-2.8,3c-1.6,0-2.8-1.4-2.8-3.1v-0.1c0-1.6,1.2-3,2.8-3
				C424.1,379.8,425.3,381.1,425.3,382.9L425.3,382.9z"/>
		</g>
		<g>
			<path fill="#E02429" d="M324.8,361c-10.5,0-19,8.5-19,19s8.5,19,19,19c10.5,0,19-8.5,19-19S335.3,361,324.8,361z M324.8,394
				c-7.7,0-14-6.3-14-14s6.3-14,14-14s14,6.3,14,14S332.5,394,324.8,394z"/>
			<circle fill="#E02429" cx="329.5" cy="375.3" r="4"/>
			<circle fill="#E02429" cx="329.5" cy="384.7" r="4"/>
			<circle fill="#E02429" cx="320.1" cy="384.7" r="4"/>
			<circle fill="#E02429" cx="320.1" cy="375.3" r="4"/>
		</g>
	</g>
</g>
</svg>
