<?xml version="1.0" encoding="utf-8"?>
<!-- Generator: Adobe Illustrator 17.1.0, SVG Export Plug-In . SVG Version: 6.00 Build 0)  -->
<!DOCTYPE svg PUBLIC "-//W3C//DTD SVG 1.1//EN" "http://www.w3.org/Graphics/SVG/1.1/DTD/svg11.dtd">
<svg version="1.1" xmlns="http://www.w3.org/2000/svg" xmlns:xlink="http://www.w3.org/1999/xlink" x="0px" y="0px"
	 viewBox="98 280 174 60" enable-background="new 98 280 174 60" xml:space="preserve">
<g id="estimote">
</g>
<g id="Layer_2">
</g>
<g id="Spark">
</g>
<g id="Layer_4">
</g>
<g id="Layer_5">
</g>
<g id="Layer_6">
</g>
<g id="Base">
</g>
<g id="yelp">
</g>
<g id="Yext">
</g>
<g id="Estimote">
</g>
<g id="Kloudless">
</g>
<g id="Microsoft">
</g>
<g id="Big_Viking">
</g>
<g id="_x35_00px">
</g>
<g id="Magnet_Forensics">
</g>
<g id="Guides">
</g>
<g id="Wit.Ai">
</g>
<g id="Layer_18">
</g>
<g id="Kik">
</g>
<g id="Layer_20">
</g>
<g id="Affirm">
	<g>
		<path fill="#00A85F" d="M187.1,292.8c-1.7,0-3,1.3-3,3c0,1.7,1.3,3,3,3c1.7,0,3-1.3,3-3C190.1,294.2,188.8,292.8,187.1,292.8z"/>
		<rect x="184.5" y="300.8" fill="#00A85F" width="5.1" height="20.4"/>
		<path fill="#00A85F" d="M205.1,300.3c-2.6,0-5.5,1.8-6.5,4.2v-3.6h-4.9v20.4h5.1v-9.5c0-4,1.5-6.2,4.9-6.3l2.9-5
			C206.3,300.3,205.3,300.3,205.1,300.3z"/>
		<path fill="#00A85F" d="M225.6,300.3c-2.2,0-4.2,0.8-5.5,2.3l-0.1,0.1l-0.1-0.1c-1.4-1.5-3.3-2.3-5.5-2.3c-4.7,0-8.1,3.4-8.1,8.2
			v12.7h5v-12.8c0-2,1.2-3.3,3.1-3.3c1.9,0,3.1,1.3,3.1,3.3v12.8h5v-12.8c0-2,1.2-3.3,3.1-3.3c1.9,0,3.1,1.3,3.1,3.3v12.8h5v-12.7
			C233.8,303.7,230.4,300.3,225.6,300.3z"/>
		<path fill="#00A85F" d="M178.3,298.9c0-0.7,0.1-1.5,0.7-1.9c0.6-0.5,1.6-0.4,2.3-0.4l1-3.7l-0.5,0c-2.1-0.1-4.4-0.3-6.3,1
			c-1.6,1.1-2.3,2.9-2.3,4.7v2.2h-6.1v-1.9c0-0.7,0.1-1.5,0.7-1.9c0.6-0.5,1.6-0.4,2.3-0.4l1-3.7l-0.5,0c-2.2-0.1-4.4-0.3-6.3,1
			c-1.6,1.1-2.2,2.8-2.2,4.7v2.2h-2.3v3.7h2.3v16.7h5.1v-16.7h6.1v16.7h5.1v-16.7h3.5v-3.7h-3.5V298.9z"/>
		<path fill="#00A85F" d="M157.1,321.2l0-18c0-1.5-1.2-2.7-2.6-2.9c-1-0.1-2,0.3-2.6,1.1l-15.7,19.8h3.9c1.5,0,2.8-0.8,3.7-2l8.7-11
			v13H157.1z"/>
	</g>
</g>
<g id="Shopify">
</g>
</svg>
