<?xml version="1.0" encoding="utf-8"?>
<!-- Generator: Adobe Illustrator 17.1.0, SVG Export Plug-In . SVG Version: 6.00 Build 0)  -->
<!DOCTYPE svg PUBLIC "-//W3C//DTD SVG 1.1//EN" "http://www.w3.org/Graphics/SVG/1.1/DTD/svg11.dtd">
<svg version="1.1" xmlns="http://www.w3.org/2000/svg" xmlns:xlink="http://www.w3.org/1999/xlink" x="0px" y="0px"
	 viewBox="282 244.3 174 60" enable-background="new 282 244.3 174 60" xml:space="preserve">
<g id="estimote">
</g>
<g id="Layer_2">
</g>
<g id="Spark">
</g>
<g id="Layer_4">
</g>
<g id="Layer_5">
</g>
<g id="Layer_6">
</g>
<g id="Base">
</g>
<g id="yelp">
</g>
<g id="Yext">
</g>
<g id="Estimote">
	<g>
		<path fill="#282829" d="M380.6,281.4c0.1-0.1,0.2,0,0.2,0l0.4,0.7c0,0.1,0,0.2-0.1,0.2c-0.4,0.3-1.1,0.5-1.8,0.5
			c-0.8,0-1.5-0.2-1.9-0.7c-0.5-0.5-0.7-1.1-0.7-1.9c0-0.7,0.3-1.3,0.7-1.8c0.4-0.4,1-0.7,1.8-0.7c0.9,0,1.5,0.3,1.9,0.8
			c0.4,0.5,0.5,1.1,0.4,1.9c0,0.1-0.1,0.2-0.2,0.2h-3.2c0,0.3,0.2,0.6,0.3,0.7c0.2,0.2,0.6,0.4,1,0.4
			C379.9,281.8,380.2,281.6,380.6,281.4z M380.1,279.8c0-0.3-0.1-0.5-0.2-0.6c-0.2-0.2-0.4-0.3-0.7-0.3c-0.3,0-0.6,0.1-0.8,0.3
			c-0.1,0.2-0.2,0.4-0.3,0.6H380.1z"/>
		<path fill="#282829" d="M384.6,281.7c0.1-0.1,0.2-0.2,0.2-0.4c0-0.2-0.2-0.3-0.4-0.5c-0.3-0.1-0.7-0.2-1.1-0.4
			c-0.5-0.2-0.8-0.7-0.8-1.3c0-0.4,0.2-0.8,0.5-1c0.3-0.2,0.8-0.4,1.4-0.4c0.8,0,1.2,0.2,1.6,0.4c0.1,0.1,0.1,0.1,0.1,0.2l-0.4,0.7
			c0,0.1-0.1,0.1-0.2,0.1c-0.4-0.2-0.8-0.3-1.1-0.3c-0.2,0-0.3,0-0.5,0.1c-0.1,0.1-0.1,0.2-0.1,0.3c0,0.2,0.2,0.3,0.4,0.4
			c0.3,0.1,0.7,0.2,1.1,0.4c0.6,0.3,0.9,0.7,0.9,1.2c0,0.5-0.2,0.9-0.6,1.2c-0.4,0.2-0.8,0.4-1.4,0.4c-0.8,0-1.4-0.2-1.7-0.4
			c-0.1-0.1-0.1-0.1-0.1-0.2l0.4-0.7c0-0.1,0.1-0.1,0.2-0.1c0.4,0.3,0.8,0.4,1.2,0.4C384.3,281.8,384.5,281.8,384.6,281.7z"/>
		<path fill="#282829" d="M389,280.8c0,0.2,0,0.4,0.1,0.6c0.1,0.2,0.2,0.2,0.5,0.2c0.2,0,0.4-0.1,0.7-0.3c0.1-0.1,0.2-0.1,0.2,0
			l0.4,0.8c0,0.1,0,0.2-0.1,0.2c-0.4,0.3-1,0.5-1.6,0.5c-0.6,0-1-0.2-1.2-0.5c-0.3-0.4-0.4-0.9-0.4-1.4v-2h-0.5
			c-0.1,0-0.2-0.1-0.2-0.2V278c0-0.1,0.1-0.2,0.2-0.2h0.5v-1c0-0.1,0.1-0.2,0.2-0.2h1.1c0.1,0,0.2,0.1,0.2,0.2v1h1.3
			c0.1,0,0.2,0.1,0.2,0.2v0.8c0,0.1-0.1,0.2-0.2,0.2h-1.3L389,280.8L389,280.8z"/>
		<path fill="#282829" d="M392,277.9h1.1c0.1,0,0.2,0.1,0.2,0.2v4.5c0,0.1-0.1,0.2-0.2,0.2H392c-0.1,0-0.2-0.1-0.2-0.2v-4.5
			C391.9,277.9,391.9,277.9,392,277.9z"/>
		<path fill="#282829" d="M396.2,278.3c0.1-0.1,0.2-0.2,0.3-0.3c0.3-0.1,0.6-0.2,0.9-0.2c0.3,0,0.6,0.1,0.9,0.2
			c0.2,0.1,0.5,0.3,0.6,0.5c0.1-0.2,0.4-0.4,0.6-0.5c0.2-0.1,0.6-0.2,0.9-0.2c0.5,0,1,0.1,1.4,0.5c0.3,0.3,0.5,0.8,0.5,1.5v2.8
			c0,0.1-0.1,0.2-0.2,0.2h-1.1c-0.1,0-0.2-0.1-0.2-0.2v-2.5c0-0.3-0.1-0.7-0.2-0.9c-0.1-0.1-0.3-0.3-0.6-0.3s-0.5,0.2-0.7,0.4
			c-0.1,0.3-0.2,0.6-0.2,1v2.2c0,0.1-0.1,0.2-0.2,0.2h-1.1c-0.1,0-0.2-0.1-0.2-0.2v-2.5c0-0.3-0.1-0.7-0.2-0.9
			c-0.1-0.1-0.3-0.3-0.6-0.3c-0.3,0-0.5,0.2-0.7,0.4c-0.1,0.2-0.2,0.5-0.2,0.9v2.4c0,0.1-0.1,0.2-0.2,0.2H395
			c-0.1,0-0.2-0.1-0.2-0.2V278c0-0.1,0.1-0.2,0.2-0.2h1c0.1,0,0.2,0.1,0.2,0.2L396.2,278.3L396.2,278.3L396.2,278.3z"/>
		<path fill="#282829" d="M404.4,278.5c0.5-0.4,1.1-0.7,1.8-0.7s1.4,0.2,1.8,0.7c0.5,0.4,0.8,1.1,0.8,1.9s-0.3,1.4-0.8,1.9
			c-0.5,0.4-1.1,0.7-1.8,0.7c-0.7,0-1.4-0.2-1.8-0.7c-0.5-0.4-0.8-1.1-0.8-1.9C403.6,279.6,403.9,278.9,404.4,278.5z M405.4,281.3
			c0.2,0.2,0.5,0.4,0.9,0.4c0.4,0,0.7-0.1,0.9-0.4c0.2-0.2,0.4-0.6,0.4-1c0-0.4-0.1-0.8-0.4-1c-0.2-0.2-0.5-0.4-0.9-0.4
			c-0.4,0-0.7,0.1-0.9,0.4c-0.2,0.2-0.4,0.6-0.4,1C405,280.7,405.1,281.1,405.4,281.3z"/>
		<path fill="#282829" d="M411.8,280.8c0,0.2,0,0.4,0.1,0.6c0.1,0.2,0.2,0.2,0.5,0.2c0.2,0,0.4-0.1,0.7-0.3c0.1-0.1,0.2-0.1,0.2,0
			l0.4,0.8c0,0.1,0,0.2-0.1,0.2c-0.4,0.3-1,0.5-1.6,0.5c-0.6,0-1-0.2-1.2-0.5c-0.3-0.4-0.4-0.9-0.4-1.4v-2h-0.5
			c-0.1,0-0.2-0.1-0.2-0.2V278c0-0.1,0.1-0.2,0.2-0.2h0.5v-1c0-0.1,0.1-0.2,0.2-0.2h1.1c0.1,0,0.2,0.1,0.2,0.2v1h1.3
			c0.1,0,0.2,0.1,0.2,0.2v0.8c0,0.1-0.1,0.2-0.2,0.2h-1.3L411.8,280.8L411.8,280.8z"/>
		<path fill="#282829" d="M418.1,281.4c0.1-0.1,0.2,0,0.2,0l0.4,0.7c0,0.1,0,0.2-0.1,0.2c-0.4,0.3-1.1,0.5-1.8,0.5
			c-0.8,0-1.5-0.2-1.9-0.7c-0.5-0.5-0.7-1.1-0.7-1.9c0-0.7,0.3-1.3,0.7-1.8c0.4-0.4,1-0.7,1.8-0.7c0.9,0,1.5,0.3,1.9,0.8
			c0.4,0.5,0.5,1.1,0.4,1.9c0,0.1-0.1,0.2-0.2,0.2h-3.2c0,0.3,0.2,0.6,0.3,0.7c0.2,0.2,0.6,0.4,1,0.4
			C417.4,281.8,417.8,281.6,418.1,281.4z M417.6,279.8c0-0.3-0.1-0.5-0.2-0.6c-0.2-0.2-0.4-0.3-0.7-0.3s-0.6,0.1-0.8,0.3
			c-0.1,0.2-0.2,0.4-0.3,0.6H417.6z"/>
		<path fill="#282829" d="M391.7,276.2c0-0.5,0.4-0.8,0.8-0.8c0.5,0,0.8,0.4,0.8,0.8s-0.4,0.8-0.8,0.8
			C392.1,277,391.7,276.6,391.7,276.2"/>
	</g>
	<polygon fill="#E1DC1D" stroke="#E1DC1D" stroke-linecap="round" stroke-linejoin="round" points="352.4,295.1 353.2,294.3 
		364.3,287.1 366.7,287.4 	"/>
	<g>
		<g>
			<polygon fill="#ADAE36" stroke="#ADAE36" stroke-linecap="round" stroke-linejoin="round" points="353.1,287.8 350.4,285.6 
				355.2,279.1 358.9,279.9 			"/>
			<polygon fill="#D7D325" stroke="#D7D325" stroke-linecap="round" stroke-linejoin="round" points="353.2,294.3 353.1,287.8 
				358.9,279.9 368.3,277.9 368.7,279.9 364.3,287.1 			"/>
			<polygon fill="#A3A336" stroke="#A3A336" stroke-linecap="round" stroke-linejoin="round" points="347.3,286.1 350.4,285.6 
				355.2,279.1 345.5,275.6 346.2,281 			"/>
			<polygon fill="#CCC92B" stroke="#CCC92B" stroke-linecap="round" stroke-linejoin="round" points="349.1,292.5 347.3,286.1 
				350.4,285.6 353.1,287.8 353.2,294.3 352.4,295.1 			"/>
		</g>
		<polygon fill="#EDE80F" stroke="#EDE80F" points="366.7,287.4 367.8,286.1 368.7,279.9 364.3,287.1 		"/>
	</g>
	<g>
		<polygon fill="#7CA38B" stroke="#7CA38B" stroke-linecap="round" stroke-linejoin="round" points="355.5,269.8 355.3,279.1 
			359.1,279.9 366.9,272.7 360.5,269.2 		"/>
		<polygon fill="#99C5A7" stroke="#99C5A7" stroke-linecap="round" stroke-linejoin="round" points="379.7,270.9 381.3,269.1 
			368.6,256.1 364.5,257.9 360.5,269.2 366.9,272.7 		"/>
		<polygon fill="#9FCDAE" stroke="#9FCDAE" stroke-linecap="round" stroke-linejoin="round" points="368.5,277.9 359.1,279.9 
			366.9,272.7 379.7,270.9 374.7,274.5 		"/>
		<polygon fill="#8DB59B" stroke="#8DB59B" stroke-linecap="round" stroke-linejoin="round" points="355.5,269.8 348.6,268.6 
			345.6,275.6 355.3,279.1 		"/>
		<polygon fill="#ABD1B7" stroke="#ABD1B7" stroke-linecap="round" stroke-linejoin="round" points="364.5,257.9 353.3,259.5 
			348.6,268.6 355.5,269.8 360.5,269.2 		"/>
		<polygon fill="#C2DCC9" stroke="#C2DCC9" stroke-linecap="round" stroke-linejoin="round" points="354,258.2 363.3,256.1 
			368.6,256.1 364.5,257.9 353.3,259.5 		"/>
	</g>
	<g>
		<polygon fill="#49499E" stroke="#49499E" stroke-linecap="round" stroke-linejoin="round" points="353.3,259.5 338.2,249.9 
			334,255.4 337.2,263.9 348.6,268.6 		"/>
		<polygon fill="#383B95" stroke="#383B95" stroke-linecap="round" stroke-linejoin="round" points="345.6,275.6 337.8,272.7 
			336,271.3 337.2,263.9 348.6,268.6 		"/>
		<polygon fill="#5C58A6" stroke="#5C58A6" stroke-linecap="round" stroke-linejoin="round" points="353.3,259.5 354,258.2 
			351.8,255.3 344.1,251 339,249.5 338.2,249.9 		"/>
		<polygon fill="#6461AB" stroke="#6461AB" stroke-linecap="round" stroke-linejoin="round" points="336,271.3 337.2,263.9 
			334,255.4 332.5,258.5 		"/>
	</g>
	<polygon fill="#A0DDF9" stroke="#A0DDF9" stroke-linecap="round" stroke-linejoin="round" points="330.4,265.9 332.5,258.5 
		336,271.3 334.7,271 	"/>
	<polygon fill="#C6E7F8" stroke="#C6E7F8" stroke-linecap="round" stroke-linejoin="round" points="329.8,263.6 332.5,258.5 
		330.4,265.9 	"/>
	<polygon fill="#69C5EA" stroke="#69C5EA" stroke-linecap="round" stroke-linejoin="round" points="335.9,272.3 334.7,271 
		336,271.3 337.8,272.7 	"/>
	<polygon fill="#F7C1DA" stroke="#F7C1DA" stroke-linecap="round" stroke-linejoin="round" points="325.5,268.9 330.4,265.9 
		334.7,271 326.7,272.3 	"/>
	<polygon fill="#F6AECD" stroke="#F6AECD" stroke-linecap="round" stroke-linejoin="round" points="327.5,277.9 326.7,272.3 
		334.7,271 335.9,272.3 330.8,280.3 	"/>
	<polygon fill="#E689B3" stroke="#E689B3" points="344.6,275.2 337.8,272.7 335.9,272.3 330.8,280.3 333.2,283.4 338.2,285.6 
		339.1,284.8 	"/>
	<polygon fill="#FACDDF" stroke="#FACDDF" points="329.8,263.6 327.7,262.9 323.4,265.9 325.5,268.9 330.4,265.9 	"/>
	<polygon fill="#F9D5E3" stroke="#F9D5E3" points="329.8,263.6 327.7,262.9 330.2,262.9 	"/>
	<polygon fill="#DB7AA6" stroke="#DB7AA6" points="326.7,278.3 327.5,277.9 330.8,280.3 333.2,283.4 	"/>
	<polygon fill="#701B57" stroke="#701B57" stroke-linecap="round" stroke-linejoin="round" points="325.5,268.8 311,269.1 
		310.4,276.2 316.1,283.4 326.7,272.2 	"/>
	<polygon fill="#62144B" stroke="#62144B" stroke-width="0.75" stroke-linecap="round" stroke-linejoin="round" points="
		317.6,284.9 316.1,283.3 326.7,272.2 327.5,277.8 	"/>
	<polygon fill="#872269" stroke="#872269" stroke-linecap="round" stroke-linejoin="round" points="323.4,265.9 325.5,268.9 
		311,269.1 312.1,267.8 	"/>
	<polygon fill="#9E237A" stroke="#9E237A" stroke-linecap="round" stroke-linejoin="round" points="316.1,283.3 310.4,276.2 
		314.5,283.9 	"/>
	<polygon fill="#8F236F" stroke="#8F236F" stroke-linecap="round" stroke-linejoin="round" points="317.6,284.9 315.4,284.9 
		314.5,283.9 316.1,283.3 	"/>
</g>
<g id="Kloudless">
</g>
<g id="Microsoft">
</g>
<g id="Big_Viking">
</g>
<g id="Guides">
</g>
</svg>
