<?xml version="1.0" encoding="utf-8"?>
<!-- Generator: Adobe Illustrator 17.1.0, SVG Export Plug-In . SVG Version: 6.00 Build 0)  -->
<!DOCTYPE svg PUBLIC "-//W3C//DTD SVG 1.1//EN" "http://www.w3.org/Graphics/SVG/1.1/DTD/svg11.dtd">
<svg version="1.1" xmlns="http://www.w3.org/2000/svg" xmlns:xlink="http://www.w3.org/1999/xlink" x="0px" y="0px"
	 viewBox="-87 350 174 60" enable-background="new -87 350 174 60" xml:space="preserve">
<g id="estimote">
</g>
<g id="Pebble">
</g>
<g id="Spark">
</g>
<g id="Layer_4">
</g>
<g id="Layer_5">
</g>
<g id="Layer_6">
</g>
<g id="Base">
</g>
<g id="yelp">
</g>
<g id="Yext">
</g>
<g id="Estimote">
</g>
<g id="Kloudless">
</g>
<g id="Microsoft">
</g>
<g id="Big_Viking">
</g>
<g id="_x35_00px">
</g>
<g id="Magnet_Forensics">
</g>
<g id="Guides">
</g>
<g id="Wit.Ai" display="none">
	<g display="inline">
		<g>
			<polygon fill="#BAD4EE" stroke="#101E46" stroke-width="0.7" stroke-miterlimit="10" points="-25,382.6 -29.4,382.4 -42.6,382.1 
				-42.6,382.9 -25.1,383.3 			"/>
			<polygon fill="#BAD4EE" stroke="#101E46" stroke-width="0.7" stroke-miterlimit="10" points="-43.3,382 -43.3,382.9 -46.8,383.1 
				-46.8,382.6 -44.2,382.2 			"/>
			<g>
				<g>
					<path fill="#BAD4EE" stroke="#101E46" stroke-width="0.7" stroke-miterlimit="10" d="M-46.8,367.1v2.6l0,0.5
						c0.6,0.5,1,1.9,1,3.7c0,1.6-0.5,3.1-1,3.7l0,0.7v3.7l3.5-0.6v-17C-43.3,364.4-46.9,366.1-46.8,367.1z"/>
				</g>
			</g>
			<path fill="#BAD4EE" stroke="#101E46" stroke-width="0.7" stroke-miterlimit="10" d="M-48.4,373.9c0,1.6,0.5,2.9,1.1,3
				c0.6,0,1.1-1.3,1.2-2.9c0-1.6-0.5-2.9-1.1-3C-47.9,371-48.4,372.3-48.4,373.9z"/>
			<path fill="#BAD4EE" stroke="#101E46" stroke-width="0.7" stroke-miterlimit="10" d="M-20.5,394.8v-9.2c0,0,0.2-1.5-1.3-1.6
				l-24.7-0.4c0,0-2.5-0.5-2.6,1.7v9.5H-20.5z"/>
			<path fill="#BAD4EE" stroke="#101E46" stroke-width="0.7" stroke-miterlimit="10" d="M-49.6,394.8v-9.5c0,0,0.1-1.3-1.1-1.2
				c0,0-3,0-3.7,2.5v8.2H-49.6z"/>
			<path fill="#BAD4EE" stroke="#101E46" stroke-width="0.7" stroke-miterlimit="10" d="M-26.8,364.3l-13.6-0.6c0,0-2.1-0.3-2.3,1.6
				v15.1v1l17.6,0.4v-15.5C-25.1,366.3-25.1,364.4-26.8,364.3z"/>
			<circle fill="#FFFFFF" stroke="#101E46" stroke-width="0.7" stroke-miterlimit="10" cx="-37.3" cy="371.8" r="1.7"/>
			<circle fill="#FFFFFF" stroke="#101E46" stroke-width="0.7" stroke-miterlimit="10" cx="-29.3" cy="371.8" r="1.7"/>
		</g>
		<g>
			<path fill="#231F20" d="M-8.7,389.9l-4.9-19.4h2.7l2.3,9.8c0.6,2.4,1.1,4.8,1.4,6.7h0.1c0.3-1.9,0.9-4.2,1.6-6.7l2.6-9.8h2.6
				l2.4,9.9c0.5,2.3,1.1,4.6,1.4,6.7h0.1c0.4-2.1,1-4.3,1.6-6.7l2.6-9.8h2.6l-5.5,19.4H2l-2.4-10.1c-0.6-2.5-1-4.4-1.3-6.3h-0.1
				c-0.3,1.9-0.8,3.8-1.5,6.3l-2.8,10.1H-8.7z"/>
			<path fill="#231F20" d="M14.8,372c0,0.9-0.6,1.6-1.6,1.6c-0.9,0-1.5-0.7-1.5-1.6c0-0.9,0.7-1.6,1.6-1.6
				C14.2,370.4,14.8,371.1,14.8,372z M12,389.9v-13.9h2.5v13.9H12z"/>
			<path fill="#231F20" d="M21.8,371.9v4h3.6v1.9h-3.6v7.5c0,1.7,0.5,2.7,1.9,2.7c0.7,0,1.2-0.1,1.5-0.2l0.1,1.9
				c-0.5,0.2-1.3,0.3-2.2,0.3c-1.2,0-2.1-0.4-2.7-1.1c-0.7-0.7-1-2-1-3.6v-7.6h-2.2v-1.9h2.2v-3.3L21.8,371.9z"/>
			<path fill="#231F20" d="M27.5,388.4c0-1.1,0.7-1.8,1.7-1.8c1,0,1.7,0.7,1.7,1.8c0,1-0.7,1.8-1.7,1.8
				C28.2,390.2,27.5,389.4,27.5,388.4z"/>
			<path fill="#231F20" d="M37.3,383.8l-2,6.1h-2.6l6.6-19.4h3l6.6,19.4h-2.7l-2.1-6.1H37.3z M43.7,381.8l-1.9-5.6
				c-0.4-1.3-0.7-2.4-1-3.5h-0.1c-0.3,1.2-0.6,2.3-1,3.5l-1.9,5.6H43.7z"/>
			<path fill="#231F20" d="M54.3,370.4v19.4h-2.5v-19.4H54.3z"/>
		</g>
	</g>
</g>
<g id="Layer_18">
</g>
<g id="Kik">
</g>
<g id="Layer_20">
</g>
<g id="Affirm">
</g>
<g id="Shopify">
</g>
<g id="apple">
</g>
<g id="velocity">
</g>
<g id="pagerduty">
</g>
<g id="Layer_26">
</g>
<g id="bitalino">
	<g>
		<g>
			<g>
				<defs>
					<rect id="SVGID_37_" x="92.6" y="-313.1" width="112.5" height="41"/>
				</defs>
				<clipPath id="SVGID_2_">
					<use xlink:href="#SVGID_37_"  overflow="visible"/>
				</clipPath>
				<g clip-path="url(#SVGID_2_)">
					<g>
						<defs>
							<rect id="SVGID_43_" x="92.6" y="-313.1" width="112.5" height="41"/>
						</defs>
						<clipPath id="SVGID_3_">
							<use xlink:href="#SVGID_43_"  overflow="visible"/>
						</clipPath>
						<g clip-path="url(#SVGID_3_)">
							<g>
								<defs>
									<rect id="SVGID_49_" x="92.6" y="-313.1" width="112.5" height="41"/>
								</defs>
								<clipPath id="SVGID_4_">
									<use xlink:href="#SVGID_49_"  overflow="visible"/>
								</clipPath>
								<g id="g86" clip-path="url(#SVGID_4_)">
									<g>
										<defs>
											<path id="SVGID_51_" d="M145-328.4h1.4c0.3,1.5,1.6,2.6,3.2,2.6c1.6,0,2.9-1.1,3.2-2.6h1.4v-1.4h-0.5v-1.4h1.9h0v4.2v0
												l-0.2,0l-1.6,0l-0.1,0.1c-0.8,1.5-2.3,2.5-4.1,2.5C147.3-324.4,145.3-326.1,145-328.4"/>
										</defs>
										<clipPath id="SVGID_5_">
											<use xlink:href="#SVGID_51_"  overflow="visible"/>
										</clipPath>
										<g id="g88" clip-path="url(#SVGID_5_)">
											<g id="g94">
												<defs>
													
														<rect id="SVGID_53_" x="17.8" y="-469.8" transform="matrix(-0.2713 0.9625 -0.9625 -0.2713 -107.8132 -538.0009)" width="263.9" height="320"/>
												</defs>
												<clipPath id="SVGID_6_">
													<use xlink:href="#SVGID_53_"  overflow="visible"/>
												</clipPath>
											</g>
										</g>
									</g>
								</g>
								<g clip-path="url(#SVGID_4_)">
									<g>
										<defs>
											<rect id="SVGID_55_" x="92.6" y="-313.1" width="112.5" height="41"/>
										</defs>
										<clipPath id="SVGID_7_">
											<use xlink:href="#SVGID_55_"  overflow="visible"/>
										</clipPath>
										<g id="g122" clip-path="url(#SVGID_7_)">
											<g>
												<defs>
													<path id="SVGID_57_" d="M143.6-327L143.6-327l0-4.2v0l0.2,0l1.6,0l0.1-0.1c0.8-1.5,2.3-2.5,4.1-2.5
														c2.3,0,4.3,1.7,4.6,4h-1.4c-0.3-1.5-1.6-2.6-3.2-2.6c-1.6,0-2.9,1.1-3.2,2.6H145v1.4h0.5v1.4H143.6z"/>
												</defs>
												<clipPath id="SVGID_8_">
													<use xlink:href="#SVGID_57_"  overflow="visible"/>
												</clipPath>
												<g id="g124" clip-path="url(#SVGID_8_)">
													<g id="g130">
														<defs>
															
																<rect id="SVGID_59_" x="26.4" y="-464.9" transform="matrix(-0.1961 -0.9806 0.9806 -0.1961 482.9323 -223.7201)" width="246.7" height="310.3"/>
														</defs>
														<clipPath id="SVGID_9_">
															<use xlink:href="#SVGID_59_"  overflow="visible"/>
														</clipPath>
													</g>
												</g>
											</g>
										</g>
										<g clip-path="url(#SVGID_7_)">
											<g>
												<defs>
													<rect id="SVGID_61_" x="92.6" y="-313.1" width="112.5" height="41"/>
												</defs>
												<clipPath id="SVGID_10_">
													<use xlink:href="#SVGID_61_"  overflow="visible"/>
												</clipPath>
												<g id="g158" clip-path="url(#SVGID_10_)">
													<g>
														<defs>
															<path id="SVGID_63_" d="M145-328.4h1.4c0.3,1.5,1.6,2.6,3.2,2.6v1.4C147.3-324.4,145.3-326.2,145-328.4"/>
														</defs>
														<clipPath id="SVGID_11_">
															<use xlink:href="#SVGID_63_"  overflow="visible"/>
														</clipPath>
														<g id="g160" clip-path="url(#SVGID_11_)">
															<g id="g166">
																<defs>
																	
																		<rect id="SVGID_65_" x="17.8" y="-469.8" transform="matrix(-0.2713 0.9625 -0.9625 -0.2713 -107.8132 -538.0009)" width="263.9" height="320"/>
																</defs>
																<clipPath id="SVGID_12_">
																	<use xlink:href="#SVGID_65_"  overflow="visible"/>
																</clipPath>
															</g>
														</g>
													</g>
												</g>
												<g clip-path="url(#SVGID_10_)">
													<g>
														<defs>
															<rect id="SVGID_67_" x="92.6" y="-313.1" width="112.5" height="41"/>
														</defs>
														<clipPath id="SVGID_13_">
															<use xlink:href="#SVGID_67_"  overflow="visible"/>
														</clipPath>
														<g id="g194" clip-path="url(#SVGID_13_)">
															<g>
																<defs>
																	<path id="SVGID_69_" d="M179.5-324.9c-1.5-0.8-2.5-2.3-2.5-4.1c0-2.3,1.7-4.3,4-4.6v1.4c-1.5,0.3-2.6,1.6-2.6,3.2
																		c0,1,0.4,1.9,1.2,2.5v-0.8h1.4v2.5v0.5c0,0,0,0,0,0l0,0C181-324.4,180.1-324.6,179.5-324.9"/>
																</defs>
																<clipPath id="SVGID_14_">
																	<use xlink:href="#SVGID_69_"  overflow="visible"/>
																</clipPath>
																<g id="g196" clip-path="url(#SVGID_14_)">
																	<g id="g202">
																		<defs>
																			
																				<rect id="SVGID_71_" x="-18.3" y="-477.2" transform="matrix(-0.7071 0.7071 -0.7071 -0.7071 35.3121 -634.2565)" width="334.7" height="334.7"/>
																		</defs>
																		<clipPath id="SVGID_15_">
																			<use xlink:href="#SVGID_71_"  overflow="visible"/>
																		</clipPath>
																	</g>
																</g>
															</g>
														</g>
													</g>
												</g>
											</g>
										</g>
									</g>
								</g>
							</g>
						</g>
					</g>
				</g>
			</g>
		</g>
	</g>
</g>
<g id="TextNow">
</g>
<g id="Uber">
</g>
<g id="mars">
</g>
<g id="twilio">
</g>
<g id="wit-ai">
	<g>
		<g>
			<path fill="#010101" d="M48,386.4c0-1.5,0.2-3.1,0.2-4.6c0-1.4,0-2.6-0.5-3.9c-0.9-2-3.1-2.8-5.3-2.9c-1.4-0.2-2.8,0-4.2,0.3
				c-0.8,0.2-1.4,0.3-2.2,0.6c-0.5,0.2-0.5,0.2-0.5,0.5c0.2,1.4,0.3,2.6,0.6,4c1.7-0.8,4.6-1.7,6.3-0.6c0.8,0.5,0.8,1.4,0.6,2.2
				c-1.2,0-2.5,0-3.7,0.2c-1.4,0.2-3.1,0.5-4.2,1.5c-1.1,0.9-1.2,2.3-1.2,3.7c0.2,1.7,0.9,3.4,2.6,4c1.9,0.8,4.6,0.9,6.3-0.2
				c0.2-0.2,0.6-0.6,0.8-0.3c0,0.3,0.2,0.6,0.2,0.9c0,0.2,0.9,0,0.9,0c1.1,0,2.3,0,3.4,0C47.8,390.3,48,388.1,48,386.4
				C48,384.6,48,388,48,386.4z M43.3,385.3c0,1.5-1.1,3.1-2.8,3.2c-1.5,0.2-3.2-1.1-2.2-2.8c0.6-1.1,2.2-0.9,3.2-0.9
				c0.5,0,1.1,0,1.5,0C43.5,384.9,43.3,385,43.3,385.3z"/>
			<path fill="#010101" d="M18.9,369.4c-1.1,0.5-2,0.8-3.1,1.2c-0.6,0.2-2.2,0.5-2.2,1.1c0,0.3,0,3.2,0,3.2c-0.6,0-1.2,0-1.9,0
				c-0.5,0-0.5-0.2-0.5,0.5c0,1.2,0,2.6,0,3.9c0,0.8,2-0.2,2.5,0.2c0.2,0.2,0,0.9,0,1.1c0,0.8,0,1.5,0,2.3c0,1.1,0,2.2,0.2,3.2
				c0.5,3.1,2.5,4.9,5.4,5.6c0.5,0,1.7,0.5,1.9,0s0.3-1.1,0.5-1.5c0.3-0.9,0.6-1.9,0.9-2.8c-1.7-0.2-3.2-0.9-3.6-2.8
				c-0.2-1.2-0.2-2.6-0.2-4c0-0.2,0-1.1,0-1.1c0.6,0,1.1,0,1.7,0s1.2,0,2,0c0.5,0,0.3-0.2,0.3-0.6c0-1.2,0-2.6,0-3.9
				c0-0.3-2.5-0.2-2.9-0.2c-0.2,0-0.9,0-0.9,0c0-0.5,0-0.9,0-1.4C18.9,372.2,18.9,370.8,18.9,369.4L18.9,369.4z"/>
			<path fill="#010101" d="M-6.6,384.4c-0.6-2.2-1.2-4.5-1.9-6.6c-0.3-0.9-0.5-1.9-0.8-2.8c0-0.2-2.6,0-2.9,0c-0.6,0-1.2,0-1.7,0
				c-0.3,0-0.3,0.3-0.5,0.6c-0.2,0.6-0.3,1.4-0.6,2c0,0.3-0.3,0.6-0.2,0.9c0.5,2.5,0.9,4.9,1.4,7.4c0.2,0.5,0.2,1.1,0.3,1.5
				c0.6-2,1.1-4.2,1.7-6.2c0.6,2.2,1.2,4.3,1.9,6.3c0.3,1.2,0.6,2.5,1.1,3.6c0.2,0.8,0.3,0.6,1.2,0.6c1.2,0,2.6,0,3.9,0
				c0.3,0,0.3-0.8,0.3-1.1c0.6-2.6,1.1-5.3,1.7-7.9c0.6-2.6,1.2-5.3,1.7-8c-1.4,0-2.6,0-4,0c-0.2,0-0.9,0-0.9,0
				c-0.2,0.5-0.2,0.9-0.3,1.2C-5.7,379-6.1,381.6-6.6,384.4z"/>
			<path fill="#010101" d="M-23.5,375c0.9,3.9,1.7,7.7,2.6,11.6c0.3,1.7,0.8,3.4,1.1,5.1c0.2,0.5,3.9,0.2,4.5,0.2
				c-0.9-5.1-1.9-10-2.8-15.1c-0.2-0.5,0-1.9-0.6-1.9c-0.5,0-1.1,0-1.5,0C-21.4,375-22.5,375-23.5,375z"/>
			<path fill="#010101" d="M5.5,368c-3.6,0-3.6,5.6,0,5.6S9,368,5.5,368z"/>
			<path fill="#010101" d="M28.5,386.3c-3.6,0-3.6,5.6,0,5.6S32,386.3,28.5,386.3z"/>
			<path fill="#010101" d="M53.5,373.6c3.6,0,3.6-5.6,0-5.6C50,368,50,373.6,53.5,373.6z"/>
			<path fill="#010101" d="M2.8,391.8c1.1,0,2.3,0,3.4,0c0.3,0,1.9,0.2,1.9-0.2c0-2.2,0-4.3,0-6.6c0-2.8,0-5.7,0-8.5
				c0-0.6,0-1.1,0-1.7c0,0-2.9,0-3.2,0c-0.2,0-2,0-2,0c0,0.3,0,0.6,0,1.1c0,1.9,0,3.9,0,5.7C2.8,385.2,2.8,388.4,2.8,391.8z"/>
			<path fill="#010101" d="M50.9,391.8c1.1,0,2.3,0,3.4,0c0.3,0,1.9,0.3,1.9-0.2c0-2.2,0-4.5,0-6.6c0-2.8,0-5.6,0-8.5
				c0-0.2,0.2-1.4,0-1.5c-0.2-0.2-0.9,0-1.1,0c-0.8,0-1.5,0-2.3,0c-0.2,0-1.9,0-1.9,0c0,0.3,0,0.6,0,1.1c0,1.9,0,3.9,0,5.7
				C50.9,385.2,50.9,388.6,50.9,391.8z"/>
		</g>
		<g>
			<path fill="#BDD6F0" stroke="#010101" stroke-width="0.7001" d="M-33.3,369.9c0,0,0-1.4-1.4-1.5l-10.7-0.5c0,0-0.2,0-0.3,0
				c-0.5,0-1.4,0.2-1.5,1.2V381v0.8l13.8,0.3v-12.2H-33.3z M-42.9,375.6c-0.8,0-1.4-0.6-1.4-1.4s0.6-1.4,1.4-1.4s1.4,0.6,1.4,1.4
				C-41.5,375-42.2,375.6-42.9,375.6z M-36.7,375.6c-0.8,0-1.4-0.6-1.4-1.4s0.6-1.4,1.4-1.4c0.8,0,1.4,0.6,1.4,1.4
				C-35.4,375-36,375.6-36.7,375.6z"/>
			<polygon fill="#BDD6F0" stroke="#010101" stroke-width="0.7001" points="-47.1,382.2 -47.1,382.9 -33.3,383.2 -33.3,382.6 
				-36.7,382.6 			"/>
			<polygon fill="#BDD6F0" stroke="#010101" stroke-width="0.7001" points="-50.3,383 -47.7,382.9 -47.7,382.1 -48.3,382.2 
				-50.3,382.6 			"/>
			<path fill="#BDD6F0" stroke="#010101" stroke-width="0.7001" d="M-53.4,383.8c0,0-2.3,0-2.8,2v6.3h3.7v-7.4
				C-52.5,384.7-52.5,383.8-53.4,383.8z"/>
			<path fill="#BDD6F0" stroke="#010101" stroke-width="0.7001" d="M-49.6,375.7c0,1.2-0.3,2.5-0.8,2.9v0.6v2.9l2.8-0.5v-13.3
				c0,0-2.8,1.4-2.8,2.2v2v0.5C-49.9,373.3-49.6,374.5-49.6,375.7z"/>
			<path fill="#BDD6F0" stroke="#010101" stroke-width="0.7001" d="M-30.9,383.6l-19.3-0.3c0,0-2-0.3-2,1.4v7.4h22.4v-7.3
				C-29.8,384.9-29.6,383.6-30.9,383.6z"/>
			
				<ellipse transform="matrix(1 8.051801e-03 -8.051801e-03 1 3.0249 0.4203)" fill="#BDD6F0" stroke="#010101" stroke-width="0.7001" cx="-50.7" cy="375.9" rx="0.9" ry="2.3"/>
		</g>
	</g>
</g>
</svg>
