<?xml version="1.0" encoding="utf-8"?>
<!-- Generator: Adobe Illustrator 17.1.0, SVG Export Plug-In . SVG Version: 6.00 Build 0)  -->
<!DOCTYPE svg PUBLIC "-//W3C//DTD SVG 1.1//EN" "http://www.w3.org/Graphics/SVG/1.1/DTD/svg11.dtd">
<svg version="1.1" xmlns="http://www.w3.org/2000/svg" xmlns:xlink="http://www.w3.org/1999/xlink" x="0px" y="0px"
	 viewBox="10.4 -763 347.2 119.7" enable-background="new 10.4 -763 347.2 119.7" xml:space="preserve">
<g id="estimote">
</g>
<g id="Pebble">
</g>
<g id="Spark">
</g>
<g id="Layer_4">
</g>
<g id="Layer_5">
</g>
<g id="Layer_6">
</g>
<g id="Base">
</g>
<g id="yelp">
</g>
<g id="Yext">
</g>
<g id="Estimote">
</g>
<g id="Microsoft">
</g>
<g id="Big_Viking">
</g>
<g id="_x35_00px">
</g>
<g id="Magnet_Forensics">
</g>
<g id="Guides">
</g>
<g id="Wit.Ai" display="none">
</g>
<g id="Layer_18">
</g>
<g id="Kik">
</g>
<g id="Layer_20">
</g>
<g id="Affirm">
</g>
<g id="Shopify">
</g>
<g id="apple">
</g>
<g id="velocity">
</g>
<g id="pagerduty">
</g>
<g id="Layer_26">
</g>
<g id="bitalino">
</g>
<g id="TextNow">
</g>
<g id="Uber">
</g>
<g id="mars">
</g>
<g id="twilio">
</g>
<g id="wit-ai">
</g>
<g id="indiegogo">
</g>
<g id="Layer_34">
</g>
<g id="cisco">
</g>
<g id="teespring">
</g>
<g id="sendgrid">
</g>
<g id="kloudless">
</g>
<g id="uwaterloo">
</g>
<g id="loblaws">
</g>
<g id="Layer_40">
	<g>
		<path d="M27.4-727.8h7.2c6.5,0,9.4,2.1,9.4,6.3c0,3.6-2.9,6.1-8.7,6.1h-7.9V-727.8z M18.7-686.4h17.6c9.2,0,18.5-3.3,18.5-14
			c0-6.3-4.4-11.1-10.6-11.8v-0.1c5.1-1.5,8.5-5.2,8.5-10.7c0-8.9-7.6-12.3-15-12.3H18.7V-686.4z M27.4-707.9h8.4
			c7,0,10.4,1.8,10.4,6.9c0,6.4-6.2,7.2-10.7,7.2h-8V-707.9z"/>
		<path d="M60.5-736.4h8.3v50h-8.3V-736.4z"/>
		<path d="M82.6-703c0-5.2,3.6-9.9,9.7-9.9s9.7,4.8,9.7,9.9c0,5.2-3.6,9.9-9.7,9.9S82.6-697.8,82.6-703z M74.3-703
			c0,10.4,8,17.4,18,17.4s18-7,18-17.4s-8-17.4-18-17.4S74.3-713.4,74.3-703z"/>
		<path d="M122.4-703c0-5.2,3.6-9.9,9.7-9.9c6.1,0,9.7,4.8,9.7,9.9c0,5.2-3.6,9.9-9.7,9.9C126.1-693,122.4-697.8,122.4-703z
			 M114.1-703c0,10.4,8,17.4,18,17.4c10,0,18-7,18-17.4s-8-17.4-18-17.4C122.1-720.3,114.1-713.4,114.1-703z"/>
		<path d="M155.2-719.5h7.9v5.2h0.1c1.4-3.1,4.6-6,10.1-6c5.1,0,8.6,2,10.4,6.1c2.4-4.2,5.9-6.1,10.9-6.1c8.8,0,11.9,6.3,11.9,14.2
			v19.8h-8.3v-18.8c0-4.1-1.2-7.7-6.1-7.7c-5.2,0-7.1,4.3-7.1,8.6v18h-8.3v-19.8c0-4.1-1.7-6.8-5.7-6.8c-5.5,0-7.6,4-7.6,8.4v18.1
			h-8.3L155.2-719.5L155.2-719.5z"/>
		<path d="M240.8-703c0,5.2-3.6,9.9-9.7,9.9s-9.7-4.8-9.7-9.9c0-5.2,3.6-9.9,9.7-9.9C237.2-712.9,240.8-708.1,240.8-703z
			 M213.3-686.4h7.9v-5h0.1c2.4,4,6.8,5.8,11.4,5.8c10.2,0,16.4-7.6,16.4-17.4s-6.5-17.4-16-17.4c-6.2,0-9.5,2.9-11.3,5.1h-0.2
			v-21.1h-8.3L213.3-686.4L213.3-686.4z"/>
		<path d="M261.1-706.3c0.6-4.8,3.6-7.9,8.6-7.9c5.2,0,8.4,3,8.4,7.9H261.1z M286.4-700.1v-2.3c0-11.5-6.3-18-15.5-18
			c-10,0-18,7-18,17.4s8,17.4,18,17.4c5.3,0,10.1-1.9,14-6.6l-5.9-4.5c-2.1,2.6-4.8,4.5-8.9,4.5c-4.6,0-8.4-3-8.9-7.9
			C261.1-700.1,286.4-700.1,286.4-700.1z"/>
		<path d="M291.8-719.5h8.3v5.3h0.1c1.8-3.8,5.5-6.1,9.8-6.1c1,0,2,0.2,3,0.5v8c-1.4-0.3-2.7-0.6-4-0.6c-7.8,0-8.9,6.5-8.9,8.4v17.7
			h-8.3V-719.5z"/>
		<path d="M331.5-712.9c6,0,9.8,4,9.8,9.7c0,5.5-3.7,9.7-9.9,9.7c-5.6,0-9.7-4.3-9.7-9.6C321.8-708.9,325.7-712.9,331.5-712.9z
			 M341.4-719.5v5h-0.1c-2.4-4-6.8-5.8-11.4-5.8c-10.2,0-16.4,7.6-16.4,17.4c0,9.4,6.5,17,16.5,17c4.1,0,8.4-1.6,10.9-4.8h0.1v2.4
			c0,6.5-2.5,11.1-10.5,11.1c-4.6,0-8.1-1.7-11.4-4.8l-5,6.8c4.7,4.1,10.3,5.5,16.4,5.5c12.9,0,18.7-7.6,18.7-19.5v-30.1H341.4z"/>
	</g>
</g>
</svg>
