<?xml version="1.0" encoding="utf-8"?>
<!-- Generator: Adobe Illustrator 17.1.0, SVG Export Plug-In . SVG Version: 6.00 Build 0)  -->
<!DOCTYPE svg PUBLIC "-//W3C//DTD SVG 1.1//EN" "http://www.w3.org/Graphics/SVG/1.1/DTD/svg11.dtd">
<svg version="1.1" xmlns="http://www.w3.org/2000/svg" xmlns:xlink="http://www.w3.org/1999/xlink" x="0px" y="0px"
	 viewBox="-87 175 174 60" enable-background="new -87 175 174 60" xml:space="preserve">
<g id="estimote">
</g>
<g id="Layer_2">
</g>
<g id="Spark">
</g>
<g id="Layer_4">
</g>
<g id="Layer_5">
</g>
<g id="Layer_6">
</g>
<g id="Base">
</g>
<g id="yelp">
</g>
<g id="Yext">
</g>
<g id="Estimote">
</g>
<g id="Kloudless">
</g>
<g id="Microsoft">
</g>
<g id="Big_Viking">
</g>
<g id="_x35_00px">
</g>
<g id="Magnet_Forensics">
	<g>
		<g>
			<g>
				<path d="M-9.3,211.5v0.9h1.8v0.8h-1.8v1.8h-1v-4.4h3.1v0.9H-9.3z"/>
				<path d="M-1.4,210.6c0.3,0,0.5,0,0.7,0.1c0.2,0.1,0.4,0.2,0.5,0.4c0.2,0.2,0.3,0.3,0.3,0.5c0.1,0.2,0.1,0.4,0.1,0.7v1
					c0,0.3,0,0.5-0.1,0.7c-0.1,0.2-0.2,0.4-0.3,0.5c-0.2,0.2-0.3,0.3-0.5,0.3c-0.2,0.1-0.5,0.1-0.7,0.1c-0.3,0-0.5,0-0.8-0.1
					c-0.2-0.1-0.4-0.2-0.5-0.4c-0.1-0.2-0.2-0.3-0.3-0.6c-0.1-0.2-0.1-0.4-0.1-0.7v-1c0-0.2,0-0.4,0.1-0.7c0.1-0.2,0.2-0.4,0.3-0.5
					c0.1-0.2,0.3-0.3,0.5-0.4C-2,210.7-1.7,210.6-1.4,210.6z M-1.4,211.5c-0.1,0-0.2,0-0.3,0.1c-0.1,0-0.2,0.1-0.2,0.2
					c-0.1,0.1-0.1,0.1-0.1,0.2c0,0.1,0,0.2,0,0.3v1.2c0,0.1,0,0.2,0,0.3c0,0.1,0.1,0.2,0.1,0.2c0.1,0.1,0.1,0.1,0.2,0.2
					c0.1,0,0.2,0.1,0.3,0.1c0.2,0,0.4-0.1,0.6-0.2c0.1-0.1,0.2-0.3,0.2-0.5v-1.2c0-0.2-0.1-0.4-0.2-0.5
					C-1,211.6-1.2,211.5-1.4,211.5z"/>
				<path d="M7,215.1l-0.7-1.7H5.7v1.7h-1v-4.4h2c0.2,0,0.4,0,0.5,0.1c0.2,0.1,0.3,0.1,0.5,0.3c0.1,0.1,0.2,0.3,0.3,0.4
					c0.1,0.2,0.1,0.4,0.1,0.6c0,0.3-0.1,0.5-0.2,0.7c-0.1,0.2-0.3,0.4-0.6,0.5l0.8,1.9H7z M7.1,212c0-0.2-0.1-0.3-0.2-0.4
					c-0.1-0.1-0.2-0.1-0.4-0.1H5.7v1h0.8c0.2,0,0.3,0,0.4-0.1C7,212.3,7.1,212.1,7.1,212z"/>
				<path d="M12.6,215.1v-4.4h3.1v0.9h-2.1v0.9h1.8v0.8h-1.8v0.9h2.1v0.9H12.6z"/>
				<path d="M22.8,215.1l-1.1-1.6l-0.7-1.1l0,0v2.7h-1v-4.4h0.9l0.9,1.4l0.8,1.3l0,0v-2.7h1v4.4H22.8z"/>
				<path d="M30.8,211.8c-0.1-0.1-0.2-0.1-0.3-0.2c-0.1,0-0.2-0.1-0.3-0.1c-0.1,0-0.2,0-0.3,0c-0.1,0-0.2,0-0.2,0
					c-0.1,0-0.2,0-0.3,0c-0.1,0-0.1,0.1-0.2,0.1c0,0-0.1,0.1-0.1,0.1c0,0,0,0.1,0,0.1c0,0.1,0,0.1,0,0.2c0,0,0.1,0.1,0.1,0.1
					c0.1,0,0.2,0.1,0.3,0.1c0.1,0,0.3,0.1,0.5,0.1c0.2,0,0.4,0.1,0.5,0.1c0.2,0.1,0.3,0.1,0.4,0.2c0.1,0.1,0.2,0.2,0.3,0.4
					c0.1,0.2,0.1,0.3,0.1,0.6c0,0.2-0.1,0.4-0.2,0.6c-0.1,0.2-0.2,0.3-0.4,0.4c-0.2,0.1-0.3,0.2-0.6,0.3c-0.2,0.1-0.4,0.1-0.6,0.1
					c-0.1,0-0.3,0-0.5,0c-0.2,0-0.3,0-0.5-0.1c-0.2,0-0.3-0.1-0.5-0.2c-0.2-0.1-0.3-0.2-0.4-0.3l0.6-0.7c0.2,0.2,0.4,0.3,0.6,0.4
					c0.2,0.1,0.4,0.1,0.7,0.1c0.2,0,0.4,0,0.5-0.1c0.1-0.1,0.2-0.2,0.2-0.3c0-0.1,0-0.1,0-0.2c0-0.1,0-0.1-0.1-0.1
					c0,0-0.1-0.1-0.2-0.1c-0.1,0-0.2-0.1-0.3-0.1c-0.2,0-0.4-0.1-0.6-0.1c-0.2,0-0.4-0.1-0.5-0.2c-0.2-0.1-0.3-0.2-0.4-0.4
					c-0.1-0.2-0.1-0.4-0.1-0.6c0-0.2,0-0.4,0.1-0.6s0.2-0.3,0.4-0.4c0.1-0.1,0.3-0.2,0.5-0.2c0.2-0.1,0.4-0.1,0.5-0.1
					c0.3,0,0.5,0,0.8,0.1c0.3,0.1,0.5,0.2,0.8,0.3L30.8,211.8z"/>
				<path d="M35.8,215.1v-4.4h1v4.4H35.8z"/>
				<path d="M44.5,214c-0.1,0.3-0.3,0.6-0.6,0.8c-0.3,0.2-0.6,0.3-1,0.3c-0.3,0-0.5,0-0.8-0.1c-0.2-0.1-0.4-0.2-0.5-0.4
					c-0.1-0.2-0.2-0.3-0.3-0.5c-0.1-0.2-0.1-0.4-0.1-0.7v-1c0-0.2,0-0.4,0.1-0.7c0.1-0.2,0.2-0.4,0.3-0.5c0.1-0.2,0.3-0.3,0.5-0.4
					c0.2-0.1,0.5-0.1,0.8-0.1c0.4,0,0.8,0.1,1.1,0.3c0.3,0.2,0.5,0.5,0.6,0.8l-0.9,0.3c0-0.2-0.1-0.3-0.2-0.4
					c-0.1-0.1-0.3-0.2-0.5-0.2c-0.1,0-0.2,0-0.3,0.1c-0.1,0-0.2,0.1-0.2,0.2c-0.1,0.1-0.1,0.1-0.1,0.2c0,0.1,0,0.2,0,0.3v1.2
					c0,0.1,0,0.2,0,0.3c0,0.1,0.1,0.2,0.1,0.2c0.1,0.1,0.1,0.1,0.2,0.2c0.1,0,0.2,0.1,0.3,0.1c0.2,0,0.4-0.1,0.5-0.2
					c0.1-0.1,0.2-0.2,0.2-0.4L44.5,214z"/>
				<path d="M51.4,211.8c-0.1-0.1-0.2-0.1-0.3-0.2c-0.1,0-0.2-0.1-0.3-0.1c-0.1,0-0.2,0-0.3,0c-0.1,0-0.2,0-0.2,0
					c-0.1,0-0.2,0-0.3,0c-0.1,0-0.1,0.1-0.2,0.1c0,0-0.1,0.1-0.1,0.1c0,0,0,0.1,0,0.1c0,0.1,0,0.1,0,0.2c0,0,0.1,0.1,0.1,0.1
					c0.1,0,0.2,0.1,0.3,0.1c0.1,0,0.3,0.1,0.5,0.1c0.2,0,0.4,0.1,0.5,0.1c0.2,0.1,0.3,0.1,0.4,0.2c0.1,0.1,0.2,0.2,0.3,0.4
					c0.1,0.2,0.1,0.3,0.1,0.6c0,0.2-0.1,0.4-0.2,0.6c-0.1,0.2-0.2,0.3-0.4,0.4c-0.2,0.1-0.3,0.2-0.6,0.3c-0.2,0.1-0.4,0.1-0.6,0.1
					c-0.1,0-0.3,0-0.5,0c-0.2,0-0.3,0-0.5-0.1c-0.2,0-0.3-0.1-0.5-0.2c-0.2-0.1-0.3-0.2-0.4-0.3l0.6-0.7c0.2,0.2,0.4,0.3,0.6,0.4
					c0.2,0.1,0.4,0.1,0.7,0.1c0.2,0,0.4,0,0.5-0.1c0.1-0.1,0.2-0.2,0.2-0.3c0-0.1,0-0.1,0-0.2c0-0.1,0-0.1-0.1-0.1
					c0,0-0.1-0.1-0.2-0.1c-0.1,0-0.2-0.1-0.3-0.1c-0.2,0-0.4-0.1-0.6-0.1c-0.2,0-0.4-0.1-0.5-0.2c-0.2-0.1-0.3-0.2-0.4-0.4
					c-0.1-0.2-0.1-0.4-0.1-0.6c0-0.2,0-0.4,0.1-0.6c0.1-0.2,0.2-0.3,0.4-0.4c0.1-0.1,0.3-0.2,0.5-0.2c0.2-0.1,0.4-0.1,0.5-0.1
					c0.3,0,0.5,0,0.8,0.1c0.3,0.1,0.5,0.2,0.8,0.3L51.4,211.8z"/>
			</g>
			<g>
				<path d="M54.2,212.1c-0.1,0-0.2,0-0.3-0.1c-0.1,0-0.2-0.1-0.2-0.2c-0.1-0.1-0.1-0.1-0.2-0.2c0-0.1-0.1-0.2-0.1-0.3
					c0-0.1,0-0.2,0.1-0.3c0-0.1,0.1-0.2,0.2-0.2c0.1-0.1,0.1-0.1,0.2-0.2c0.1,0,0.2-0.1,0.3-0.1c0.1,0,0.2,0,0.3,0.1
					c0.1,0,0.2,0.1,0.2,0.2c0.1,0.1,0.1,0.1,0.2,0.2s0.1,0.2,0.1,0.3c0,0.1,0,0.2-0.1,0.3c0,0.1-0.1,0.2-0.2,0.2
					c-0.1,0.1-0.1,0.1-0.2,0.2C54.4,212.1,54.3,212.1,54.2,212.1z M54.2,210.8c-0.1,0-0.2,0-0.2,0c-0.1,0-0.1,0.1-0.2,0.1
					c-0.1,0.1-0.1,0.1-0.1,0.2c0,0.1,0,0.2,0,0.2c0,0.1,0,0.2,0,0.2c0,0.1,0.1,0.1,0.1,0.2c0.1,0.1,0.1,0.1,0.2,0.1
					c0.1,0,0.1,0,0.2,0c0.1,0,0.2,0,0.2,0c0.1,0,0.1-0.1,0.2-0.1c0.1-0.1,0.1-0.1,0.1-0.2c0-0.1,0-0.1,0-0.2c0-0.1,0-0.2,0-0.2
					c0-0.1-0.1-0.1-0.1-0.2c-0.1-0.1-0.1-0.1-0.2-0.1C54.3,210.8,54.3,210.8,54.2,210.8z M54.2,211.4h-0.1v0.3h-0.2v-0.8h0.3
					c0.1,0,0.1,0,0.2,0.1c0.1,0,0.1,0.1,0.1,0.2c0,0.1-0.1,0.2-0.2,0.2l0.2,0.4h-0.2L54.2,211.4z M54.1,211.1v0.2h0.2
					c0,0,0.1,0,0.1,0c0,0,0,0,0-0.1c0-0.1,0-0.1-0.1-0.1H54.1z"/>
			</g>
		</g>
		<g>
			<path d="M-1.3,208.3v-5.9l-0.1,0l-1.1,2.5l-0.8,1.8h-2.1l-0.9-1.9l-1.1-2.4l-0.1,0.1v5.9h-2.8v-12.5h2.5l1.7,3.6l1.6,3.8h0.1
				l1.6-3.8l1.7-3.6h2.6v12.5H-1.3z"/>
			<path d="M10.7,208.3l-0.9-2.6H5.6l-0.9,2.6H1.7l4.9-12.5h2.2l4.9,12.5H10.7z M8.4,202l-0.7-2.5H7.6l-0.7,2.4l-0.5,1.5h2.5
				L8.4,202z"/>
			<path d="M31.9,208.3l-3.2-4.6l-1.9-3l0,0v7.6h-2.8v-12.5h2.5l2.6,3.8l2.4,3.8l0,0v-7.6h2.8v12.5H31.9z"/>
			<path d="M35.9,208.3v-12.5h8.8v2.5h-6.1v2.5h5.2v2.4h-5.2v2.6h6.1v2.5H35.9z"/>
			<path d="M51.5,198.3v10h-2.8v-10h-3.4v-2.5h9.6v2.5H51.5z"/>
			<path d="M20.6,201.3L20.6,201.3l-3,0v2.3h2.5v0c0,0.6-0.2,1.1-0.6,1.5c-0.4,0.4-0.9,0.6-1.6,0.6c-0.3,0-0.7-0.1-0.9-0.2
				c-0.3-0.1-0.5-0.3-0.6-0.5c-0.2-0.2-0.3-0.4-0.4-0.7c-0.1-0.3-0.1-0.5-0.1-0.8v-3.4c0-0.3,0-0.5,0.1-0.7c0.1-0.2,0.2-0.5,0.4-0.7
				c0.2-0.2,0.4-0.3,0.6-0.5c0.3-0.1,0.6-0.2,0.9-0.2c0.7,0,1.2,0.2,1.6,0.6c0.3,0.3,0.4,0.6,0.5,0.9l2.6-0.9c0-0.1-0.1-0.2-0.1-0.3
				c-0.2-0.6-0.6-1.1-1-1.5c-0.4-0.4-0.9-0.8-1.5-1c-0.6-0.2-1.3-0.4-2-0.4c-0.8,0-1.5,0.1-2.1,0.4c-0.6,0.3-1.1,0.6-1.5,1.1
				c-0.4,0.4-0.7,1-0.9,1.6c-0.2,0.6-0.3,1.2-0.3,1.9v2.9c0,0.6,0.1,1.3,0.3,1.9c0.2,0.6,0.5,1.1,0.9,1.6c0.4,0.4,0.9,0.8,1.5,1.1
				c0.6,0.3,1.3,0.4,2.1,0.4c0.7,0,1.4-0.1,2-0.3c0.6-0.2,1.1-0.6,1.5-1c0.4-0.4,0.8-0.9,1-1.5c0.2-0.6,0.4-1.3,0.4-2v-2.2H20.6z"/>
		</g>
	</g>
	<g>
		<polygon fill-rule="evenodd" clip-rule="evenodd" fill="#144169" points="-46.7,202.7 -46.7,210.3 -43,212.9 -43,204.7 -43,204.7 
					"/>
		<polygon fill-rule="evenodd" clip-rule="evenodd" fill="#414141" points="-46.7,210.3 -46.7,215 -43,217.7 -43,212.9 -43,212.9 		
			"/>
		<polygon fill-rule="evenodd" clip-rule="evenodd" fill="#AFAFAF" points="-46.7,210.3 -46.7,215 -54.9,219.8 -54.9,215.1 		"/>
		<polygon fill-rule="evenodd" clip-rule="evenodd" fill="#555555" points="-46.7,215 -43.1,217.7 -50.9,222.2 -54.9,219.8 		"/>
		<polygon fill-rule="evenodd" clip-rule="evenodd" fill="#2878B4" points="-36.1,201.9 -54.9,190.9 -54.9,215.1 -46.7,210.3 
			-46.7,202.7 -36.1,208.6 		"/>
		<polygon fill-rule="evenodd" clip-rule="evenodd" fill="#4696D2" points="-36.1,201.9 -17.4,190.9 -25.6,187.8 -36.1,193.8 
			-46.7,187.8 -54.9,190.9 -36.1,201.9 -36.1,201.9 -36.1,201.9 -36.1,201.9 		"/>
		<polygon fill-rule="evenodd" clip-rule="evenodd" fill="#144169" points="-25.6,202.7 -25.6,210.3 -29.2,212.9 -29.2,204.7 		"/>
		<polygon fill-rule="evenodd" clip-rule="evenodd" fill="#414141" points="-25.6,210.3 -25.6,215 -29.2,217.7 -29.2,212.9 
			-29.2,212.9 		"/>
		<polygon fill-rule="evenodd" clip-rule="evenodd" fill="#6E6E6E" points="-25.6,210.3 -25.6,215 -17.4,219.8 -17.4,215.1 		"/>
		<polygon fill-rule="evenodd" clip-rule="evenodd" fill="#555555" points="-25.6,215 -29.2,217.7 -21.4,222.2 -17.4,219.8 		"/>
		<polygon fill-rule="evenodd" clip-rule="evenodd" fill="#1E5A8C" points="-36.1,201.9 -17.4,190.9 -17.4,215.1 -25.6,210.3 
			-25.6,202.7 -36.1,208.6 		"/>
	</g>
</g>
<g id="Guides">
</g>
<g id="Wit.Ai">
</g>
<g id="Layer_18">
</g>
</svg>
