<?xml version="1.0" encoding="utf-8"?>
<!-- Generator: Adobe Illustrator 17.1.0, SVG Export Plug-In . SVG Version: 6.00 Build 0)  -->
<!DOCTYPE svg PUBLIC "-//W3C//DTD SVG 1.1//EN" "http://www.w3.org/Graphics/SVG/1.1/DTD/svg11.dtd">
<svg version="1.1" xmlns="http://www.w3.org/2000/svg" xmlns:xlink="http://www.w3.org/1999/xlink" x="0px" y="0px"
	 viewBox="-87 280 174 60" enable-background="new -87 280 174 60" xml:space="preserve">
<g id="estimote">
</g>
<g id="Layer_2">
</g>
<g id="Spark">
</g>
<g id="Layer_4">
</g>
<g id="Layer_5">
</g>
<g id="Layer_6">
</g>
<g id="Base">
</g>
<g id="yelp">
</g>
<g id="Yext">
</g>
<g id="Estimote">
</g>
<g id="Kloudless">
</g>
<g id="Microsoft">
	<g id="Layer_2_1_">
		<g>
			<path fill="#F25022" d="M-68.9,294.5H-55c0,4.6,0,9.2,0,13.9c-4.6,0-9.2,0-13.9,0V294.5L-68.9,294.5z"/>
			<path fill="#80BA01" d="M-53.6,294.5h13.9c0,4.6,0,9.2,0,13.9c-4.6,0-9.2,0-13.9,0C-53.6,303.7-53.6,299.1-53.6,294.5
				L-53.6,294.5z"/>
			<path fill="#777777" d="M-8.1,299.9c0.6-0.1,1.3,0.1,1.7,0.6c0.5,0.5,0.6,1.3,0.2,1.9c-0.4,0.7-1.2,1-2,0.8
				c-0.8-0.1-1.4-0.9-1.4-1.7C-9.7,300.8-8.9,300-8.1,299.9L-8.1,299.9z"/>
			<path fill="#777777" d="M-31.1,300.3c1.5,0,2.9,0,4.4,0c1.4,3.5,2.7,6.9,4.1,10.3c0.4,0.9,0.7,1.7,1,2.6
				c1.8-4.3,3.5-8.6,5.2-12.9c1.4,0,2.8,0,4.2,0c0,5.8,0,11.6,0,17.5c-1,0-2,0-3,0c0-4.3,0-8.6,0-12.9c0-0.2,0-0.4,0-0.6
				c-0.1,0.1-0.1,0.2-0.2,0.3c-1.7,4.4-3.5,8.8-5.2,13.2c-0.7,0-1.4,0-2.2,0c-1.7-4.4-3.5-8.9-5.3-13.3c0-0.1-0.1-0.2-0.1-0.3
				c0,1.9,0,3.8,0,5.6c0,2.6,0,5.2,0,7.8c-1,0-1.9,0-2.8,0C-31.1,311.9-31.1,306.1-31.1,300.3L-31.1,300.3z"/>
			<path fill="#777777" d="M0.1,305.2c1.4-0.4,3-0.4,4.4,0c0.3,0.1,0.6,0.2,0.8,0.4c0,1,0,1.9,0,2.9c-1-0.7-2.2-1.2-3.4-1.1
				c-1,0.1-1.9,0.6-2.5,1.4c-0.8,1-0.9,2.3-0.8,3.5c0.1,0.9,0.5,1.9,1.2,2.5c0.8,0.7,1.8,0.9,2.8,0.8c1-0.1,1.9-0.5,2.7-1.1
				c0,0.9,0,1.8,0,2.7c-1.2,0.7-2.7,0.9-4.1,0.8c-1.4-0.1-2.9-0.6-3.9-1.6c-1.1-1.1-1.7-2.6-1.8-4.2c-0.1-1.6,0.3-3.3,1.2-4.7
				C-2.4,306.4-1.2,305.6,0.1,305.2L0.1,305.2z"/>
			<path fill="#777777" d="M32.9,305c1.4-0.2,2.8-0.1,4.2,0.4c0,0.9,0,1.8,0,2.8c-0.9-0.6-2-1-3.2-0.9c-0.6,0-1.2,0.3-1.4,0.8
				c-0.2,0.5-0.1,1.2,0.4,1.5c0.8,0.6,1.9,0.8,2.8,1.3c0.7,0.4,1.4,0.9,1.7,1.6c0.7,1.4,0.4,3.2-0.8,4.2c-1.1,1-2.7,1.3-4.2,1.3
				c-1-0.1-2.1-0.3-3-0.7c0-1,0-1.9,0-2.9c0.8,0.6,1.7,1,2.7,1.2c0.7,0.1,1.4,0.1,2.1-0.2c0.6-0.3,0.7-1.2,0.4-1.7
				c-0.3-0.4-0.8-0.6-1.3-0.8c-0.9-0.4-1.8-0.7-2.6-1.3c-0.5-0.4-1-1-1.1-1.7c-0.2-1-0.2-2.1,0.4-3C30.6,305.9,31.7,305.2,32.9,305
				L32.9,305z"/>
			<path fill="#777777" d="M12.1,305.4c0.8-0.5,1.9-0.5,2.8-0.2c0,1,0,2,0,3c-0.6-0.4-1.3-0.6-2-0.5c-0.8,0.1-1.5,0.8-1.9,1.5
				c-0.4,0.8-0.4,1.7-0.4,2.5c0,2,0,4,0,6c-1,0-2,0-3,0c0-4.2,0-8.3,0-12.5c1,0,2,0,3,0c0,0.7,0,1.4,0,2.2
				C10.9,306.6,11.4,305.9,12.1,305.4L12.1,305.4z"/>
			<path fill="#777777" d="M-9.4,305.2c1,0,2,0,3,0c0,4.2,0,8.3,0,12.5c-1,0-2,0-3,0C-9.4,313.6-9.4,309.4-9.4,305.2L-9.4,305.2z"/>
			<path fill="#777777" d="M27.4,308.2c-0.5-1.2-1.5-2.1-2.6-2.6c-1.3-0.6-2.8-0.7-4.3-0.5c-1.5,0.2-3,0.9-3.9,2.1
				c-0.9,1.1-1.3,2.5-1.4,3.8c-0.1,1.6,0.1,3.3,1.1,4.7c0.8,1.2,2.1,2,3.5,2.3c1.1,0.2,2.4,0.2,3.5,0c1.3-0.3,2.6-1,3.4-2.1
				c0.8-1,1.2-2.3,1.3-3.7C28,310.8,27.9,309.4,27.4,308.2z M24.5,313.9c-0.3,0.6-0.8,1.2-1.5,1.4c-0.8,0.3-1.6,0.3-2.4,0.1
				c-0.8-0.2-1.5-0.8-1.9-1.6c-0.5-1-0.6-2.1-0.5-3.1c0.1-1,0.4-2,1.2-2.6c0.5-0.5,1.3-0.7,2-0.8c0.9-0.1,1.9,0.2,2.5,0.8
				c0.7,0.7,1,1.7,1,2.6C24.9,311.9,24.9,313,24.5,313.9z"/>
			<path fill="#777777" d="M51.4,308.5c-0.5-1.2-1.4-2.3-2.6-2.9c-1.4-0.7-3-0.8-4.4-0.6c-1.2,0.1-2.4,0.6-3.3,1.4
				c-1.1,1-1.8,2.4-2,3.8c-0.2,1.5-0.1,3,0.5,4.4c0.6,1.3,1.7,2.4,3,3c1.3,0.5,2.8,0.6,4.2,0.4c1.4-0.2,2.8-1,3.7-2.2
				c0.9-1.2,1.4-2.8,1.3-4.3C51.8,310.5,51.7,309.5,51.4,308.5z M48.6,312.8c-0.1,0.7-0.4,1.3-0.8,1.8c-0.4,0.5-1.1,0.8-1.8,0.9
				c-0.7,0.1-1.5,0.1-2.1-0.2c-0.7-0.3-1.3-0.9-1.6-1.7c-0.4-0.9-0.4-1.8-0.4-2.7c0.1-0.9,0.3-1.8,0.9-2.5c0.5-0.6,1.4-1,2.2-1.1
				c0.8-0.1,1.8,0.1,2.4,0.7c0.6,0.5,0.9,1.2,1.1,2C48.8,311,48.8,311.9,48.6,312.8z"/>
			<path fill="#777777" d="M67.5,307.7v-2.4c-1,0-2,0-3,0c0-1.3,0-2.5,0-3.7c-1,0.3-2,0.6-3,0.9c0,0.9,0,1.9,0,2.8
				c-1.5,0-2.9,0-4.4,0c0-0.7-0.1-1.5,0.1-2.3c0.1-0.6,0.4-1.2,1-1.4c0.7-0.3,1.5-0.1,2.2,0.2c0-0.8,0-1.7,0-2.6
				c-1.4-0.4-3.1-0.3-4.4,0.5c-0.8,0.5-1.4,1.4-1.7,2.3c-0.3,1-0.1,2.1-0.2,3.2c-0.7,0-1.4,0-2.1,0c0,0.8,0,1.6,0,2.4
				c0.7,0,1.4,0,2.1,0c0,3.4,0,6.7,0,10.1c1,0,2,0,3,0c0-3.4,0-6.7,0-10.1c1.5,0,2.9,0,4.4,0c0,2.1,0,4.3,0,6.4c0,1,0.2,2.1,0.8,2.9
				c0.6,0.7,1.5,1,2.4,1.1c0.9,0.1,1.9-0.1,2.7-0.4v-2.5c-0.7,0.4-1.6,0.6-2.3,0.2c-0.4-0.2-0.6-0.7-0.6-1.2c-0.1-0.8,0-1.6-0.1-2.3
				c0-1.4,0-2.8,0-4.2C65.5,307.7,66.5,307.6,67.5,307.7z"/>
			<path fill="#02A4EF" d="M-68.9,309.7c4.6,0,9.2,0,13.9,0c0,4.6,0,9.2,0,13.9h-13.9V309.7L-68.9,309.7z"/>
			<path fill="#FFB902" d="M-53.6,309.7c4.6,0,9.2,0,13.9,0c0,4.6,0,9.2,0,13.9h-13.9C-53.6,319-53.6,314.4-53.6,309.7L-53.6,309.7z
				"/>
		</g>
	</g>
</g>
<g id="Big_Viking">
</g>
<g id="_x35_00px">
</g>
<g id="Magnet_Forensics">
</g>
<g id="Guides">
</g>
<g id="Wit.Ai">
</g>
<g id="Layer_18">
</g>
<g id="Kik">
</g>
<g id="Layer_20">
</g>
<g id="Affirm">
</g>
<g id="Shopify">
</g>
</svg>
