<?xml version="1.0" encoding="utf-8"?>
<!-- Generator: Adobe Illustrator 17.1.0, SVG Export Plug-In . SVG Version: 6.00 Build 0)  -->
<!DOCTYPE svg PUBLIC "-//W3C//DTD SVG 1.1//EN" "http://www.w3.org/Graphics/SVG/1.1/DTD/svg11.dtd">
<svg version="1.1" xmlns="http://www.w3.org/2000/svg" xmlns:xlink="http://www.w3.org/1999/xlink" x="0px" y="0px"
	 viewBox="-89 -477 266 91.7" enable-background="new -89 -477 266 91.7" xml:space="preserve">
<g id="estimote">
</g>
<g id="Pebble">
</g>
<g id="Spark">
</g>
<g id="Layer_4">
</g>
<g id="Layer_5">
</g>
<g id="Layer_6">
</g>
<g id="Base">
</g>
<g id="yelp">
</g>
<g id="Yext">
</g>
<g id="Estimote">
</g>
<g id="Kloudless">
</g>
<g id="Microsoft">
</g>
<g id="Big_Viking">
</g>
<g id="_x35_00px">
</g>
<g id="Magnet_Forensics">
</g>
<g id="Guides">
</g>
<g id="Wit.Ai" display="none">
</g>
<g id="Layer_18">
</g>
<g id="Kik">
</g>
<g id="Layer_20">
</g>
<g id="Affirm">
</g>
<g id="Shopify">
</g>
<g id="apple">
	<g>
		<g>
			<defs>
				<rect id="SVGID_35_" x="24.6" y="-435" width="38.8" height="47.6"/>
			</defs>
			<clipPath id="SVGID_2_">
				<use xlink:href="#SVGID_35_"  overflow="visible"/>
			</clipPath>
			<path clip-path="url(#SVGID_2_)" fill="#A4A9AD" d="M53.4-423.5c-3.9-0.3-7.2,2.2-9.1,2.2c-1.9,0-4.8-2.1-7.9-2.1
				c-4,0.1-7.8,2.4-9.8,6c-4.2,7.3-1.1,18.1,3,24c2,2.9,4.4,6.1,7.5,6c3-0.1,4.2-1.9,7.8-1.9c3.6,0,4.7,1.9,7.9,1.9
				c3.2-0.1,5.3-2.9,7.3-5.9c2.3-3.4,3.2-6.6,3.3-6.8c-0.1,0-6.3-2.4-6.4-9.6c-0.1-6,4.9-8.9,5.1-9.1
				C59.3-422.9,54.9-423.4,53.4-423.5"/>
		</g>
		<path fill="#A4A9AD" d="M51-427.4c1.7-2,2.8-4.8,2.5-7.6c-2.4,0.1-5.3,1.6-7,3.6c-1.5,1.8-2.9,4.6-2.5,7.4
			C46.6-423.8,49.3-425.4,51-427.4"/>
	</g>
</g>
<g id="velocity">
</g>
<g id="pagerduty">
</g>
<g id="Layer_26">
</g>
<g id="bitalino">
</g>
<g id="Layer_28">
</g>
<g id="TextNow">
</g>
<g id="Uber">
</g>
</svg>
