<?xml version="1.0" encoding="utf-8"?>
<!-- Generator: Adobe Illustrator 17.1.0, SVG Export Plug-In . SVG Version: 6.00 Build 0)  -->
<!DOCTYPE svg PUBLIC "-//W3C//DTD SVG 1.1//EN" "http://www.w3.org/Graphics/SVG/1.1/DTD/svg11.dtd">
<svg version="1.1" xmlns="http://www.w3.org/2000/svg" xmlns:xlink="http://www.w3.org/1999/xlink" x="0px" y="0px"
	 viewBox="98 490 174 60" enable-background="new 98 490 174 60" xml:space="preserve">
<g id="estimote">
</g>
<g id="Pebble">
</g>
<g id="Spark">
</g>
<g id="Layer_4">
</g>
<g id="Layer_5">
</g>
<g id="Layer_6">
</g>
<g id="Base">
</g>
<g id="yelp">
</g>
<g id="Yext">
</g>
<g id="Estimote">
</g>
<g id="Microsoft">
</g>
<g id="Big_Viking">
</g>
<g id="_x35_00px">
</g>
<g id="Magnet_Forensics">
</g>
<g id="Guides">
</g>
<g id="Wit.Ai" display="none">
</g>
<g id="Layer_18">
</g>
<g id="Kik">
</g>
<g id="Layer_20">
</g>
<g id="Affirm">
</g>
<g id="Shopify">
</g>
<g id="apple">
</g>
<g id="velocity">
</g>
<g id="pagerduty">
</g>
<g id="Layer_26">
</g>
<g id="bitalino">
	<g>
		<g>
			<g>
				<defs>
					<rect id="SVGID_37_" x="92.6" y="-369.1" width="112.5" height="41"/>
				</defs>
				<clipPath id="SVGID_2_">
					<use xlink:href="#SVGID_37_"  overflow="visible"/>
				</clipPath>
				<g id="g14" clip-path="url(#SVGID_2_)">
					<g>
						<defs>
							<path id="SVGID_39_" d="M111.9-382.3L111.9-382.3l-2.2,0l0.4-1.4h1.1c-0.5-1.6-0.1-3.4,1.2-4.7c1.7-1.7,4.3-1.8,6.1-0.5l-1,1
								c-1.3-0.8-3-0.7-4.1,0.4c-1.1,1.1-1.3,2.8-0.4,4.1L111.9-382.3C112-382.3,112-382.3,111.9-382.3"/>
						</defs>
						<clipPath id="SVGID_3_">
							<use xlink:href="#SVGID_39_"  overflow="visible"/>
						</clipPath>
						<g id="g16" clip-path="url(#SVGID_3_)">
							<g id="g22">
								<defs>
									<rect id="SVGID_41_" x="11" y="-463.9" width="277.2" height="196.1"/>
								</defs>
								<clipPath id="SVGID_4_">
									<use xlink:href="#SVGID_41_"  overflow="visible"/>
								</clipPath>
							</g>
						</g>
					</g>
				</g>
				<g clip-path="url(#SVGID_2_)">
					<g>
						<defs>
							<rect id="SVGID_43_" x="92.6" y="-369.1" width="112.5" height="41"/>
						</defs>
						<clipPath id="SVGID_5_">
							<use xlink:href="#SVGID_43_"  overflow="visible"/>
						</clipPath>
						<g id="g50" clip-path="url(#SVGID_5_)">
							<g>
								<defs>
									<path id="SVGID_45_" d="M112.9-381.3l1-1c1.3,0.8,3,0.7,4.1-0.4c1.1-1.1,1.3-2.8,0.4-4.1l1-1c0,0,0,0,0,0v0h2.2l-0.4,1.4
										h-1.1c0.5,1.6,0.1,3.4-1.2,4.7c-0.9,0.9-2.1,1.4-3.3,1.4C114.7-380.4,113.7-380.7,112.9-381.3"/>
								</defs>
								<clipPath id="SVGID_6_">
									<use xlink:href="#SVGID_45_"  overflow="visible"/>
								</clipPath>
								<g id="g52" clip-path="url(#SVGID_6_)">
									<g id="g58">
										<defs>
											<rect id="SVGID_47_" x="11" y="-463.9" width="277.2" height="196.1"/>
										</defs>
										<clipPath id="SVGID_7_">
											<use xlink:href="#SVGID_47_"  overflow="visible"/>
										</clipPath>
									</g>
								</g>
							</g>
						</g>
						<g clip-path="url(#SVGID_5_)">
							<g>
								<defs>
									<rect id="SVGID_49_" x="92.6" y="-369.1" width="112.5" height="41"/>
								</defs>
								<clipPath id="SVGID_8_">
									<use xlink:href="#SVGID_49_"  overflow="visible"/>
								</clipPath>
								<g id="g86" clip-path="url(#SVGID_8_)">
									<g>
										<defs>
											<path id="SVGID_51_" d="M145-384.4h1.4c0.3,1.5,1.6,2.6,3.2,2.6c1.6,0,2.9-1.1,3.2-2.6h1.4v-1.4h-0.5v-1.4h1.9h0v4.2v0
												l-0.2,0l-1.6,0l-0.1,0.1c-0.8,1.5-2.3,2.5-4.1,2.5C147.3-380.4,145.3-382.1,145-384.4"/>
										</defs>
										<clipPath id="SVGID_9_">
											<use xlink:href="#SVGID_51_"  overflow="visible"/>
										</clipPath>
										<g id="g88" clip-path="url(#SVGID_9_)">
											<g id="g94">
												<defs>
													
														<rect id="SVGID_53_" x="17.8" y="-525.8" transform="matrix(-0.2713 0.9625 -0.9625 -0.2713 -161.7137 -609.191)" width="263.9" height="320"/>
												</defs>
												<clipPath id="SVGID_10_">
													<use xlink:href="#SVGID_53_"  overflow="visible"/>
												</clipPath>
											</g>
										</g>
									</g>
								</g>
								<g clip-path="url(#SVGID_8_)">
									<g>
										<defs>
											<rect id="SVGID_55_" x="92.6" y="-369.1" width="112.5" height="41"/>
										</defs>
										<clipPath id="SVGID_11_">
											<use xlink:href="#SVGID_55_"  overflow="visible"/>
										</clipPath>
										<g id="g122" clip-path="url(#SVGID_11_)">
											<g>
												<defs>
													<path id="SVGID_57_" d="M143.6-383L143.6-383l0-4.2v0l0.2,0l1.6,0l0.1-0.1c0.8-1.5,2.3-2.5,4.1-2.5
														c2.3,0,4.3,1.7,4.6,4h-1.4c-0.3-1.5-1.6-2.6-3.2-2.6c-1.6,0-2.9,1.1-3.2,2.6H145v1.4h0.5v1.4H143.6z"/>
												</defs>
												<clipPath id="SVGID_12_">
													<use xlink:href="#SVGID_57_"  overflow="visible"/>
												</clipPath>
												<g id="g124" clip-path="url(#SVGID_12_)">
													<g id="g130">
														<defs>
															
																<rect id="SVGID_59_" x="26.4" y="-520.9" transform="matrix(-0.1961 -0.9806 0.9806 -0.1961 537.8448 -290.7026)" width="246.7" height="310.3"/>
														</defs>
														<clipPath id="SVGID_13_">
															<use xlink:href="#SVGID_59_"  overflow="visible"/>
														</clipPath>
													</g>
												</g>
											</g>
										</g>
										<g clip-path="url(#SVGID_11_)">
											<g>
												<defs>
													<rect id="SVGID_61_" x="92.6" y="-369.1" width="112.5" height="41"/>
												</defs>
												<clipPath id="SVGID_14_">
													<use xlink:href="#SVGID_61_"  overflow="visible"/>
												</clipPath>
												<g id="g158" clip-path="url(#SVGID_14_)">
													<g>
														<defs>
															<path id="SVGID_63_" d="M145-384.4h1.4c0.3,1.5,1.6,2.6,3.2,2.6v1.4C147.3-380.4,145.3-382.2,145-384.4"/>
														</defs>
														<clipPath id="SVGID_15_">
															<use xlink:href="#SVGID_63_"  overflow="visible"/>
														</clipPath>
														<g id="g160" clip-path="url(#SVGID_15_)">
															<g id="g166">
																<defs>
																	
																		<rect id="SVGID_65_" x="17.8" y="-525.8" transform="matrix(-0.2713 0.9625 -0.9625 -0.2713 -161.7137 -609.191)" width="263.9" height="320"/>
																</defs>
																<clipPath id="SVGID_16_">
																	<use xlink:href="#SVGID_65_"  overflow="visible"/>
																</clipPath>
															</g>
														</g>
													</g>
												</g>
												<g clip-path="url(#SVGID_14_)">
													<g>
														<defs>
															<rect id="SVGID_67_" x="92.6" y="-369.1" width="112.5" height="41"/>
														</defs>
														<clipPath id="SVGID_17_">
															<use xlink:href="#SVGID_67_"  overflow="visible"/>
														</clipPath>
														<g id="g194" clip-path="url(#SVGID_17_)">
															<g>
																<defs>
																	<path id="SVGID_69_" d="M179.5-380.9c-1.5-0.8-2.5-2.3-2.5-4.1c0-2.3,1.7-4.3,4-4.6v1.4c-1.5,0.3-2.6,1.6-2.6,3.2
																		c0,1,0.4,1.9,1.2,2.5v-0.8h1.4v2.5v0.5c0,0,0,0,0,0l0,0C181-380.4,180.1-380.6,179.5-380.9"/>
																</defs>
																<clipPath id="SVGID_18_">
																	<use xlink:href="#SVGID_69_"  overflow="visible"/>
																</clipPath>
																<g id="g196" clip-path="url(#SVGID_18_)">
																	<g id="g202">
																		<defs>
																			
																				<rect id="SVGID_71_" x="-18.3" y="-533.2" transform="matrix(-0.7071 0.7071 -0.7071 -0.7071 -4.2858 -729.8545)" width="334.7" height="334.7"/>
																		</defs>
																		<clipPath id="SVGID_19_">
																			<use xlink:href="#SVGID_71_"  overflow="visible"/>
																		</clipPath>
																	</g>
																</g>
															</g>
														</g>
														<g clip-path="url(#SVGID_17_)">
															<g>
																<defs>
																	<rect id="SVGID_73_" x="92.6" y="-369.1" width="112.5" height="41"/>
																</defs>
																<clipPath id="SVGID_20_">
																	<use xlink:href="#SVGID_73_"  overflow="visible"/>
																</clipPath>
																<g id="g230" clip-path="url(#SVGID_20_)">
																	<g>
																		<defs>
																			<path id="SVGID_75_" d="M182.4-381.8c1.5-0.3,2.6-1.6,2.6-3.2c0-1-0.4-1.9-1.2-2.5v0.8h-1.4v-2.5v-0.5
																				c0,0,0,0,0,0l0,0c0,0,0.9,0.2,1.5,0.5c1.5,0.8,2.5,2.3,2.5,4.1c0,2.3-1.7,4.3-4,4.6V-381.8z"/>
																		</defs>
																		<clipPath id="SVGID_21_">
																			<use xlink:href="#SVGID_75_"  overflow="visible"/>
																		</clipPath>
																		<g id="g232" clip-path="url(#SVGID_21_)">
																			<g id="g238">
																				<defs>
																					<rect id="SVGID_77_" x="10.4" y="-463.9" width="277.2" height="196.1"/>
																				</defs>
																				<clipPath id="SVGID_22_">
																					<use xlink:href="#SVGID_77_"  overflow="visible"/>
																				</clipPath>
																			</g>
																		</g>
																	</g>
																</g>
															</g>
														</g>
													</g>
												</g>
											</g>
										</g>
									</g>
								</g>
							</g>
						</g>
					</g>
				</g>
			</g>
		</g>
	</g>
</g>
<g id="TextNow">
</g>
<g id="Uber">
</g>
<g id="mars">
</g>
<g id="twilio">
</g>
<g id="wit-ai">
</g>
<g id="indiegogo">
</g>
<g id="Layer_34">
</g>
<g id="cisco">
</g>
<g id="teespring">
</g>
<g id="sendgrid">
</g>
<g id="kloudless">
</g>
<g id="uwaterloo">
</g>
<g id="loblaws">
</g>
<g id="Layer_40">
</g>
<g id="Layer_41">
</g>
<g id="conrad">
</g>
<g id="ziggeo">
	<linearGradient id="SVGID_23_" gradientUnits="userSpaceOnUse" x1="184.96" y1="534.5187" x2="184.96" y2="516.7073">
		<stop  offset="0" style="stop-color:#EC1C24"/>
		<stop  offset="1" style="stop-color:#FFCA05"/>
	</linearGradient>
	<path fill="url(#SVGID_23_)" d="M149.1,528h-14.4V526l8.1-10.3h-7.3V512h13.5v2.4l-7.6,10h7.7V528L149.1,528z M235.2,520
		c0-5-4-9-9-9c-5,0-9,4-9,9c0,5,4,9,9,9C231.2,529,235.2,525,235.2,520L235.2,520z M224.1,516.1l3.4,1.9l3.4,1.9l-3.4,1.9l-3.4,1.9
		V520V516.1L224.1,516.1z M220.9,520c0-3,2.4-5.3,5.3-5.3c3,0,5.3,2.4,5.3,5.3c0,3-2.4,5.3-5.3,5.3C223.3,525.3,220.9,523,220.9,520
		L220.9,520z M215.1,521.4h-10.5c0.2,2.3,1.6,3.5,4.4,3.5c1.8,0,3.3-0.4,4.7-1.3v3.6c-1.5,0.8-3.4,1.2-5.8,1.2c-2.6,0-4.6-0.7-6-2.2
		c-1.4-1.4-2.1-3.4-2.1-6c0-2.7,0.8-4.8,2.3-6.3c1.5-1.6,3.4-2.3,5.7-2.3c2.3,0,4.2,0.7,5.4,2.1c1.3,1.4,1.9,3.3,1.9,5.7V521.4
		L215.1,521.4z M210.5,518.4c0-2.3-0.9-3.4-2.8-3.4c-0.8,0-1.5,0.3-2.1,1c-0.6,0.7-0.9,1.5-1.1,2.5H210.5L210.5,518.4z M196.5,526.2
		c0,3-0.9,5.3-2.6,6.9c-1.7,1.6-4.2,2.5-7.5,2.5c-2.2,0-3.9-0.3-5.1-0.9v-4.2c1.7,1,3.3,1.4,5,1.4c1.7,0,3-0.4,3.9-1.3
		c0.9-0.9,1.4-2.1,1.4-3.6v-1.3h-0.1c-1.1,1.8-2.8,2.7-5,2.7c-2,0-3.7-0.7-4.9-2.2c-1.2-1.4-1.8-3.4-1.8-5.8c0-2.7,0.7-4.9,2-6.5
		s3.1-2.4,5.3-2.4c2,0,3.4,0.7,4.4,2.3h0.1V512h5V526.2L196.5,526.2z M191.6,520.3V519c0-1-0.3-1.9-0.9-2.6
		c-0.6-0.7-1.4-1.1-2.3-1.1c-1.1,0-2,0.4-2.6,1.3c-0.6,0.9-0.9,2.1-0.9,3.6c0,1.3,0.3,2.4,0.9,3.2c0.6,0.8,1.4,1.2,2.4,1.2
		c1,0,1.9-0.4,2.5-1.2C191.3,522.7,191.6,521.6,191.6,520.3L191.6,520.3z M176.6,526.2c0,3-0.9,5.3-2.6,6.9
		c-1.7,1.6-4.2,2.5-7.5,2.5c-2.2,0-3.9-0.3-5.1-0.9v-4.2c1.7,1,3.3,1.4,5,1.4c1.7,0,3-0.4,3.9-1.3c0.9-0.9,1.4-2.1,1.4-3.6v-1.3
		h-0.1c-1.1,1.8-2.8,2.7-5,2.7c-2,0-3.7-0.7-4.9-2.2c-1.2-1.4-1.8-3.4-1.8-5.8c0-2.7,0.7-4.9,2-6.5c1.3-1.6,3.1-2.4,5.3-2.4
		c2,0,3.4,0.7,4.4,2.3h0.1V512h5V526.2L176.6,526.2z M171.7,520.3V519c0-1-0.3-1.9-0.9-2.6c-0.6-0.7-1.4-1.1-2.3-1.1
		c-1.1,0-2,0.4-2.6,1.3c-0.6,0.9-0.9,2.1-0.9,3.6c0,1.3,0.3,2.4,0.9,3.2c0.6,0.8,1.4,1.2,2.4,1.2c1,0,1.9-0.4,2.5-1.2
		C171.4,522.7,171.7,521.6,171.7,520.3L171.7,520.3z M156.7,528h-4.9v-16h4.9V528L156.7,528z M151.8,510.4h4.9v-4h-4.9V510.4z"/>
</g>
<g id="n36">
</g>
<g id="communitech">
</g>
</svg>
