<?xml version="1.0" encoding="utf-8"?>
<!-- Generator: Adobe Illustrator 17.1.0, SVG Export Plug-In . SVG Version: 6.00 Build 0)  -->
<!DOCTYPE svg PUBLIC "-//W3C//DTD SVG 1.1//EN" "http://www.w3.org/Graphics/SVG/1.1/DTD/svg11.dtd">
<svg version="1.1" xmlns="http://www.w3.org/2000/svg" xmlns:xlink="http://www.w3.org/1999/xlink" x="0px" y="0px"
	 viewBox="10.4 -622 347.2 119.7" enable-background="new 10.4 -622 347.2 119.7" xml:space="preserve">
<g id="estimote">
</g>
<g id="Pebble">
</g>
<g id="Spark">
</g>
<g id="Layer_4">
</g>
<g id="Layer_5">
</g>
<g id="Layer_6">
</g>
<g id="Base">
</g>
<g id="yelp">
</g>
<g id="Yext">
</g>
<g id="Estimote">
</g>
<g id="Microsoft">
</g>
<g id="Big_Viking">
</g>
<g id="_x35_00px">
</g>
<g id="Magnet_Forensics">
</g>
<g id="Guides">
</g>
<g id="Wit.Ai" display="none">
</g>
<g id="Layer_18">
</g>
<g id="Kik">
</g>
<g id="Layer_20">
</g>
<g id="Affirm">
</g>
<g id="Shopify">
</g>
<g id="apple">
</g>
<g id="velocity">
</g>
<g id="pagerduty">
</g>
<g id="Layer_26">
</g>
<g id="bitalino">
</g>
<g id="TextNow">
</g>
<g id="Uber">
</g>
<g id="mars">
</g>
<g id="twilio">
</g>
<g id="wit-ai">
</g>
<g id="indiegogo">
</g>
<g id="Layer_34">
</g>
<g id="cisco">
</g>
<g id="teespring">
</g>
<g id="sendgrid">
</g>
<g id="kloudless">
</g>
<g id="uwaterloo">
</g>
<g id="loblaws">
	<g>
		<path d="M206.4-584.8c-4.4,0.6-8.7,1.8-10.9,5.3v-9.5h9.6c0.4-3.9,2.8-5.5,6.6-5.5c3.5,0,6.4,0.6,6.4,4.9
			C218.1-585.5,212.5-585.8,206.4-584.8 M218.1-578c0,2.2-0.3,8.3-8.1,8.3c-3.2,0-6.1-0.9-6.1-4.6c0-3.6,2.8-4.7,5.9-5.3
			c3.1-0.6,6.6-0.6,8.3-2.1L218.1-578L218.1-578z M169-570.5c-5.9,0-8.5-5.5-8.5-11.6c0-6.1,2.6-11.6,8.5-11.6
			c5.9,0,8.5,5.5,8.5,11.6C177.4-576,174.8-570.5,169-570.5 M134.8-570.5c-6.7,0-8.8-5.8-8.8-11.6c0-5.8,2-11.6,8.8-11.6
			c6.8,0,8.8,5.8,8.8,11.6C143.6-576.3,141.6-570.5,134.8-570.5 M278.8-600.2h-10.2l-6.6,24.5h-0.2l-6.2-24.5h-9.7l-6,24.6h-0.1
			l-6.7-24.6h-10.5l0.3,1c-3.1-1.5-7.1-1.9-10.7-1.9c-7.4,0-15.1,2.4-16.7,9.9v-20.1h-9.9v19.4c-2.7-6.3-8.1-9.2-13.1-9.2
			c0,0,0,0,0,0c-4.5,0-9,1.7-11.4,5.4h-0.1v-15.6h-9.9v18.6c-3.1-5.3-8.8-8.4-16.1-8.4c-11.3,0-18.7,7.6-18.7,19.1
			c0,2.8,0.4,5.4,1.3,7.7h-10.1c-8.2,0-8-4-8-7.1v-29.9h-10c0,0,0.1,29.5,0,35.3c0,11.5,8.7,11.8,16.4,11.8h17v-2.7
			c3.1,2.5,7.3,3.9,12.2,3.9c7.3,0,13-3.1,16.1-8.4v7.4h9.4v-4.6h0.2c2.2,4,6.6,5.6,11.9,5.6c5.1,0,10.4-2.9,13.2-9.2v8.2h9.9v-4.2
			c2.1,3.5,6.1,5.2,10.9,5.2c4.4,0,9-1.2,12.2-4.5c0.1,1.2,0.4,2.4,0.7,3.5h10.1c-0.9-1.5-1.2-4.8-1.2-8.1v-10.9l6,19h10.3l6.2-24.3
			h0.1l6.5,24.3h10.2L278.8-600.2z"/>
		<line fill="none" stroke="#000000" stroke-miterlimit="10" x1="89.3" y1="-548.6" x2="278.6" y2="-548.6"/>
		<g>
			<path d="M89.7-516.8c-0.3-0.9-0.4-1.9-0.4-3.8c0-1.9,0.2-3,0.4-3.9c0.8-2.5,2.8-3.9,5.5-3.9c2.7,0,4.7,1.4,5.5,3.9
				c0.3,0.9,0.4,1.9,0.4,3.9c0,0.2-0.1,0.3-0.3,0.3h-9.7c-0.1,0-0.2,0.1-0.2,0.2c0,1.2,0.1,1.9,0.3,2.6c0.7,2,2.2,2.9,4.2,2.9
				c1.9,0,3.3-0.8,4.1-1.9c0.1-0.2,0.3-0.2,0.4-0.1l0.7,0.7c0.2,0.1,0.2,0.3,0,0.4c-1.1,1.5-3,2.5-5.4,2.5
				C92.5-512.9,90.5-514.3,89.7-516.8z M99.2-521.7c0.1,0,0.2-0.1,0.2-0.2c0-0.9-0.1-1.6-0.3-2.1c-0.6-1.8-2-2.8-4-2.8
				c-1.9,0-3.4,1-3.9,2.8c-0.2,0.6-0.3,1.2-0.3,2.1c0,0.1,0.1,0.2,0.2,0.2H99.2z"/>
			<path d="M108.1-523.8c0-3.7,0.2-5.1,0.6-6.2c1.1-3.2,3.4-4.7,6.7-4.7c2.9,0,5.2,1.3,6.4,3.9c0.1,0.2,0.1,0.3-0.1,0.4l-1,0.5
				c-0.2,0.1-0.3,0-0.4-0.1c-1-1.8-2.5-3-4.8-3c-2.6,0-4.2,1.2-5,3.5c-0.3,0.8-0.5,2.1-0.5,5.7s0.2,4.8,0.5,5.7
				c0.8,2.3,2.4,3.5,5,3.5c2.4,0,3.9-1.2,4.8-3c0.1-0.2,0.2-0.2,0.4-0.1l1,0.5c0.2,0.1,0.2,0.2,0.1,0.4c-1.2,2.6-3.5,3.9-6.4,3.9
				c-3.3,0-5.6-1.6-6.7-4.7C108.3-518.7,108.1-520.1,108.1-523.8z"/>
			<path d="M129.1-517.7c-0.4-1.1-0.6-2.5-0.6-6.1s0.2-5,0.6-6.1c1-3.1,3.4-4.8,6.8-4.8c3.4,0,5.8,1.6,6.8,4.8
				c0.4,1.1,0.6,2.5,0.6,6.1s-0.2,5-0.6,6.1c-1,3.1-3.4,4.8-6.8,4.8C132.5-512.9,130.1-514.6,129.1-517.7z M141-529.4
				c-0.8-2.3-2.5-3.6-5.1-3.6c-2.6,0-4.4,1.2-5.1,3.6c-0.3,0.8-0.5,2.2-0.5,5.6s0.2,4.8,0.5,5.6c0.8,2.3,2.5,3.6,5.1,3.6
				c2.6,0,4.3-1.2,5.1-3.6c0.3-0.8,0.5-2.2,0.5-5.6S141.3-528.6,141-529.4z"/>
			<path d="M151.4-534c0-0.2,0.1-0.3,0.3-0.3h1.2c0.2,0,0.4,0.1,0.5,0.3l6.9,15.1h0.1l6.7-15.1c0.1-0.2,0.2-0.3,0.4-0.3h1.2
				c0.2,0,0.3,0.1,0.3,0.3v20.5c0,0.2-0.1,0.3-0.3,0.3h-1.2c-0.2,0-0.3-0.1-0.3-0.3v-16.5h-0.1l-6.1,13.4c-0.1,0.2-0.2,0.3-0.6,0.3
				h-0.6c-0.3,0-0.4-0.1-0.5-0.3l-6.1-13.4h-0.1v16.5c0,0.2-0.1,0.3-0.3,0.3h-1.2c-0.2,0-0.3-0.1-0.3-0.3L151.4-534L151.4-534z"/>
			<path d="M178-534c0-0.2,0.1-0.3,0.3-0.3h1.2c0.2,0,0.4,0.1,0.5,0.3l6.9,15.1h0.1l6.7-15.1c0.1-0.2,0.2-0.3,0.4-0.3h1.2
				c0.2,0,0.3,0.1,0.3,0.3v20.5c0,0.2-0.1,0.3-0.3,0.3h-1.2c-0.2,0-0.3-0.1-0.3-0.3v-16.5h-0.1l-6.1,13.4c-0.1,0.2-0.2,0.3-0.6,0.3
				h-0.6c-0.3,0-0.4-0.1-0.5-0.3l-6.1-13.4h-0.1v16.5c0,0.2-0.1,0.3-0.3,0.3h-1.2c-0.2,0-0.3-0.1-0.3-0.3L178-534L178-534z"/>
			<path d="M204.6-534c0-0.2,0.1-0.3,0.3-0.3H217c0.2,0,0.3,0.1,0.3,0.3v1.1c0,0.2-0.1,0.3-0.3,0.3h-10.4c-0.1,0-0.2,0.1-0.2,0.2
				v7.5c0,0.1,0.1,0.2,0.2,0.2h9c0.2,0,0.3,0.1,0.3,0.3v1.1c0,0.2-0.1,0.3-0.3,0.3h-9c-0.1,0-0.2,0.1-0.2,0.2v7.8
				c0,0.1,0.1,0.2,0.2,0.2H217c0.2,0,0.3,0.1,0.3,0.3v1.1c0,0.2-0.1,0.3-0.3,0.3h-12.1c-0.2,0-0.3-0.1-0.3-0.3V-534z"/>
			<path d="M236.9-513.2c-0.2,0-0.3-0.1-0.4-0.3l-4.4-9.2h-0.3h-5.4c-0.1,0-0.2,0.1-0.2,0.2v9c0,0.2-0.1,0.3-0.3,0.3h-1.2
				c-0.2,0-0.3-0.1-0.3-0.3V-534c0-0.2,0.1-0.3,0.3-0.3h7.1c4,0,6.4,2.2,6.4,5.8c0,2.9-1.6,4.9-4.3,5.6l4.6,9.4
				c0.1,0.2,0,0.3-0.2,0.3H236.9z M236.4-528.5c0-2.6-1.7-4.2-4.7-4.2h-5.4c-0.1,0-0.2,0.1-0.2,0.2v8c0,0.1,0.1,0.2,0.2,0.2h5.4
				C234.7-524.4,236.4-525.8,236.4-528.5z"/>
			<path d="M245-523.8c0-3.7,0.2-5.1,0.6-6.2c1.1-3.2,3.4-4.7,6.7-4.7c2.9,0,5.2,1.3,6.4,3.9c0.1,0.2,0.1,0.3-0.1,0.4l-1,0.5
				c-0.2,0.1-0.3,0-0.4-0.1c-1-1.8-2.5-3-4.8-3c-2.6,0-4.2,1.2-5,3.5c-0.3,0.8-0.5,2.1-0.5,5.7s0.2,4.8,0.5,5.7
				c0.8,2.3,2.4,3.5,5,3.5c2.4,0,3.9-1.2,4.8-3c0.1-0.2,0.2-0.2,0.4-0.1l1,0.5c0.2,0.1,0.2,0.2,0.1,0.4c-1.2,2.6-3.5,3.9-6.4,3.9
				c-3.3,0-5.6-1.6-6.7-4.7C245.2-518.7,245-520.1,245-523.8z"/>
			<path d="M265.7-534c0-0.2,0.1-0.3,0.3-0.3h12.1c0.2,0,0.3,0.1,0.3,0.3v1.1c0,0.2-0.1,0.3-0.3,0.3h-10.4c-0.1,0-0.2,0.1-0.2,0.2
				v7.5c0,0.1,0.1,0.2,0.2,0.2h9c0.2,0,0.3,0.1,0.3,0.3v1.1c0,0.2-0.1,0.3-0.3,0.3h-9c-0.1,0-0.2,0.1-0.2,0.2v7.8
				c0,0.1,0.1,0.2,0.2,0.2h10.4c0.2,0,0.3,0.1,0.3,0.3v1.1c0,0.2-0.1,0.3-0.3,0.3H266c-0.2,0-0.3-0.1-0.3-0.3V-534z"/>
		</g>
	</g>
</g>
<g id="Layer_40">
</g>
</svg>
