<?xml version="1.0" encoding="utf-8"?>
<!-- Generator: Adobe Illustrator 17.1.0, SVG Export Plug-In . SVG Version: 6.00 Build 0)  -->
<!DOCTYPE svg PUBLIC "-//W3C//DTD SVG 1.1//EN" "http://www.w3.org/Graphics/SVG/1.1/DTD/svg11.dtd">
<svg version="1.1" xmlns="http://www.w3.org/2000/svg" xmlns:xlink="http://www.w3.org/1999/xlink" x="0px" y="0px"
	 viewBox="-87 244.3 174 60" enable-background="new -87 244.3 174 60" xml:space="preserve">
<g id="estimote">
</g>
<g id="Layer_2">
</g>
<g id="Spark">
</g>
<g id="Layer_4">
</g>
<g id="Layer_5">
</g>
<g id="Layer_6">
	<g>
		<g>
			<path fill="#434345" d="M-31.8,271.1v12.1c0,0.3-0.2,0.5-0.5,0.5h-1.1c-0.3,0-0.5-0.2-0.5-0.5v-6.6h-3.4v6.6
				c0,0.3-0.2,0.5-0.5,0.5h-1.1c-0.3,0-0.5-0.2-0.5-0.5v-12.1c0-2.1,1.7-3.8,3.9-3.8C-33.5,267.2-31.8,269-31.8,271.1z M-33.9,271.1
				c0-0.9-0.8-1.7-1.7-1.7c-1,0-1.7,0.8-1.7,1.7v3.3h3.4V271.1z"/>
			<path fill="#434345" d="M-20.6,267.8v1.1c0,0.3-0.2,0.5-0.5,0.5h-1.5v13.8c0,0.3-0.2,0.5-0.5,0.5h-1.1c-0.3,0-0.5-0.3-0.5-0.5
				v-13.8h-1.5c-0.3,0-0.5-0.2-0.5-0.5v-1.1c0-0.3,0.2-0.5,0.5-0.5h5.1C-20.9,267.2-20.6,267.5-20.6,267.8z"/>
			<path fill="#434345" d="M-10.2,267.8v15.4c0,0.3-0.2,0.5-0.5,0.5h-1.1c-0.3,0-0.5-0.2-0.5-0.5v-6.7h-3.4v6.7
				c0,0.3-0.2,0.5-0.5,0.5h-1.1c-0.3,0-0.5-0.2-0.5-0.5v-15.4c0-0.3,0.2-0.5,0.5-0.5h1.1c0.3,0,0.5,0.2,0.5,0.5v6.6h3.4v-6.6
				c0-0.3,0.3-0.5,0.5-0.5h1.1C-10.5,267.2-10.2,267.5-10.2,267.8z"/>
			<path fill="#434345" d="M-5,283.2c0,0.3-0.2,0.5-0.5,0.5h-1.1c-0.3,0-0.5-0.2-0.5-0.5v-15.4c0-0.3,0.2-0.5,0.5-0.5h1.1
				c0.3,0,0.5,0.2,0.5,0.5V283.2z"/>
			<path fill="#434345" d="M5.8,271v12.1c0,0.3-0.2,0.5-0.5,0.5H4.2c-0.3,0-0.5-0.3-0.5-0.5V271c0-0.9-0.8-1.7-1.7-1.7
				c-1,0-1.7,0.8-1.7,1.7v12.1c0,0.3-0.2,0.5-0.5,0.5h-1.1c-0.3,0-0.5-0.3-0.5-0.5V271c0-2.1,1.7-3.8,3.9-3.8
				C4,267.2,5.8,269,5.8,271z"/>
			<path fill="#434345" d="M16.5,272.6c0,1.1-0.5,2.1-1.2,2.8c0.7,0.7,1.2,1.7,1.2,2.8v5c0,0.3-0.2,0.5-0.5,0.5h-1.1
				c-0.3,0-0.5-0.3-0.5-0.5v-5c0-0.9-0.8-1.7-1.7-1.7H11v6.7c0,0.3-0.2,0.5-0.5,0.5H9.4c-0.3,0-0.5-0.3-0.5-0.5v-6.7v-2.1v-6.6
				c0-0.3,0.2-0.5,0.5-0.5h1.1c0.3,0,0.5,0.2,0.5,0.5v6.6h1.7c1,0,1.7-0.8,1.7-1.7v-4.9c0-0.3,0.2-0.5,0.5-0.5H16
				c0.3,0,0.5,0.2,0.5,0.5V272.6z"/>
			<path fill="#434345" d="M21.8,283.2c0,0.3-0.2,0.5-0.5,0.5h-1.1c-0.3,0-0.5-0.2-0.5-0.5v-15.4c0-0.3,0.2-0.5,0.5-0.5h1.1
				c0.3,0,0.5,0.2,0.5,0.5V283.2z"/>
			<path fill="#434345" d="M32.5,271v12.1c0,0.3-0.2,0.5-0.5,0.5h-1.1c-0.3,0-0.5-0.3-0.5-0.5V271c0-0.9-0.8-1.7-1.7-1.7
				c-1,0-1.7,0.8-1.7,1.7v12.1c0,0.3-0.2,0.5-0.5,0.5h-1.1c-0.3,0-0.5-0.3-0.5-0.5V271c0-2.1,1.7-3.8,3.9-3.8
				C30.8,267.2,32.5,269,32.5,271z"/>
			<path fill="#434345" d="M41.1,272.2v-1.1c0-1-0.8-1.7-1.7-1.7c-0.9,0-1.7,0.7-1.7,1.7v8.8c0,0.9,0.8,1.7,1.7,1.7
				c0.9,0,1.7-0.8,1.7-1.7v-3.4H40c-0.3,0-0.5-0.2-0.5-0.5v-1.1c0-0.3,0.2-0.5,0.5-0.5h2.8c0.3,0,0.5,0.2,0.5,0.5v5
				c0,2.1-1.7,3.8-3.8,3.8c-2.1,0-3.8-1.7-3.8-3.8v-8.8c0-2.1,1.7-3.8,3.8-3.8c2.1,0,3.8,1.7,3.8,3.8v1.1c0,0.3-0.2,0.5-0.5,0.5
				h-1.1C41.4,272.7,41.1,272.5,41.1,272.2z"/>
			<path fill="#434345" d="M56.9,271.1v12.1c0,0.3-0.2,0.5-0.5,0.5h-1.1c-0.3,0-0.5-0.2-0.5-0.5v-6.6h-3.4v6.6
				c0,0.3-0.2,0.5-0.5,0.5h-1.1c-0.3,0-0.5-0.2-0.5-0.5v-12.1c0-2.1,1.7-3.8,3.9-3.8C55.2,267.2,56.9,269,56.9,271.1z M54.8,271.1
				c0-0.9-0.8-1.7-1.7-1.7c-1,0-1.7,0.8-1.7,1.7v3.3h3.4V271.1z"/>
			<path fill="#434345" d="M67.7,271v1.6c0,2.1-1.7,3.9-3.8,3.9h-1.7v6.7c0,0.3-0.2,0.5-0.5,0.5h-1.1c-0.3,0-0.5-0.3-0.5-0.5v-6.7
				v-2.1v-6.6c0-0.3,0.3-0.5,0.5-0.5h3.3C66,267.2,67.7,269,67.7,271z M65.6,271c0-0.9-0.8-1.7-1.7-1.7h-1.7v5h1.7
				c0.9,0,1.7-0.8,1.7-1.7V271z"/>
			<path fill="#434345" d="M72.2,269.4v5h2.9c0.3,0,0.5,0.2,0.5,0.5v1.1c0,0.3-0.2,0.5-0.5,0.5h-2.9v5.1h2.9c0.3,0,0.5,0.2,0.5,0.5
				v1.1c0,0.3-0.2,0.5-0.5,0.5h-4c-0.6,0-1.1-0.5-1.1-1.1v-14.3c0-0.6,0.5-1.1,1.1-1.1h4c0.3,0,0.5,0.2,0.5,0.5v1.1
				c0,0.3-0.2,0.5-0.5,0.5H72.2z"/>
		</g>
		<path fill="#434345" d="M-50.2,260.5h-20.9c-2.5,0-4.5,2-4.5,4.5v20.9c0,2.5,2,4.5,4.5,4.5h20.9c2.5,0,4.5-2,4.5-4.5V265
			C-45.7,262.5-47.7,260.5-50.2,260.5z M-61.9,279.7c-1.2,0-1.5-0.7-2-0.8c0,0,2.2-1.1,3.5,0.1C-60.5,279-61.1,279.7-61.9,279.7z
			 M-49,285.5c-0.1,1.1-1.3,1.6-2.4,0.9c-1.5-1.1-4.4-1-4.9-0.9c-3.8,0.2-4.6-2.2-4.2-3.3c0.4-1.1,2-1.7,3.1-1.5
			c1.1,0.2,0.9,0.3,2.2,0.3c1.3,0,2-0.8,3.8-0.4c0-0.5,0-1.5-0.6-2.3c-1.2-1.5-4.2-0.8-6-1.3c-0.7-0.2-1.8-0.8-2.4-0.9
			c-0.8-0.1-2-0.4-3.2,0.2c0.3-0.9-0.5-1.6-0.4-1.7c0.3,0,2.9-1.3,3.2-1.8c0.9-1.7-1.8-4.1-4.8-4c-0.5,0-1.8,0.1-2.1,0.6
			c0,0.2,1.3-0.1,0.7,0.3c-0.3,0.2-4,2.9-3.7,5.2c0.1,0.5,0.2,1.4-0.1,2.6c-1.3,3.9-0.8,5.5-1.2,5.3c-0.8-2.1-0.2-3.7,0.2-5.3
			c0.2-0.8,0-1.5-0.1-2.3c-0.1-1.4-0.1-2.8,0.9-4c0.8-1,1.5-2,2.3-3c1.1-1.2,5.7-2.8,9.5,0c0.4,0.3,1.5,1.3,1.6,1.2
			c0.1-0.1,0.3-0.8,0.4-0.4c0.2,1.4,1.4,1.4,2.1,2.4c0.4,0.6,1,3,3.8,5.6c1.4,1.3,1.1,3.3,1.3,4.5c0.1,0.7,0.3,1.1,0.5,1.6
			C-49.1,283.9-49,284.1-49,285.5z M-57,278.9c0,0,2.2-1.1,3.5,0.1c0,0-0.7,0.7-1.5,0.7C-56.2,279.8-56.5,279-57,278.9z"/>
		<g>
			<path fill="#434345" d="M-57.9,282c0.3,0,2.3,0.4,2.2,1.6c-0.1,1.2-0.8,0.7-1.3,0.3c-0.6-0.4-2.2-0.8-2.2-0.8s-0.8-0.2-0.3-0.6
				C-59.1,282.1-58.3,282-57.9,282z"/>
			<path fill="#434345" d="M-52.9,282c-0.3,0-2.3,0.4-2.2,1.6c0.1,1.2,0.8,0.7,1.3,0.3c0.6-0.4,2.2-0.8,2.2-0.8s0.8-0.2,0.3-0.6
				C-51.8,282.1-52.6,282-52.9,282z"/>
		</g>
	</g>
</g>
<g id="Base">
</g>
<g id="yelp">
</g>
<g id="Yext">
</g>
<g id="Estimote">
</g>
<g id="Kloudless">
</g>
<g id="Microsoft">
</g>
<g id="Big_Viking">
</g>
<g id="Guides">
</g>
</svg>
