<?xml version="1.0" encoding="utf-8"?>
<!-- Generator: Adobe Illustrator 17.1.0, SVG Export Plug-In . SVG Version: 6.00 Build 0)  -->
<!DOCTYPE svg PUBLIC "-//W3C//DTD SVG 1.1//EN" "http://www.w3.org/Graphics/SVG/1.1/DTD/svg11.dtd">
<svg version="1.1" id="Layer_1" xmlns="http://www.w3.org/2000/svg" xmlns:xlink="http://www.w3.org/1999/xlink" x="0px" y="0px"
	 viewBox="0 0 800 274" enable-background="new 0 0 800 274" xml:space="preserve">
<g id="Layer.__206">
	<g id="shape">
		<path id="path" d="M256.1,79.1c-0.1,1.8-0.9,2.8-2.3,3.3c-2.7,1-5.6,1.7-8.4,2.3c-3-2.7-6.4-5-10.2-6.8
			c-5.3-5.8-9.9-9.9-13.7-12.3c-3.7-2.3-7.6-3.9-11.7-4.6c-4.1-0.8-8.2-0.7-12.1,0.2c-4.1,1-7.9,2.8-11.3,5.5
			c-7.6,1.6-13.5,4.3-17.7,7.9c-3.1,0.3-5.3,1.1-6.7,2.3c-5.2-0.8-10-2.1-14.5-3.4c-5-1.5-9-4.1-11-8.6c-4.8-10.7-8-25.1-9.8-43.2
			c-12.7,23.9-20.7,49.2-24.1,76c12.3,8.8,25.7,15.9,40.3,21.3c-1,3.8-1.6,7.5-2.1,11.4c-0.1,0.4,0.1,0.7,0.4,1c0.8,1,0.8,2,0,2.9
			c-1,1.1-2,2.2-2.8,3.3c-0.5,0.6-0.6,1.3-0.5,2.1l1,7.4c0.2,1.4,0.1,2.7-0.4,4l-7.7,21.9c3.4,0.1,6.8-0.1,10-0.8
			c-1.5,9.1-2.7,18.1-3.5,27.2c5.5-0.7,10.8-1.7,15.8-2.9c-0.7,6-1.1,12-1,18.2c6.4-0.7,12.6-1.6,18.8-2.7c1.7,8,3.8,16,6.2,23.9
			c7.3-2.1,14.2-4.6,20.8-7.6c8.6,9.1,18,17.1,28.2,23.9c9.6-7.5,18-15.5,25.4-24.1c3.4,3.6,7,7,10.8,10.2
			c2.9-7.4,5.2-15.1,6.9-23.1c4.8,1.7,9.4,3,13.7,3.9c-1.2-9.8-2.9-19.3-5-28.6c3.1,0.4,6,0.6,8.9,0.7l-25.5-62
			c1.5-1.9,3.4-3.5,5.6-5.3c0.4-0.3,0.3-0.7-0.1-1l-3.8-3l0,0c11.2-4.7,19.7-10.5,25.5-17.4c-6.8-24.9-18.7-46.1-35.8-63.6
			C254.3,52.2,255.6,65.5,256.1,79.1z M256.3,51c5.2,10.7,8.1,21.8,10.5,34.2c0.9,4.9-6.2-1.2-6.8-7.2
			C259.2,68.4,258.2,61.1,256.3,51z M240.3,84.2c8.7,6.6,13.8,15.8,15.4,27.5c-1.2,0.3-2.5,0.6-3.7,1.1l1-3.3
			c0.1-0.5-0.1-0.5-0.7-0.3c-2.7,1.3-5.2,2.8-7.5,4.6c-8.4-3.6-17.7-5.7-27.9-6.1c-4.2-3.5-9-6-14.2-7.5c-0.9-0.3-1.3-0.1-1.3,0.5
			v3.1c0,0.8-0.4,1.1-1.3,0.8c-5-1.5-10.2-2-15.4-1.6c-0.8,0.1-1.1,0.3-0.8,0.8l4.2,5.8c0.1,0.2,0.1,0.3,0.1,0.5
			c-12.8,2.5-26.8,6.9-41.8,13.1l0.8-3.9c0.6-0.1,1.2-0.3,1.9-0.5c3.3-1.2,6.7-3.6,10.3-7.4c2.3-2.4,4.2-5.1,5.7-8
			c1.5-2.9,2.4-6,2.8-9.2c0.7-5.4,0.6-9.7-0.2-13c-0.3-1.3-0.7-2.3-1.1-2.8c4.2-1,7.4-0.2,9.5,2.5c2.2,2.7,2.7,6.4,1.5,11
			c9.9-4,21.3-6.2,34.2-6.4c-0.9-11.9-6.8-18.4-17.5-19.5c13.7-7.4,34,2.5,43.3,25.2c3.9,2.3,7.5,5.4,10.7,9.2
			C246,95,243.4,89.7,240.3,84.2z M228.8,122.4c-1.5-2.7-3.1-5.1-4.8-7.3c6-0.8,11.3,0.2,15.7,3.1c-1.3,1.3-2.5,2.6-3.6,4
			c-0.6,0.9-0.7,2.4-0.1,4.4c0.5,1.4,1.9,2.9,4.2,4.5c4.7,3.4,9.5,6.7,14.3,9.7c1.1,0.7,1.9,0.5,2.6-0.4c0.9-1.5,1.5-3.1,1.9-5
			l4.3,11.4c-3-1.4-6.3-2.4-9.7-3c1.3,3.9,2.3,7.9,3,12c-3-2.2-6.2-4.1-9.6-5.7c1-2.2,1.6-4.1,1.6-5.9c0.1-1.3-0.5-2.3-1.5-2.8
			c0.4,2.6-1.3,5.4-5.2,8.4c-1.9,1.4-4.2,1.7-6.9,1c-7-2.2-12.9-4.9-17.4-8.3c-1.7-1.3-1-2.5,0.3-5.3c-1.4,1.2-2.9,2.6-4.3,4.1
			c-1.2,1.4-0.8,2.4,0.5,4.1c-11.1,3-22.2,6.7-33.5,11.3c2.4-6.1,4.3-12,5.7-17.8c-5.4-0.6-11-0.1-16.9,1.5l2.7-19.2
			c4.4-1.5,8.7-2.7,13-3.7l-3.8,5.4c-0.5,1-0.4,1.8,0.3,2.4c5.2,4.6,10.9,8.4,16.9,11.6c0.4,0.1,0.9,0.1,1.6-0.3
			c5.1-2.4,9.8-5,14.2-7.9c1.6-0.8,4-0.5,7.3,1c2.4,1.1,4.5,0.4,6.4-2.2C229.3,125.7,229.6,123.9,228.8,122.4z M244.6,129.8
			c0.9-0.3,1.7-0.5,2.5-0.6c0.5,1.5,0.9,2.6,1.7,3.9c0.7,1.1,1.7,1.4,2.2,0.3c0.5-1.4,0.8-3,0.8-4.8c0.5,0,1,0,1.5,0
			c1,0.1,1.8,0.5,2.4,1.4c1.5,2.2,1.5,4.8,0,7.8c-0.3,0.6-0.8,0.8-1.4,0.6c-3.7-1.6-7.1-3.9-10.1-6.8
			C243.5,130.7,243.6,130.2,244.6,129.8z M238.8,182.8c0-0.3,0.2-0.3,1-0.5c1.4-0.3,2.1-1.4,0.7-2.2c-5.8-3.4-14.2-4-25.1-2.5
			c-1.3,0.2-1.8,2,0.4,2.1h6.2l-4.5,8.6c-0.2,0.4-0.6,0.6-1.1,0.7l-9.2,0.5c-0.7,0-1.2-0.5-1.5-1.4l-3.8-11.7l29.8-11.2l15.8,11.9
			c-0.4,5.6-1.6,10.7-3.5,15.3l-3-1.3c-0.3-0.1-0.5-0.6-0.6-1.3L238.8,182.8z M181.3,71c1.2-0.5,2.4-0.7,3.4-0.7
			c1,0.1,1.7,0.4,1.9,1c0.2,0.6,0,1.3-0.7,2.1c-0.7,0.8-1.7,1.4-2.9,1.9c-1.2,0.5-2.4,0.7-3.4,0.7c-1-0.1-1.7-0.4-1.9-1
			c-0.2-0.6,0-1.3,0.7-2.1C179.1,72.2,180,71.5,181.3,71z M107.6,91.4c1.9-17.9,7.2-36.1,15.9-54.7c-4.5,18.1-7.8,35.6-9.6,52.6
			C113.3,94.9,107.2,95.7,107.6,91.4z M141.6,137.9c2.2-2.9,4.9-5.2,8.1-7c0.5-0.3,1-0.3,1.3,0c1.5,1.5,2.9,3,4,4.7l-1,4
			c-0.8-1.5-1.9-2.9-3.2-4.2c-0.5-0.6-1.1-0.6-1.9-0.2c-1.3,0.8-2.5,1.8-3.7,3c1.9-1,3-1,3.5-0.2c1.5,2.7,2.6,5.7,3.4,8.9l-3.5,13.6
			l-2.9-1.2c-0.5-0.3-0.9-0.7-1-1.3c-1.7-6.2-2.7-12.4-3.3-18.6C141.3,138.8,141.4,138.3,141.6,137.9z M212.7,125.8
			c0.9,0.5,0.7,1.1-0.5,1.9c-3.8,2.2-7.7,4.2-11.7,6c-0.8,0.4-1.5,0.4-2,0.2c-4.4-2.6-8.6-5.5-12.7-8.7c-0.6-0.5-0.7-1.1-0.3-1.8
			c0.8-1.5,1.6-2.9,2.7-4.2c0.6-0.8,1.6-1,3-0.7c2.9,0.7,5.7,1.5,8.4,2.3c0.6,2.6,1.5,5.1,2.6,7.5c0.6,1.2,1.6,1.2,2.3,0.1
			c1-1.6,1.7-3.3,2-5.3C208.6,124,210.7,124.9,212.7,125.8z"/>
	</g>
</g>
<g>
	<g>
		<path d="M344.4,145.3c0-5.8-6.4-8-7.6-8.3c1.2-0.3,6.4-2.3,6.4-8v-21.8c0-6.6-5.5-12-12-12h-26.4v83.8h27.5
			c12.3,0,12-12.6,12-12.6V145.3z M316.6,105.4h15v26.6h-15V105.4z M332.5,169h-16v-26.9h16V169z M355.9,178.9h11.5V95.1h-11.5
			V178.9z M407,95.1h-16.1c-6.6,0-12,5.4-12,12v59.7c0,6.6,5.5,12,12,12H407c6.5,0,12-5.4,12-12V137H399v10.3h9.2v21.8h-17.2v-63.7
			H407V125h12v-17.8C419.1,100.6,413.6,95.1,407,95.1z M465.5,161.4l-10.8-66.3h-12l15.5,83.8H473l14.9-83.8h-12L465.5,161.4z
			 M499.4,178.9h11.5V95.1h-11.5V178.9z M553.9,95.1l-15.7,40.2l-3.8,0V95.1h-12v83.8h12V145h13.8l4,33.9h11.5L560,148
			c-0.9-8.5-3.6-12.2-9.9-12.6l15.9-40.3H553.9z M577.4,178.9h11.5V95.1h-11.5V178.9z M629.6,95.1h-7.5c-5.4,0-8.1,2.1-9.8,6.3v-6.3
			h-12.1v83.8h12.1v-73.4h16.6v73.4h12.6v-71.7C641.7,100.6,636.2,95.1,629.6,95.1z M693.3,125v-17.8c0-6.6-5.5-12-12-12h-16.1
			c-6.5,0-12.1,5.4-12.1,12v59.7c0,6.6,5.5,12,12.1,12h16.1c6.6,0,12-5.4,12-12V137h-20.1v10.3h9.2v21.8h-17.2v-63.7h16.1V125H693.3
			z"/>
	</g>
</g>
</svg>
