<?xml version="1.0" encoding="utf-8"?>
<!-- Generator: Adobe Illustrator 17.1.0, SVG Export Plug-In . SVG Version: 6.00 Build 0)  -->
<!DOCTYPE svg PUBLIC "-//W3C//DTD SVG 1.1//EN" "http://www.w3.org/Graphics/SVG/1.1/DTD/svg11.dtd">
<svg version="1.1" xmlns="http://www.w3.org/2000/svg" xmlns:xlink="http://www.w3.org/1999/xlink" x="0px" y="0px"
	 viewBox="98 350 174 60" enable-background="new 98 350 174 60" xml:space="preserve">
<g id="estimote">
</g>
<g id="Pebble">
</g>
<g id="Spark">
</g>
<g id="Layer_4">
</g>
<g id="Layer_5">
</g>
<g id="Layer_6">
</g>
<g id="Base">
</g>
<g id="yelp">
</g>
<g id="Yext">
</g>
<g id="Estimote">
</g>
<g id="Kloudless">
</g>
<g id="Microsoft">
</g>
<g id="Big_Viking">
</g>
<g id="_x35_00px">
</g>
<g id="Magnet_Forensics">
</g>
<g id="Guides">
</g>
<g id="Wit.Ai" display="none">
</g>
<g id="Layer_18">
</g>
<g id="Kik">
</g>
<g id="Layer_20">
</g>
<g id="Affirm">
</g>
<g id="Shopify">
</g>
<g id="apple">
</g>
<g id="velocity">
</g>
<g id="pagerduty">
</g>
<g id="Layer_26">
</g>
<g id="bitalino">
	<g>
		<g>
			<g>
				<defs>
					<rect id="SVGID_37_" x="92.6" y="-369.1" width="112.5" height="41"/>
				</defs>
				<clipPath id="SVGID_2_">
					<use xlink:href="#SVGID_37_"  overflow="visible"/>
				</clipPath>
				<g clip-path="url(#SVGID_2_)">
					<g>
						<defs>
							<rect id="SVGID_43_" x="92.6" y="-369.1" width="112.5" height="41"/>
						</defs>
						<clipPath id="SVGID_3_">
							<use xlink:href="#SVGID_43_"  overflow="visible"/>
						</clipPath>
						<g clip-path="url(#SVGID_3_)">
							<g>
								<defs>
									<rect id="SVGID_49_" x="92.6" y="-369.1" width="112.5" height="41"/>
								</defs>
								<clipPath id="SVGID_4_">
									<use xlink:href="#SVGID_49_"  overflow="visible"/>
								</clipPath>
								<g clip-path="url(#SVGID_4_)">
									<g>
										<defs>
											<rect id="SVGID_55_" x="92.6" y="-369.1" width="112.5" height="41"/>
										</defs>
										<clipPath id="SVGID_5_">
											<use xlink:href="#SVGID_55_"  overflow="visible"/>
										</clipPath>
										<g clip-path="url(#SVGID_5_)">
											<g>
												<defs>
													<rect id="SVGID_61_" x="92.6" y="-369.1" width="112.5" height="41"/>
												</defs>
												<clipPath id="SVGID_6_">
													<use xlink:href="#SVGID_61_"  overflow="visible"/>
												</clipPath>
												<g clip-path="url(#SVGID_6_)">
													<g>
														<defs>
															<rect id="SVGID_67_" x="92.6" y="-369.1" width="112.5" height="41"/>
														</defs>
														<clipPath id="SVGID_7_">
															<use xlink:href="#SVGID_67_"  overflow="visible"/>
														</clipPath>
														<g id="g194" clip-path="url(#SVGID_7_)">
															<g>
																<defs>
																	<path id="SVGID_69_" d="M179.5-380.9c-1.5-0.8-2.5-2.3-2.5-4.1c0-2.3,1.7-4.3,4-4.6v1.4c-1.5,0.3-2.6,1.6-2.6,3.2
																		c0,1,0.4,1.9,1.2,2.5v-0.8h1.4v2.5v0.5c0,0,0,0,0,0l0,0C181-380.4,180.1-380.6,179.5-380.9"/>
																</defs>
																<clipPath id="SVGID_8_">
																	<use xlink:href="#SVGID_69_"  overflow="visible"/>
																</clipPath>
																<g id="g196" clip-path="url(#SVGID_8_)">
																	<g id="g202">
																		<defs>
																			
																				<rect id="SVGID_71_" x="-18.3" y="-533.2" transform="matrix(-0.7071 0.7071 -0.7071 -0.7071 -4.2858 -729.8545)" width="334.7" height="334.7"/>
																		</defs>
																		<clipPath id="SVGID_9_">
																			<use xlink:href="#SVGID_71_"  overflow="visible"/>
																		</clipPath>
																	</g>
																</g>
															</g>
														</g>
													</g>
												</g>
											</g>
										</g>
									</g>
								</g>
							</g>
						</g>
					</g>
				</g>
			</g>
		</g>
	</g>
</g>
<g id="TextNow">
</g>
<g id="Uber">
</g>
<g id="mars">
</g>
<g id="twilio">
</g>
<g id="wit-ai">
</g>
<g id="indiegogo">
</g>
<g id="Layer_34">
</g>
<g id="cisco">
	<g>
		<path id="path268" fill="#C4122E" d="M173.1,395.2h-2.8v-11h2.8V395.2z"/>
		<path id="path280" fill="#C4122E" d="M195.5,387.4c-0.1-0.1-1-0.6-2.3-0.6c-1.8,0-3,1.2-3,2.9c0,1.6,1.2,2.9,3,2.9
			c1.3,0,2.2-0.5,2.3-0.6v3c-0.3,0.1-1.3,0.4-2.5,0.4c-3.1,0-5.9-2.2-5.9-5.7c0-3.3,2.5-5.7,5.9-5.7c1.3,0,2.3,0.3,2.5,0.4V387.4z"
			/>
		<path id="path284" fill="#C4122E" d="M166.5,387.4c-0.1-0.1-1-0.6-2.3-0.6c-1.8,0-3,1.2-3,2.9c0,1.6,1.2,2.9,3,2.9
			c1.3,0,2.2-0.5,2.3-0.6v3c-0.3,0.1-1.3,0.4-2.5,0.4c-3.1,0-5.9-2.2-5.9-5.7c0-3.3,2.5-5.7,5.9-5.7c1.3,0,2.3,0.3,2.5,0.4V387.4z"
			/>
		<path id="path288" fill="#C4122E" d="M204.2,386.8c-1.6,0-2.9,1.3-2.9,2.9c0,1.6,1.2,2.9,2.9,2.9c1.6,0,2.9-1.3,2.9-2.9
			C207.1,388.1,205.8,386.8,204.2,386.8 M210,389.7c0,3.1-2.4,5.7-5.8,5.7c-3.4,0-5.8-2.5-5.8-5.7c0-3.1,2.4-5.7,5.8-5.7
			C207.6,384,210,386.6,210,389.7"/>
		<path id="path292_1_" fill="#C4122E" d="M183.6,386.7c0,0-1.2-0.3-2.2-0.3c-1.1,0-1.7,0.4-1.7,0.9c0,0.7,0.8,0.9,1.3,1l0.8,0.2
			c1.8,0.6,2.6,1.8,2.6,3.1c0,2.8-2.4,3.7-4.6,3.7c-1.5,0-2.9-0.3-3-0.3v-2.5c0.2,0.1,1.4,0.4,2.6,0.4c1.4,0,2-0.4,2-1
			c0-0.6-0.5-0.9-1.2-1.1c-0.2-0.1-0.4-0.1-0.6-0.2c-1.5-0.5-2.8-1.4-2.8-3.2c0-2.1,1.5-3.4,4.1-3.4c1.4,0,2.6,0.3,2.7,0.3V386.7z"
			/>
		<path id="path296" fill="#15495D" d="M155.2,372.4c0-0.8-0.6-1.4-1.4-1.4s-1.4,0.6-1.4,1.4v2.9c0,0.8,0.6,1.4,1.4,1.4
			s1.4-0.6,1.4-1.4V372.4z"/>
		<path id="path300" fill="#15495D" d="M162.7,368.6c0-0.8-0.6-1.4-1.4-1.4c-0.8,0-1.4,0.6-1.4,1.4v6.7c0,0.8,0.6,1.4,1.4,1.4
			c0.8,0,1.4-0.6,1.4-1.4V368.6z"/>
		<path id="path304" fill="#15495D" d="M170.3,363.4c0-0.8-0.6-1.4-1.4-1.4c-0.8,0-1.4,0.6-1.4,1.4V378c0,0.8,0.6,1.4,1.4,1.4
			c0.8,0,1.4-0.6,1.4-1.4V363.4z"/>
		<path id="path308" fill="#15495D" d="M177.9,368.6c0-0.8-0.6-1.4-1.4-1.4c-0.8,0-1.4,0.6-1.4,1.4v6.7c0,0.8,0.6,1.4,1.4,1.4
			c0.8,0,1.4-0.6,1.4-1.4V368.6z"/>
		<path id="path312" fill="#15495D" d="M185.4,372.4c0-0.8-0.6-1.4-1.4-1.4c-0.8,0-1.4,0.6-1.4,1.4v2.9c0,0.8,0.6,1.4,1.4,1.4
			c0.8,0,1.4-0.6,1.4-1.4V372.4z"/>
		<path id="path316_1_" fill="#15495D" d="M193,368.6c0-0.8-0.6-1.4-1.4-1.4c-0.8,0-1.4,0.6-1.4,1.4v6.7c0,0.8,0.6,1.4,1.4,1.4
			c0.8,0,1.4-0.6,1.4-1.4V368.6z"/>
		<path id="path320" fill="#15495D" d="M200.6,363.4c0-0.8-0.6-1.4-1.4-1.4c-0.8,0-1.4,0.6-1.4,1.4V378c0,0.8,0.6,1.4,1.4,1.4
			c0.8,0,1.4-0.6,1.4-1.4V363.4z"/>
		<path id="path324" fill="#15495D" d="M208.1,368.6c0-0.8-0.6-1.4-1.4-1.4c-0.8,0-1.4,0.6-1.4,1.4v6.7c0,0.8,0.6,1.4,1.4,1.4
			c0.8,0,1.4-0.6,1.4-1.4V368.6z"/>
		<path id="path328" fill="#15495D" d="M215.7,372.4c0-0.8-0.6-1.4-1.4-1.4c-0.8,0-1.4,0.6-1.4,1.4v2.9c0,0.8,0.6,1.4,1.4,1.4
			c0.8,0,1.4-0.6,1.4-1.4V372.4z"/>
		<path id="path332_1_" fill="#C4122E" d="M214.1,393.8v0.2h-0.5v1.3h-0.2v-1.3h-0.5v-0.2H214.1z"/>
		<path id="path336_1_" fill="#C4122E" d="M214.2,393.8h0.3l0.4,1.2h0l0.4-1.2h0.3v1.4h-0.2V394h0l-0.4,1.2h-0.2l-0.4-1.2h0v1.2
			h-0.2V393.8z"/>
	</g>
</g>
<g id="teespring">
</g>
<g id="sendgrid">
</g>
</svg>
