<?xml version="1.0" encoding="utf-8"?>
<!-- Generator: Adobe Illustrator 17.1.0, SVG Export Plug-In . SVG Version: 6.00 Build 0)  -->
<!DOCTYPE svg PUBLIC "-//W3C//DTD SVG 1.1//EN" "http://www.w3.org/Graphics/SVG/1.1/DTD/svg11.dtd">
<svg version="1.1" xmlns="http://www.w3.org/2000/svg" xmlns:xlink="http://www.w3.org/1999/xlink" x="0px" y="0px"
	 viewBox="282.6 70 174 60" enable-background="new 282.6 70 174 60" xml:space="preserve">
<g id="estimote">
</g>
<g id="Pebble">
</g>
<g id="Spark">
</g>
<g id="Layer_4">
</g>
<g id="Layer_5">
</g>
<g id="Layer_6">
</g>
<g id="Base">
</g>
<g id="yelp">
</g>
<g id="Yext">
</g>
<g id="Estimote">
</g>
<g id="Kloudless">
</g>
<g id="Microsoft">
</g>
<g id="Big_Viking">
</g>
<g id="_x35_00px">
</g>
<g id="Magnet_Forensics">
</g>
<g id="Guides">
</g>
<g id="Wit.Ai" display="none">
</g>
<g id="Layer_18">
</g>
<g id="Kik">
</g>
<g id="Layer_20">
</g>
<g id="Affirm">
</g>
<g id="Shopify">
</g>
<g id="apple">
</g>
<g id="velocity">
</g>
<g id="pagerduty">
</g>
<g id="Layer_26">
</g>
<g id="bitalino">
</g>
<g id="TextNow">
</g>
<g id="Uber">
</g>
<g id="mars">
</g>
<g id="twilio">
</g>
<g id="wit-ai">
</g>
<g id="indiegogo">
</g>
<g id="Layer_34">
</g>
<g id="cisco">
</g>
<g id="teespring">
	<g>
		<path fill="#3DA9DF" d="M329.7,78.4c0,0-0.1,0-0.1,0l0,0c-0.2-0.1-0.4-0.1-0.6-0.1c0,0,0,0,0,0l0,0l0,0l-0.1,0l-0.1,0l0,0l0,0l0,0
			l0,0l0,0l0,0l0,0l0,0l0,0l0,0l-0.1,0l0,0c-1.6-0.4-3.3-0.7-5-0.9c-1.7-0.2-3.5-0.4-5.3-0.4c-0.3,0-0.7,0-1.1,0
			c-1.1,0-2.2,0-3.3,0.1l-0.1,0l0,0.1c0.2,1.4-0.3,2.9-1.3,4c-0.8,0.9-2.1,1.5-3.3,1.6c-0.1,0-0.3,0-0.4,0c-1.3,0-2.5-0.5-3.4-1.3
			c-0.8-0.7-1.3-1.6-1.5-2.6l0-0.1l-0.1,0c-1.7,0.5-3.3,1-4.9,1.7c-1.6,0.6-3.1,1.3-4.6,2.1c-0.7,0.4-1.5,0.8-2.2,1.2
			c-0.4,0.2-0.8,0.5-1.1,0.7c0,0,0,0-0.1,0c-0.1,0-0.2,0.1-0.3,0.2c-0.2,0.1-0.2,0.1-0.2,0.2l4.3,9.4l0,0.1l0.1,0
			c1.5-0.9,3.1-1.7,4.8-2.4c0.1,0,0.2-0.1,0.3-0.1l3.4,14l0,0.1l0.1,0c0.9-0.5,1.6-0.8,2.4-1.1c0.9-0.4,1.7-0.7,2.5-0.9
			c1.5-0.4,3-0.6,4.6-0.6c0.2,0,0.5,0,0.7,0c0.7,0,1.7,0.1,2.6,0.5c0.4,0.2,0.7,0.3,1,0.6c0.3,0.3,0.4,0.6,0.4,1
			c0,0.8-0.6,1.5-1.2,1.9c-0.3,0.3-0.7,0.5-1,0.6c-0.4,0.2-0.7,0.4-1.1,0.5c-0.8,0.3-1.6,0.6-2.5,0.7c-0.9,0.2-1.8,0.3-2.6,0.3
			c-0.1,0-0.2,0-0.3,0c-0.1,0-0.2,0-0.3,0l-0.1,0c-0.2,0-0.4,0-0.7,0c-0.2,0-0.4-0.1-0.6-0.1l0,0c-0.2-0.1-0.3-0.1-0.3-0.1
			c0.1-0.1,0.2-0.2,0.4-0.3c0.2-0.1,0.3-0.2,0.5-0.3c0.4-0.2,0.7-0.3,1.2-0.5c0.8-0.2,1.7-0.4,2.6-0.5c0.4,0,0.9-0.1,1.3-0.1
			c0.1,0,0.1,0,0.2,0c0.1,0,0.3,0,0.5,0c0,0,0.1,0,0.1,0c0.1,0,0.1,0,0.2,0l0,0l0,0c0.5-0.2,2.1-0.8,2.5-1.8l0-0.1l-0.1,0
			c0,0,0,0-0.1,0c0,0,0,0,0,0c-0.2-0.1-0.4-0.1-0.6-0.2c-0.4-0.1-0.8-0.2-1.3-0.2c-0.5-0.1-1-0.1-1.5-0.1c-0.4,0-0.8,0-1.2,0.1
			c-1,0.1-1.8,0.2-2.6,0.4c-0.9,0.2-1.7,0.5-2.4,0.9c-0.9,0.5-1.5,1-1.8,1.6c-0.4,0.7-0.4,1.5,0,2.1c0.3,0.6,1,1.1,1.9,1.3
			c0.6,0.2,1.3,0.2,2.1,0.2c0.1,0,0.3,0,0.5,0c0.8,0,1.7-0.1,2.6-0.3c0.9-0.2,1.7-0.4,2.6-0.7c0.9-0.3,1.7-0.7,2.4-1.1
			c0.1-0.1,0.2-0.1,0.3-0.2l0.2-0.1c0,0,0,0.1,0,0.1c0,0.1,0,0.2,0,0.3c-0.1,0.4-0.2,0.7-0.5,1c-0.4,0.5-1,1-1.8,1.4
			c-0.7,0.4-1.5,0.6-2.4,0.9c-0.8,0.2-1.7,0.4-2.6,0.5c-0.2,0-0.4,0-0.5,0.1l-0.1,0c-0.1,0-0.1,0-0.2,0c0,0-0.1,0-0.1,0l-0.1,0
			l0,0.1l0.1,2.3l0,0.1l0.1,0l0.4,0c0.4,0,0.9-0.1,1.3-0.2c2-0.3,3.6-0.8,5-1.5c1.8-0.9,3-2,3.5-3.4c0.3-0.9,0.4-1.8,0.2-2.6
			c0-0.2-0.1-0.4-0.2-0.6c0,0,0-0.1-0.1-0.1c0-0.1-0.1-0.1-0.1-0.2c0,0,0-0.1,0.1-0.1c0,0,0,0,0-0.1c0.2-0.4,0.4-0.8,0.5-1.2
			c0.2-0.8,0.2-1.7-0.1-2.5c-0.3-0.7-0.8-1.4-1.6-1.9c-0.7-0.4-1.4-0.7-2.4-0.9c-0.8-0.2-1.7-0.3-2.6-0.3c-1.8,0-3.6,0.2-5.3,0.7
			c-0.9,0.2-1.8,0.6-2.9,1l-3.3-13.6l0-0.1l-0.1,0c-1.7,0.6-3.3,1.3-4.9,2.1c-0.2,0.1-0.5,0.2-0.7,0.4l-2.5-5.6c0,0,0.1-0.1,0.2-0.1
			c0,0,0,0,0,0c0.7-0.4,1.5-0.8,2.2-1.2c1.5-0.8,3.1-1.5,4.6-2.1c0.8-0.3,1.6-0.6,2.3-0.8c0.3,0.6,0.7,1.1,1.2,1.5
			c1,0.9,2.2,1.6,3.5,1.9c0.5,0.1,0.9,0.1,1.4,0.1c0.9,0,1.7-0.2,2.5-0.5c1.2-0.4,2.2-1.2,3-2.2c0.4-0.5,0.7-1,1-1.6
			c0.1-0.3,0.2-0.6,0.3-0.9c0-0.2,0.1-0.3,0.1-0.5c0-0.1,0-0.2,0-0.2c0,0,0,0,0,0l0,0c0.1,0,0.1,0,0.2,0c0.4,0,0.7,0,1.1,0
			c1.4,0,2.9,0.1,4.3,0.2c1.8,0.2,3.5,0.4,5.3,0.8l0,0c0.2,0,0.2,0.1,0.3,0.1l-1.2,6.1c-0.1,0-0.5-0.1-0.8-0.1c-0.2,0-0.3,0-0.4-0.1
			c-0.4-0.1-0.9-0.1-1.3-0.1c-0.9-0.1-1.8-0.1-2.7-0.2c-0.5,0-0.9,0-1.4,0c0,0-0.1,0-0.1,0l-0.1,0l0,0.1l-0.6,13.4
			c0,0,0,0.1,0.1,0.1c0,0,0,0,0,0c0.2,0.1,0.4,0.2,0.6,0.3c0.4,0.2,0.7,0.5,1,0.7c0.1,0.1,0.1,0.1,0.2,0.2c0,0,0.1,0.1,0.1,0.1
			c0,0,0,0,0,0.1l0.1,0.2l0-0.2l0.6-12.7c1.8,0.1,3.5,0.3,5.3,0.6c0.2,0,0.4,0.1,0.7,0.1l0.1,0c0.2,0,0.2,0,0.2,0h0.1l0-0.1
			l2.1-10.1C329.8,78.4,329.8,78.4,329.7,78.4z"/>
		<g>
			<path fill="#3DA9DF" d="M335.7,87.7l-2.6,0.7v3.5h-2.2v2h2.2v7.9c0,1.7,0.3,3,1,3.8c0.6,0.7,1.6,1.1,2.8,1.1c1,0,1.8-0.1,2.3-0.4
				l-0.1-2c-0.3,0.1-0.8,0.2-1.5,0.2c-1.5,0-2-1-2-2.8v-7.8h3.8v-2h-3.8V87.7z"/>
			<path fill="#3DA9DF" d="M347.9,91.5c-4.2,0-6.8,3.4-6.8,7.8s2.7,7.3,7.1,7.3c2.3,0,3.9-0.5,4.8-0.9l-0.4-1.9
				c-1,0.4-2.1,0.7-4,0.7c-2.6,0-4.9-1.5-4.9-5h10.1c0-0.3,0.1-0.7,0.1-1.2C353.9,95.7,352.7,91.5,347.9,91.5z M343.7,97.7
				c0.2-1.8,1.4-4.3,4-4.3c2.9,0,3.7,2.6,3.6,4.3H343.7z"/>
			<path fill="#3DA9DF" d="M362.9,91.5c-4.2,0-6.8,3.4-6.8,7.8s2.7,7.3,7.1,7.3c2.3,0,3.9-0.5,4.8-0.9l-0.4-1.9
				c-1,0.4-2.1,0.7-4,0.7c-2.6,0-4.9-1.5-4.9-5h10.1c0-0.3,0.1-0.7,0.1-1.2C368.8,95.7,367.6,91.5,362.9,91.5z M358.6,97.7
				c0.2-1.8,1.4-4.3,4-4.3c2.9,0,3.7,2.6,3.6,4.3H358.6z"/>
			<path fill="#3DA9DF" d="M376.7,97.9c-1.9-0.7-2.7-1.2-2.7-2.4c0-1.1,0.9-2,2.4-2c1.3,0,2.4,0.5,2.9,0.8l0.7-1.9
				c-0.8-0.5-2.1-0.9-3.5-0.9c-3.1,0-5,1.9-5,4.2c0,1.7,1.2,3.2,3.8,4.1c1.9,0.7,2.7,1.4,2.7,2.7c0,1.2-0.9,2.1-2.8,2.1
				c-1.3,0-2.7-0.5-3.5-1l-0.7,2c1,0.6,2.5,1,4.1,1c3.4,0,5.4-1.8,5.4-4.3C380.5,100.1,379.2,98.9,376.7,97.9z"/>
			<path fill="#3DA9DF" d="M391.4,91.5c-2.4,0-4.1,1-5.1,2.8h-0.1l-0.1-2.5h-2.4c0.1,1.4,0.1,2.9,0.1,4.7v15.6h2.6v-7.8h0.1
				c0.9,1.4,2.5,2.3,4.4,2.3c3.4,0,6.6-2.6,6.6-7.7C397.5,94.5,394.9,91.5,391.4,91.5z M390.5,104.6c-1.9,0-3.5-1.3-3.9-3.1
				c-0.1-0.3-0.1-0.7-0.1-1.1V98c0-0.4,0.1-0.7,0.2-1.1c0.5-2,2.2-3.2,4-3.2c2.8,0,4.3,2.5,4.3,5.4
				C394.9,102.3,393.3,104.6,390.5,104.6z"/>
			<path fill="#3DA9DF" d="M403.2,94.7h-0.1l-0.1-2.8h-2.3c0.1,1.3,0.1,2.8,0.1,4.5v9.9h2.6v-7.7c0-0.4,0.1-0.9,0.1-1.2
				c0.4-2,1.7-3.4,3.5-3.4c0.4,0,0.6,0,0.9,0.1v-2.5c-0.2-0.1-0.4-0.1-0.7-0.1C405.4,91.5,403.8,92.8,403.2,94.7z"/>
			<path fill="#3DA9DF" d="M412,86.2c-1,0-1.6,0.7-1.6,1.6c0,0.9,0.7,1.6,1.6,1.6c1,0,1.7-0.7,1.7-1.6C413.6,86.9,413,86.2,412,86.2
				z"/>
			<rect x="410.7" y="91.9" fill="#3DA9DF" width="2.6" height="14.4"/>
			<path fill="#3DA9DF" d="M424.8,91.5c-2.4,0-4.1,1.3-4.8,2.7H420l-0.1-2.4h-2.3c0.1,1.2,0.1,2.4,0.1,3.9v10.5h2.6v-8.7
				c0-0.4,0.1-0.9,0.2-1.2c0.4-1.5,1.8-2.7,3.5-2.7c2.5,0,3.3,1.9,3.3,4.3v8.3h2.6v-8.6C429.9,92.7,426.8,91.5,424.8,91.5z"/>
			<path fill="#3DA9DF" d="M444.3,91.9l-0.1,2.2h-0.1c-0.6-1.2-2-2.5-4.5-2.5c-3.3,0-6.5,2.8-6.5,7.7c0,4,2.6,7,6.1,7
				c2.2,0,3.8-1.1,4.6-2.4h0.1v1.6c0,3.6-2,5-4.6,5c-1.8,0-3.3-0.5-4.2-1.1l-0.7,2c1.2,0.8,3.1,1.2,4.8,1.2c1.8,0,3.8-0.4,5.2-1.7
				c1.4-1.2,2.1-3.3,2.1-6.6v-8.4c0-1.8,0.1-2.9,0.1-4H444.3z M443.9,100.2c0,0.4-0.1,1-0.2,1.4c-0.6,1.7-2,2.7-3.6,2.7
				c-2.8,0-4.3-2.4-4.3-5.2c0-3.3,1.8-5.5,4.3-5.5c1.9,0,3.2,1.3,3.7,2.8c0.1,0.4,0.1,0.7,0.1,1.2V100.2z"/>
		</g>
	</g>
</g>
<g id="sendgrid">
</g>
</svg>
