<?xml version="1.0" encoding="utf-8"?>
<!-- Generator: Adobe Illustrator 17.1.0, SVG Export Plug-In . SVG Version: 6.00 Build 0)  -->
<!DOCTYPE svg PUBLIC "-//W3C//DTD SVG 1.1//EN" "http://www.w3.org/Graphics/SVG/1.1/DTD/svg11.dtd">
<svg version="1.1" xmlns="http://www.w3.org/2000/svg" xmlns:xlink="http://www.w3.org/1999/xlink" x="0px" y="0px"
	 viewBox="-276.3 420 174 60" enable-background="new -276.3 420 174 60" xml:space="preserve">
<g id="estimote">
</g>
<g id="Pebble">
</g>
<g id="Spark">
</g>
<g id="Layer_4">
</g>
<g id="Layer_5">
</g>
<g id="Layer_6">
</g>
<g id="Base">
</g>
<g id="yelp">
</g>
<g id="Yext">
</g>
<g id="Estimote">
</g>
<g id="Microsoft">
</g>
<g id="Big_Viking">
</g>
<g id="_x35_00px">
</g>
<g id="Magnet_Forensics">
</g>
<g id="Guides">
</g>
<g id="Wit.Ai" display="none">
</g>
<g id="Layer_18">
</g>
<g id="Kik">
</g>
<g id="Layer_20">
</g>
<g id="Affirm">
</g>
<g id="Shopify">
</g>
<g id="apple">
</g>
<g id="velocity">
</g>
<g id="pagerduty">
</g>
<g id="Layer_26">
</g>
<g id="bitalino">
</g>
<g id="TextNow">
</g>
<g id="Uber">
</g>
<g id="mars">
</g>
<g id="twilio">
</g>
<g id="wit-ai">
</g>
<g id="indiegogo">
</g>
<g id="Layer_34">
</g>
<g id="cisco">
</g>
<g id="teespring">
</g>
<g id="sendgrid">
</g>
<g id="kloudless">
</g>
<g id="uwaterloo">
</g>
<g id="loblaws">
</g>
<g id="Layer_40">
</g>
<g id="Layer_41">
</g>
<g id="conrad">
</g>
<g id="ziggeo">
</g>
<g id="n36">
</g>
<g id="communitech">
</g>
<g id="Layer_46">
	<g id="layer1" transform="translate(4636.4128,-2865.2086)">
		
			<linearGradient id="path4423_1_" gradientUnits="userSpaceOnUse" x1="-9506.3418" y1="-198.4392" x2="-9506.3418" y2="-216.3165" gradientTransform="matrix(1.3509 0 0 -1.3509 7979.521 3031.4768)">
			<stop  offset="0" style="stop-color:#196EEF"/>
			<stop  offset="0.5" style="stop-color:#186DEE"/>
			<stop  offset="1" style="stop-color:#1065E7"/>
		</linearGradient>
		<path id="path4423" fill="url(#path4423_1_)" d="M-4859.1,3315.7h4.2v5.9c-1.3,0.4-2.9,0.6-4.6,0.6c-6.9,0-11-5.9-11-11.7
			c0-5.7,3.7-9.7,8.8-9.7c3.2,0,5.1,1.1,6.8,2.6v1.9l3.2-3.2c-2-1.4-4.9-2.6-9.1-2.6c-9.1,0-13.3,6.5-13.3,11.9
			c0,7.6,5.6,12.2,12.5,12.2c3.4,0,6.4-0.5,9.9-1.5v-6c0-0.3,0.1-0.5,0.3-0.7l1.1-1.1h-7.4L-4859.1,3315.7z"/>
		
			<linearGradient id="path4425_1_" gradientUnits="userSpaceOnUse" x1="-9490.5488" y1="-204.5173" x2="-9490.5488" y2="-216.0771" gradientTransform="matrix(1.3509 0 0 -1.3509 7979.521 3031.4768)">
			<stop  offset="0" style="stop-color:#DE5744"/>
			<stop  offset="0.5" style="stop-color:#DB4632"/>
			<stop  offset="1" style="stop-color:#D13D29"/>
		</linearGradient>
		<path id="path4425" fill="url(#path4425_1_)" d="M-4840.5,3307.8c-5.2,0-8.5,3.8-8.5,7.9c0,3.5,2.6,7.7,7.9,7.7
			c5.1,0,8.2-3.8,8.2-8C-4832.8,3311.5-4835.9,3307.8-4840.5,3307.8L-4840.5,3307.8z M-4841.3,3308.9c3.7,0,5.3,4.8,5.3,8.2
			c0,5.1-3.8,5.2-4.3,5.2c-1.8,0-3-1.1-3.9-2.4c-0.8-1.3-1.6-3.7-1.6-6c0-2.3,0.8-3.4,2-4.3
			C-4842.8,3309-4841.9,3308.9-4841.3,3308.9L-4841.3,3308.9z"/>
		
			<linearGradient id="path4429_1_" gradientUnits="userSpaceOnUse" x1="-9465.5811" y1="-204.5173" x2="-9465.5811" y2="-223.078" gradientTransform="matrix(1.3509 0 0 -1.3509 7979.521 3031.4768)">
			<stop  offset="0" style="stop-color:#1A6FEF"/>
			<stop  offset="0.25" style="stop-color:#1E72EF"/>
			<stop  offset="0.5" style="stop-color:#166BEC"/>
			<stop  offset="0.75" style="stop-color:#1267E9"/>
			<stop  offset="1" style="stop-color:#1063E5;stop-opacity:0.87"/>
		</linearGradient>
		<path id="path4429" fill="url(#path4429_1_)" d="M-4806.2,3307.8c-4.6,0-7.1,2.9-7.1,6.1c0,2.5,1.8,5.2,5.4,5.2h0.9
			c0,0-0.3,0.6-0.3,1.2c0,0.9,0.3,1.4,1,2.1c-6.3,0.4-8.8,2.9-8.8,5.6c0,2.4,2.3,4.7,7.1,4.7c5.7,0,8.6-3.1,8.6-6.2
			c0-2.2-1.1-3.4-3.8-5.4c-0.8-0.6-1-1-1-1.5c0-0.7,0.4-1.1,0.5-1.3c0.3-0.3,0.7-0.6,0.9-0.7c0.9-0.8,2.2-1.9,2.2-4.2
			c0-1.6-0.7-2.9-2.2-4.2h1.8l1.4-1.4L-4806.2,3307.8L-4806.2,3307.8z M-4807.5,3308.8c0.8,0,1.5,0.3,2.3,0.9
			c0.8,0.7,2.1,2.7,2.1,5.1c0,2.6-2,3.3-3.1,3.3c-0.5,0-1.2-0.2-1.7-0.5c-1.2-0.8-2.4-2.9-2.4-5.4
			C-4810.4,3310-4809.1,3308.8-4807.5,3308.8z M-4805.6,3323.5c0.3,0,0.6,0,0.6,0s0.8,0.6,1.4,1c1.3,1.1,2.2,1.9,2.2,3.3
			c0,2-1.8,3.5-4.8,3.5c-3.3,0-5.8-1.5-5.8-4C-4812.1,3325.3-4810.3,3323.5-4805.6,3323.5L-4805.6,3323.5z"/>
		
			<linearGradient id="path4433_1_" gradientUnits="userSpaceOnUse" x1="-9456.6768" y1="-198.764" x2="-9456.6768" y2="-215.7523" gradientTransform="matrix(1.3509 0 0 -1.3509 7979.521 3031.4768)">
			<stop  offset="0" style="stop-color:#0AA561"/>
			<stop  offset="0.5" style="stop-color:#009B58"/>
			<stop  offset="1" style="stop-color:#00914B"/>
		</linearGradient>
		<path id="path4433" fill="url(#path4433_1_)" d="M-4798.4,3322.9h6.3l1-1l-1.8-0.2c-0.5-0.1-0.8-0.5-0.8-0.9v-19
			c0-0.4,0.2-0.6,0.3-0.7l1.1-1.1h-5.4l-1.4,1.4h2.1v19.7c0,0.3-0.1,0.5-0.3,0.7L-4798.4,3322.9z"/>
		
			<linearGradient id="path4435_1_" gradientUnits="userSpaceOnUse" x1="-9448.4619" y1="-204.5173" x2="-9448.4619" y2="-216.0453" gradientTransform="matrix(1.3509 0 0 -1.3509 7979.521 3031.4768)">
			<stop  offset="0" style="stop-color:#DE5644"/>
			<stop  offset="0.5" style="stop-color:#DA4531"/>
			<stop  offset="1" style="stop-color:#CE3A28"/>
		</linearGradient>
		<path id="path4435" fill="url(#path4435_1_)" d="M-4783.6,3307.8c-3.5,0-7.2,2.7-7.2,7.5c0,4,2.7,8.1,7.7,8.1
			c1.2,0,2.3-0.2,3.2-0.6c1-0.5,2-1.2,2.7-2.2c-1.4,0.7-2.5,1.1-4,1.1c-2.8,0-5.5-2-6.5-5.8l9.9-4
			C-4778.3,3309.8-4779.9,3307.8-4783.6,3307.8L-4783.6,3307.8z M-4784.3,3308.9c1.9,0,3.2,1.5,3.2,2.8c0,0.4-0.2,0.6-0.7,0.8
			l-6.1,2.5c0,0-0.2-0.8-0.2-1.6C-4788,3309.8-4785.5,3308.9-4784.3,3308.9L-4784.3,3308.9z"/>
		
			<linearGradient id="path4439_1_" gradientUnits="userSpaceOnUse" x1="-9477.3809" y1="-204.5423" x2="-9477.3809" y2="-216.0543" gradientTransform="matrix(1.3509 0 0 -1.3509 7979.521 3031.4768)">
			<stop  offset="0" style="stop-color:#FFC01A"/>
			<stop  offset="0.5" style="stop-color:#FFBA03"/>
			<stop  offset="1" style="stop-color:#FFB300"/>
		</linearGradient>
		<path id="path4439" fill="url(#path4439_1_)" d="M-4822.7,3307.8c-5.2,0-8.5,3.8-8.5,7.9c0,3.5,2.6,7.7,7.9,7.7
			c5.1,0,8.2-3.8,8.2-8C-4815,3311.5-4818.1,3307.8-4822.7,3307.8L-4822.7,3307.8z M-4823.5,3308.9c3.7,0,5.3,4.8,5.3,8.2
			c0,5.1-3.8,5.2-4.3,5.2c-1.8,0-3-1.1-3.9-2.4c-0.8-1.3-1.6-3.7-1.6-6c0-2.3,0.8-3.4,2-4.3
			C-4825.1,3309-4824.1,3308.9-4823.5,3308.9L-4823.5,3308.9z"/>
	</g>
</g>
<g id="Backtrack">
</g>
<g id="Lani">
</g>
<g id="Taplytics">
</g>
</svg>
