<?xml version="1.0" encoding="utf-8"?>
<!-- Generator: Adobe Illustrator 18.0.0, SVG Export Plug-In . SVG Version: 6.00 Build 0)  -->
<!DOCTYPE svg PUBLIC "-//W3C//DTD SVG 1.1//EN" "http://www.w3.org/Graphics/SVG/1.1/DTD/svg11.dtd">
<svg version="1.1" xmlns="http://www.w3.org/2000/svg" xmlns:xlink="http://www.w3.org/1999/xlink" x="0px" y="0px"
	 viewBox="0 0 1000 1000" enable-background="new 0 0 1000 1000" xml:space="preserve">
<g id="Layer_2">
	<rect x="-0.1" fill="#FF006A" width="1000" height="1000"/>
</g>
<g id="Layer_4">
</g>
<g id="Layer_1">
</g>
<g id="Layer_3">
	<rect x="187.5" y="771.8" fill="none" width="648.1" height="135"/>
	<text transform="matrix(1 0 0 1 187.5074 855.4087)" fill="#FFFFFF" font-family="'OpenSans-Semibold'" font-size="110">snack hacks</text>
</g>
<g id="Layer_5">
	<path fill="#010002" d="M382.5,253.4c0,0-12.6-62.8-1.3-79c19.7-27.9,70.1-57.3,129.2-57.3c57.2,0,110.7,29.2,129.4,57.9
		c10.7,16.4-0.6,78.4-0.6,78.4H382.5z"/>
	<path d="M394.1,349.1c-35.2,42.7-158.9,35.2-174.6,116.2c-23.9,123,53,184,95.5,199.9c55.3,20.7,148.5,29.9,193.8,30.2
		c46.7,0.4,139.4-3.3,193.9-23.4c42.8-15.7,115-81.4,93.7-206.7c-14-82.3-141.1-73.5-172-116.2c-2.1-2.9,2.6-14.1,2.6-14.1H392.6
		L394.1,349.1z"/>
	<path fill="#FFFFFF" d="M509,234.2c0,0-31.1-50.6-78.5-50.6c-65.4,0-48,69.9-44.8,93.1c3.4,24.6,8.3,72.5,8.3,72.5h230.4
		c0,0,8.8-47.5,11.9-71.2c3.1-24.6,17.6-94.3-47.7-94.3C542.4,183.6,509,234.2,509,234.2z"/>
	<ellipse fill="#010002" cx="452.5" cy="248.5" rx="5.4" ry="4.3"/>
	<ellipse fill="#010002" cx="567.1" cy="248.2" rx="5.4" ry="4.1"/>
	<path fill="#FFE736" d="M480.3,284.8c0,2.8,8.7,3,14.7,4.3c4.4,0.9,6.4,4.9,13.4,4.9c8.3,0,10.3-4,14.9-4.9c8-1.6,13.2-1,13.2-4.3
		c0-5-12.6-9.1-28.1-9.1C492.9,275.7,480.3,279.8,480.3,284.8z"/>
	<g>
		<path fill="#FFFFFF" d="M394.1,349c-35.2,42.7-111.4,37.1-133.4,109.9c-26,86,33.6,135.7,76.1,151.6c55.3,20.7,128.6,24,172,23.6
			c45.5-0.5,125.5-5.7,180-25.7c42.8-15.7,90.7-64.3,66.7-151.9c-19.6-71.4-100.1-64.8-131-107.5c-2.1-2.9,2.6-14.1,2.6-14.1H392.6
			L394.1,349z"/>
	</g>
	<g>
		<circle fill="#FFE736" cx="276.8" cy="628.8" r="52.7"/>
		<path fill="#FFE736" d="M297.1,580.2c0,0-56-30.4-73.6-28.8c-8.7,0.8-33.3,10.4-32.7,22.6c0.8,16.4,13.1,15.1,13,22.4
			c-0.1,8.4-12.3,17.2-13.3,25.6c-1,8.6,13.7,15,13.7,23.8c0,7.8-12.2,13.9-11.5,21.6c0.9,9.3,11.2,28.2,28.8,28.2
			c21.6,0,70.8-16.4,70.8-16.4"/>
	</g>
	<g>
		<circle fill="#FFE736" cx="722.9" cy="623.5" r="52.7"/>
		<path fill="#FFE736" d="M702.7,672.1c0,0,56,30.4,73.6,28.8c8.7-0.8,33.3-10.4,32.7-22.6c-0.8-16.4-13.1-15.1-13-22.4
			c0.1-8.4,12.3-17.2,13.3-25.6c1-8.6-13.7-15-13.7-23.8c0-7.8,12.2-13.9,11.5-21.6c-0.9-9.3-11.2-28.2-28.8-28.2
			c-21.6,0-70.8,16.4-70.8,16.4"/>
	</g>
	<g>
		<circle fill="#E6943B" cx="638.5" cy="487" r="37.4"/>
		<path fill="#FF006A" d="M672.2,487c0.5,9.2-3.8,11.7-5.9,16.7c-4.1,9.6-6.9,9.8-14.1,12.7c-3.9,1.6-9.2,4.3-13.7,4.3
			c-6.2,0-11.4-3.6-16.8-5.9c-9.8-4.3-10.7-9.2-13.5-16c-1.6-4-3.5-7.3-3.5-11.8c0-5.5,0.8-10.8,5.4-15.8
			c4.4-4.7,4.8-11.1,13.2-13.7c5.6-1.8,8.9-4.2,15.1-4.2c6.9,0,11.1,2.8,17.3,5.3c5.3,2.2,7.6,6.8,10.2,11.9
			C668.5,475,671.9,481.4,672.2,487z"/>
		<circle fill="#FFFFFF" cx="638.5" cy="487" r="12.5"/>
	</g>
	<path d="M752.3,431c-21.4-17.7-95.6,56.4-95.6,56.4s99.6,33.6,115.5,9.4C780.2,484.7,768.9,444.6,752.3,431z"/>
	<path d="M260.4,431.8c21.4-17.7,95.6,56.4,95.6,56.4s-99.6,33.6-115.5,9.4C232.5,485.5,243.9,445.4,260.4,431.8z"/>
</g>
<g id="Layer_6">
</g>
<g id="Layer_7">
</g>
</svg>
