<?xml version="1.0" encoding="utf-8"?>
<!-- Generator: Adobe Illustrator 18.0.0, SVG Export Plug-In . SVG Version: 6.00 Build 0)  -->
<!DOCTYPE svg PUBLIC "-//W3C//DTD SVG 1.1//EN" "http://www.w3.org/Graphics/SVG/1.1/DTD/svg11.dtd">
<svg version="1.1" xmlns="http://www.w3.org/2000/svg" xmlns:xlink="http://www.w3.org/1999/xlink" x="0px" y="0px"
	 viewBox="0 0 1000 1000" enable-background="new 0 0 1000 1000" xml:space="preserve">
<g id="Layer_2">
</g>
<g id="Layer_4">
</g>
<g id="Layer_1">
	<path fill="#010002" d="M345.9,313.3c0,0-15.7-78.2-1.6-98.3c24.5-34.7,87.3-71.3,160.8-71.3c71.1,0,137.8,36.4,161,72
		c13.3,20.4-0.7,97.6-0.7,97.6H345.9z"/>
	<path d="M360.3,432.3C316.5,485.5,162.6,476.1,143,577c-29.8,153,66,228.9,118.8,248.7c68.8,25.7,184.9,37.1,241.2,37.6
		c58.1,0.5,173.5-4.1,241.3-29.1C797.6,814.7,887.5,733,861,577c-17.4-102.4-175.6-91.5-214-144.7c-2.6-3.6,3.2-17.5,3.2-17.5H358.5
		L360.3,432.3z"/>
	<path fill="#FFFFFF" d="M503.4,289.4c0,0-38.7-63-97.7-63c-81.3,0-59.7,86.9-55.7,115.8c4.3,30.6,10.4,90.2,10.4,90.2H647
		c0,0,11-59.1,14.8-88.7c3.9-30.7,21.9-117.3-59.4-117.3C544.9,226.3,503.4,289.4,503.4,289.4z"/>
	<ellipse fill="#010002" cx="433" cy="307.1" rx="6.7" ry="5.4"/>
	<ellipse fill="#010002" cx="575.7" cy="306.7" rx="6.7" ry="5.1"/>
	<path fill="#FFF27B" d="M467.7,352.3c0,3.5,10.9,3.8,18.3,5.3c5.5,1.1,8,6,16.7,6c10.3,0,12.8-4.9,18.6-6c10-1.9,16.4-1.2,16.4-5.3
		c0-6.3-15.7-11.3-35-11.3C483.3,341,467.7,346.1,467.7,352.3z"/>
	<g>
		<path fill="#FFFFFF" d="M360.3,432.2c-43.8,53.2-138.6,46.2-166,136.8C162,676,236.1,737.9,289,757.7c68.8,25.7,160,29.9,214,29.3
			c56.6-0.6,156.2-7,224-32c53.3-19.6,112.9-80,83-189c-24.3-88.8-124.6-80.6-163-133.8c-2.6-3.6,3.2-17.5,3.2-17.5H358.5
			L360.3,432.2z"/>
	</g>
	<g>
		<circle fill="#FFF27B" cx="214.4" cy="780.4" r="65.6"/>
		<path fill="#FFF27B" d="M239.6,719.9c0,0-69.7-37.9-91.6-35.8c-10.8,1-41.5,12.9-40.7,28.1c1,20.4,16.3,18.8,16.2,27.9
			c-0.1,10.4-15.3,21.5-16.5,31.8c-1.2,10.7,17,18.7,17,29.7c0,9.6-15.2,17.2-14.3,26.8c1.1,11.6,14,35.2,35.8,35.2
			c26.8,0,88.1-20.4,88.1-20.4"/>
	</g>
	<g>
		<circle fill="#FFF27B" cx="769.6" cy="773.7" r="65.6"/>
		<path fill="#FFF27B" d="M744.3,834.3c0,0,69.7,37.9,91.6,35.8c10.8-1,41.5-12.9,40.7-28.1c-1-20.4-16.3-18.8-16.2-27.9
			c0.1-10.4,15.3-21.5,16.5-31.8c1.2-10.7-17-18.7-17-29.7c0-9.6,15.2-17.2,14.3-26.8c-1.1-11.6-14-35.2-35.8-35.2
			c-26.8,0-88.1,20.4-88.1,20.4"/>
	</g>
	<g>
		<circle fill="#E6943B" cx="664.5" cy="603.9" r="46.5"/>
		<path fill="#FF006A" d="M706.5,603.9c0.6,11.4-4.7,14.6-7.4,20.8c-5.1,12-8.6,12.2-17.6,15.8c-4.9,2-11.5,5.3-17.1,5.3
			c-7.8,0-14.2-4.5-20.9-7.4c-12.1-5.3-13.3-11.4-16.8-19.9c-2-4.9-4.4-9-4.4-14.7c0-6.8,1-13.5,6.7-19.7c5.4-5.9,6-13.8,16.5-17.1
			c6.9-2.2,11-5.3,18.8-5.3c8.6,0,13.8,3.5,21.6,6.6c6.6,2.7,9.5,8.4,12.8,14.8C701.8,589,706.1,596.9,706.5,603.9z"/>
		<circle fill="#FFFFFF" cx="664.5" cy="603.9" r="15.5"/>
	</g>
	<path d="M806.2,534.2c-26.6-22-119,70.2-119,70.2S811.2,646.1,831,616C840.9,601,826.7,551.2,806.2,534.2z"/>
	<path d="M193.9,535.2c26.6-22,119,70.2,119,70.2S188.9,647.1,169.1,617C159.2,602,173.4,552.2,193.9,535.2z"/>
</g>
<g id="Layer_3">
</g>
<g id="Layer_5">
</g>
<g id="Layer_6">
</g>
<g id="Layer_7">
</g>
</svg>
